<svg xmlns="http://www.w3.org/2000/svg" width="64.046" height="12.044" viewBox="0 0 64.046 12.044"><g transform="translate(0 -0.02)"><path d="M517.64,23.8a2.162,2.162,0,0,0-.834-.563,2.822,2.822,0,0,0-.987-.174,2.406,2.406,0,0,0-1.2.271,2.636,2.636,0,0,0-.7.535.72.72,0,0,0-.4-.514,1.723,1.723,0,0,0-.785-.153,7.45,7.45,0,0,0-.855.1s.191,2.174.191,4.162c0,1.69-.061,4.958-.061,4.958s.665-.268,1.012-.417a2.328,2.328,0,0,0,.8-.524,1.575,1.575,0,0,0,.2-1.037L514,29.384a1.056,1.056,0,0,0,.129.137,1.324,1.324,0,0,0,.322.222,2.8,2.8,0,0,0,.51.2,2.472,2.472,0,0,0,.707.09,3.063,3.063,0,0,0,.973-.167,2.232,2.232,0,0,0,.9-.574,3.03,3.03,0,0,0,.651-1.111,5.349,5.349,0,0,0,.253-1.787,4.939,4.939,0,0,0-.217-1.571,2.805,2.805,0,0,0-.581-1.029Zm-1.527,4.2a1.142,1.142,0,0,1-1.053.555,1.4,1.4,0,0,1-.67-.152,2.112,2.112,0,0,1-.4-.28c-.022-1,.039-2.55.053-2.75a1.034,1.034,0,0,1,.214-.637,1.11,1.11,0,0,1,.8-.253,1.392,1.392,0,0,1,.658.146,1.117,1.117,0,0,1,.435.41,1.886,1.886,0,0,1,.235.626,4.074,4.074,0,0,1,.07.778A3.035,3.035,0,0,1,516.113,27.995Z" transform="translate(-465.879 -20.835)" fill="#ff6900"/><path d="M5.839,21.755A4.564,4.564,0,0,0,2.886,21c-.375,0-.727.012-1.191.036s-1.252.059-1.7.11a9.65,9.65,0,0,1,.129,1.33c.035.888.071,2.15.071,3.557,0,1.458-.038,2.759-.075,3.652A8.183,8.183,0,0,1,0,30.892H2.575a8.183,8.183,0,0,1-.122-1.208c-.025-.6-.05-1.381-.06-2.271h.63a6.586,6.586,0,0,0,1.543-.177,3.149,3.149,0,0,0,1.2-.566,2.888,2.888,0,0,0,.882-1.076,3.644,3.644,0,0,0,.325-1.614A2.706,2.706,0,0,0,5.839,21.755ZM4.188,25.488a2.478,2.478,0,0,1-1.4.4h-.41c0-1.334.036-2.529.069-3.386.127-.012.436-.039.67-.039a1.846,1.846,0,0,1,1.106.367,1.568,1.568,0,0,1,.6,1.275,1.615,1.615,0,0,1-.637,1.386Z" transform="translate(0 -18.972)" fill="#ff6900"/><path d="M82.379,51.744c0-.134-.007-.547-.632-.68a1.252,1.252,0,0,0-1.094.281,2.249,2.249,0,0,0-.5.574.887.887,0,0,0-.431-.6,1.545,1.545,0,0,0-.8-.136,6.066,6.066,0,0,0-.919.156s.04.261.1,1.081c.041.629.045,2.347.045,2.347s.016,1.223-.041,2.162c-.059.963-.09,1.12-.09,1.12h2.353s-.065-.356-.117-1.1-.044-1.26-.044-2.18,0-1.393.287-1.732a.806.806,0,0,1,1-.215,1.137,1.137,0,0,1,.376.25,3.636,3.636,0,0,0,.3-.538,2.371,2.371,0,0,0,.212-.786Z" transform="translate(-70.534 -47.203)" fill="#ff6900"/><path d="M129.247,52.1a3.289,3.289,0,0,0-2.524-.985,4.206,4.206,0,0,0-1.274.2,3.128,3.128,0,0,0-1.115.633,3.293,3.293,0,0,0-.861,1.086,3.821,3.821,0,0,0-.316,1.574,4.278,4.278,0,0,0,.354,1.819,3.259,3.259,0,0,0,.942,1.158,3.148,3.148,0,0,0,1.228.6,5.779,5.779,0,0,0,1.4.172,5.079,5.079,0,0,0,1.373-.165,2.892,2.892,0,0,0,.905-.394.721.721,0,0,0,.383-.574,1.178,1.178,0,0,0-.2-.553,3.878,3.878,0,0,0-.383-.554c-.091.077-.191.161-.3.252a2.133,2.133,0,0,1-.394.252,2.748,2.748,0,0,1-.516.191,2.535,2.535,0,0,1-.67.079,1.809,1.809,0,0,1-1.441-.525,1.9,1.9,0,0,1-.516-1.206l4.529-.11a6.081,6.081,0,0,0,.09-.883A2.686,2.686,0,0,0,129.247,52.1Zm-3.935,1.988a1.849,1.849,0,0,1,.355-1.211,1.324,1.324,0,0,1,1.016-.453,1.238,1.238,0,0,1,1.067.484,1.849,1.849,0,0,1,.261,1.069Z" transform="translate(-112.094 -47.305)" fill="#ff6900"/><path d="M355.327,52.1a3.286,3.286,0,0,0-2.523-.985,4.211,4.211,0,0,0-1.275.2,3.136,3.136,0,0,0-1.115.633,3.29,3.29,0,0,0-.861,1.086,3.821,3.821,0,0,0-.316,1.574,4.294,4.294,0,0,0,.353,1.819,3.28,3.28,0,0,0,.942,1.158,3.159,3.159,0,0,0,1.229.6,5.766,5.766,0,0,0,1.4.172,5.085,5.085,0,0,0,1.374-.165,2.9,2.9,0,0,0,.9-.4.715.715,0,0,0,.383-.574,1.186,1.186,0,0,0-.2-.553,4.04,4.04,0,0,0-.383-.554c-.1.077-.191.161-.3.252a2.174,2.174,0,0,1-.4.252,2.746,2.746,0,0,1-.516.191,2.529,2.529,0,0,1-.67.079,1.809,1.809,0,0,1-1.441-.525,1.9,1.9,0,0,1-.516-1.206l4.53-.11a6.146,6.146,0,0,0,.089-.883A2.672,2.672,0,0,0,355.327,52.1Zm-3.935,1.988a1.855,1.855,0,0,1,.355-1.211,1.324,1.324,0,0,1,1.008-.453,1.238,1.238,0,0,1,1.067.484,1.849,1.849,0,0,1,.262,1.069Z" transform="translate(-317.865 -47.305)" fill="#ff6900"/><path d="M211.625,55.065s.011-1.5.011-1.758A2.21,2.21,0,0,0,211,51.591a2.569,2.569,0,0,0-1.59-.471,2.406,2.406,0,0,0-2.019.933,1.568,1.568,0,0,0-.587-.645,2.2,2.2,0,0,0-1.21-.287,2.009,2.009,0,0,0-1.143.262,2.236,2.236,0,0,0-.73.615c-.167-.593-.555-.754-1.229-.734a4.9,4.9,0,0,0-.925.152s.053.548.1,1.09c.046.6.057,1.688.044,2.522s-.029,1.5-.041,1.983-.09,1.114-.09,1.114h2.351a10.748,10.748,0,0,1-.117-1.106c-.017-.485-.039-1.956-.039-1.956s0-.533.021-1.154.363-1.093.9-1.093c.616,0,.97.28.97.705l.014,1.542s0,1.346-.04,1.947-.091,1.114-.091,1.114h2.366s-.107-.677-.127-1.132c-.028-.655-.025-1.888-.025-1.888v-.957c.015-.749.255-1.332.908-1.332.469,0,.866.234.866.711,0,0,.017.793.017,1.54s-.02,1.39-.034,1.941a10.291,10.291,0,0,1-.1,1.12h2.366s-.088-.517-.124-1.119C211.639,56.613,211.625,55.485,211.625,55.065Z" transform="translate(-183.534 -47.281)" fill="#ff6900"/><path d="M319.229,56.36c0-.63.126-2.655.126-2.655a1.274,1.274,0,0,0-.1-.583A1.3,1.3,0,0,0,318,52.555a6.838,6.838,0,0,0-.957.152,10.091,10.091,0,0,1,.1,1.1c.018.592.045,1.094.045,2.549,0,.9-.05,1.937-.05,1.937-.041.6.1.872.339,1.03a2.055,2.055,0,0,0,1.033.191c.154,0,.855-.038.893-.057,0,0-.078-.533-.125-1.122C319.223,57.779,319.229,57.406,319.229,56.36Z" transform="translate(-288.435 -48.6)" fill="#ff6900"/><path d="M663.271,10.363a4.728,4.728,0,0,0-.322-.528c-.028.028-.075.07-.14.125a1.338,1.338,0,0,1-.245.16,2.578,2.578,0,0,1-.323.139,1.085,1.085,0,0,1-.371.063c-.532,0-.745-.311-.8-.973,0,0-.047-.587-.047-1.6a11.4,11.4,0,0,1,.049-1.349s.809.017,1.2-.029c.494-.057.544-1.418.544-1.418h-1.746V3.982a1.219,1.219,0,0,0-.112-.563.923.923,0,0,0-.294-.341,1.053,1.053,0,0,0-.406-.167,3.02,3.02,0,0,0-.5-.042,2.188,2.188,0,0,0-.224.008c-.075.008-.145.011-.21.02l-.4.032a14.418,14.418,0,0,1,.142,2.026s-.447-.014-.447.061a5.949,5.949,0,0,0,.276,1.34c.023.059.171.046.171.046s.044.585.044,1.348V9.378q0,.305.028.612a2.445,2.445,0,0,0,.126.584,1.792,1.792,0,0,0,.67.876,2.359,2.359,0,0,0,1.358.333,3.553,3.553,0,0,0,.826-.09,2.6,2.6,0,0,0,.652-.238,1.756,1.756,0,0,0,.46-.32.547.547,0,0,0,.146-.354A.931.931,0,0,0,663.271,10.363Z" transform="translate(-599.342 -2.577)" fill="#ff6900"/><path d="M317.047,28.051a1.389,1.389,0,0,0,.9.069,1.332,1.332,0,0,0,.754-.454.905.905,0,0,0,.209-.839.893.893,0,0,0-.537-.652,1.436,1.436,0,0,0-.906-.061,1.4,1.4,0,0,0-.772.47.963.963,0,0,0,.351,1.467Z" transform="translate(-287.932 -23.554)" fill="#ff6900"/><path d="M688.6,1.558a.879.879,0,0,1-.174-.287,1.012,1.012,0,0,1-.06-.35.963.963,0,0,1,.06-.35.835.835,0,0,1,.178-.287.851.851,0,0,1,.287-.191,1.026,1.026,0,0,1,.754,0,.838.838,0,0,1,.281.191.849.849,0,0,1,.177.287.963.963,0,0,1,.062.349.972.972,0,0,1-.062.35.839.839,0,0,1-.46.484.947.947,0,0,1-.377.072.957.957,0,0,1-.383-.072.852.852,0,0,1-.283-.2Zm.352.059a.759.759,0,0,0,.313.062.74.74,0,0,0,.309-.063.705.705,0,0,0,.23-.168.721.721,0,0,0,.142-.242A.854.854,0,0,0,690,.919a.844.844,0,0,0-.049-.287.711.711,0,0,0-.142-.24.676.676,0,0,0-.23-.166.755.755,0,0,0-.313-.062.738.738,0,0,0-.31.062.669.669,0,0,0-.229.167.713.713,0,0,0-.143.24.841.841,0,0,0-.048.287.815.815,0,0,0,.106.415.69.69,0,0,0,.314.281ZM688.934.373q.076-.009.164-.011h.142a.515.515,0,0,1,.343.1.3.3,0,0,1,.1.231.34.34,0,0,1-.021.123.334.334,0,0,1-.056.1.333.333,0,0,1-.083.067.32.32,0,0,1-.1.037h.006l.279.44a.17.17,0,0,1-.051.018.216.216,0,0,1-.047.006.183.183,0,0,1-.078-.017.156.156,0,0,1-.063-.06l-.23-.364H689.1v.42h-.17Zm.341.5c.155,0,.233-.064.233-.191a.148.148,0,0,0-.061-.129.34.34,0,0,0-.2-.044h-.084a.239.239,0,0,0-.065.006h.006V.871Z" transform="translate(-626.234 0)" fill="#ff6900"/><path d="M593.14,23.877a3.218,3.218,0,0,0-2.438-.957,4.077,4.077,0,0,0-1.232.191,3.028,3.028,0,0,0-1.078.612,3.189,3.189,0,0,0-.829,1.053,3.7,3.7,0,0,0-.305,1.522,4.16,4.16,0,0,0,.342,1.758,3.159,3.159,0,0,0,.91,1.12,3.072,3.072,0,0,0,1.187.584,5.58,5.58,0,0,0,1.356.167,4.908,4.908,0,0,0,1.327-.16,2.817,2.817,0,0,0,.873-.383.692.692,0,0,0,.367-.555,1.154,1.154,0,0,0-.191-.536,3.966,3.966,0,0,0-.367-.535c-.088.075-.186.156-.294.243a2.055,2.055,0,0,1-.383.244,2.752,2.752,0,0,1-.5.191,2.461,2.461,0,0,1-.645.076A1.741,1.741,0,0,1,589.848,28a1.835,1.835,0,0,1-.5-1.166l4.377-.105a5.88,5.88,0,0,0,.087-.853A2.6,2.6,0,0,0,593.14,23.877Zm-3.8,1.922a1.785,1.785,0,0,1,.343-1.169,1.279,1.279,0,0,1,.977-.438,1.211,1.211,0,0,1,1.031.468,1.777,1.777,0,0,1,.254,1.033Z" transform="translate(-534.8 -20.708)" fill="#ff6900"/><path d="M434.26,30.512c-.306-.367-.735-.892-1.094-1.36s-.866-1.3-.866-1.3l-.528-.849a3.572,3.572,0,0,0,.551-.338,2.9,2.9,0,0,0,.884-1.076,3.635,3.635,0,0,0,.324-1.614,2.711,2.711,0,0,0-1.13-2.224A4.589,4.589,0,0,0,429.445,21c-.374,0-.727.012-1.191.036s-1.251.061-1.694.11a9.838,9.838,0,0,1,.129,1.33c.034.888.071,2.15.071,3.557,0,1.458-.039,2.759-.075,3.652a8.18,8.18,0,0,1-.122,1.208h2.57a8.188,8.188,0,0,1-.122-1.208c-.024-.6-.049-1.381-.063-2.27h.676l1.565,2.643a2.152,2.152,0,0,0,.67.749,1.647,1.647,0,0,0,.9.23,5.62,5.62,0,0,0,1.679-.315S434.318,30.583,434.26,30.512Zm-5.322-4.619c0-1.334.036-2.529.07-3.386.127-.012.436-.039.67-.039a1.849,1.849,0,0,1,1.107.367,1.567,1.567,0,0,1,.6,1.275,1.615,1.615,0,0,1-.637,1.382,2.474,2.474,0,0,1-1.4.4Z" transform="translate(-388.289 -18.972)" fill="#ff6900"/></g></svg>