<svg xmlns="http://www.w3.org/2000/svg" width="128.689" height="16.633" viewBox="0 0 128.689 16.633"><g transform="translate(-3.321 -22.935)"><path d="M34.07,37.4a8.2,8.2,0,1,1-8.2-8.2A8.2,8.2,0,0,1,34.07,37.4ZM25.9,33a4.4,4.4,0,1,0,4.4,4.4A4.4,4.4,0,0,0,25.9,33Z" transform="translate(-3.451 -6.041)" fill="#ef3e33"/><path d="M127.746,43.9s-.212,1.438,1.785,1.612a1.743,1.743,0,0,0,1.78-1.614V36.253c0-.084.147-.183.194-.1l4.78,8.575a2.03,2.03,0,0,0,1.7.764,2.328,2.328,0,0,0,2.392-1.586l.034-.557V30.491a1.814,1.814,0,0,0-3.512-.009v7.531s.011.265-.15.236c-1.555-2.626-2.922-5.39-4.563-8.083a2.468,2.468,0,0,0-4.289.461,1.344,1.344,0,0,0-.2.675v12.51" transform="translate(-29.922 -6.023)" fill="#ef3e33"/><path d="M109.766,43.63V30.388c.131-1.461,1.725-1.427,1.685-1.429a1.928,1.928,0,0,1,1.757.841c1.23,1.567,2.294,3.007,3.495,4.63,2.17,2.94,4.063,5.472,6.167,8.5a1.445,1.445,0,0,1-.013,1.377,1.914,1.914,0,0,1-1.727,1.124,1.252,1.252,0,0,1-.927-.3,31.068,31.068,0,0,1-2.27-2.944s-4.473-.029-4.478.011a18.014,18.014,0,0,1-.179,1.885,1.7,1.7,0,0,1-1.6,1.331c-.07.013.1-.01,0,0a1.769,1.769,0,0,1-1.915-1.779m5.389-5.015c.18-.011.143-.193.081-.274-.616-.826-1.141-1.574-1.782-2.419-.016.83-.043,1.849-.012,2.707a6.424,6.424,0,0,0,.783,0C114.4,38.608,114.827,38.641,115.154,38.621Z" transform="translate(-25.606 -5.982)" fill="#ef3e33"/><g transform="translate(119.303 23.003)"><path d="M156.078,43.77s-.213,1.438,1.784,1.613a1.746,1.746,0,0,0,1.781-1.616V36.118c0-.083.145-.182.194-.1l4.781,8.573a2.026,2.026,0,0,0,1.7.766,2.327,2.327,0,0,0,2.392-1.587l.035-.557V30.357a1.815,1.815,0,0,0-3.513-.01v7.532s.014.264-.148.235c-1.556-2.625-2.922-5.389-4.563-8.08a2.468,2.468,0,0,0-4.289.459,1.349,1.349,0,0,0-.194.676v12.51" transform="translate(-156.041 -28.993)" fill="#ef3e33"/></g><path d="M147.586,31.6v12.57a1.743,1.743,0,0,0,1.85,1.851,1.839,1.839,0,0,0,1.968-1.792" transform="translate(-34.704 -6.619)" fill="#ef3e33"/><path d="M151.423,43.685V31.117a1.744,1.744,0,0,0-1.852-1.852,1.839,1.839,0,0,0-1.967,1.792" transform="translate(-34.709 -6.056)" fill="#ef3e33"/><path d="M4.549,31.5a6.181,6.181,0,0,1,3.764-2.1,4.424,4.424,0,0,1,2.429.339,5.413,5.413,0,0,1,3.349,5.7A6.147,6.147,0,0,1,11.961,39.2c1.045,2.317,3,3.833,2.694,4.981a1.576,1.576,0,0,1-1.135,1.307,1.5,1.5,0,0,1-1.468-.176c-1.82-1.549-2.779-3.787-4.311-5.388-.38-.4-.551-.219-.551,0,.007,1.877.021,3.272-.074,4.189a2.075,2.075,0,0,1-.931,1.359,1.753,1.753,0,0,1-2.48-1.2,23.507,23.507,0,0,1-.3-4.921c-.008-1.919-.159-2.341-.041-5.383A5.06,5.06,0,0,1,4.549,31.5Zm4.168,4.954a1.749,1.749,0,1,0,0-3.487,1.749,1.749,0,1,0,0,3.487Z" transform="translate(0 -6.079)" fill="#ef3e33"/><path d="M39.538,29.356a5.151,5.151,0,0,1,1.832,1.605c.974,1.023,1.812,2.057,2.869,3a.292.292,0,0,0,.311,0,28.544,28.544,0,0,1,4.065-4.5,1.708,1.708,0,0,1,2.641,1,1.828,1.828,0,0,1-.374,1.533c-1.567,2.066-3.087,3.773-4.662,5.718a54.433,54.433,0,0,1-.048,6.479,1.629,1.629,0,0,1-1.712,1.235,1.787,1.787,0,0,1-1.394-.769,1.67,1.67,0,0,1-.319-.81c-.079-2.037-.174-4.068-.169-6.106-2.256-2.878-5.242-5.411-5.365-6.47A1.681,1.681,0,0,1,39.538,29.356Z" transform="translate(-8.149 -6.027)" fill="#ef3e33"/><path d="M74.189,41.5V30.8a1.818,1.818,0,1,0-3.634-.063v13.32s0,1.11,1.337,1.007h5.93a1.744,1.744,0,0,0,1.807-1.653,1.863,1.863,0,0,0-1.409-1.777l-3.847-.015a.258.258,0,0,1-.191-.322" transform="translate(-16.173 -5.97)" fill="#ef3e33"/><path d="M63.4,43.579a1.77,1.77,0,0,1-1.915,1.779c-.1-.007.073.017,0,0a1.7,1.7,0,0,1-1.6-1.331,17.9,17.9,0,0,1-.18-1.886c0-.039-4.475-.011-4.478-.011a30.865,30.865,0,0,1-2.268,2.943,1.259,1.259,0,0,1-.928.3A1.927,1.927,0,0,1,50.3,44.249a1.447,1.447,0,0,1-.011-1.377c2.1-3.027,4-5.558,6.168-8.5,1.2-1.624,2.265-3.063,3.495-4.63a1.917,1.917,0,0,1,1.755-.839A1.644,1.644,0,0,1,63.4,30.332V43.575m-4.462-5a6.738,6.738,0,0,0,.783,0c.031-.859,0-1.88-.012-2.707-.641.844-1.166,1.592-1.782,2.418-.062.081-.1.264.081.274C58.335,38.584,58.764,38.55,58.935,38.577Z" transform="translate(-11.258 -5.969)" fill="#ef3e33"/><path d="M89.793,36.394a8.169,8.169,0,0,1,4.883-6.436,7.665,7.665,0,0,1,9,2.126,1.57,1.57,0,0,1-.109,1.947,1.6,1.6,0,0,1-1.83.671c-1.1-.428-1.861-1.414-3.085-1.668A4.374,4.374,0,0,0,93.4,36.638a4.5,4.5,0,0,0,3.509,5.249c1.738.33,3.105-.611,4.534-1.618a1.576,1.576,0,0,1,2.231.614,1.651,1.651,0,0,1,.134,1.612c-1.17,2.065-3.545,2.805-5.738,3.017a7.5,7.5,0,0,1-4.658-1.3A7.921,7.921,0,0,1,89.793,36.394Z" transform="translate(-20.785 -6.069)" fill="#ef3e33"/><path d="M87.725,30.906" transform="translate(-20.304 -6.451)" fill="#ed1c24" stroke="#000" stroke-width="0.286"/><path d="M151.423,43.685V31.117a1.744,1.744,0,0,0-1.852-1.852,1.839,1.839,0,0,0-1.967,1.792" transform="translate(-34.724 -5.177)" fill="#ef3e33"/></g></svg>