<svg xmlns="http://www.w3.org/2000/svg" width="64.264" height="8.306" viewBox="0 0 64.264 8.306"><g transform="translate(-3.321 -13.501)"><path d="M25.858,33.3a4.1,4.1,0,1,1-4.1-4.1A4.1,4.1,0,0,1,25.858,33.3Zm-4.082-2.2a2.2,2.2,0,1,0,2.2,2.2A2.2,2.2,0,0,0,21.776,31.1Z" transform="translate(-8.905 -15.588)" fill="#ef3e33"/><path d="M127.728,36.506s-.106.718.891.805a.871.871,0,0,0,.889-.806v-3.82c0-.042.073-.091.1-.052l2.387,4.282a1.014,1.014,0,0,0,.851.382,1.162,1.162,0,0,0,1.195-.792l.017-.278V29.808a.906.906,0,0,0-1.754,0v3.761s.006.132-.075.118c-.777-1.311-1.459-2.692-2.279-4.036a1.232,1.232,0,0,0-2.142.23.671.671,0,0,0-.1.337V36.46" transform="translate(-77.214 -15.541)" fill="#ef3e33"/><path d="M109.765,36.285V29.672c.066-.73.862-.713.842-.713a.963.963,0,0,1,.877.42c.614.782,1.146,1.5,1.745,2.312,1.084,1.468,2.029,2.732,3.08,4.245a.721.721,0,0,1-.006.688.956.956,0,0,1-.862.561.625.625,0,0,1-.463-.148,15.516,15.516,0,0,1-1.134-1.47s-2.234-.014-2.236.006a9,9,0,0,1-.089.941.849.849,0,0,1-.8.665c-.035.006.049,0,0,0a.883.883,0,0,1-.956-.889m2.691-2.5c.09-.005.071-.1.041-.137-.308-.413-.57-.786-.89-1.208-.008.415-.022.923-.006,1.352a3.208,3.208,0,0,0,.391,0C112.078,33.777,112.293,33.794,112.456,33.784Z" transform="translate(-66.075 -15.438)" fill="#ef3e33"/><g transform="translate(61.24 13.534)"><path d="M156.06,36.373s-.107.718.891.806a.872.872,0,0,0,.889-.807v-3.82c0-.041.072-.091.1-.051l2.387,4.281a1.012,1.012,0,0,0,.85.382,1.162,1.162,0,0,0,1.195-.793l.017-.278V29.674a.907.907,0,0,0-1.754,0v3.761s.007.132-.074.118c-.777-1.311-1.459-2.691-2.279-4.035a1.232,1.232,0,0,0-2.142.229.674.674,0,0,0-.1.338v6.247" transform="translate(-156.041 -28.993)" fill="#ef3e33"/></g><path d="M147.586,31.6v6.277a.871.871,0,0,0,.924.924.918.918,0,0,0,.983-.895" transform="translate(-89.553 -17.08)" fill="#ef3e33"/><path d="M149.512,36.466V30.19a.871.871,0,0,0-.925-.925.918.918,0,0,0-.982.895" transform="translate(-89.565 -15.627)" fill="#ef3e33"/><path d="M3.934,30.428a3.087,3.087,0,0,1,1.88-1.048,2.209,2.209,0,0,1,1.213.169A2.7,2.7,0,0,1,8.7,32.4a3.07,3.07,0,0,1-1.063,1.878c.522,1.157,1.5,1.914,1.345,2.487a.787.787,0,0,1-.567.653.751.751,0,0,1-.733-.088,30.741,30.741,0,0,1-2.153-2.691c-.19-.2-.275-.109-.275,0,0,.937.011,1.634-.037,2.092a1.036,1.036,0,0,1-.465.679.875.875,0,0,1-1.238-.6,11.739,11.739,0,0,1-.149-2.458c0-.958-.079-1.169-.02-2.688A2.527,2.527,0,0,1,3.934,30.428ZM6.016,32.9a.874.874,0,1,0,0-1.741.874.874,0,1,0,0,1.741Z" transform="translate(0 -15.686)" fill="#ef3e33"/><path d="M38.366,29.249a2.572,2.572,0,0,1,.915.8c.487.511.9,1.027,1.433,1.5a.146.146,0,0,0,.155,0A14.254,14.254,0,0,1,42.9,29.3a.853.853,0,0,1,1.319.5.913.913,0,0,1-.187.765c-.782,1.032-1.542,1.884-2.328,2.855a27.182,27.182,0,0,1-.024,3.235.813.813,0,0,1-.855.617.892.892,0,0,1-.7-.384.834.834,0,0,1-.159-.4c-.039-1.017-.087-2.031-.084-3.049-1.126-1.437-2.618-2.7-2.679-3.231A.84.84,0,0,1,38.366,29.249Z" transform="translate(-21.029 -15.552)" fill="#ef3e33"/><path d="M72.368,35.2V29.853a.908.908,0,1,0-1.815-.031v6.652s0,.554.667.5h2.962a.871.871,0,0,0,.9-.825.93.93,0,0,0-.7-.887l-1.921-.008a.129.129,0,0,1-.1-.161" transform="translate(-41.734 -15.406)" fill="#ef3e33"/><path d="M56.75,36.233a.884.884,0,0,1-.956.889c-.048,0,.036.008,0,0a.85.85,0,0,1-.8-.665,8.936,8.936,0,0,1-.09-.942c0-.019-2.235-.006-2.236-.006a15.413,15.413,0,0,1-1.132,1.47.628.628,0,0,1-.463.149.962.962,0,0,1-.863-.562.722.722,0,0,1-.006-.688c1.051-1.512,2-2.776,3.08-4.244.6-.811,1.131-1.53,1.745-2.312a.957.957,0,0,1,.876-.419.821.821,0,0,1,.842.713V36.23m-2.228-2.5a3.365,3.365,0,0,0,.391,0c.016-.429,0-.939-.006-1.352-.32.421-.582.795-.89,1.208-.031.041-.049.132.041.137C54.222,33.738,54.436,33.721,54.522,33.734Z" transform="translate(-29.05 -15.403)" fill="#ef3e33"/><path d="M89.759,32.851A4.079,4.079,0,0,1,92.2,29.637,3.828,3.828,0,0,1,96.692,30.7a.784.784,0,0,1-.054.972.8.8,0,0,1-.914.335c-.55-.214-.929-.706-1.54-.833a2.184,2.184,0,0,0-2.624,1.8,2.245,2.245,0,0,0,1.752,2.621,2.955,2.955,0,0,0,2.264-.808.787.787,0,0,1,1.114.307.824.824,0,0,1,.067.805,3.5,3.5,0,0,1-2.865,1.507,3.747,3.747,0,0,1-2.326-.649A3.956,3.956,0,0,1,89.759,32.851Z" transform="translate(-53.636 -15.66)" fill="#ef3e33"/><path d="M87.725,30.906" transform="translate(-52.394 -16.646)" fill="#ed1c24" stroke="#000" stroke-width="0.286"/><path d="M149.512,36.466V30.19a.871.871,0,0,0-.925-.925.918.918,0,0,0-.982.895" transform="translate(-89.572 -15.188)" fill="#ef3e33"/></g></svg>