<svg xmlns="http://www.w3.org/2000/svg" width="256.364" height="70.676" viewBox="0 0 256.364 70.676"><g transform="translate(-3.321 -4.09)"><circle cx="4.433" cy="4.433" r="4.433" transform="translate(146.151 19.77)" fill="#ef3e33"/><circle cx="4.433" cy="4.433" r="4.433" transform="translate(150.363 10.409)" fill="#ef3e33"/><path d="M50.345,45.542A16.339,16.339,0,1,1,34,29.2,16.339,16.339,0,0,1,50.345,45.542Zm-16.283-8.77a8.77,8.77,0,1,0,8.77,8.77A8.77,8.77,0,0,0,34.061,36.772Z" transform="translate(7.358 12.879)" fill="#ef3e33"/><path d="M127.783,58.564s-.422,2.864,3.555,3.212a3.473,3.473,0,0,0,3.546-3.215V43.323c0-.168.292-.365.387-.207L144.794,60.2a4.045,4.045,0,0,0,3.4,1.522,4.637,4.637,0,0,0,4.766-3.159l.068-1.11V31.845c-1.337-3.605-5.856-3.625-7-.018v15s.023.528-.3.471c-3.1-5.232-5.822-10.737-9.09-16.1a4.917,4.917,0,0,0-8.543.918,2.678,2.678,0,0,0-.389,1.345V58.384" transform="translate(63.799 12.841)" fill="#ef3e33"/><path d="M109.767,58.185V31.8c.262-2.911,3.437-2.843,3.357-2.846a3.84,3.84,0,0,1,3.5,1.675c2.449,3.121,4.57,5.99,6.962,9.223,4.322,5.856,8.094,10.9,12.286,16.932a2.878,2.878,0,0,1-.026,2.743,3.813,3.813,0,0,1-3.44,2.239,2.5,2.5,0,0,1-1.847-.589,61.892,61.892,0,0,1-4.522-5.864s-8.911-.057-8.92.023a35.886,35.886,0,0,1-.357,3.755,3.388,3.388,0,0,1-3.185,2.652c-.139.026.2-.02.006-.006-1.333.094-3.514-.546-3.816-3.545m10.736-9.99c.359-.021.284-.384.162-.546-1.227-1.646-2.272-3.135-3.549-4.819-.032,1.654-.086,3.684-.024,5.393a12.8,12.8,0,0,0,1.56-.006C118.991,48.18,119.848,48.247,120.5,48.208Z" transform="translate(54.595 12.755)" fill="#ef3e33"/><g transform="translate(234.371 41.766)"><path d="M156.115,58.431s-.425,2.864,3.554,3.213a3.478,3.478,0,0,0,3.548-3.219V43.187c0-.165.289-.363.387-.2l9.524,17.079a4.036,4.036,0,0,0,3.392,1.525,4.636,4.636,0,0,0,4.766-3.162l.07-1.11V31.71c-1.337-3.6-5.853-3.625-7-.02v15s.027.525-.3.469c-3.1-5.23-5.822-10.736-9.09-16.1a4.916,4.916,0,0,0-8.543.914,2.687,2.687,0,0,0-.387,1.346V58.249" transform="translate(-156.041 -28.993)" fill="#ef3e33"/></g><path d="M147.586,31.6v25.04a3.473,3.473,0,0,0,3.685,3.687,3.664,3.664,0,0,0,3.921-3.569" transform="translate(73.993 14.112)" fill="#ef3e33"/><path d="M155.212,57.992V32.953a3.475,3.475,0,0,0-3.688-3.688,3.663,3.663,0,0,0-3.918,3.569" transform="translate(74.003 12.912)" fill="#ef3e33"/><path d="M5.767,33.624a12.314,12.314,0,0,1,7.5-4.182,8.813,8.813,0,0,1,4.838.675c4.322,1.452,7.248,6.433,6.672,11.36a12.246,12.246,0,0,1-4.242,7.493c2.082,4.616,5.985,7.636,5.366,9.923a3.14,3.14,0,0,1-2.262,2.6,2.994,2.994,0,0,1-2.924-.351c-3.625-3.085-5.536-7.543-8.587-10.734-.758-.788-1.1-.436-1.1-.008.014,3.738.042,6.519-.148,8.345a4.134,4.134,0,0,1-1.855,2.708,3.492,3.492,0,0,1-4.94-2.4c-.062-.387-.563-2.085-.595-9.8-.015-3.823-.316-4.663-.082-10.723C3.468,37.195,4.406,35.411,5.767,33.624Zm8.3,9.869a3.485,3.485,0,1,0,0-6.947,3.485,3.485,0,1,0,0,6.947Z" transform="translate(0 12.96)" fill="#ef3e33"/><path d="M75.517,27.617a2.527,2.527,0,0,1-2.056.471,1.185,1.185,0,0,1-.309-1.982c14.218-7.847,29.827-5.543,38.791.144.206.129,1.053,1,.392,1.734a1.637,1.637,0,0,1-1.862.047C97.762,21.412,86.2,21.8,75.517,27.617Z" transform="translate(35.607 8.704)" fill="#ef3e33"/><path d="M76.6,21.3A40.495,40.495,0,0,1,89.719,18.13a46.773,46.773,0,0,1,11.233.543,40.694,40.694,0,0,1,10.714,3.434,15.543,15.543,0,0,1,3.387,1.921,1.61,1.61,0,0,1,.545,1.938c-.36,1.238-1.8,1.126-2.666.626-12.214-7.074-26.895-6.338-39.207-.038-.752.386-2.05.443-2.449-.584-.575-1.477.667-2.46,1.84-3.219.174-.11-.163.1,0,.009A24.681,24.681,0,0,1,76.6,21.3Z" transform="translate(34.78 7.135)" fill="#ef3e33"/><circle cx="4.431" cy="4.431" r="4.431" transform="translate(96.498 10.412)" fill="#ef3e33"/><circle cx="4.433" cy="4.433" r="4.433" transform="translate(101.104 19.77)" fill="#ef3e33"/><circle cx="4.433" cy="4.433" r="4.433" transform="translate(111.869 16.025)" fill="#ef3e33"/><circle cx="4.433" cy="4.433" r="4.433" transform="translate(109.53 5.73)" fill="#ef3e33"/><circle cx="4.434" cy="4.434" r="4.434" transform="translate(123.335 14.152)" fill="#ef3e33"/><circle cx="4.434" cy="4.434" r="4.434" transform="translate(123.335 4.09)" fill="#ef3e33"/><circle cx="4.433" cy="4.433" r="4.433" transform="translate(135.037 15.559)" fill="#ef3e33"/><circle cx="4.433" cy="4.433" r="4.433" transform="translate(137.142 5.73)" fill="#ef3e33"/><path d="M41.86,29.567c1.713.663,2.528,2.023,3.649,3.2,1.941,2.038,3.61,4.1,5.716,5.979a.581.581,0,0,0,.62,0c2.675-3.177,4.817-6.4,8.1-8.964a3.4,3.4,0,0,1,5.26,1.991,3.641,3.641,0,0,1-.746,3.053c-3.121,4.117-6.15,7.516-9.288,11.391-.088,4.271.505,8.593-.1,12.907a3.245,3.245,0,0,1-3.41,2.46,3.559,3.559,0,0,1-2.776-1.531,3.327,3.327,0,0,1-.635-1.614c-.157-4.058-.346-8.1-.336-12.164C43.422,40.54,37.472,35.493,37.227,33.384,36.941,30.969,38.738,28.359,41.86,29.567Z" transform="translate(17.375 12.85)" fill="#ef3e33"/><path d="M77.8,54V32.677c-.023-5.439-7.495-4.555-7.239-.126V59.086s0,2.212,2.663,2.006H85.035a3.474,3.474,0,0,0,3.6-3.292,3.711,3.711,0,0,0-2.806-3.54l-7.664-.03a.515.515,0,0,1-.38-.641" transform="translate(34.483 12.729)" fill="#ef3e33"/><path d="M76.571,58.139c-.3,3-2.484,3.635-3.814,3.545-.191-.014.145.033,0,.008a3.39,3.39,0,0,1-3.183-2.652,35.646,35.646,0,0,1-.359-3.757c-.009-.077-8.914-.023-8.922-.023a61.486,61.486,0,0,1-4.518,5.862,2.507,2.507,0,0,1-1.849.595,3.839,3.839,0,0,1-3.442-2.244,2.882,2.882,0,0,1-.023-2.743C54.658,50.7,58.428,45.658,62.753,39.8c2.389-3.236,4.513-6.1,6.962-9.224a3.819,3.819,0,0,1,3.5-1.672c-.079,0,3.1-.067,3.36,2.844V58.13m-8.89-9.956a13.424,13.424,0,0,0,1.56,0c.062-1.711.008-3.744-.024-5.392-1.277,1.681-2.322,3.171-3.549,4.817-.123.162-.2.526.162.546C66.486,48.187,67.342,48.119,67.682,48.174Z" transform="translate(24.003 12.727)" fill="#ef3e33"/><path d="M89.859,43.414a16.273,16.273,0,0,1,9.728-12.822,15.269,15.269,0,0,1,17.929,4.235,3.127,3.127,0,0,1-.216,3.879,3.2,3.2,0,0,1-3.646,1.336c-2.2-.853-3.707-2.817-6.145-3.324A8.714,8.714,0,0,0,97.04,43.9c-.719,4.861,2.058,9.518,6.991,10.456,3.463.658,6.186-1.216,9.032-3.222a3.139,3.139,0,0,1,4.445,1.224,3.288,3.288,0,0,1,.268,3.212c-2.331,4.114-7.062,5.589-11.43,6.011-3.35.325-6.412-.841-9.279-2.589A15.78,15.78,0,0,1,89.859,43.414Z" transform="translate(44.317 12.939)" fill="#ef3e33"/><path d="M87.725,30.906" transform="translate(43.291 13.754)" fill="#ed1c24" stroke="#000" stroke-width="0.286"/><path d="M155.212,57.992V32.953a3.475,3.475,0,0,0-3.688-3.688,3.663,3.663,0,0,0-3.918,3.569" transform="translate(73.974 14.664)" fill="#ef3e33"/></g></svg>