<svg xmlns="http://www.w3.org/2000/svg" width="320.553" height="88.371" viewBox="0 0 320.553 88.371"><g transform="translate(-3.321 -4.09)"><circle cx="5.543" cy="5.543" r="5.543" transform="translate(181.913 23.696)" fill="#ef3e33"/><circle cx="5.543" cy="5.543" r="5.543" transform="translate(187.179 11.992)" fill="#ef3e33"/><path d="M58.527,49.633A20.43,20.43,0,1,1,38.093,29.2,20.43,20.43,0,0,1,58.527,49.633ZM38.166,38.667A10.966,10.966,0,1,0,49.133,49.633,10.966,10.966,0,0,0,38.166,38.667Z" transform="translate(12.791 22.392)" fill="#ef3e33"/><path d="M127.8,65.935s-.528,3.581,4.446,4.016a4.342,4.342,0,0,0,4.434-4.02V46.877c.006-.21.365-.456.484-.259l11.906,21.359a5.058,5.058,0,0,0,4.247,1.9s4.606.4,5.959-3.95l.085-1.389V32.525c-1.672-4.508-7.323-4.533-8.747-.023v18.76s.028.66-.373.588c-3.874-6.542-7.279-13.425-11.365-20.133A6.148,6.148,0,0,0,128.2,32.866a3.349,3.349,0,0,0-.486,1.682V65.709" transform="translate(110.917 22.325)" fill="#ef3e33"/><path d="M109.767,65.5V32.517c.327-3.64,4.3-3.555,4.2-3.558a4.8,4.8,0,0,1,4.376,2.094c3.063,3.9,5.715,7.489,8.706,11.532,5.4,7.323,10.121,13.63,15.363,21.172.76,1.1.367,2.355-.032,3.43a4.767,4.767,0,0,1-4.3,2.8,3.12,3.12,0,0,1-2.31-.736c-1.788-1.725-3.706-4.8-5.654-7.332-.006,0-11.142-.072-11.154.028a44.871,44.871,0,0,1-.446,4.7c-.524,2.667-2.8,3.1-3.982,3.316-.174.032.244-.025.008-.008-1.667.117-4.394-.683-4.771-4.432m13.424-12.491c.448-.026.356-.48.2-.683-1.534-2.058-2.841-3.92-4.438-6.025-.04,2.068-.108,4.606-.03,6.744a16,16,0,0,0,1.95-.008C121.3,52.993,122.373,53.076,123.189,53.027Z" transform="translate(94.916 22.176)" fill="#ef3e33"/><g transform="translate(292.222 51.2)"><path d="M156.134,65.8s-.532,3.581,4.444,4.018a4.349,4.349,0,0,0,4.436-4.026V46.741c.006-.206.361-.454.484-.255l11.908,21.355a5.046,5.046,0,0,0,4.241,1.907s4.608.4,5.959-3.954l.087-1.389V32.39c-1.672-4.506-7.319-4.533-8.751-.025V51.128s.034.656-.369.586c-3.876-6.54-7.279-13.424-11.365-20.128a6.147,6.147,0,0,0-10.682,1.143,3.36,3.36,0,0,0-.484,1.684V65.575" transform="translate(-156.041 -28.993)" fill="#ef3e33"/></g><path d="M147.587,31.6v31.31a4.343,4.343,0,0,0,4.608,4.61,4.581,4.581,0,0,0,4.9-4.463" transform="translate(128.641 24.535)" fill="#ef3e33"/><path d="M157.116,65.185V33.877a4.345,4.345,0,0,0-4.612-4.612,4.58,4.58,0,0,0-4.9,4.463" transform="translate(128.659 22.449)" fill="#ef3e33"/><path d="M6.38,34.692a15.4,15.4,0,0,1,9.375-5.229,11.02,11.02,0,0,1,6.05.844c5.4,1.816,9.063,8.044,8.342,14.2a15.312,15.312,0,0,1-5.3,9.37c2.6,5.772,7.484,9.547,6.71,12.408a3.926,3.926,0,0,1-2.828,3.256,3.744,3.744,0,0,1-3.657-.439c-4.533-3.857-6.922-9.432-10.737-13.422-.948-.986-1.373-.545-1.371-.009.017,4.674.053,8.151-.185,10.435A5.168,5.168,0,0,1,10.454,69.5a4.367,4.367,0,0,1-6.176-3c-.078-.484-.7-2.607-.743-12.258-.019-4.78-.4-5.83-.1-13.408C3.5,39.156,4.677,36.926,6.38,34.692Zm10.382,12.34a4.357,4.357,0,1,0,0-8.687,4.358,4.358,0,1,0,0,8.687Z" transform="translate(0 22.532)" fill="#ef3e33"/><path d="M76.212,29.258a3.16,3.16,0,0,1-2.571.588,1.482,1.482,0,0,1-.386-2.478c17.778-9.812,37.295-6.931,48.5.18.257.161,1.317,1.247.49,2.168a2.046,2.046,0,0,1-2.329.059C104.026,21.5,89.565,21.988,76.212,29.258Z" transform="translate(61.904 15.133)" fill="#ef3e33"/><path d="M77.97,22.127a50.634,50.634,0,0,1,16.4-3.965,58.484,58.484,0,0,1,14.046.679,50.883,50.883,0,0,1,13.4,4.294,19.434,19.434,0,0,1,4.236,2.4,2.014,2.014,0,0,1,.681,2.423c-.45,1.547-2.253,1.407-3.333.783C108.128,19.9,89.771,20.82,74.376,28.7c-.94.482-2.563.554-3.063-.73-.719-1.846.834-3.076,2.3-4.026.218-.138-.2.125,0,.011A30.86,30.86,0,0,1,77.97,22.127Z" transform="translate(60.467 12.404)" fill="#ef3e33"/><circle cx="5.541" cy="5.541" r="5.541" transform="translate(119.827 11.995)" fill="#ef3e33"/><circle cx="5.543" cy="5.543" r="5.543" transform="translate(125.587 23.696)" fill="#ef3e33"/><circle cx="5.543" cy="5.543" r="5.543" transform="translate(139.047 19.014)" fill="#ef3e33"/><circle cx="5.543" cy="5.543" r="5.543" transform="translate(136.122 6.141)" fill="#ef3e33"/><circle cx="5.545" cy="5.545" r="5.545" transform="translate(153.384 16.672)" fill="#ef3e33"/><circle cx="5.545" cy="5.545" r="5.545" transform="translate(153.384 4.09)" fill="#ef3e33"/><circle cx="5.543" cy="5.543" r="5.543" transform="translate(168.016 18.431)" fill="#ef3e33"/><circle cx="5.543" cy="5.543" r="5.543" transform="translate(170.648 6.141)" fill="#ef3e33"/><path d="M43.027,29.673c2.141.829,3.161,2.529,4.563,4,2.427,2.548,4.514,5.125,7.147,7.476a.726.726,0,0,0,.776,0c3.345-3.973,6.023-8,10.124-11.208a4.254,4.254,0,0,1,6.577,2.489,4.553,4.553,0,0,1-.933,3.817c-3.9,5.147-7.69,9.4-11.613,14.243-.11,5.34.632,10.745-.119,16.138-.276,2-2.442,3.14-4.264,3.076a4.45,4.45,0,0,1-3.471-1.914,4.16,4.16,0,0,1-.795-2.018c-.2-5.074-.433-10.132-.42-15.209-5.618-7.168-13.058-13.478-13.365-16.115C36.877,31.426,39.124,28.163,43.027,29.673Z" transform="translate(30.208 22.34)" fill="#ef3e33"/><path d="M79.612,60.278V33.62c-.028-6.8-9.372-5.7-9.052-.157V66.642s0,2.766,3.329,2.508H88.661s4.245.091,4.5-4.116c0,0-.036-3.659-3.509-4.427l-9.583-.038a.644.644,0,0,1-.475-.8" transform="translate(59.95 22.13)" fill="#ef3e33"/><path d="M83.194,65.459c-.373,3.747-3.106,4.546-4.769,4.432-.238-.017.182.042,0,.009-1.188-.216-3.458-.653-3.98-3.316a44.569,44.569,0,0,1-.448-4.7c-.011-.1-11.146-.028-11.155-.028C60.9,64.4,58.982,67.466,57.2,69.19a3.135,3.135,0,0,1-2.312.743,4.8,4.8,0,0,1-4.3-2.805c-.4-1.073-.789-2.332-.028-3.43,5.242-7.54,9.956-13.845,15.364-21.17C68.9,38.482,71.56,34.9,74.622,30.994a4.776,4.776,0,0,1,4.372-2.09c-.1,0,3.87-.083,4.2,3.556V65.448M72.08,53a16.785,16.785,0,0,0,1.95,0c.078-2.14.009-4.682-.03-6.742-1.6,2.1-2.9,3.965-4.438,6.023-.153.2-.244.658.2.683C70.584,53.016,71.654,52.931,72.08,53Z" transform="translate(41.73 22.127)" fill="#ef3e33"/><path d="M89.893,46.943a20.348,20.348,0,0,1,12.164-16.032,19.092,19.092,0,0,1,22.419,5.295,3.91,3.91,0,0,1-.271,4.85,4,4,0,0,1-4.559,1.67c-2.745-1.067-4.635-3.522-7.684-4.156a10.9,10.9,0,0,0-13.091,8.982c-.9,6.078,2.573,11.9,8.742,13.074,4.33.823,7.735-1.521,11.293-4.029a3.925,3.925,0,0,1,5.558,1.53c.628,1.273,1.11,2.645.335,4.016-2.915,5.144-8.83,6.988-14.292,7.516-4.188.407-8.017-1.052-11.6-3.237A19.731,19.731,0,0,1,89.893,46.943Z" transform="translate(77.047 22.496)" fill="#ef3e33"/><path d="M87.725,30.906" transform="translate(75.263 23.912)" fill="#ed1c24" stroke="#000" stroke-width="0.286"/><path d="M157.116,65.185V33.877a4.345,4.345,0,0,0-4.612-4.612,4.58,4.58,0,0,0-4.9,4.463" transform="translate(128.621 24.639)" fill="#ef3e33"/></g></svg>