<svg xmlns="http://www.w3.org/2000/svg" width="32" height="31.289" viewBox="0 0 32 31.289"><g transform="translate(273 -2210.669)"><path d="M97.586,123.963c-2.482-.683-4.924-1.09-7.14-2.283-.9-.482-2.8-.377-3.242-1.479-.15-.341.985-.8.44-.648-.149.04-.3.09-.44.144a1.424,1.424,0,0,1-1.314-.147,3.864,3.864,0,0,0-.938-.412,1.647,1.647,0,0,1-1.028-.529.783.783,0,0,1,.141-1.122,4.671,4.671,0,0,1,.8-.466,3.868,3.868,0,0,1,.566-.22,2.624,2.624,0,0,0,1.708-1.358,1.357,1.357,0,0,1,.814-.667,5.393,5.393,0,0,0,.654-.331c.348-.211-.425-.685,0-.733.171-.019.467-.7.63-.715.049-.543,1.325-.579,1.329-.6s.856-.673,1.3,0c.136.208,1.546-.144,1.772,0,.133.086,4.291,1.515,4.412,1.613,1.042.837-2.381-.593-1.787.061,4.118,4.536,12.826,6.792,7.809,1.368-1.733-1.874-4.381-4.761-13.074-4.679-5.1.048-15.913,2.581-14.087,11.128a7.512,7.512,0,0,0,4.219,5.246c3.614,1.912,11.356,3.025,13.23,3.85a5.114,5.114,0,0,1,3.126,4.455c-.023,2.82-2.392,4.136-5.458,4.136-7.476,0-4.935-8.273-11.514-8.273-2.542,0-4.486,1.066-4.486,3.447,0,3.886,6.355,7.27,16,7.27,10.019,0,16-3.886,16-8.962C108.022,126.987,102.765,125.286,97.586,123.963Z" transform="translate(-349.022 2099.933)" fill="#893552"/><path d="M350.389,117.915c0-2.257,1.869-4.2,4.86-4.2,6.5,0,4.336,8.214,10.542,8.214,2.392,0,4.262-1.442,4.262-3.261,0-3.887-5.981-7.524-15.4-7.524-8.972,0-15.178,3.888-15.178,9.217,0,4.045,2.229,6.207,5.227,7.579a27.072,27.072,0,0,0,2.645.94c2.3.625,7.067,1.783,7.157,1.783,0-.339.022-.668,0-.993a3.258,3.258,0,0,1,.369-1.806,6.951,6.951,0,0,0,.473-1.256A2.888,2.888,0,0,1,356.6,125.1c.112.263.208.25.288.46.134.353.244.712.39,1.061a.748.748,0,0,0,.706.447,5.156,5.156,0,0,1,1.042.2,2.062,2.062,0,0,1,1.493,1.123,1.118,1.118,0,0,0,.506.44c.6.325.734.6.447,1.147a1.877,1.877,0,0,1-1.62,1.114.666.666,0,0,0-.627.447,1.57,1.57,0,0,0,.054,1.539c.078.123.153.254.225.389a3.85,3.85,0,0,1,.758,2.381c0,2.821-2.392,4.138-5.458,4.138-7.476,0-4.935-8.277-11.514-8.277-2.542,0-4.486,1.066-4.486,3.448,0,3.888,6.356,7.274,16,7.274,10.019,0,16-3.888,16-8.967C370.8,121.489,350.389,126.505,350.389,117.915Z" transform="translate(-611.8 2099.526)" fill="#893552"/></g></svg>