<svg xmlns="http://www.w3.org/2000/svg" width="16.001" height="15.643" viewBox="0 0 16.001 15.643"><g transform="translate(272.996 -2210.67)"><path d="M86.807,117.361a16.576,16.576,0,0,1-3.57-1.141c-.45-.241-1.4-.189-1.621-.74-.075-.171.493-.4.22-.324a2.218,2.218,0,0,0-.22.072.712.712,0,0,1-.657-.074,1.932,1.932,0,0,0-.469-.206.824.824,0,0,1-.514-.264.392.392,0,0,1,.07-.561,2.336,2.336,0,0,1,.4-.233,1.933,1.933,0,0,1,.283-.11,1.312,1.312,0,0,0,.854-.679.678.678,0,0,1,.407-.334,2.7,2.7,0,0,0,.327-.166c.174-.105-.213-.342,0-.367.086-.009.233-.35.315-.357.025-.271.662-.289.665-.3s.428-.336.65,0c.068.1.773-.072.886,0,.067.043,2.146.757,2.206.806.521.419-1.19-.3-.893.031,2.059,2.268,6.413,3.4,3.9.684-.867-.937-2.19-2.38-6.537-2.339-2.55.024-7.956,1.29-7.043,5.564a3.756,3.756,0,0,0,2.109,2.623c1.807.956,5.678,1.512,6.615,1.925a2.557,2.557,0,0,1,1.563,2.227c-.011,1.41-1.2,2.068-2.729,2.068-3.738,0-2.467-4.136-5.757-4.136-1.271,0-2.243.533-2.243,1.723,0,1.943,3.177,3.635,8,3.635,5.009,0,8-1.943,8-4.481C92.025,118.873,89.4,118.022,86.807,117.361Z" transform="translate(-349.023 2099.922)" fill="#893552"/><path d="M344.6,114.529a2.21,2.21,0,0,1,2.43-2.1c3.25,0,2.168,4.107,5.271,4.107,1.2,0,2.131-.721,2.131-1.631,0-1.943-2.991-3.762-7.7-3.762-4.486,0-7.589,1.944-7.589,4.608a3.914,3.914,0,0,0,2.613,3.789,13.538,13.538,0,0,0,1.322.47c1.15.313,3.534.892,3.579.892,0-.17.011-.334,0-.5a1.629,1.629,0,0,1,.184-.9,3.477,3.477,0,0,0,.237-.628,1.444,1.444,0,0,1,.627-.754c.056.131.1.125.144.23.067.176.122.356.2.53a.374.374,0,0,0,.353.223,2.578,2.578,0,0,1,.521.1,1.031,1.031,0,0,1,.746.562.559.559,0,0,0,.253.22c.3.162.367.3.223.573a.939.939,0,0,1-.81.557.333.333,0,0,0-.314.224.785.785,0,0,0,.027.77c.039.061.077.127.113.194a1.925,1.925,0,0,1,.379,1.19c0,1.41-1.2,2.069-2.729,2.069-3.738,0-2.467-4.138-5.757-4.138-1.271,0-2.243.533-2.243,1.724,0,1.944,3.178,3.637,8,3.637,5.01,0,8-1.944,8-4.483C354.8,116.316,344.6,118.824,344.6,114.529Z" transform="translate(-611.8 2099.526)" fill="#893552"/></g></svg>