<svg xmlns="http://www.w3.org/2000/svg" width="1014.66" height="544.525" viewBox="0 0 1014.66 544.525">
  <g id="Grupo_4" data-name="Grupo 4" transform="translate(-87.945 -74.485)">
    <g id="Grupo_3" data-name="Grupo 3">
      <path id="Caminho_26" data-name="Caminho 26" d="M909.05,286.831c37.577-3.111,181.073,38.635,192.781,91.66,11.326,51.294-105.605,131.675-93.64,163.917,7.368,19.865,42.179,10.12,66.079,9.871,42.846-.45,8.617,68.451-96.922,65.869-54.7-1.338-112.312-7.525-114.729-56.294C859.372,496.322,988.9,437.189,972.594,409.465c-6.66-11.322-33.9-10.2-64.2-11.073C824.7,395.98,858.005,291.053,909.05,286.831Z"/>
      <path id="Caminho_27" data-name="Caminho 27" d="M727.735,260.389c-36.177,29.033-55.178,126.794-59.177,178.809-4.987,64.807,13.092,154.894,98.844,175.481,74.171,17.806,100.845-24.032,70.151-39.8-43.127-22.155-54.633-55.966-53.187-97.852.516-15,4.588-26.814,16.768-26.062,30.109,1.857,62.11-2.163,60.646-44.88-.918-26.766-43.831-6.625-54.454-23.012-10.095-15.574,34.081-69.666,19.2-96.755C816.07,267.07,749.236,243.127,727.735,260.389Z"/>
      <path id="Caminho_28" data-name="Caminho 28" d="M312.617,441.589c25.55-6.184,46.714-13.084,64.291-20.272.332-.14.633-.3.961-.441,11.039-58.327,53.5-111.6,114.074-132.662,16.033-71.315-11.717-148.672-81.78-186.892-42.529-24.3-96.65-33.465-155.352-21.815C115.606,107.126,52.194,246.92,108.308,417.838,151.129,548.255,252.8,638.446,299.419,615.02,357.191,585.989,181.658,473.3,312.617,441.589Z"/>
      <path id="Caminho_29" data-name="Caminho 29" d="M532.456,514.82c9.933,1.6,30.59,3.662,46.417,2.185,36.394-1.639,64.178-17.615,81.671-40.387-4.148-38.5-.219-79.7,7.3-116.407-12.532-22.334-33.709-42.124-64.6-55.148-42.611-16.606-107.767-16.108-153.446,19.179-48.506,37.473-74.359,92.355-67.289,146.809,8.4,77.541,57.894,111.456,78.62,124.106C491,613.4,532.937,621.941,573.708,617.624c38.01-4.969,56.311-19.753,63.513-28.068,11.549-13.351,9.907-26.61,5.589-32.622-6.621-9.221-15.985-5.572-32.521-2.465-40.819,7.678-63.713-5.266-72.934-12.83C520.22,527.585,520.574,512.9,532.456,514.82Z"/>
    </g>
  </g>
</svg>
