<svg xmlns="http://www.w3.org/2000/svg" width="1014.66" height="692.919" viewBox="0 0 1014.66 692.919">
  <g id="Grupo_1" data-name="Grupo 1" transform="translate(-87.945 -74.485)">
    <g id="Grupo_2" data-name="Grupo 2">
      <g id="Grupo_1-2" data-name="Grupo 1">
        <path id="Caminho_1" data-name="Caminho 1" d="M163.425,721.369l-8.65-3.911c-1.881-.828-4.889-2.332-4.889-4.739,0-3.535,3.384-4.663,6.393-4.663a28.145,28.145,0,0,1,10.23,2.407,3.7,3.7,0,0,0,1.354.376c.677,0,1.128-.376,1.5-1.355l2.331-5.866a4.213,4.213,0,0,0,.3-1.129c0-.676-.451-1.2-1.654-1.73a36.263,36.263,0,0,0-14.819-3.009c-8.8,0-18.429,5.416-18.429,15.045,0,6.317,3.686,10.981,9.252,13.539L156.43,731c2.331,1.053,4.588,2.481,4.588,5.341,0,3.685-3.987,5.34-7.146,5.34a33.609,33.609,0,0,1-11.734-2.332,3.116,3.116,0,0,0-1.279-.3c-.978,0-1.354.678-1.58,1.43l-2.031,6.092a4.478,4.478,0,0,0-.3,1.279c0,.676.376,1.2,1.579,1.58a50.094,50.094,0,0,0,15.721,2.708c10.3,0,18.956-6.32,18.956-17.151C173.2,728.14,169.368,724.077,163.425,721.369Z"/>
        <path id="Caminho_2" data-name="Caminho 2" d="M197.949,713.321c-11.584,0-19.482,7.672-19.482,19.331,0,12.036,7.6,19.407,19.557,19.407a35.03,35.03,0,0,0,13.615-2.557c.752-.376,1.429-.677,1.429-1.655,0-1.128-1.129-4.589-1.429-5.868a1.216,1.216,0,0,0-1.2-1.052,2.005,2.005,0,0,0-.9.225,25.429,25.429,0,0,1-9.478,1.956c-4.588,0-8.8-2.632-9.7-7.372h21.061c1.881,0,2.709-.376,2.709-2.18v-.979c0-5.266-.753-10.456-4.514-14.442A15.554,15.554,0,0,0,197.949,713.321Zm-7.447,15.27c.527-3.535,3.009-6.544,6.77-6.544,3.912,0,5.792,3.309,5.792,6.544Z"/>
        <path id="Caminho_3" data-name="Caminho 3" d="M252.633,714.449h-6.77c-1.354,0-2.332.451-2.332,1.956v22.641a12.681,12.681,0,0,1-7.672,2.933c-3.385,0-4.288-2.18-4.288-5.264v-20.31c0-1.58-.752-1.956-2.181-1.956h-6.769c-1.355,0-2.332.451-2.332,1.956v22.34c0,8.124,3.686,13.39,11.884,13.39A19.293,19.293,0,0,0,244.208,748l.151,1.579c.075,1.054.978,1.505,2.031,1.505h6.093c1.8,0,2.331-.6,2.331-2.482V716.405C254.814,714.825,254.062,714.449,252.633,714.449Z"/>
        <path id="Caminho_4" data-name="Caminho 4" d="M302.727,713.471a14.359,14.359,0,0,0-9.929,4.062l-.151-1.5c-.15-1.2-.9-1.58-2.331-1.58h-5.792c-1.429,0-2.182.6-2.182,2.106v48.592c0,1.505.753,2.257,2.107,2.257h6.845c1.5,0,2.331-.6,2.331-2.332V749.2a12.505,12.505,0,0,0,8.425,3.01,14.762,14.762,0,0,0,11.659-5.266c3.16-3.686,4.814-8.951,4.814-14.818,0-5.191-1.5-10.606-4.814-14.066A14.274,14.274,0,0,0,302.727,713.471Zm1.88,27.155a6.329,6.329,0,0,1-5.039,2.482,9.437,9.437,0,0,1-5.943-2.407V725.356a9.949,9.949,0,0,1,6.168-2.708,6,6,0,0,1,5.266,2.708c1.053,1.579,1.73,4.062,1.73,7.447C306.789,736.263,306.112,738.595,304.607,740.626Z"/>
        <path id="Caminho_5" data-name="Caminho 5" d="M342.517,713.321c-11.584,0-19.482,7.672-19.482,19.331,0,12.036,7.6,19.407,19.558,19.407a35.025,35.025,0,0,0,13.614-2.557c.752-.376,1.429-.677,1.429-1.655,0-1.128-1.128-4.589-1.429-5.868a1.215,1.215,0,0,0-1.2-1.052,2,2,0,0,0-.9.225,25.438,25.438,0,0,1-9.479,1.956c-4.588,0-8.8-2.632-9.7-7.372h21.061c1.881,0,2.709-.376,2.709-2.18v-.979c0-5.266-.753-10.456-4.514-14.442A15.554,15.554,0,0,0,342.517,713.321Zm-7.446,15.27c.526-3.535,3.008-6.544,6.769-6.544,3.912,0,5.792,3.309,5.792,6.544Z"/>
        <path id="Caminho_6" data-name="Caminho 6" d="M388.852,743.032c-.15-.677-.451-1.053-1.053-1.053a3.326,3.326,0,0,0-1.053.226,15.673,15.673,0,0,1-4.814.9c-3.31,0-3.836-2.407-3.836-6.319V722.121h8.2a1.639,1.639,0,0,0,1.806-1.729v-4.363c0-1.129-.752-1.58-1.806-1.58h-8.123v-8.8c0-1.353-.6-1.956-1.73-1.956h-.452l-6.769.9c-1.354.15-2.332.451-2.332,1.956v7.9h-3.46a1.763,1.763,0,0,0-1.731,1.956v3.235c0,2.031.3,2.481,2.107,2.481h3.008v14.444c0,6.167.151,9.25,2.558,12.11,2.031,2.406,5.416,3.384,9.628,3.384a23.672,23.672,0,0,0,9.628-1.956c.828-.375,1.2-.751,1.2-1.58a2.06,2.06,0,0,0-.076-.676Z"/>
        <path id="Caminho_7" data-name="Caminho 7" d="M439.7,741.453a3.355,3.355,0,0,0-.827.226,16.876,16.876,0,0,1-7.522,1.579c-5.19,0-8.5-3.686-8.5-10.53,0-6.469,3.16-10.38,9.026-10.38a18.018,18.018,0,0,1,6.62,1.428,3.214,3.214,0,0,0,1.053.3c.451,0,.827-.3.978-1.053l1.2-5.416a3.155,3.155,0,0,0,.15-.827c0-.752-.3-1.053-.977-1.354a25.878,25.878,0,0,0-10.455-2.03c-11.96,0-19.257,7.748-19.257,19.932,0,11.885,6.995,18.73,18.429,18.73a25.023,25.023,0,0,0,11.509-2.256c.6-.3,1.2-.527,1.2-1.355,0-1.2-1.2-4.663-1.579-6.016C440.6,741.9,440.3,741.453,439.7,741.453Z"/>
        <path id="Caminho_8" data-name="Caminho 8" d="M465.648,713.321c-11.584,0-19.482,7.672-19.482,19.331,0,12.036,7.6,19.407,19.558,19.407a35.025,35.025,0,0,0,13.614-2.557c.752-.376,1.43-.677,1.43-1.655,0-1.128-1.129-4.589-1.43-5.868a1.216,1.216,0,0,0-1.2-1.052,2.01,2.01,0,0,0-.9.225,25.425,25.425,0,0,1-9.478,1.956c-4.589,0-8.8-2.632-9.7-7.372h21.062c1.88,0,2.707-.376,2.707-2.18v-.979c0-5.266-.752-10.456-4.512-14.442A15.558,15.558,0,0,0,465.648,713.321Zm-7.447,15.27c.526-3.535,3.009-6.544,6.77-6.544,3.911,0,5.792,3.309,5.792,6.544Z"/>
        <path id="Caminho_9" data-name="Caminho 9" d="M510.779,713.4a19.365,19.365,0,0,0-12.035,4.211l-.15-1.579c-.151-1.279-.978-1.58-2.106-1.58H490.32c-1.655,0-2.182.753-2.182,2.181v32.421a1.882,1.882,0,0,0,2.107,2.03h7.07c1.5,0,2.106-.752,2.106-2.182V726.484a12.687,12.687,0,0,1,7.673-2.933c3.46,0,4.287,2.1,4.287,5.265v20.009c0,1.429.6,2.256,2.181,2.256h6.92c1.656,0,2.182-.752,2.182-2.256v-22.04C522.664,718.586,519.054,713.4,510.779,713.4Z"/>
        <path id="Caminho_10" data-name="Caminho 10" d="M554.707,743.032c-.15-.677-.451-1.053-1.052-1.053a3.332,3.332,0,0,0-1.054.226,15.667,15.667,0,0,1-4.813.9c-3.31,0-3.837-2.407-3.837-6.319V722.121h8.2a1.639,1.639,0,0,0,1.8-1.729v-4.363c0-1.129-.752-1.58-1.8-1.58h-8.124v-8.8c0-1.353-.6-1.956-1.73-1.956h-.451l-6.77.9c-1.354.15-2.332.451-2.332,1.956v7.9h-3.46a1.763,1.763,0,0,0-1.73,1.956v3.235c0,2.031.3,2.481,2.106,2.481h3.009v14.444c0,6.167.15,9.25,2.558,12.11,2.031,2.406,5.416,3.384,9.628,3.384a23.676,23.676,0,0,0,9.628-1.956c.828-.375,1.2-.751,1.2-1.58a2.085,2.085,0,0,0-.075-.676Z"/>
        <path id="Caminho_11" data-name="Caminho 11" d="M578.176,713.321c-11.584,0-19.482,7.672-19.482,19.331,0,12.036,7.6,19.407,19.557,19.407a35.03,35.03,0,0,0,13.615-2.557c.753-.376,1.43-.677,1.43-1.655,0-1.128-1.129-4.589-1.43-5.868a1.215,1.215,0,0,0-1.2-1.052,2.009,2.009,0,0,0-.9.225,25.425,25.425,0,0,1-9.478,1.956c-4.588,0-8.8-2.632-9.7-7.372h21.062c1.879,0,2.708-.376,2.708-2.18v-.979c0-5.266-.752-10.456-4.514-14.442A15.552,15.552,0,0,0,578.176,713.321Zm-7.447,15.27c.527-3.535,3.009-6.544,6.77-6.544,3.912,0,5.792,3.309,5.792,6.544Z"/>
        <path id="Caminho_12" data-name="Caminho 12" d="M622.78,713.7a10.882,10.882,0,0,0-2.107-.3c-4.438,0-6.695,1.579-9.4,4.813l-.151-2.257c-.074-1.128-.752-1.5-2.181-1.5h-6.092c-1.28,0-2.182.376-2.182,2.181v32.346a1.871,1.871,0,0,0,2.106,2.1h7.071a1.841,1.841,0,0,0,2.106-2.1V726.484a9.94,9.94,0,0,1,6.92-2.933,8.863,8.863,0,0,1,2.031.225h.376c.677,0,1.053-.376,1.2-1.2l1.128-7.071a2.294,2.294,0,0,0,.076-.677v-.15A1.038,1.038,0,0,0,622.78,713.7Z"/>
        <path id="Caminho_13" data-name="Caminho 13" d="M679.418,697.073c-.15,0-.451.075-.6.075l-7.372.978c-1.428.227-1.8.978-1.8,2.332v15.871a12.514,12.514,0,0,0-8.425-3.008c-11.133,0-16.473,10.079-16.473,20.084,0,10.23,5.266,18.654,16.172,18.654A14.544,14.544,0,0,0,670.467,748l.151,1.579c.074.828.677,1.505,1.955,1.505h6.319a1.879,1.879,0,0,0,2.03-2.1V698.728C680.922,697.676,680.471,697.073,679.418,697.073Zm-9.778,43.1a9.955,9.955,0,0,1-6.168,2.709c-5.717,0-6.995-5.492-6.995-10.155,0-4.513,1.729-10.305,7.22-10.305a9.437,9.437,0,0,1,5.943,2.406Z"/>
        <path id="Caminho_14" data-name="Caminho 14" d="M707.173,713.321c-11.583,0-19.482,7.672-19.482,19.331,0,12.036,7.6,19.407,19.557,19.407a35.026,35.026,0,0,0,13.615-2.557c.752-.376,1.429-.677,1.429-1.655,0-1.128-1.128-4.589-1.429-5.868a1.216,1.216,0,0,0-1.2-1.052,2,2,0,0,0-.9.225,25.434,25.434,0,0,1-9.479,1.956c-4.588,0-8.8-2.632-9.7-7.372h21.061c1.881,0,2.709-.376,2.709-2.18v-.979c0-5.266-.753-10.456-4.513-14.442A15.558,15.558,0,0,0,707.173,713.321Zm-7.446,15.27c.526-3.535,3.008-6.544,6.769-6.544,3.911,0,5.792,3.309,5.792,6.544Z"/>
        <path id="Caminho_15" data-name="Caminho 15" d="M765.392,713.321c-11.585,0-19.484,7.672-19.484,19.331,0,12.036,7.6,19.407,19.559,19.407a35.04,35.04,0,0,0,13.615-2.557c.751-.376,1.429-.677,1.429-1.655,0-1.128-1.128-4.589-1.429-5.868a1.217,1.217,0,0,0-1.2-1.052,2.007,2.007,0,0,0-.9.225,25.425,25.425,0,0,1-9.478,1.956c-4.589,0-8.8-2.632-9.7-7.372h21.061c1.881,0,2.708-.376,2.708-2.18v-.979c0-5.266-.752-10.456-4.513-14.442A15.552,15.552,0,0,0,765.392,713.321Zm-7.448,15.27c.528-3.535,3.009-6.544,6.77-6.544,3.912,0,5.792,3.309,5.792,6.544Z"/>
        <path id="Caminho_16" data-name="Caminho 16" d="M807.062,730.4l-7.6-3.008c-2.558-.979-2.859-1.956-2.859-2.859,0-1.053,1.128-2.408,3.612-2.408a26.14,26.14,0,0,1,8.349,1.806,3.874,3.874,0,0,0,.827.15,1.229,1.229,0,0,0,1.279-.9l1.58-5.266a3.877,3.877,0,0,0,.149-.827c0-.6-.376-.978-1.052-1.279a27.92,27.92,0,0,0-11.81-2.406c-6.694,0-14.367,3.233-14.367,11.282a11.161,11.161,0,0,0,7.673,10.531l6.694,2.482c2.784,1.053,3.536,1.806,3.536,3.235,0,1.655-1.655,2.633-4.062,2.633a27.925,27.925,0,0,1-9.929-2.332,3.065,3.065,0,0,0-1.2-.3c-.527,0-.827.376-1.128,1.354l-1.505,4.739a3.771,3.771,0,0,0-.15.9,1.367,1.367,0,0,0,1.052,1.354,33.6,33.6,0,0,0,12.563,2.783c7.446,0,15.12-3.309,15.12-11.959A9.983,9.983,0,0,0,807.062,730.4Z"/>
        <path id="Caminho_17" data-name="Caminho 17" d="M843.843,743.032c-.151-.677-.451-1.053-1.053-1.053a3.321,3.321,0,0,0-1.053.226,15.667,15.667,0,0,1-4.814.9c-3.31,0-3.836-2.407-3.836-6.319V722.121h8.2a1.639,1.639,0,0,0,1.806-1.729v-4.363c0-1.129-.752-1.58-1.806-1.58h-8.123v-8.8c0-1.353-.6-1.956-1.73-1.956h-.452l-6.77.9c-1.354.15-2.331.451-2.331,1.956v7.9h-3.46a1.763,1.763,0,0,0-1.731,1.956v3.235c0,2.031.3,2.481,2.107,2.481H821.8v14.444c0,6.167.15,9.25,2.557,12.11,2.032,2.406,5.415,3.384,9.628,3.384a23.669,23.669,0,0,0,9.628-1.956c.828-.375,1.2-.751,1.2-1.58a2.112,2.112,0,0,0-.074-.676Z"/>
        <path id="Caminho_18" data-name="Caminho 18" d="M856.555,698.653a5.809,5.809,0,0,0-6.094,5.791c0,3.612,3.234,5.642,6.094,5.642a5.861,5.861,0,0,0,6.016-5.716A5.773,5.773,0,0,0,856.555,698.653Z"/>
        <path id="Caminho_19" data-name="Caminho 19" d="M860.09,714.449h-6.77c-1.354,0-2.332.451-2.332,1.956V748.9c0,1.656.752,2.182,2.332,2.182h6.77c1.5,0,2.18-.677,2.18-2.182V716.405C862.27,714.825,861.519,714.449,860.09,714.449Z"/>
        <path id="Caminho_20" data-name="Caminho 20" d="M915.451,713.4a18.673,18.673,0,0,0-13.089,5.038,10.345,10.345,0,0,0-9.4-5.038,16.912,16.912,0,0,0-10.757,4.061l-.15-1.429c-.151-1.129-.9-1.58-2.182-1.58H873.7c-1.278,0-2.1.6-2.1,1.956V748.9c0,1.656.752,2.182,2.332,2.182H880.7c1.5,0,2.181-.6,2.181-2.182V726.484a11.2,11.2,0,0,1,7.146-3.159c3.384,0,4.062,2.407,4.062,5.416V748.9c0,1.656.753,2.182,2.332,2.182h6.167c1.506,0,2.182-.6,2.182-2.182V726.484a13.109,13.109,0,0,1,7.749-3.159c3.384,0,4.06,2.407,4.06,5.416V748.9c0,1.656.752,2.182,2.332,2.182h6.771c1.5,0,2.18-.6,2.18-2.182V731.523c0-5.339-.15-8.724-1.5-11.733C925,716.706,921.318,713.4,915.451,713.4Z"/>
        <path id="Caminho_21" data-name="Caminho 21" d="M972.466,743.484h-.6c-.828,0-1.129-.527-1.129-1.279V716.254a1.66,1.66,0,0,0-1.8-1.805H962.16a1.665,1.665,0,0,0-1.729,1.5l-.227,1.655a11.269,11.269,0,0,0-9.176-4.211c-8.274,0-16.549,6.769-16.549,20.082,0,10.005,5.04,18.58,15.872,18.58,3.685,0,8.5-2.106,10.531-4.438h.15c.979,2.182,2.783,3.46,7.222,3.46h3.986a1.639,1.639,0,0,0,1.8-1.729v-4.364C974.045,743.859,973.519,743.484,972.466,743.484ZM959.452,739.8a9.378,9.378,0,0,1-6.317,3.158c-5.718,0-6.922-5.566-6.922-10.229,0-7,3.461-10,7.146-10a10.231,10.231,0,0,1,6.093,2.556Z"/>
        <path id="Caminho_22" data-name="Caminho 22" d="M1005.786,741.453a3.355,3.355,0,0,0-.827.226,16.875,16.875,0,0,1-7.523,1.579c-5.19,0-8.5-3.686-8.5-10.53,0-6.469,3.159-10.38,9.026-10.38a18.018,18.018,0,0,1,6.62,1.428,3.214,3.214,0,0,0,1.053.3c.451,0,.827-.3.978-1.053l1.2-5.416a3.117,3.117,0,0,0,.152-.827c0-.752-.3-1.053-.978-1.354a25.883,25.883,0,0,0-10.456-2.03c-11.959,0-19.256,7.748-19.256,19.932,0,9.76,4.725,16.111,12.743,18.074l-.558,4.117a6.167,6.167,0,0,0-.074,1.127c0,1.054.375,1.731,1.88,1.731h1.956c2.482,0,3.61.526,3.61,2.256,0,1.129-1.278,1.806-2.858,1.806a13.735,13.735,0,0,1-3.611-.677,4.163,4.163,0,0,0-1.128-.226c-.376,0-.527.151-.677.677l-.6,2.106a.971.971,0,0,0-.074.452c0,.451.224.827.977,1.127a17.581,17.581,0,0,0,5.791,1.129c5.342,0,9.4-2.407,9.4-6.62,0-3.836-2.783-6.243-8.048-6.243h-.6l.154-2.112c.05,0,.1.006.147.006a25.026,25.026,0,0,0,11.509-2.256c.6-.3,1.2-.527,1.2-1.355,0-1.2-1.2-4.663-1.579-6.016C1006.689,741.9,1006.388,741.453,1005.786,741.453Z"/>
        <path id="Caminho_23" data-name="Caminho 23" d="M1021.581,706.776c.226.527.526.752.9.752a2.673,2.673,0,0,0,1.206-.45,14.924,14.924,0,0,1,4.888-1.655c2.709,0,4.889,2.633,7.824,2.633,2.858,0,5.565-1.731,7.9-3.46a1.3,1.3,0,0,0,.6-1.054,1.816,1.816,0,0,0-.3-.977l-2.33-3.611c-.3-.451-.6-.678-.979-.678a2.393,2.393,0,0,0-1.205.377,14.365,14.365,0,0,1-4.662,1.8c-2.108,0-5.342-2.708-8.35-2.708-2.258,0-4.89,1.43-6.846,2.708-.677.451-1.053.752-1.053,1.2a3.094,3.094,0,0,0,.3.9Z"/>
        <path id="Caminho_24" data-name="Caminho 24" d="M1050.089,743.484h-.6c-.828,0-1.129-.527-1.129-1.279V716.254a1.66,1.66,0,0,0-1.8-1.805h-6.77a1.665,1.665,0,0,0-1.73,1.5l-.227,1.655a11.272,11.272,0,0,0-9.176-4.211c-8.275,0-16.55,6.769-16.55,20.082,0,10.005,5.041,18.58,15.873,18.58,3.685,0,8.5-2.106,10.531-4.438h.15c.979,2.182,2.783,3.46,7.221,3.46h3.986a1.639,1.639,0,0,0,1.8-1.729v-4.364C1051.669,743.859,1051.144,743.484,1050.089,743.484Zm-13.012-3.685a9.38,9.38,0,0,1-6.318,3.158c-5.717,0-6.92-5.566-6.92-10.229,0-7,3.459-10,7.144-10a10.232,10.232,0,0,1,6.094,2.556Z"/>
        <path id="Caminho_25" data-name="Caminho 25" d="M1074.61,713.4c-12.185,0-19.181,8.2-19.181,19.255,0,11.207,5.943,19.407,18.654,19.407,12.186,0,19.182-8.2,19.182-19.256C1093.265,721.6,1087.321,713.4,1074.61,713.4Zm-.377,29.787c-5.566,0-7.146-5.04-7.146-10.607,0-5.491,1.807-10.305,7.373-10.305s7.146,4.889,7.146,10.456C1081.606,738.219,1079.8,743.184,1074.233,743.184Z"/>
      </g>
    </g>
    <g id="Grupo_3" data-name="Grupo 3">
      <path id="Caminho_26" data-name="Caminho 26" d="M909.05,286.831c37.577-3.111,181.073,38.635,192.781,91.66,11.326,51.294-105.605,131.675-93.64,163.917,7.368,19.865,42.179,10.12,66.079,9.871,42.846-.45,8.617,68.451-96.922,65.869-54.7-1.338-112.312-7.525-114.729-56.294C859.372,496.322,988.9,437.189,972.594,409.465c-6.66-11.322-33.9-10.2-64.2-11.073C824.7,395.98,858.005,291.053,909.05,286.831Z"/>
      <path id="Caminho_27" data-name="Caminho 27" d="M727.735,260.389c-36.177,29.033-55.178,126.794-59.177,178.809-4.987,64.807,13.092,154.894,98.844,175.481,74.171,17.806,100.845-24.032,70.151-39.8-43.127-22.155-54.633-55.966-53.187-97.852.516-15,4.588-26.814,16.768-26.062,30.109,1.857,62.11-2.163,60.646-44.88-.918-26.766-43.831-6.625-54.454-23.012-10.095-15.574,34.081-69.666,19.2-96.755C816.07,267.07,749.236,243.127,727.735,260.389Z"/>
      <path id="Caminho_28" data-name="Caminho 28" d="M312.617,441.589c25.55-6.184,46.714-13.084,64.291-20.272.332-.14.633-.3.961-.441,11.039-58.327,53.5-111.6,114.074-132.662,16.033-71.315-11.717-148.672-81.78-186.892-42.529-24.3-96.65-33.465-155.352-21.815C115.606,107.126,52.194,246.92,108.308,417.838,151.129,548.255,252.8,638.446,299.419,615.02,357.191,585.989,181.658,473.3,312.617,441.589Z"/>
      <path id="Caminho_29" data-name="Caminho 29" d="M532.456,514.82c9.933,1.6,30.59,3.662,46.417,2.185,36.394-1.639,64.178-17.615,81.671-40.387-4.148-38.5-.219-79.7,7.3-116.407-12.532-22.334-33.709-42.124-64.6-55.148-42.611-16.606-107.767-16.108-153.446,19.179-48.506,37.473-74.359,92.355-67.289,146.809,8.4,77.541,57.894,111.456,78.62,124.106C491,613.4,532.937,621.941,573.708,617.624c38.01-4.969,56.311-19.753,63.513-28.068,11.549-13.351,9.907-26.61,5.589-32.622-6.621-9.221-15.985-5.572-32.521-2.465-40.819,7.678-63.713-5.266-72.934-12.83C520.22,527.585,520.574,512.9,532.456,514.82Z"/>
    </g>
  </g>
</svg>
