<svg xmlns="http://www.w3.org/2000/svg" width="32" height="32" viewBox="0 0 32 32"><path d="M24,32H8a8.009,8.009,0,0,1-8-8V8A8.009,8.009,0,0,1,8,0H24a8.009,8.009,0,0,1,8,8V24A8.009,8.009,0,0,1,24,32ZM2.316,7.732V17.9A16.647,16.647,0,0,0,3.7,23.054l.138.24a13.854,13.854,0,0,0,4.677,5.169,13.071,13.071,0,0,0,7.149,2.2,1.22,1.22,0,0,0,.129,0c.772,0,4.769-.106,7.624-2.208a13.9,13.9,0,0,0,4.73-5.174l.136-.235a16.482,16.482,0,0,0,1.4-5.149V7.732H26.3V17.9a13.611,13.611,0,0,1-1.124,3.769l-.171.279,0,.005a10.871,10.871,0,0,1-3.664,3.834,10.581,10.581,0,0,1-5.415,1.571v-.006H15.8a9.674,9.674,0,0,1-5.227-1.567,10.827,10.827,0,0,1-3.626-3.836l-.171-.282A13.723,13.723,0,0,1,5.66,17.9V7.732Zm14-.067c-.454,0-.905.014-1.558.048l-.274.014c-.61.031-1.444.073-1.944.13a12.712,12.712,0,0,1,.169,1.74c.042,1.051.093,2.711.093,4.655s-.053,3.671-.1,4.778a10.866,10.866,0,0,1-.165,1.581h3.37a10.889,10.889,0,0,1-.159-1.581c-.04-.975-.067-1.975-.078-2.972h.858a8.631,8.631,0,0,0,1.986-.232,4.154,4.154,0,0,0,1.568-.74,3.782,3.782,0,0,0,1.154-1.408,4.792,4.792,0,0,0,.426-2.112,3.54,3.54,0,0,0-1.481-2.912A6.039,6.039,0,0,0,16.318,7.665ZM26.339,6.437v.7h3.344v-.7ZM2.316,6.422v.7H5.66v-.7ZM26.339,5.266v.558h3.344V5.266ZM2.316,5.252v.557H5.66V5.252ZM26.339,4.208v.445h3.344V4.208ZM2.316,4.192v.446H5.66V4.192Zm24.024-.849v.278h3.344V3.344ZM2.316,3.328v.279H5.66V3.328ZM16.19,14.063h-.535c0-1.386.03-2.834.09-4.43l.008,0c.136-.012.55-.05.869-.05a2.436,2.436,0,0,1,1.447.48,2.059,2.059,0,0,1,.788,1.668,2.125,2.125,0,0,1-.834,1.814h0v-.007A3.226,3.226,0,0,1,16.19,14.063Z"/></svg>