<svg xmlns="http://www.w3.org/2000/svg" width="320.014" height="78.739" viewBox="0 0 320.014 78.739"><g transform="translate(0 -0.02)"><path d="M539.1,26.539a10.2,10.2,0,0,0-3.935-2.656,13.323,13.323,0,0,0-4.658-.822,11.354,11.354,0,0,0-5.683,1.279,12.439,12.439,0,0,0-3.307,2.525,3.4,3.4,0,0,0-1.911-2.426,8.132,8.132,0,0,0-3.7-.723,35.175,35.175,0,0,0-4.034.452s.9,10.26.9,19.643c0,7.978-.289,23.4-.289,23.4s3.14-1.265,4.775-1.97a10.993,10.993,0,0,0,3.777-2.471c.9-1.071.985-2.711.958-4.893l-.086-4.97a5.008,5.008,0,0,0,.61.646,6.24,6.24,0,0,0,1.518,1.048,13.213,13.213,0,0,0,2.408.958,11.664,11.664,0,0,0,3.339.425,14.457,14.457,0,0,0,4.595-.786,10.535,10.535,0,0,0,4.229-2.711,14.3,14.3,0,0,0,3.072-5.245,25.245,25.245,0,0,0,1.193-8.435,23.317,23.317,0,0,0-1.026-7.414,13.241,13.241,0,0,0-2.742-4.857ZM531.9,46.354a5.39,5.39,0,0,1-4.97,2.62,6.587,6.587,0,0,1-3.162-.718,9.959,9.959,0,0,1-1.9-1.324c-.1-4.712.185-12.035.248-12.98a4.882,4.882,0,0,1,1.012-3.009,5.238,5.238,0,0,1,3.768-1.193,6.569,6.569,0,0,1,3.1.691,5.272,5.272,0,0,1,2.051,1.934,8.9,8.9,0,0,1,1.111,2.955,19.248,19.248,0,0,1,.33,3.673A14.324,14.324,0,0,1,531.9,46.354Z" transform="translate(-280.617 -12.631)"/><path d="M27.559,24.565C24.423,22.188,20.457,21,13.621,21c-1.771,0-3.434.059-5.62.172s-5.909.28-8,.52a45.547,45.547,0,0,1,.61,6.275c.167,4.193.334,10.147.334,16.788,0,6.881-.181,13.02-.352,17.235A38.623,38.623,0,0,1,0,67.692H12.153a38.623,38.623,0,0,1-.574-5.7c-.117-2.824-.235-6.519-.285-10.721h2.973a31.087,31.087,0,0,0,7.283-.836,14.864,14.864,0,0,0,5.656-2.67,13.63,13.63,0,0,0,4.161-5.078A17.2,17.2,0,0,0,32.9,35.068,12.772,12.772,0,0,0,27.559,24.565ZM19.765,42.184a11.7,11.7,0,0,1-6.605,1.893H11.227c0-6.3.172-11.936.325-15.979.6-.059,2.056-.185,3.162-.185a8.715,8.715,0,0,1,5.218,1.73,7.4,7.4,0,0,1,2.846,6.018A7.624,7.624,0,0,1,19.77,42.2Z" transform="translate(0 -11.502)"/><path d="M98.669,54.38c0-.632-.032-2.58-2.982-3.208A5.909,5.909,0,0,0,90.523,52.5a10.617,10.617,0,0,0-2.358,2.711,4.188,4.188,0,0,0-2.033-2.837,7.292,7.292,0,0,0-3.795-.642A28.63,28.63,0,0,0,78,52.469s.19,1.233.452,5.1c.194,2.968.212,11.078.212,11.078s.077,5.774-.194,10.206c-.28,4.545-.425,5.286-.425,5.286h11.1s-.307-1.681-.551-5.209-.208-5.945-.208-10.292,0-6.573,1.355-8.173c1.048-1.229,2.435-1.861,4.735-1.017a5.367,5.367,0,0,1,1.775,1.179,17.167,17.167,0,0,0,1.41-2.539,11.191,11.191,0,0,0,1-3.709Z" transform="translate(-42.761 -27.968)"/><path d="M151.9,55.767a15.525,15.525,0,0,0-11.913-4.649,19.851,19.851,0,0,0-6.013.953,14.764,14.764,0,0,0-5.263,2.986,15.541,15.541,0,0,0-4.066,5.128,18.035,18.035,0,0,0-1.491,7.427A20.194,20.194,0,0,0,124.83,76.2a15.383,15.383,0,0,0,4.446,5.467,14.859,14.859,0,0,0,5.8,2.851,27.278,27.278,0,0,0,6.628.813,23.971,23.971,0,0,0,6.479-.777,13.648,13.648,0,0,0,4.274-1.861,3.4,3.4,0,0,0,1.807-2.711,5.561,5.561,0,0,0-.935-2.611,18.3,18.3,0,0,0-1.807-2.616c-.429.361-.9.759-1.432,1.188a10.066,10.066,0,0,1-1.861,1.188,12.973,12.973,0,0,1-2.435.9,11.964,11.964,0,0,1-3.162.375q-4.658,0-6.8-2.48a8.954,8.954,0,0,1-2.435-5.692l21.378-.52a28.706,28.706,0,0,0,.425-4.165C155.207,61.125,154.295,58.225,151.9,55.767Zm-18.573,9.383a8.729,8.729,0,0,1,1.676-5.715A6.248,6.248,0,0,1,139.8,57.3a5.845,5.845,0,0,1,5.037,2.286,8.728,8.728,0,0,1,1.233,5.046Z" transform="translate(-67.517 -28.013)"/><path d="M377.985,55.767a15.508,15.508,0,0,0-11.909-4.649,19.879,19.879,0,0,0-6.018.953,14.8,14.8,0,0,0-5.263,2.986,15.531,15.531,0,0,0-4.066,5.128,18.035,18.035,0,0,0-1.491,7.427,20.267,20.267,0,0,0,1.667,8.584,15.478,15.478,0,0,0,4.446,5.467,14.909,14.909,0,0,0,5.8,2.851,27.215,27.215,0,0,0,6.623.813,24,24,0,0,0,6.483-.777,13.7,13.7,0,0,0,4.26-1.87,3.375,3.375,0,0,0,1.807-2.711,5.6,5.6,0,0,0-.931-2.611,19.068,19.068,0,0,0-1.807-2.616c-.452.361-.9.759-1.432,1.188a10.266,10.266,0,0,1-1.866,1.188,12.971,12.971,0,0,1-2.435.9,11.941,11.941,0,0,1-3.162.375q-4.658,0-6.8-2.48a8.954,8.954,0,0,1-2.435-5.692l21.383-.52a29,29,0,0,0,.42-4.165C381.287,61.125,380.375,58.225,377.985,55.767Zm-18.573,9.383a8.755,8.755,0,0,1,1.676-5.715,6.248,6.248,0,0,1,4.757-2.137,5.845,5.845,0,0,1,5.037,2.286,8.728,8.728,0,0,1,1.238,5.046Z" transform="translate(-191.458 -28.013)"/><path d="M249.03,69.742s.05-7.079.05-8.3c0-3.474-.958-6.284-2.991-8.1-1.527-1.355-4.518-2.223-7.5-2.223-4.26,0-6.447,1.175-9.528,4.4a7.4,7.4,0,0,0-2.769-3.045,10.374,10.374,0,0,0-5.711-1.355,9.484,9.484,0,0,0-5.394,1.238,10.554,10.554,0,0,0-3.447,2.9c-.786-2.8-2.62-3.56-5.8-3.465a23.145,23.145,0,0,0-4.364.718s.248,2.589.452,5.146c.217,2.81.271,7.965.208,11.9s-.136,7.07-.194,9.361-.425,5.259-.425,5.259h11.1a50.744,50.744,0,0,1-.551-5.223c-.081-2.291-.185-9.23-.185-9.23s0-2.516.1-5.448,1.712-5.159,4.238-5.159c2.909,0,4.577,1.324,4.577,3.33l.068,7.278s-.023,6.352-.19,9.189-.429,5.259-.429,5.259H231.5s-.506-3.194-.6-5.345c-.131-3.09-.117-8.909-.117-8.909V65.414c.072-3.533,1.2-6.289,4.287-6.289,2.214,0,4.089,1.1,4.089,3.357,0,0,.081,3.745.081,7.269s-.095,6.56-.163,9.162a48.585,48.585,0,0,1-.452,5.286h11.168s-.416-2.44-.587-5.281C249.1,77.048,249.03,71.721,249.03,69.742Z" transform="translate(-110.505 -28.014)"/><path d="M327.372,70.527c0-2.973.6-12.532.6-12.532a6.008,6.008,0,0,0-.474-2.751c-.366-.7-2.155-2.909-5.936-2.675a32.275,32.275,0,0,0-4.518.718,47.666,47.666,0,0,1,.452,5.2c.086,2.792.212,5.164.212,12.031,0,4.238-.235,9.144-.235,9.144-.194,2.819.483,4.116,1.6,4.861s3.095.9,4.875.9c.727,0,4.034-.181,4.215-.271,0,0-.37-2.516-.592-5.295C327.345,77.227,327.372,75.465,327.372,70.527Z" transform="translate(-173.807 -28.799)"/><path d="M680.537,38.235a22.316,22.316,0,0,0-1.518-2.494c-.131.131-.352.33-.66.592a6.325,6.325,0,0,1-1.156.754,12.145,12.145,0,0,1-1.523.655,5.118,5.118,0,0,1-1.753.3c-2.512,0-3.515-1.468-3.768-4.595,0,0-.221-2.769-.221-7.54a53.736,53.736,0,0,1,.23-6.366s3.818.081,5.674-.136c2.331-.271,2.566-6.691,2.566-6.691h-8.241V8.12a5.76,5.76,0,0,0-.529-2.656,4.356,4.356,0,0,0-1.387-1.608,4.97,4.97,0,0,0-1.916-.786,14.259,14.259,0,0,0-2.349-.2,10.334,10.334,0,0,0-1.057.036c-.352.036-.682.054-.989.095l-1.87.149a68.1,68.1,0,0,1,.669,9.564s-2.11-.068-2.11.289a28.1,28.1,0,0,0,1.3,6.325c.108.28.809.217.809.217s.208,2.76.208,6.361v7.68q0,1.441.131,2.887a11.563,11.563,0,0,0,.6,2.756,8.457,8.457,0,0,0,3.162,4.134,11.133,11.133,0,0,0,6.411,1.572,16.771,16.771,0,0,0,3.9-.425,12.266,12.266,0,0,0,3.077-1.125,8.29,8.29,0,0,0,2.173-1.509,2.585,2.585,0,0,0,.691-1.672,4.4,4.4,0,0,0-.551-1.97Z" transform="translate(-361.074 -1.563)"/><path d="M319.139,35.429a6.555,6.555,0,0,0,4.256.325,6.289,6.289,0,0,0,3.56-2.141,4.274,4.274,0,0,0,.985-3.962,4.215,4.215,0,0,0-2.534-3.077,6.777,6.777,0,0,0-4.278-.289,6.582,6.582,0,0,0-3.646,2.218,4.546,4.546,0,0,0,1.658,6.926Z" transform="translate(-173.503 -14.28)"/><path d="M689.476,7.28a4.153,4.153,0,0,1-.822-1.355,4.784,4.784,0,0,1-.285-1.654,4.546,4.546,0,0,1,.285-1.654,3.945,3.945,0,0,1,.84-1.355,4.017,4.017,0,0,1,1.355-.9,4.843,4.843,0,0,1,3.56,0,3.954,3.954,0,0,1,1.328.9,4,4,0,0,1,.836,1.355,4.547,4.547,0,0,1,.294,1.649,4.586,4.586,0,0,1-.294,1.654A3.958,3.958,0,0,1,694.4,8.206a4.468,4.468,0,0,1-1.78.339,4.518,4.518,0,0,1-1.807-.339,4.021,4.021,0,0,1-1.337-.926Zm1.663.28a3.578,3.578,0,0,0,1.477.294,3.492,3.492,0,0,0,1.459-.3,3.329,3.329,0,0,0,1.084-.791,3.4,3.4,0,0,0,.669-1.143,4.03,4.03,0,0,0,.231-1.355,3.986,3.986,0,0,0-.23-1.355,3.36,3.36,0,0,0-.669-1.134A3.194,3.194,0,0,0,694.075,1,3.564,3.564,0,0,0,692.6.7,3.483,3.483,0,0,0,691.134,1a3.163,3.163,0,0,0-1.08.786,3.376,3.376,0,0,0-.673,1.134,3.981,3.981,0,0,0-.226,1.355,3.849,3.849,0,0,0,.5,1.961,3.258,3.258,0,0,0,1.482,1.328Zm-.1-5.873q.357-.041.773-.054h.669a2.43,2.43,0,0,1,1.617.452,1.391,1.391,0,0,1,.488,1.089,1.6,1.6,0,0,1-.1.578,1.57,1.57,0,0,1-.267.452,1.572,1.572,0,0,1-.393.316,1.513,1.513,0,0,1-.452.176h.027l1.315,2.078a.8.8,0,0,1-.239.086,1.016,1.016,0,0,1-.221.027.863.863,0,0,1-.366-.081.741.741,0,0,1-.3-.285L692.5,4.8h-.664V6.788h-.8Zm1.608,2.358c.732,0,1.1-.3,1.1-.9a.7.7,0,0,0-.289-.61,1.608,1.608,0,0,0-.935-.208h-.4a1.129,1.129,0,0,0-.307.027h.027V4.036Z" transform="translate(-377.377 0)"/><path d="M615.024,27.438c-2.806-2.887-6.5-4.518-11.507-4.518a19.246,19.246,0,0,0-5.814.9,14.285,14.285,0,0,0-5.087,2.887,15.047,15.047,0,0,0-3.912,4.97,17.479,17.479,0,0,0-1.441,7.183,19.633,19.633,0,0,0,1.613,8.3,14.909,14.909,0,0,0,4.3,5.286,14.5,14.5,0,0,0,5.6,2.756,26.338,26.338,0,0,0,6.4.786,23.167,23.167,0,0,0,6.262-.754,13.3,13.3,0,0,0,4.12-1.807,3.265,3.265,0,0,0,1.73-2.62,5.444,5.444,0,0,0-.9-2.53,18.747,18.747,0,0,0-1.73-2.525c-.416.352-.876.736-1.387,1.148a9.693,9.693,0,0,1-1.807,1.152,12.985,12.985,0,0,1-2.354.9,11.619,11.619,0,0,1-3.045.357q-4.518,0-6.573-2.394a8.66,8.66,0,0,1-2.354-5.5l20.66-.5a27.748,27.748,0,0,0,.411-4.025C618.219,32.615,617.333,29.81,615.024,27.438ZM597.08,36.51a8.423,8.423,0,0,1,1.617-5.516,6.036,6.036,0,0,1,4.613-2.069,5.718,5.718,0,0,1,4.866,2.209,8.386,8.386,0,0,1,1.2,4.875Z" transform="translate(-321.945 -12.554)"/><path d="M462.9,65.9c-1.446-1.73-3.47-4.211-5.164-6.42s-4.089-6.113-4.089-6.113l-2.494-4.007a16.855,16.855,0,0,0,2.6-1.595,13.675,13.675,0,0,0,4.174-5.078,17.158,17.158,0,0,0,1.532-7.617,12.8,12.8,0,0,0-5.336-10.495C450.988,22.211,447.017,21,440.177,21c-1.766,0-3.434.059-5.62.172s-5.9.289-8,.52a46.456,46.456,0,0,1,.61,6.275c.163,4.193.334,10.147.334,16.788,0,6.881-.185,13.02-.352,17.235a38.628,38.628,0,0,1-.574,5.7h12.13a38.62,38.62,0,0,1-.574-5.7c-.113-2.824-.23-6.519-.3-10.716h3.19l7.387,12.474a10.156,10.156,0,0,0,3.162,3.533,7.775,7.775,0,0,0,4.242,1.084,26.527,26.527,0,0,0,7.924-1.486S463.177,66.232,462.9,65.9ZM437.782,44.1c0-6.3.172-11.936.33-15.979.6-.059,2.056-.185,3.162-.185a8.729,8.729,0,0,1,5.223,1.73,7.4,7.4,0,0,1,2.851,6.018,7.623,7.623,0,0,1-3.009,6.524,11.678,11.678,0,0,1-6.61,1.893Z" transform="translate(-233.848 -11.502)"/><path d="M4.415,151.933H1.094a3.89,3.89,0,0,1-.045-.632,1.039,1.039,0,0,1,.366-.836,1.455,1.455,0,0,1,.967-.307H9.859a4.22,4.22,0,0,1,.05.682.989.989,0,0,1-.343.8,1.405,1.405,0,0,1-.958.294h-2V160.8H4.415Z" transform="translate(-0.575 -82.308)"/><path d="M37.2,159.123a1.477,1.477,0,0,1,.98.294,1.044,1.044,0,0,1,.339.836c0,.113,0,.212,0,.294v.262H31.59V150.16h6.623a3.073,3.073,0,0,1,.045.587,1.035,1.035,0,0,1-.307.854,1.645,1.645,0,0,1-1.039.258H33.781v2.62h3.366v1.7H33.781v2.946Z" transform="translate(-17.318 -82.31)"/><path d="M59.626,150a1.355,1.355,0,0,1,.754.2,1.509,1.509,0,0,1,.515.7l2.394,5.679,2.431-5.625a1.4,1.4,0,0,1,1.319-.949,3.163,3.163,0,0,1,1.093.14l.764,10.563H66.85l-.492-7.052-2.164,4.83H62.386l-2.1-4.622-.452,6.844H57.76l.777-10.563A3.8,3.8,0,0,1,59.626,150Z" transform="translate(-31.665 -82.221)"/><path d="M102.077,153.2a3.424,3.424,0,0,1-1.125,2.765,4.828,4.828,0,0,1-3.208.953h-.764v3.795H94.79V150.134A23.742,23.742,0,0,1,97.6,150a5.812,5.812,0,0,1,3.366.791,2.787,2.787,0,0,1,1.116,2.408Zm-2.223.113a1.672,1.672,0,0,0-.524-1.355,2.259,2.259,0,0,0-1.509-.452,6.719,6.719,0,0,0-.858.05v3.813h.524a2.711,2.711,0,0,0,1.807-.492A2.006,2.006,0,0,0,99.854,153.31Z" transform="translate(-51.966 -82.22)"/><path d="M131.419,155.184a6.2,6.2,0,0,1-1.265,4.129,4.459,4.459,0,0,1-3.614,1.491,4.712,4.712,0,0,1-2.6-.682,4.265,4.265,0,0,1-1.613-1.952,7.45,7.45,0,0,1-.547-2.968,6.75,6.75,0,0,1,.6-2.946,4.328,4.328,0,0,1,1.7-1.916,4.97,4.97,0,0,1,2.589-.651,4.346,4.346,0,0,1,3.5,1.446A5.99,5.99,0,0,1,131.419,155.184Zm-2.259,0a5.051,5.051,0,0,0-.642-2.787,2.1,2.1,0,0,0-1.866-.976,2.223,2.223,0,0,0-1.956.976,4.924,4.924,0,0,0-.664,2.787,5.227,5.227,0,0,0,.664,2.851,2.286,2.286,0,0,0,3.8,0,5.245,5.245,0,0,0,.678-2.833Z" transform="translate(-66.76 -82.048)"/><path d="M179.306,155.186a6.528,6.528,0,0,1-.619,2.941,4.346,4.346,0,0,1-1.753,1.9,5.286,5.286,0,0,1-2.711.655H170.84V150.14a23.45,23.45,0,0,1,2.986-.19,5.628,5.628,0,0,1,4.066,1.315A5.406,5.406,0,0,1,179.306,155.186Zm-2.223.032a4.134,4.134,0,0,0-.759-2.711,2.909,2.909,0,0,0-2.322-.881,7,7,0,0,0-.949.045v7.337h.872a2.97,2.97,0,0,0,2.4-.9A4.444,4.444,0,0,0,177.084,155.218Z" transform="translate(-93.658 -82.195)"/><path d="M207.6,159.123a1.455,1.455,0,0,1,.976.294,1.048,1.048,0,0,1,.343.836v.294a1.083,1.083,0,0,1-.023.262H202V150.16h6.619a3.027,3.027,0,0,1,.05.587,1.035,1.035,0,0,1-.312.854,1.626,1.626,0,0,1-1.039.258h-3.126v2.62h3.366v1.7h-3.366v2.946Z" transform="translate(-110.74 -82.31)"/><path d="M252.374,160.721h-1.843l-4.518-6.989v6.989H243.93V150.114a4.39,4.39,0,0,1,.971-.095,1.676,1.676,0,0,1,.754.149,1.5,1.5,0,0,1,.565.565l4.066,6.686V150.1a4.516,4.516,0,0,1,.714-.077c.9,0,1.355.411,1.355,1.238Z" transform="translate(-133.727 -82.232)"/><path d="M283.66,156.435a12.4,12.4,0,0,1-.063,1.283,3.5,3.5,0,0,1-.614,1.762,3.163,3.163,0,0,1-1.4,1.107,5.335,5.335,0,0,1-2.087.37,4.42,4.42,0,0,1-2.842-.786,3.614,3.614,0,0,1-1.175-2.516,9.493,9.493,0,0,1-.063-1.22V150.11a5.141,5.141,0,0,1,.759-.077c.944,0,1.414.411,1.414,1.238v5.317a4.517,4.517,0,0,0,.19,1.477,1.437,1.437,0,0,0,.619.777,2.218,2.218,0,0,0,1.143.258,1.807,1.807,0,0,0,1.473-.574,2.846,2.846,0,0,0,.452-1.807V150.1a5.188,5.188,0,0,1,.763-.077c.944,0,1.414.411,1.414,1.238Z" transform="translate(-150.99 -82.233)"/><path d="M307.775,151.933h-3.316a3.861,3.861,0,0,1-.05-.632,1.039,1.039,0,0,1,.366-.836,1.468,1.468,0,0,1,.985-.307h7.463a4.8,4.8,0,0,1,.05.682,1,1,0,0,1-.343.8,1.409,1.409,0,0,1-.962.294h-2V160.8h-2.191Z" transform="translate(-166.882 -82.307)"/><path d="M342.041,153.116a3.456,3.456,0,0,1-.529,1.938,2.937,2.937,0,0,1-1.486,1.161l2.62,4.382a3.131,3.131,0,0,1-1.27.271,1.807,1.807,0,0,1-.985-.253,2.386,2.386,0,0,1-.732-.827l-1.807-3.081h-.872v4H334.79V150.134A23.8,23.8,0,0,1,337.6,150a5.866,5.866,0,0,1,3.361.768A2.711,2.711,0,0,1,342.041,153.116Zm-2.286.208a1.807,1.807,0,0,0-.452-1.355,2.092,2.092,0,0,0-1.477-.452h-.492l-.348.032v3.668h.745a2.155,2.155,0,0,0,1.518-.492A1.839,1.839,0,0,0,339.755,153.323Z" transform="translate(-183.538 -82.22)"/><path d="M363.11,150.1a5.135,5.135,0,0,1,.764-.077c.94,0,1.414.411,1.414,1.238v9.487H363.11Z" transform="translate(-199.064 -82.233)"/><path d="M387.981,153.09a3.456,3.456,0,0,1-.529,1.938,2.937,2.937,0,0,1-1.486,1.161l2.62,4.382a3.162,3.162,0,0,1-1.27.271,1.807,1.807,0,0,1-.985-.253,2.385,2.385,0,0,1-.732-.827l-1.807-3.081h-.872v4H380.73V150.108a23.748,23.748,0,0,1,2.81-.158,5.84,5.84,0,0,1,3.357.768,2.71,2.71,0,0,1,1.084,2.372Zm-2.286.208a1.807,1.807,0,0,0-.474-1.355,2.11,2.11,0,0,0-1.477-.452h-.492l-.348.032v3.668h.745a2.137,2.137,0,0,0,1.513-.492A1.807,1.807,0,0,0,385.7,153.3Z" transform="translate(-208.724 -82.195)"/><path d="M405.708,170.174a1.188,1.188,0,0,1-.325.858,1.138,1.138,0,0,1-.849.33,1.157,1.157,0,0,1-.845-.33,1.17,1.17,0,0,1-.33-.858,1.12,1.12,0,0,1,.33-.836,1.17,1.17,0,0,1,.863-.339,1.152,1.152,0,0,1,.84.325,1.125,1.125,0,0,1,.316.849Z" transform="translate(-221.129 -92.637)"/><path d="M441.148,155.186a6.528,6.528,0,0,1-.619,2.941,4.346,4.346,0,0,1-1.753,1.9,5.286,5.286,0,0,1-2.711.655H432.7V150.14a23.452,23.452,0,0,1,2.986-.19,5.712,5.712,0,0,1,4.089,1.315A5.163,5.163,0,0,1,441.148,155.186Zm-2.223.032a4.134,4.134,0,0,0-.759-2.711,2.91,2.91,0,0,0-2.322-.881,7.093,7.093,0,0,0-.953.045v7.337h.876a2.978,2.978,0,0,0,2.4-.9,4.444,4.444,0,0,0,.759-2.887Z" transform="translate(-237.215 -82.195)"/><path d="M469.439,159.123a1.464,1.464,0,0,1,.976.294,1.048,1.048,0,0,1,.343.836v.294a1.083,1.083,0,0,1-.023.262H463.85V150.16h6.619a3.027,3.027,0,0,1,.05.587,1.035,1.035,0,0,1-.312.854,1.627,1.627,0,0,1-1.039.258h-3.126v2.62h3.366v1.7h-3.366v2.946Z" transform="translate(-254.292 -82.31)"/><path d="M508.636,160.8h-2.412l-3.574-10.621a2.454,2.454,0,0,1,.506-.113,4.8,4.8,0,0,1,.669-.045,1.477,1.477,0,0,1,.935.285,1.758,1.758,0,0,1,.556.9l2.178,7.228,2.223-7.274a1.7,1.7,0,0,1,.542-.858,1.473,1.473,0,0,1,.9-.267,4.292,4.292,0,0,1,1.08.158Z" transform="translate(-275.563 -82.231)"/><path d="M540.438,159.123a1.455,1.455,0,0,1,.976.294,1.048,1.048,0,0,1,.343.836c0,.113,0,.212,0,.294a.91.91,0,0,1-.027.262H534.85V150.16h6.619a3.023,3.023,0,0,1,.05.587,1.035,1.035,0,0,1-.312.854,1.626,1.626,0,0,1-1.039.258h-3.126v2.62h3.366v1.7h-3.366v2.946Z" transform="translate(-293.215 -82.31)"/><path d="M568.681,153.09a3.425,3.425,0,0,1-.533,1.938,2.928,2.928,0,0,1-1.482,1.161l2.62,4.382a3.162,3.162,0,0,1-1.274.271,1.807,1.807,0,0,1-.985-.253,2.421,2.421,0,0,1-.727-.827l-1.807-3.081h-.872v4H561.43V150.108a23.748,23.748,0,0,1,2.81-.158,5.84,5.84,0,0,1,3.357.768A2.711,2.711,0,0,1,568.681,153.09Zm-2.286.208a1.771,1.771,0,0,0-.479-1.355,2.087,2.087,0,0,0-1.473-.452h-.492l-.352.032v3.668h.745a2.142,2.142,0,0,0,1.518-.492A1.807,1.807,0,0,0,566.4,153.3Z" transform="translate(-307.787 -82.195)"/><path d="M598.346,155.186a6.528,6.528,0,0,1-.619,2.941,4.346,4.346,0,0,1-1.753,1.9,5.286,5.286,0,0,1-2.711.655H589.88V150.14a23.394,23.394,0,0,1,2.986-.19,5.786,5.786,0,0,1,4.089,1.315A5.136,5.136,0,0,1,598.346,155.186Zm-2.223.032a4.116,4.116,0,0,0-.764-2.711,2.9,2.9,0,0,0-2.318-.881,7.062,7.062,0,0,0-.953.045v7.337h.876a2.956,2.956,0,0,0,2.394-.9A4.416,4.416,0,0,0,596.124,155.218Z" transform="translate(-323.384 -82.195)"/><path d="M624.884,160.711l-.9-2.607h-3.659l-.872,2.607H617.29l3.682-10.481a3.162,3.162,0,0,1,1.269-.221,1.392,1.392,0,0,1,1.5.985l3.415,9.718Zm-2.711-8.719-1.441,4.518h2.842Z" transform="translate(-338.41 -82.222)"/><path d="M658.462,155.186a6.59,6.59,0,0,1-.619,2.941,4.355,4.355,0,0,1-1.757,1.9,5.272,5.272,0,0,1-2.711.655H650V150.14a23.385,23.385,0,0,1,2.982-.19,5.729,5.729,0,0,1,4.093,1.315A5.161,5.161,0,0,1,658.462,155.186Zm-2.223.032a4.145,4.145,0,0,0-.764-2.711,2.9,2.9,0,0,0-2.318-.881,7.026,7.026,0,0,0-.953.045v7.337h.872a2.97,2.97,0,0,0,2.4-.9A4.443,4.443,0,0,0,656.239,155.218Z" transform="translate(-356.343 -82.195)"/><path d="M686.759,159.123a1.455,1.455,0,0,1,.976.294,1.035,1.035,0,0,1,.343.836v.294a1.08,1.08,0,0,1-.023.262H681.17V150.16h6.623a3.074,3.074,0,0,1,.045.587,1.035,1.035,0,0,1-.312.854,1.627,1.627,0,0,1-1.039.258h-3.135v2.62h3.366v1.7h-3.366v2.946Z" transform="translate(-373.431 -82.31)"/><path d="M704.4,170.19a1.188,1.188,0,0,1-.325.858,1.138,1.138,0,0,1-.849.33,1.156,1.156,0,0,1-.845-.33,1.17,1.17,0,0,1-.33-.858,1.12,1.12,0,0,1,.33-.836,1.17,1.17,0,0,1,.845-.325,1.152,1.152,0,0,1,.84.325A1.125,1.125,0,0,1,704.4,170.19Z" transform="translate(-384.876 -92.654)"/></g></svg>