<svg xmlns="http://www.w3.org/2000/svg" width="16" height="16" viewBox="0 0 16 16"><path d="M4,0h8a4,4,0,0,1,4,4v8a4,4,0,0,1-4,4H4a4,4,0,0,1-4-4V4A4,4,0,0,1,4,0ZM4,0"/><path d="M10.09,4.328a2.966,2.966,0,0,0-1.93-.5c-.246,0-.477.008-.781.023s-.816.039-1.109.074a5.875,5.875,0,0,1,.086.871C6.379,5.374,6.4,6.2,6.4,7.12c0,.953-.023,1.8-.051,2.391a5.35,5.35,0,0,1-.082.789H7.957a5.351,5.351,0,0,1-.082-.789c-.016-.391-.031-.9-.039-1.488H8.25A4.176,4.176,0,0,0,9.258,7.91a2.108,2.108,0,0,0,.785-.371,1.906,1.906,0,0,0,.578-.7,2.4,2.4,0,0,0,.211-1.059,1.765,1.765,0,0,0-.742-1.452ZM9.012,6.77a1.622,1.622,0,0,1-.918.262H7.828c0-.871.023-1.652.043-2.215.086-.008.285-.023.441-.023a1.214,1.214,0,0,1,.723.238,1.031,1.031,0,0,1,.395.836,1.067,1.067,0,0,1-.418.906Zm0,0" fill="#fff"/><path d="M8,15a6.561,6.561,0,0,1-4.6-1.856A6.24,6.24,0,0,1,1.5,8.66c0-.059,0-.125,0-.207h0V1.5H3.168V8.25H3.2c-.012.133-.02.27-.02.41A4.769,4.769,0,0,0,8,13.363a4.772,4.772,0,0,0,4.824-4.7c0-.137-.008-.273-.019-.41h.023V1.5H14.5V8.453h0V8.66a6.241,6.241,0,0,1-1.9,4.484A6.561,6.561,0,0,1,8,15Zm0,0" fill="#fff"/><path d="M0,0H2.7" transform="translate(1.246 2.085)" fill="none" stroke="#000" stroke-width="0.5"/><path d="M0,0H2.7" transform="translate(1.246 3.746)" fill="none" stroke="#000" stroke-width="0.5"/><path d="M0,0H2.7" transform="translate(12.462 2.085)" fill="none" stroke="#000" stroke-width="0.5"/><path d="M0,0H2.7" transform="translate(12.462 3.746)" fill="none" stroke="#000" stroke-width="0.5"/><path d="M0,0H2.7" transform="translate(12.462 2.915)" fill="none" stroke="#000" stroke-width="0.5"/><path d="M0,0H2.7" transform="translate(1.246 2.915)" fill="none" stroke="#000" stroke-width="0.5"/></svg>