<svg xmlns="http://www.w3.org/2000/svg" width="322.331" height="70.331" viewBox="0 0 322.331 70.331"><g transform="translate(-985.989 -2210.669)"><g transform="translate(909.967 2100.261)"><path d="M333.183,130.942c0-11.858-11.74-19.891-28.385-19.8-15.244.086-36.534,9.869-36.285,36.235.215,22.863,20.471,33.36,34.467,33.36,18.416,0,28.121-12.689,28.979-20.606.14-2.863-3.14-3.545-4.857-1.5-2.711,4.228-8.706,7.912-16.269,7.912-10.553,0-17.44-5.08-18.6-11.974C310.214,155.507,333.183,148.355,333.183,130.942Zm-46.236,15.68s-1.43.179-1.592-.041c-.492-.67.712-2.824,3.71-5.6,1.086-7.261,6.146-14.565,13.468-17.313,1.075-.4,1.173-1.941,1.625-3a6.892,6.892,0,0,1,4.211-4.134c4.623-1.338,6.862,1.979,6.58,3.528,2.969,1.993,2.28,4.882-.8,6.315a2.122,2.122,0,0,0,.391-1.83,1.129,1.129,0,0,1-1.14.357l-.535,1.562c2.717,8.772.375,17.035-16.691,19.2C289.529,147.806,286.988,146.75,286.947,146.622Z"/><path d="M254.478,110.408c-6.131,0-10.952,2.174-16.44,8.1a.993.993,0,0,1-1.755-.624v-3.376c0-2.644-1.252-4.314-4.452-2.783l-16.7,7.794c-1.809.835-2.922,1.949-2.922,3.341v.557c0,3.479,6.4,3.9,6.4,10.021v32.571c0,5.846-5.426,6.96-5.426,10.439v.557c0,1.531,1.252,2.366,3.2,2.366H240.67c1.809,0,3.061-.835,3.061-2.366v-.557c0-3.479-7.443-4.593-7.443-10.439V138.453c-.117-3.461-.672-5.844-2.809-7.244v0c-2.126-.642-4.537.056-6.445.014a3.743,3.743,0,0,1-3.417-1.819c-.361-.084-.873-.35-.873-.692,0-.387.438-.657.814-.75.286-.95,1.246-2.341,3.995-4.171a11.68,11.68,0,0,1,3.091-1.4c.186-.07.8-2.522,2.1-3.068.47-.2,1.6.835,1.721,2.615a.644.644,0,0,0,.233.446c1.522,1.3,3.425,1.957,8.471.67a7.142,7.142,0,0,1,3.867-.02c5.466,1.475,4.9,11.687,12.668,11.687,5.094,0,7.924-4.651,7.924-10.5C267.628,116.831,262.438,110.408,254.478,110.408Z"/><path d="M116.154,140.079c-4.619-1.518-9.163-2.42-13.288-5.071a6.368,6.368,0,0,1-3.311-4.112c-.28-.758-.889-.938-1.9-.612a8.067,8.067,0,0,0-.819.319,2.29,2.29,0,0,1-2.445-.327,6.664,6.664,0,0,0-1.746-.915,2.94,2.94,0,0,1-1.913-1.174,1.969,1.969,0,0,1,.262-2.492,8.5,8.5,0,0,1,1.486-1.035,6.542,6.542,0,0,1,1.054-.488,5.162,5.162,0,0,0,3.179-3.015,2.686,2.686,0,0,1,1.514-1.481,9.527,9.527,0,0,0,1.217-.735,4.668,4.668,0,0,1,2.165-.823c.319-.043.637-.092.941-.136.092-1.207.533-3.543.539-3.582a21.049,21.049,0,0,1,2.772,3.6,5.264,5.264,0,0,0,1.117,1.476,8.427,8.427,0,0,1,.743.572c1.939,1.859,8.184,8.847,9.289,10.3,7.664,10.073,23.728,1.878,14.391-10.167-3.226-4.163-11.336-9.594-27.515-9.412-9.488.106-29.614,5.733-26.217,24.715a16.5,16.5,0,0,0,7.852,11.652c6.726,4.246,21.134,6.718,24.621,8.551a11.553,11.553,0,0,1,5.818,9.894c-.043,6.264-4.452,9.186-10.157,9.186-13.914,0-9.184-18.373-21.428-18.373-4.731,0-8.349,2.367-8.349,7.656,0,8.63,11.827,16.146,29.777,16.146,18.645,0,29.776-8.63,29.776-19.9C135.575,146.8,125.791,143.019,116.154,140.079Z"/><path d="M360.367,126.176c0-5.011,3.479-9.326,9.045-9.326,12.105,0,8.07,18.234,19.619,18.234,4.452,0,7.931-3.2,7.931-7.238,0-8.629-11.131-16.7-28.663-16.7-16.7,0-28.246,8.63-28.246,20.461,0,8.98,4.148,13.779,9.727,16.824a45.286,45.286,0,0,0,4.922,2.086c4.286,1.388,13.152,3.957,13.32,3.957,0-.753.041-1.482-.009-2.2a8.427,8.427,0,0,1,.686-4.009,17.377,17.377,0,0,0,.881-2.789,6.285,6.285,0,0,1,2.339-3.343c.209.584.387.555.535,1.021.249.783.455,1.58.726,2.356a1.408,1.408,0,0,0,1.313.993,8.235,8.235,0,0,1,1.94.442,4,4,0,0,1,2.778,2.492,2.247,2.247,0,0,0,.942.976c1.116.722,1.367,1.338.831,2.547a3.578,3.578,0,0,1-3.014,2.473,1.283,1.283,0,0,0-1.166.993,4.077,4.077,0,0,0,.1,3.417c.146.274.285.563.419.864a9.7,9.7,0,0,1,1.41,5.286c0,6.263-4.452,9.186-10.157,9.186-13.914,0-9.184-18.373-21.428-18.373-4.731,0-8.349,2.366-8.349,7.655,0,8.63,11.828,16.147,29.777,16.147,18.645,0,29.776-8.63,29.776-19.9C398.353,134.11,360.367,145.245,360.367,126.176Z"/><path d="M167.376,154.173l.086.036-.076-.038Z"/><path d="M200.778,158.374c-2.644,4.315-9.88,8.091-17.255,8.091a23.97,23.97,0,0,1-10.926-3.034c-1.863-.952-3.09.362-6.3,1.816-2.7,1.221-4.412,1.27-6.663,1.707-.9.175-3.478,1.015-4-.113-.458-.749,2.261-1.052,3.3-1.4,2.688-.906,4.761-1.89,4.9-3.41.288-3.072-5.813-.908-6.116-2.3-.107-.489-.683-.59-.683-1.291,0-2.2,2.361-4.727,5.412-4.884.688-.035,1.57-1.483,2.65-2.472,1.168-1.071,4.263-2.247,4.692-.766.344,1.19-2.922,2.778-4.57,3.505a.228.228,0,0,0,.083.437c22.724.857,41.542-7.477,41.542-24.041,0-8.5-7.1-19.114-29.33-19.067-17.813.037-35.017,13.189-35.334,34.064-.334,21.907,16.53,35.355,35.236,35.355,17.95,0,27.257-12.585,28.092-20.658C205.648,156.982,202.447,156.286,200.778,158.374Zm-33.4-4.2.01,0,.076.038Zm-1.462-28.321a13.647,13.647,0,0,1,14.128-5.455,7.266,7.266,0,0,1,5.864,7.218,15.376,15.376,0,0,1-4.5,11.456c-3.668,3.428-7.11,4.738-14.925,5.044-2.929.116-3.537-1.012-3.561-2.531C162.809,134.544,163.688,129.13,165.914,125.852Z"/></g></g></svg>