<svg xmlns="http://www.w3.org/2000/svg" width="447.636" height="101.495" viewBox="0 0 447.636 101.495"><g transform="translate(-76.022 -79.244)"><path d="M333.183,130.942c0-11.858-11.74-19.891-28.385-19.8-15.244.086-36.534,9.869-36.285,36.235.215,22.863,20.471,33.36,34.467,33.36,18.416,0,28.121-12.689,28.979-20.606.14-2.863-3.14-3.545-4.857-1.5-2.711,4.228-8.706,7.912-16.269,7.912-10.553,0-17.44-5.08-18.6-11.974C310.214,155.507,333.183,148.355,333.183,130.942Zm-46.236,15.68s-1.43.179-1.592-.041c-.492-.67.712-2.824,3.71-5.6,1.086-7.261,6.146-14.565,13.468-17.313,1.075-.4,1.173-1.941,1.625-3a6.892,6.892,0,0,1,4.211-4.134c4.623-1.338,6.862,1.979,6.58,3.528,2.969,1.993,2.28,4.882-.8,6.315a2.122,2.122,0,0,0,.391-1.83,1.129,1.129,0,0,1-1.14.357l-.535,1.562c2.717,8.772.375,17.035-16.691,19.2C289.529,147.806,286.988,146.75,286.947,146.622Z"/><path d="M254.478,110.408c-6.131,0-10.952,2.174-16.44,8.1a.993.993,0,0,1-1.755-.624v-3.376c0-2.644-1.252-4.314-4.452-2.783l-16.7,7.794c-1.809.835-2.922,1.949-2.922,3.341v.557c0,3.479,6.4,3.9,6.4,10.021v32.571c0,5.846-5.426,6.96-5.426,10.439v.557c0,1.531,1.252,2.366,3.2,2.366H240.67c1.809,0,3.061-.835,3.061-2.366v-.557c0-3.479-7.443-4.593-7.443-10.439V138.453c-.117-3.461-.672-5.844-2.809-7.244v0c-2.126-.642-4.537.056-6.445.014a3.743,3.743,0,0,1-3.417-1.819c-.361-.084-.873-.35-.873-.692,0-.387.438-.657.814-.75.286-.95,1.246-2.341,3.995-4.171a11.68,11.68,0,0,1,3.091-1.4c.186-.07.8-2.522,2.1-3.068.47-.2,1.6.835,1.721,2.615a.644.644,0,0,0,.233.446c1.522,1.3,3.425,1.957,8.471.67a7.142,7.142,0,0,1,3.867-.02c5.466,1.475,4.9,11.687,12.668,11.687,5.094,0,7.924-4.651,7.924-10.5C267.628,116.831,262.438,110.408,254.478,110.408Z"/><path d="M116.154,140.079c-4.619-1.518-9.163-2.42-13.288-5.071a6.368,6.368,0,0,1-3.311-4.112c-.28-.758-.889-.938-1.9-.612a8.067,8.067,0,0,0-.819.319,2.29,2.29,0,0,1-2.445-.327,6.664,6.664,0,0,0-1.746-.915,2.94,2.94,0,0,1-1.913-1.174,1.969,1.969,0,0,1,.262-2.492,8.5,8.5,0,0,1,1.486-1.035,6.542,6.542,0,0,1,1.054-.488,5.162,5.162,0,0,0,3.179-3.015,2.686,2.686,0,0,1,1.514-1.481,9.527,9.527,0,0,0,1.217-.735,4.668,4.668,0,0,1,2.165-.823c.319-.043.637-.092.941-.136.092-1.207.533-3.543.539-3.582a21.049,21.049,0,0,1,2.772,3.6,5.264,5.264,0,0,0,1.117,1.476,8.427,8.427,0,0,1,.743.572c1.939,1.859,8.184,8.847,9.289,10.3,7.664,10.073,23.728,1.878,14.391-10.167-3.226-4.163-11.336-9.594-27.515-9.412-9.488.106-29.614,5.733-26.217,24.715a16.5,16.5,0,0,0,7.852,11.652c6.726,4.246,21.134,6.718,24.621,8.551a11.553,11.553,0,0,1,5.818,9.894c-.043,6.264-4.452,9.186-10.157,9.186-13.914,0-9.184-18.373-21.428-18.373-4.731,0-8.349,2.367-8.349,7.656,0,8.63,11.827,16.146,29.777,16.146,18.645,0,29.776-8.63,29.776-19.9C135.575,146.8,125.791,143.019,116.154,140.079Z"/><path d="M360.367,126.176c0-5.011,3.479-9.326,9.045-9.326,12.105,0,8.07,18.234,19.619,18.234,4.452,0,7.931-3.2,7.931-7.238,0-8.629-11.131-16.7-28.663-16.7-16.7,0-28.246,8.63-28.246,20.461,0,8.98,4.148,13.779,9.727,16.824a45.286,45.286,0,0,0,4.922,2.086c4.286,1.388,13.152,3.957,13.32,3.957,0-.753.041-1.482-.009-2.2a8.427,8.427,0,0,1,.686-4.009,17.377,17.377,0,0,0,.881-2.789,6.285,6.285,0,0,1,2.339-3.343c.209.584.387.555.535,1.021.249.783.455,1.58.726,2.356a1.408,1.408,0,0,0,1.313.993,8.235,8.235,0,0,1,1.94.442,4,4,0,0,1,2.778,2.492,2.247,2.247,0,0,0,.942.976c1.116.722,1.367,1.338.831,2.547a3.578,3.578,0,0,1-3.014,2.473,1.283,1.283,0,0,0-1.166.993,4.077,4.077,0,0,0,.1,3.417c.146.274.285.563.419.864a9.7,9.7,0,0,1,1.41,5.286c0,6.263-4.452,9.186-10.157,9.186-13.914,0-9.184-18.373-21.428-18.373-4.731,0-8.349,2.366-8.349,7.655,0,8.63,11.828,16.147,29.777,16.147,18.645,0,29.776-8.63,29.776-19.9C398.353,134.11,360.367,145.245,360.367,126.176Z"/><path d="M167.376,154.173l.086.036-.076-.038Z"/><path d="M200.778,158.374c-2.644,4.315-9.88,8.091-17.255,8.091a23.97,23.97,0,0,1-10.926-3.034c-1.863-.952-3.09.362-6.3,1.816-2.7,1.221-4.412,1.27-6.663,1.707-.9.175-3.478,1.015-4-.113-.458-.749,2.261-1.052,3.3-1.4,2.688-.906,4.761-1.89,4.9-3.41.288-3.072-5.813-.908-6.116-2.3-.107-.489-.683-.59-.683-1.291,0-2.2,2.361-4.727,5.412-4.884.688-.035,1.57-1.483,2.65-2.472,1.168-1.071,4.263-2.247,4.692-.766.344,1.19-2.922,2.778-4.57,3.505a.228.228,0,0,0,.083.437c22.724.857,41.542-7.477,41.542-24.041,0-8.5-7.1-19.114-29.33-19.067-17.813.037-35.017,13.189-35.334,34.064-.334,21.907,16.53,35.355,35.236,35.355,17.95,0,27.257-12.585,28.092-20.658C205.648,156.982,202.447,156.286,200.778,158.374Zm-33.4-4.2.01,0,.076.038Zm-1.462-28.321a13.647,13.647,0,0,1,14.128-5.455,7.266,7.266,0,0,1,5.864,7.218,15.376,15.376,0,0,1-4.5,11.456c-3.668,3.428-7.11,4.738-14.925,5.044-2.929.116-3.537-1.012-3.561-2.531C162.809,134.544,163.688,129.13,165.914,125.852Z"/><path d="M167.376,154.173l.086.036-.076-.038Z"/><path d="M432.65,121.461l-1.384-2.767h-.126l.4,2.767v9.184h-3.27V112.906h2.516l6.667,9.386,1.334,2.692h.126l-.4-2.692v-9.26h3.271v17.739h-2.517Z"/><path d="M445.13,124.355a7.077,7.077,0,0,1,1.56-4.919,5.6,5.6,0,0,1,4.377-1.724,6.578,6.578,0,0,1,2.617.478,4.9,4.9,0,0,1,1.837,1.347,5.754,5.754,0,0,1,1.094,2.1,9.559,9.559,0,0,1,.365,2.717,7.121,7.121,0,0,1-1.547,4.919A5.564,5.564,0,0,1,451.067,131a6.576,6.576,0,0,1-2.616-.478,5,5,0,0,1-1.849-1.346,5.651,5.651,0,0,1-1.108-2.1A9.563,9.563,0,0,1,445.13,124.355Zm3.371,0a7.371,7.371,0,0,0,.151,1.535,4.3,4.3,0,0,0,.453,1.233,2.181,2.181,0,0,0,.793.818,2.26,2.26,0,0,0,1.169.289,2.151,2.151,0,0,0,1.913-.931,5.373,5.373,0,0,0,.629-2.944,5.884,5.884,0,0,0-.579-2.805,2.048,2.048,0,0,0-1.963-1.07,2.227,2.227,0,0,0-1.887.906A5.039,5.039,0,0,0,448.5,124.355Z"/><path d="M465.459,127.173a.939.939,0,0,0-.427-.805,5.187,5.187,0,0,0-1.057-.554q-.629-.25-1.384-.515a5.227,5.227,0,0,1-1.383-.73,4,4,0,0,1-1.058-1.183,4.209,4.209,0,0,1,.68-4.692,4.67,4.67,0,0,1,3.2-.982,10.283,10.283,0,0,1,2.592.3,7.5,7.5,0,0,1,1.812.68l-.73,2.365q-.579-.227-1.459-.478a6.466,6.466,0,0,0-1.787-.252q-1.459,0-1.459,1.132a.836.836,0,0,0,.428.73,5.572,5.572,0,0,0,1.057.516q.629.238,1.383.516a5.985,5.985,0,0,1,1.384.717,3.755,3.755,0,0,1,1.057,1.145,3.448,3.448,0,0,1,.428,1.811,3.83,3.83,0,0,1-1.221,3.007,5.333,5.333,0,0,1-3.661,1.1,8.917,8.917,0,0,1-2.5-.34,7.672,7.672,0,0,1-1.9-.793l.9-2.44a8.645,8.645,0,0,0,1.535.641,6.232,6.232,0,0,0,1.962.315,2.178,2.178,0,0,0,1.171-.277A1.013,1.013,0,0,0,465.459,127.173Z"/><path d="M477.084,127.173a.939.939,0,0,0-.427-.805,5.187,5.187,0,0,0-1.057-.554q-.629-.25-1.384-.515a5.227,5.227,0,0,1-1.383-.73,4,4,0,0,1-1.058-1.183,4.209,4.209,0,0,1,.68-4.692,4.67,4.67,0,0,1,3.2-.982,10.283,10.283,0,0,1,2.592.3,7.5,7.5,0,0,1,1.812.68l-.73,2.365q-.579-.227-1.459-.478a6.466,6.466,0,0,0-1.787-.252q-1.459,0-1.459,1.132a.834.834,0,0,0,.428.73,5.572,5.572,0,0,0,1.057.516q.629.238,1.383.516a5.985,5.985,0,0,1,1.384.717,3.768,3.768,0,0,1,1.057,1.145,3.448,3.448,0,0,1,.428,1.811,3.834,3.834,0,0,1-1.221,3.007,5.333,5.333,0,0,1-3.661,1.1,8.917,8.917,0,0,1-2.5-.34,7.7,7.7,0,0,1-1.9-.793l.906-2.44a8.663,8.663,0,0,0,1.534.641,6.242,6.242,0,0,0,1.963.315,2.178,2.178,0,0,0,1.171-.277A1.013,1.013,0,0,0,477.084,127.173Z"/><path d="M482.9,124.355a7.077,7.077,0,0,1,1.56-4.919,5.6,5.6,0,0,1,4.377-1.724,6.578,6.578,0,0,1,2.617.478,4.9,4.9,0,0,1,1.837,1.347,5.754,5.754,0,0,1,1.094,2.1,9.559,9.559,0,0,1,.365,2.717,7.121,7.121,0,0,1-1.547,4.919A5.564,5.564,0,0,1,488.834,131a6.576,6.576,0,0,1-2.616-.478,5,5,0,0,1-1.849-1.346,5.651,5.651,0,0,1-1.108-2.1A9.563,9.563,0,0,1,482.9,124.355Zm3.371,0a7.371,7.371,0,0,0,.151,1.535,4.3,4.3,0,0,0,.453,1.233,2.181,2.181,0,0,0,.793.818,2.26,2.26,0,0,0,1.169.289,2.148,2.148,0,0,0,1.912-.931,5.363,5.363,0,0,0,.63-2.944,5.883,5.883,0,0,0-.579-2.805,2.049,2.049,0,0,0-1.963-1.07,2.227,2.227,0,0,0-1.887.906A5.039,5.039,0,0,0,486.268,124.355Z"/><path d="M428.02,139.387a1.657,1.657,0,0,1,.541-1.245,2.08,2.08,0,0,1,1.5-.516,2.268,2.268,0,0,1,1.547.516,1.6,1.6,0,0,1,.592,1.245,1.526,1.526,0,0,1-.592,1.221,2.344,2.344,0,0,1-1.547.491,2.147,2.147,0,0,1-1.5-.491A1.58,1.58,0,0,1,428.02,139.387Zm.478,3.549h3.271v12.58H428.5Z"/><path d="M443.671,155.516V148.37a4.212,4.212,0,0,0-.441-2.214,1.645,1.645,0,0,0-1.5-.679,2.36,2.36,0,0,0-1.572.54,3.017,3.017,0,0,0-.919,1.347v8.152h-3.271v-12.58h2.592l.378,1.66h.1a5.422,5.422,0,0,1,1.535-1.409,4.544,4.544,0,0,1,2.465-.6,5.072,5.072,0,0,1,1.661.252,2.818,2.818,0,0,1,1.233.83,3.782,3.782,0,0,1,.755,1.573,10.2,10.2,0,0,1,.251,2.453v7.825Z"/><path d="M455.9,152.044a.938.938,0,0,0-.427-.805,5.163,5.163,0,0,0-1.057-.554q-.63-.252-1.384-.516a5.187,5.187,0,0,1-1.384-.729,4.011,4.011,0,0,1-1.057-1.183,4.211,4.211,0,0,1,.68-4.693,4.668,4.668,0,0,1,3.2-.981,10.294,10.294,0,0,1,2.592.3,7.516,7.516,0,0,1,1.811.679l-.73,2.365q-.579-.225-1.459-.477a6.458,6.458,0,0,0-1.786-.252q-1.459,0-1.459,1.132a.837.837,0,0,0,.428.73,5.561,5.561,0,0,0,1.056.516q.629.238,1.384.515a6.037,6.037,0,0,1,1.383.717,3.77,3.77,0,0,1,1.058,1.145,3.462,3.462,0,0,1,.428,1.812,3.836,3.836,0,0,1-1.221,3.007,5.336,5.336,0,0,1-3.661,1.1,8.948,8.948,0,0,1-2.5-.34,7.7,7.7,0,0,1-1.9-.793l.9-2.441a8.628,8.628,0,0,0,1.535.642,6.237,6.237,0,0,0,1.963.314,2.181,2.181,0,0,0,1.17-.276A1.013,1.013,0,0,0,455.9,152.044Z"/><path d="M461.006,142.936h1.737V140.57l3.27-.931v3.3h3.071V145.7h-3.071v4.831a4.765,4.765,0,0,0,.265,1.874.993.993,0,0,0,.994.567,3.254,3.254,0,0,0,.868-.1,5.826,5.826,0,0,0,.818-.3l.578,2.516a8.284,8.284,0,0,1-1.585.554,7.545,7.545,0,0,1-1.837.227,3.3,3.3,0,0,1-2.553-.894,4.277,4.277,0,0,1-.818-2.931V145.7h-1.737Z"/><path d="M471.926,139.387a1.658,1.658,0,0,1,.542-1.245,2.08,2.08,0,0,1,1.5-.516,2.268,2.268,0,0,1,1.547.516,1.6,1.6,0,0,1,.592,1.245,1.526,1.526,0,0,1-.592,1.221,2.344,2.344,0,0,1-1.547.491,2.147,2.147,0,0,1-1.5-.491A1.581,1.581,0,0,1,471.926,139.387Zm.479,3.549h3.271v12.58H472.4Z"/><path d="M487.577,155.516V148.37a4.223,4.223,0,0,0-.44-2.214,1.646,1.646,0,0,0-1.5-.679,2.361,2.361,0,0,0-1.573.54,3.007,3.007,0,0,0-.918,1.347v8.152h-3.271v-12.58h2.592l.377,1.66h.1a5.408,5.408,0,0,1,1.535-1.409,4.544,4.544,0,0,1,2.465-.6,5.072,5.072,0,0,1,1.661.252,2.818,2.818,0,0,1,1.233.83,3.77,3.77,0,0,1,.754,1.573,10.148,10.148,0,0,1,.252,2.453v7.825Z"/><path d="M493.289,142.936h1.736V140.57l3.271-.931v3.3h3.07V145.7H498.3v4.831a4.788,4.788,0,0,0,.264,1.874,1,1,0,0,0,.995.567,3.246,3.246,0,0,0,.867-.1,5.825,5.825,0,0,0,.818-.3l.579,2.516a8.294,8.294,0,0,1-1.586.554,7.543,7.543,0,0,1-1.836.227,3.306,3.306,0,0,1-2.554-.894,4.277,4.277,0,0,1-.818-2.931V145.7h-1.736Z"/><path d="M503.656,149.226a7.077,7.077,0,0,1,1.56-4.919,5.6,5.6,0,0,1,4.378-1.724,6.581,6.581,0,0,1,2.617.478,4.9,4.9,0,0,1,1.837,1.346,5.77,5.77,0,0,1,1.094,2.1,9.562,9.562,0,0,1,.365,2.718,7.122,7.122,0,0,1-1.547,4.919,5.567,5.567,0,0,1-4.366,1.724,6.563,6.563,0,0,1-2.617-.479,4.99,4.99,0,0,1-1.849-1.346,5.651,5.651,0,0,1-1.108-2.1A9.551,9.551,0,0,1,503.656,149.226Zm3.372,0a7.312,7.312,0,0,0,.151,1.535,4.332,4.332,0,0,0,.452,1.233,2.178,2.178,0,0,0,.793.817,2.261,2.261,0,0,0,1.17.29,2.151,2.151,0,0,0,1.912-.931,5.373,5.373,0,0,0,.629-2.944,5.873,5.873,0,0,0-.579-2.806,2.049,2.049,0,0,0-1.962-1.069,2.226,2.226,0,0,0-1.887.906A5.027,5.027,0,0,0,507.028,149.226Z"/><path d="M438.261,179.3a6.4,6.4,0,0,1-2.051,1.019,8.969,8.969,0,0,1-2.755.416A5.344,5.344,0,0,1,429,178.965a7.619,7.619,0,0,1-1.409-4.869,6.962,6.962,0,0,1,1.585-4.982,5.863,5.863,0,0,1,4.453-1.661,6.952,6.952,0,0,1,1.862.252,4.334,4.334,0,0,1,1.61.83,4.1,4.1,0,0,1,1.133,1.56,6.121,6.121,0,0,1,.428,2.441,10.938,10.938,0,0,1-.063,1.132q-.064.6-.189,1.258h-7.548a3.681,3.681,0,0,0,.817,2.39,3.13,3.13,0,0,0,2.4.806,5.359,5.359,0,0,0,3.095-.957Zm-4.681-9.234a2.293,2.293,0,0,0-1.9.767,3.794,3.794,0,0,0-.742,2.051h4.68a3.173,3.173,0,0,0-.416-2.088A1.851,1.851,0,0,0,433.58,170.07Zm.076-7.8h3.321v.755l-2.792,3.12h-1.862Z"/><path d="M458.263,179.606a5.428,5.428,0,0,1-1.824.843,8.383,8.383,0,0,1-2.2.29,6.109,6.109,0,0,1-2.554-.479,4.343,4.343,0,0,1-1.7-1.345,5.524,5.524,0,0,1-.944-2.1,11.882,11.882,0,0,1-.289-2.717,7.49,7.49,0,0,1,1.434-4.919,5.124,5.124,0,0,1,4.177-1.724,8.85,8.85,0,0,1,2.226.227,7.565,7.565,0,0,1,1.522.578l-.779,2.667a6.681,6.681,0,0,0-1.145-.427,5.031,5.031,0,0,0-1.3-.151,2.471,2.471,0,0,0-2.063.893,4.622,4.622,0,0,0-.7,2.856,5.87,5.87,0,0,0,.176,1.484,3.605,3.605,0,0,0,.528,1.183,2.477,2.477,0,0,0,.918.793,2.866,2.866,0,0,0,1.321.289,4.067,4.067,0,0,0,1.409-.214,4.971,4.971,0,0,0,1.032-.515Z"/><path d="M464.4,167.806v7.145a4.956,4.956,0,0,0,.364,2.214,1.463,1.463,0,0,0,1.422.68,2.23,2.23,0,0,0,1.548-.554,3.4,3.4,0,0,0,.918-1.358v-8.127h3.27v8.756a20.1,20.1,0,0,0,.1,2.025,12.721,12.721,0,0,0,.3,1.8h-2.465l-.579-1.862h-.1a4.683,4.683,0,0,1-1.61,1.585,4.594,4.594,0,0,1-2.441.63,5.4,5.4,0,0,1-1.711-.252,2.8,2.8,0,0,1-1.258-.83,3.874,3.874,0,0,1-.767-1.561,9.621,9.621,0,0,1-.265-2.465v-7.825Z"/><path d="M475.625,164.258a1.658,1.658,0,0,1,.541-1.246,2.086,2.086,0,0,1,1.5-.516,2.275,2.275,0,0,1,1.548.516,1.6,1.6,0,0,1,.591,1.246,1.523,1.523,0,0,1-.591,1.22,2.347,2.347,0,0,1-1.548.491,2.149,2.149,0,0,1-1.5-.491A1.578,1.578,0,0,1,475.625,164.258Zm.479,3.548h3.27v12.58H476.1Z"/><path d="M494.269,175.958q0,1.056.025,2.114a17.9,17.9,0,0,0,.227,2.34h-2.34l-.453-1.636h-.1a3.817,3.817,0,0,1-1.447,1.422,4.41,4.41,0,0,1-2.227.541,4.529,4.529,0,0,1-3.674-1.561,7.512,7.512,0,0,1-1.308-4.881,7.706,7.706,0,0,1,1.46-5.007,5.2,5.2,0,0,1,4.276-1.786,7.658,7.658,0,0,1,1.284.088,5.1,5.1,0,0,1,1.006.289v-5.108h3.271Zm-5.561,2.013a2.273,2.273,0,0,0,1.511-.466,2.517,2.517,0,0,0,.779-1.346v-5.334a2.49,2.49,0,0,0-.779-.415,3.69,3.69,0,0,0-1.108-.139,2.423,2.423,0,0,0-2.076.931,5.535,5.535,0,0,0-.691,3.2,5.183,5.183,0,0,0,.565,2.592A1.925,1.925,0,0,0,488.708,177.971Z"/><path d="M498.068,168.535a10.754,10.754,0,0,1,2.391-.717,15.417,15.417,0,0,1,2.893-.264,6.553,6.553,0,0,1,2.189.315,3.154,3.154,0,0,1,2.127,2.277,7.086,7.086,0,0,1,.214,1.811q0,1.107-.076,2.227t-.088,2.2q-.013,1.083.063,2.1a7.869,7.869,0,0,0,.378,1.925h-2.668l-.528-1.737h-.125a4.479,4.479,0,0,1-1.4,1.346,4.227,4.227,0,0,1-2.3.567,4.467,4.467,0,0,1-1.586-.265,3.377,3.377,0,0,1-1.987-1.912,3.859,3.859,0,0,1-.277-1.5,3.5,3.5,0,0,1,.515-1.95,3.726,3.726,0,0,1,1.485-1.283A7.371,7.371,0,0,1,501.6,173a16.5,16.5,0,0,1,3.007-.113,3.276,3.276,0,0,0-.2-2.025q-.378-.617-1.686-.617a11.5,11.5,0,0,0-2.076.2,7.57,7.57,0,0,0-1.8.528Zm4.152,9.36a2.511,2.511,0,0,0,1.56-.44,3.067,3.067,0,0,0,.856-.944v-1.635a8.983,8.983,0,0,0-1.5-.025,5.514,5.514,0,0,0-1.271.226,2.151,2.151,0,0,0-.88.5,1.126,1.126,0,0,0-.328.831,1.427,1.427,0,0,0,.416,1.094A1.6,1.6,0,0,0,502.22,177.9Z"/><path d="M518.574,170.875a4.268,4.268,0,0,0-1.409-.276,2.307,2.307,0,0,0-1.471.465,2.246,2.246,0,0,0-.793,1.2v8.127H511.63v-12.58h2.542l.377,1.66h.1a3.43,3.43,0,0,1,1.157-1.434,2.94,2.94,0,0,1,1.711-.5,4.741,4.741,0,0,1,1.484.277Z"/><path d="M519.581,178.726a1.818,1.818,0,0,1,.554-1.4,2.059,2.059,0,0,1,1.459-.516,2.135,2.135,0,0,1,1.511.516,1.821,1.821,0,0,1,.553,1.4,1.86,1.86,0,0,1-.553,1.409,2.1,2.1,0,0,1-1.511.528,2.027,2.027,0,0,1-1.459-.528A1.857,1.857,0,0,1,519.581,178.726Z"/><path d="M84.034,95.293a4.078,4.078,0,0,1-1.7-1.6,4.619,4.619,0,0,1-.6-2.368V87.021a4.621,4.621,0,0,1,.6-2.368,4.021,4.021,0,0,1,1.7-1.586,5.569,5.569,0,0,1,2.556-.559,5.708,5.708,0,0,1,2.527.531,4.016,4.016,0,0,1,1.7,1.511,4.218,4.218,0,0,1,.607,2.266c0,.112-.1.181-.3.205l-2,.131h-.076c-.173,0-.26-.031-.26-.093v-.112a2.129,2.129,0,0,0-.607-1.586,2.177,2.177,0,0,0-1.594-.6,2.2,2.2,0,0,0-1.613.6,2.125,2.125,0,0,0-.607,1.586v4.494a2.1,2.1,0,0,0,.607,1.567,2.2,2.2,0,0,0,1.613.6,2.173,2.173,0,0,0,1.594-.6,2.1,2.1,0,0,0,.607-1.567.2.2,0,0,1,.084-.158.305.305,0,0,1,.233-.047l1.995.094q.318.038.318.093v.093a4.268,4.268,0,0,1-.607,2.276,4.056,4.056,0,0,1-1.7,1.529,5.614,5.614,0,0,1-2.527.541A5.5,5.5,0,0,1,84.034,95.293Z"/><path d="M102.088,84.914h-6a.1.1,0,0,0-.113.112v2.853a.1.1,0,0,0,.113.112h3.9a.281.281,0,0,1,.318.317v1.623a.281.281,0,0,1-.318.317h-3.9a.1.1,0,0,0-.113.112v2.984a.1.1,0,0,0,.113.112h6a.281.281,0,0,1,.318.317V95.4a.281.281,0,0,1-.318.317h-8.43a.28.28,0,0,1-.317-.317V82.974a.28.28,0,0,1,.317-.317h8.43a.281.281,0,0,1,.318.317V84.6A.281.281,0,0,1,102.088,84.914Z"/><path d="M104.233,95.4V82.974a.28.28,0,0,1,.317-.317h1.921a.418.418,0,0,1,.373.205l4.663,7.759c.025.05.052.068.084.056a.091.091,0,0,0,.047-.093v-7.61a.28.28,0,0,1,.317-.317h1.958a.28.28,0,0,1,.317.317V95.4a.28.28,0,0,1-.317.317h-1.9a.437.437,0,0,1-.372-.224l-4.682-7.834c-.025-.049-.053-.068-.084-.056s-.046.044-.046.094l.018,7.7a.28.28,0,0,1-.317.317H104.55A.28.28,0,0,1,104.233,95.4Z"/><path d="M125.737,82.974v1.641a.281.281,0,0,1-.317.318h-3.227a.1.1,0,0,0-.112.111V95.4a.28.28,0,0,1-.316.317h-2a.28.28,0,0,1-.317-.317V85.044a.1.1,0,0,0-.113-.111h-3.132a.281.281,0,0,1-.318-.318V82.974a.281.281,0,0,1,.318-.317h9.213A.28.28,0,0,1,125.737,82.974Z"/><path d="M134.279,95.47l-2.3-5.073a.131.131,0,0,0-.13-.093h-1.7a.1.1,0,0,0-.112.112V95.4a.28.28,0,0,1-.317.317h-1.995a.281.281,0,0,1-.318-.317V82.955a.281.281,0,0,1,.318-.317h5.24a4.307,4.307,0,0,1,2.1.5,3.462,3.462,0,0,1,1.4,1.389,4.182,4.182,0,0,1,.495,2.052,3.73,3.73,0,0,1-.635,2.182,3.361,3.361,0,0,1-1.753,1.287.111.111,0,0,0-.074.065.071.071,0,0,0,.018.084l2.462,5.148a.265.265,0,0,1,.056.167.177.177,0,0,1-.074.149.334.334,0,0,1-.206.057h-2.107A.406.406,0,0,1,134.279,95.47Zm-4.234-10.444v3.133a.1.1,0,0,0,.112.112h2.424a1.806,1.806,0,0,0,1.278-.457,1.564,1.564,0,0,0,.5-1.2,1.626,1.626,0,0,0-.5-1.222,1.766,1.766,0,0,0-1.278-.475h-2.424A.1.1,0,0,0,130.045,85.026Z"/><path d="M140.947,95.321a4.29,4.29,0,0,1-1.726-1.67,4.874,4.874,0,0,1-.615-2.471V87.189a4.79,4.79,0,0,1,.615-2.443,4.251,4.251,0,0,1,1.726-1.651,5.935,5.935,0,0,1,5.147,0,4.245,4.245,0,0,1,1.726,1.651,4.79,4.79,0,0,1,.615,2.443V91.18a4.931,4.931,0,0,1-.615,2.481,4.205,4.205,0,0,1-1.726,1.669,5.433,5.433,0,0,1-2.583.588A5.331,5.331,0,0,1,140.947,95.321Zm4.224-2.313a2.381,2.381,0,0,0,.635-1.734v-4.1a2.433,2.433,0,0,0-.626-1.743,2.186,2.186,0,0,0-1.669-.663,2.163,2.163,0,0,0-1.65.663,2.433,2.433,0,0,0-.625,1.743v4.1a2.4,2.4,0,0,0,.625,1.734,2.174,2.174,0,0,0,1.65.653A2.206,2.206,0,0,0,145.171,93.008Z"/><path d="M157.387,95.451,153.6,83.011a.263.263,0,0,1-.018-.111c0-.162.093-.243.28-.243h2.163a.353.353,0,0,1,.355.261l2.442,8.99c.013.05.038.074.076.074s.061-.024.074-.074l2.406-8.971a.354.354,0,0,1,.354-.28h2.108a.28.28,0,0,1,.242.1.255.255,0,0,1,.019.252l-3.842,12.44a.351.351,0,0,1-.354.262h-2.164A.35.35,0,0,1,157.387,95.451Z"/><path d="M174.415,84.914h-6.006a.1.1,0,0,0-.112.112v2.853a.1.1,0,0,0,.112.112h3.9a.28.28,0,0,1,.317.317v1.623a.28.28,0,0,1-.317.317h-3.9a.1.1,0,0,0-.112.112v2.984a.1.1,0,0,0,.112.112h6.006a.28.28,0,0,1,.317.317V95.4a.28.28,0,0,1-.317.317h-8.43a.28.28,0,0,1-.317-.317V82.974a.28.28,0,0,1,.317-.317h8.43a.28.28,0,0,1,.317.317V84.6A.28.28,0,0,1,174.415,84.914Z"/><path d="M185.792,82.974v1.641a.281.281,0,0,1-.317.318h-3.227a.1.1,0,0,0-.112.111V95.4a.28.28,0,0,1-.316.317h-2a.28.28,0,0,1-.317-.317V85.044a.1.1,0,0,0-.113-.111h-3.132a.281.281,0,0,1-.318-.318V82.974a.281.281,0,0,1,.318-.317h9.213A.28.28,0,0,1,185.792,82.974Z"/><path d="M196.218,84.914h-6.006a.1.1,0,0,0-.112.112v2.853a.1.1,0,0,0,.112.112h3.9a.28.28,0,0,1,.317.317v1.623a.28.28,0,0,1-.317.317h-3.9a.1.1,0,0,0-.112.112v2.984a.1.1,0,0,0,.112.112h6.006a.28.28,0,0,1,.317.317V95.4a.28.28,0,0,1-.317.317h-8.43a.281.281,0,0,1-.318-.317V82.974a.281.281,0,0,1,.318-.317h8.43a.28.28,0,0,1,.317.317V84.6A.28.28,0,0,1,196.218,84.914Z"/><path d="M205.226,95.47,202.932,90.4a.133.133,0,0,0-.131-.093h-1.7a.1.1,0,0,0-.112.112V95.4a.28.28,0,0,1-.317.317h-2a.281.281,0,0,1-.318-.317V82.955a.281.281,0,0,1,.318-.317h5.24a4.307,4.307,0,0,1,2.1.5,3.462,3.462,0,0,1,1.4,1.389,4.182,4.182,0,0,1,.495,2.052,3.73,3.73,0,0,1-.635,2.182,3.361,3.361,0,0,1-1.753,1.287.111.111,0,0,0-.074.065.071.071,0,0,0,.018.084l2.462,5.148a.265.265,0,0,1,.056.167.177.177,0,0,1-.074.149.333.333,0,0,1-.205.057H205.6A.406.406,0,0,1,205.226,95.47Zm-4.234-10.444v3.133a.1.1,0,0,0,.112.112h2.424a1.807,1.807,0,0,0,1.278-.457,1.565,1.565,0,0,0,.495-1.2,1.626,1.626,0,0,0-.495-1.222,1.766,1.766,0,0,0-1.278-.475H201.1A.1.1,0,0,0,200.992,85.026Z"/><path d="M209.814,95.4V82.974a.28.28,0,0,1,.317-.317h2a.28.28,0,0,1,.316.317V95.4a.28.28,0,0,1-.316.317h-2A.28.28,0,0,1,209.814,95.4Z"/><path d="M214.719,95.4V82.974a.28.28,0,0,1,.317-.317h1.92a.42.42,0,0,1,.374.205l4.662,7.759c.025.05.053.068.084.056s.047-.044.047-.093v-7.61a.28.28,0,0,1,.317-.317H224.4a.281.281,0,0,1,.318.317V95.4a.281.281,0,0,1-.318.317h-1.9a.439.439,0,0,1-.373-.224l-4.681-7.834c-.026-.049-.053-.068-.085-.056s-.046.044-.046.094l.019,7.7a.281.281,0,0,1-.318.317h-1.976A.28.28,0,0,1,214.719,95.4Z"/><path d="M235.029,95.451l-.522-1.734a.1.1,0,0,0-.111-.093h-4.57a.1.1,0,0,0-.112.093l-.522,1.734a.351.351,0,0,1-.354.262h-2.164a.279.279,0,0,1-.242-.1.254.254,0,0,1-.019-.252l3.973-12.44a.35.35,0,0,1,.354-.261h2.741a.352.352,0,0,1,.355.261l3.973,12.44a.271.271,0,0,1,.018.112.221.221,0,0,1-.075.177.3.3,0,0,1-.205.066h-2.163A.352.352,0,0,1,235.029,95.451Zm-4.569-3.86h3.3c.075,0,.106-.044.094-.131l-1.679-5.688c-.013-.05-.034-.075-.065-.075s-.059.025-.085.075l-1.659,5.688C230.354,91.547,230.386,91.591,230.46,91.591Zm.429-10.258a.276.276,0,0,1,.056-.168l.914-1.7a.387.387,0,0,1,.373-.224h1.884a.337.337,0,0,1,.205.056.179.179,0,0,1,.075.149.3.3,0,0,1-.075.187l-1.194,1.7a.463.463,0,0,1-.392.205h-1.566C230.982,81.538,230.889,81.47,230.889,81.333Z"/><path d="M246.368,95.47,244.074,90.4a.133.133,0,0,0-.131-.093h-1.7a.1.1,0,0,0-.112.112V95.4a.28.28,0,0,1-.316.317h-2a.28.28,0,0,1-.317-.317V82.955a.28.28,0,0,1,.317-.317h5.241a4.305,4.305,0,0,1,2.1.5,3.456,3.456,0,0,1,1.4,1.389,4.171,4.171,0,0,1,.495,2.052,3.731,3.731,0,0,1-.635,2.182,3.361,3.361,0,0,1-1.753,1.287.113.113,0,0,0-.074.065.074.074,0,0,0,.018.084l2.462,5.148a.266.266,0,0,1,.057.167.178.178,0,0,1-.075.149.331.331,0,0,1-.205.057h-2.108A.407.407,0,0,1,246.368,95.47Zm-4.234-10.444v3.133a.1.1,0,0,0,.112.112h2.425a1.8,1.8,0,0,0,1.277-.457,1.561,1.561,0,0,0,.495-1.2,1.622,1.622,0,0,0-.495-1.222,1.764,1.764,0,0,0-1.277-.475h-2.425A.1.1,0,0,0,242.134,85.026Z"/><path d="M250.957,95.4V82.974a.28.28,0,0,1,.317-.317h2a.28.28,0,0,1,.316.317V95.4a.28.28,0,0,1-.316.317h-2A.28.28,0,0,1,250.957,95.4Z"/><path d="M257.941,95.321a4.281,4.281,0,0,1-1.725-1.67,4.875,4.875,0,0,1-.616-2.471V87.189a4.791,4.791,0,0,1,.616-2.443,4.242,4.242,0,0,1,1.725-1.651,5.937,5.937,0,0,1,5.148,0,4.249,4.249,0,0,1,1.725,1.651,4.79,4.79,0,0,1,.615,2.443V91.18a4.93,4.93,0,0,1-.615,2.481,4.209,4.209,0,0,1-1.725,1.669,5.44,5.44,0,0,1-2.584.588A5.331,5.331,0,0,1,257.941,95.321Zm4.224-2.313a2.381,2.381,0,0,0,.635-1.734v-4.1a2.432,2.432,0,0,0-.625-1.743,2.19,2.19,0,0,0-1.67-.663,2.166,2.166,0,0,0-1.65.663,2.432,2.432,0,0,0-.625,1.743v4.1a2.4,2.4,0,0,0,.625,1.734,2.177,2.177,0,0,0,1.65.653A2.206,2.206,0,0,0,262.165,93.008Z"/></g></svg>