<svg xmlns="http://www.w3.org/2000/svg" width="16.003" height="15.646" viewBox="0 0 16.003 15.646"><g transform="translate(272.996 -2210.67)"><path d="M86.808,117.362a16.577,16.577,0,0,1-3.57-1.142c-.45-.241-1.4-.189-1.621-.74-.075-.171.493-.4.22-.324a2.217,2.217,0,0,0-.22.072.712.712,0,0,1-.657-.074,1.932,1.932,0,0,0-.469-.206.824.824,0,0,1-.514-.265.392.392,0,0,1,.071-.561,2.335,2.335,0,0,1,.4-.233,1.934,1.934,0,0,1,.283-.11,1.312,1.312,0,0,0,.854-.679.679.679,0,0,1,.407-.334,2.7,2.7,0,0,0,.327-.166c.174-.106-.213-.343,0-.367.086-.009.234-.35.315-.358.025-.272.663-.29.665-.3s.428-.337.65,0c.068.1.773-.072.886,0,.066.043,2.146.758,2.206.807.521.419-1.191-.3-.894.03,2.059,2.268,6.414,3.4,3.905.684-.867-.937-2.191-2.381-6.538-2.34-2.55.024-7.958,1.291-7.044,5.565a3.757,3.757,0,0,0,2.11,2.623c1.807.956,5.679,1.513,6.616,1.925a2.557,2.557,0,0,1,1.563,2.228c-.011,1.41-1.2,2.068-2.729,2.068-3.738,0-2.468-4.137-5.758-4.137-1.271,0-2.243.533-2.243,1.724,0,1.943,3.178,3.635,8,3.635,5.01,0,8-1.943,8-4.482C92.027,118.874,89.4,118.023,86.808,117.362Z" transform="translate(-349.023 2099.922)"/><path d="M344.6,114.53a2.21,2.21,0,0,1,2.43-2.1c3.25,0,2.168,4.108,5.272,4.108,1.2,0,2.131-.721,2.131-1.631,0-1.944-2.991-3.763-7.7-3.763-4.487,0-7.59,1.944-7.59,4.609a3.914,3.914,0,0,0,2.614,3.79,13.534,13.534,0,0,0,1.323.47c1.15.313,3.534.892,3.579.892,0-.17.011-.334,0-.5a1.629,1.629,0,0,1,.184-.9,3.473,3.473,0,0,0,.237-.628,1.445,1.445,0,0,1,.627-.754c.056.132.1.125.144.23.067.177.122.356.2.531a.374.374,0,0,0,.353.224,2.577,2.577,0,0,1,.521.1,1.031,1.031,0,0,1,.747.562.559.559,0,0,0,.253.22c.3.163.367.3.224.574a.939.939,0,0,1-.81.557.333.333,0,0,0-.314.224.785.785,0,0,0,.027.77c.039.062.077.127.113.195a1.926,1.926,0,0,1,.379,1.191c0,1.411-1.2,2.069-2.729,2.069-3.738,0-2.468-4.139-5.758-4.139-1.271,0-2.243.533-2.243,1.724,0,1.944,3.178,3.637,8,3.637,5.01,0,8-1.944,8-4.484C354.8,116.317,344.6,118.826,344.6,114.53Z" transform="translate(-611.8 2099.526)"/></g></svg>