<svg xmlns="http://www.w3.org/2000/svg" width="16.219" height="16.09" viewBox="0 0 16.219 16.09"><g transform="translate(-1.468 -2.049)"><path d="M9.522,17.258H5.03c.039-.522.174-.664.22-.675h.618a.7.7,0,0,0,.6-.3,1.382,1.382,0,0,0,.167-.923A2.077,2.077,0,0,1,7.1,13.812a1.006,1.006,0,0,1,.864-.209.279.279,0,0,0,.339-.24.331.331,0,0,0-.209-.394,1.5,1.5,0,0,0-1.347.329,2.734,2.734,0,0,0-.681,2.09.647.647,0,0,0,.007.065.7.7,0,0,1-.043.416c-.009.015-.043.061-.167.061H5.287a.565.565,0,0,0-.442.176,1.77,1.77,0,0,0-.385,1.149H2.94c-.163,0-.5,0-.586-.142a.375.375,0,0,1-.052-.178.39.39,0,0,1,.037-.159c.082-.157.4-.178.669-.178l.488,0a.3.3,0,0,0,.279-.327V8.935A2.276,2.276,0,0,0,4.764,6.8a.3.3,0,0,0-.283-.315H4.473a.308.308,0,0,0-.274.337c.022.856-.377,1.472-.76,1.554-.409.089-.847-.442-1.121-.966a3.378,3.378,0,0,1,.074-2.868A2.564,2.564,0,0,1,4.484,3a5.535,5.535,0,0,1,1.994.327.118.118,0,0,0,.024.011,10.685,10.685,0,0,0,2.325.409c0,.009-.007.017-.011.026a.387.387,0,0,1-.246.2.337.337,0,0,0-.183.411.284.284,0,0,0,.27.226.23.23,0,0,0,.085-.013,1,1,0,0,0,.5-.385,2.764,2.764,0,0,1-1.1,1.713.266.266,0,0,0-.041.026.971.971,0,0,0-.133.013A1.985,1.985,0,0,0,6.486,7.5c-.433,1.509.71,2.743,1.814,3.936.189.2.39.42.575.631a2.184,2.184,0,0,1,.25.337.26.26,0,0,0,.4.076.365.365,0,0,0,.065-.457,3.053,3.053,0,0,0-.315-.422c-.194-.22-.39-.435-.586-.644C7.664,9.854,6.7,8.816,7.022,7.7a1.4,1.4,0,0,1,1.032-1.1,1.078,1.078,0,0,1,1.1.57.262.262,0,0,0,.394.082.363.363,0,0,0,.072-.455,1.827,1.827,0,0,0-.721-.7A3.352,3.352,0,0,0,9.82,3.673a.641.641,0,0,0-.673-.585A9.4,9.4,0,0,1,6.661,2.7a6.059,6.059,0,0,0-2.177-.359A3.124,3.124,0,0,0,1.891,4.232a4.117,4.117,0,0,0-.059,3.511c.2.383.694,1.189,1.376,1.282v6.916H3a1.147,1.147,0,0,0-1.148.5,1.1,1.1,0,0,0-.12.492v.028a1.142,1.142,0,0,0,.157.531,1.115,1.115,0,0,0,1.049.425H9.522a.309.309,0,0,0,.283-.327.306.306,0,0,0-.283-.329Zm0,0" transform="translate(0 -0.129)" fill="#00408f"/><path d="M7.579,6.083a.355.355,0,0,0,.081.451.259.259,0,0,0,.157.056.27.27,0,0,0,.237-.148.357.357,0,0,1,.507-.15.271.271,0,0,0,.377-.15.354.354,0,0,0-.13-.438.878.878,0,0,0-1.228.38Zm0,0" transform="translate(-2.684 -1.565)" fill="#00408f"/><path d="M26.257,8.285h-.043a.785.785,0,0,0-.429.189,1.084,1.084,0,0,0-.339.647.256.256,0,0,0,.178.3.2.2,0,0,0,.037,0,.232.232,0,0,0,.218-.211.546.546,0,0,1,.167-.327.365.365,0,0,1,.187-.089.352.352,0,0,1,.2.111.472.472,0,0,1,.111.279.235.235,0,0,0,.242.231.247.247,0,0,0,.2-.279,1.028,1.028,0,0,0-.252-.6A.714.714,0,0,0,26.257,8.285Zm0,0" transform="translate(-10.611 -2.76)" fill="#d58a90"/><path d="M22.651,8.285h-.043a.785.785,0,0,0-.429.189,1.072,1.072,0,0,0-.339.647.257.257,0,0,0,.176.3.236.236,0,0,0,.039,0,.232.232,0,0,0,.218-.211.546.546,0,0,1,.167-.327.365.365,0,0,1,.187-.089.334.334,0,0,1,.2.111.464.464,0,0,1,.115.279.235.235,0,0,0,.24.231.247.247,0,0,0,.2-.279,1.029,1.029,0,0,0-.252-.6A.731.731,0,0,0,22.651,8.285Zm0,0" transform="translate(-9.015 -2.76)" fill="#d58a90"/><path d="M22.766,4.706l-.309-2.382a.314.314,0,0,0-.2-.261.265.265,0,0,0-.294.089L20.951,3.42a2.479,2.479,0,0,0-1.683.015L18.184,2.153A.245.245,0,0,0,17.9,2.07a.312.312,0,0,0-.2.257L17.35,4.709A5.062,5.062,0,0,0,17,6.263a1.557,1.557,0,0,0-.788-.39,1.519,1.519,0,0,0-1.548.8.366.366,0,0,0,.072.457.261.261,0,0,0,.4-.082.965.965,0,0,1,1-.531,1.437,1.437,0,0,1,1.032,1.128c.314,1.091-.634,2.114-1.639,3.2-.189.2-.385.42-.577.631-1.254,1.424-1.008,3.954-.978,4.245a2.309,2.309,0,0,0,.732,1.826,2.941,2.941,0,0,0,1.938.586,7.7,7.7,0,0,0,2.155-.351h2.564a.829.829,0,0,0,.631-.3,1.14,1.14,0,0,0,.244-.805,1.179,1.179,0,0,0-.309-.714.892.892,0,0,0-.279-.194V8.825a2.484,2.484,0,0,0,1.282-1.1A3.483,3.483,0,0,0,22.766,4.706ZM21.343,16.352a.334.334,0,0,1,.211.1.483.483,0,0,1,.122.285v.007a.394.394,0,0,1-.085.279.288.288,0,0,1-.223.1h-.322a1.218,1.218,0,0,0,.052-.461,1.153,1.153,0,0,0-.312-.711.965.965,0,0,0-.279-.2v-.807a.287.287,0,1,0-.568,0v1.059a.316.316,0,0,0,.259.327.334.334,0,0,1,.211.1.483.483,0,0,1,.122.285v.01a.406.406,0,0,1-.085.279.3.3,0,0,1-.223.1h-.772a.188.188,0,0,0-.076.013h-.111V15.1a2.594,2.594,0,0,0-.629-1.895,1.868,1.868,0,0,0-1.52-.509.315.315,0,0,0-.242.366.287.287,0,0,0,.315.279,1.393,1.393,0,0,1,1.076.357,1.946,1.946,0,0,1,.435,1.407v2.033a.1.1,0,0,0-.024.007c-.7.237-2.717.675-3.636-.115a1.633,1.633,0,0,1-.5-1.324.179.179,0,0,0,0-.048c0-.024-.291-2.462.81-3.712.185-.209.381-.42.568-.62a5.987,5.987,0,0,0,1.862-2.935,3.553,3.553,0,0,0,2.321.757H20.1a4.515,4.515,0,0,0,.982-.133v7.006a.309.309,0,0,0,.256.329Zm1.106-8.968c-.57,1.071-2.258,1.106-2.341,1.106a2.49,2.49,0,0,1-2.33-1.067,3.4,3.4,0,0,1,.1-2.477.338.338,0,0,0,.026-.091l.264-1.8.821.971a.254.254,0,0,0,.294.079,1.887,1.887,0,0,1,1.616-.022.261.261,0,0,0,.342-.065l.749-.93.226,1.759a.235.235,0,0,0,.028.1,2.855,2.855,0,0,1,.209,2.441Zm0,0" transform="translate(-5.518)" fill="#d58a90"/></g></svg>