<svg xmlns="http://www.w3.org/2000/svg" width="317.765" height="70" viewBox="0 0 317.765 70"><path d="M206.918,43.348a6.292,6.292,0,0,1-5.012,2.473,9.384,9.384,0,0,1-5.906-2.4V28.152a9.871,9.871,0,0,1,6.133-2.7,5.94,5.94,0,0,1,5.23,2.7,13.483,13.483,0,0,1,1.719,7.41,12.194,12.194,0,0,1-2.168,7.785M205.047,16.32a14.251,14.251,0,0,0-9.867,4.043l-.149-1.5c-.152-1.2-.9-1.574-2.316-1.574h-5.758c-1.418,0-2.168.6-2.168,2.1V67.754c0,1.5.75,2.246,2.1,2.246h6.8c1.5,0,2.316-.6,2.316-2.32v-15.8a12.424,12.424,0,0,0,8.371,2.992,14.666,14.666,0,0,0,11.586-5.238,22.543,22.543,0,0,0,4.785-14.75,20.546,20.546,0,0,0-4.785-14,14.157,14.157,0,0,0-10.91-4.566"/><path d="M234.117,31.367a7.028,7.028,0,0,1,6.727-6.512c3.886,0,5.754,3.293,5.754,6.512Zm7.4-15.2c-11.512,0-19.36,7.637-19.36,19.242,0,11.976,7.551,19.313,19.434,19.313a34.754,34.754,0,0,0,13.531-2.547c.746-.371,1.418-.672,1.418-1.645a46.765,46.765,0,0,0-1.418-5.84,1.208,1.208,0,0,0-1.2-1.051,2.053,2.053,0,0,0-.9.223,25.164,25.164,0,0,1-9.418,1.949,9.314,9.314,0,0,1-9.64-7.336H254.9c1.868,0,2.692-.375,2.692-2.172v-.973c0-5.242-.75-10.406-4.485-14.375a15.452,15.452,0,0,0-11.589-4.793"/><path d="M284.492,45.742c-.152-.672-.449-1.051-1.051-1.051a3.319,3.319,0,0,0-1.046.227,15.64,15.64,0,0,1-4.786.9c-3.289,0-3.812-2.4-3.812-6.289v-14.6h8.148a1.627,1.627,0,0,0,1.793-1.723v-4.34c0-1.125-.746-1.574-1.793-1.574h-8.07V8.531c0-1.348-.6-1.949-1.723-1.949H271.7l-6.726.9c-1.344.152-2.317.449-2.317,1.945v7.863h-3.437a1.746,1.746,0,0,0-1.719,1.945v3.219c0,2.024.3,2.473,2.1,2.473h2.988V39.3c0,6.137.148,9.207,2.543,12.055,2.015,2.395,5.379,3.367,9.566,3.367a23.492,23.492,0,0,0,9.567-1.945c.824-.375,1.2-.75,1.2-1.574a2.073,2.073,0,0,0-.074-.676Zm0,0"/><path d="M315.957,46.2h-14.5l-.078-.148,15.25-21.414a4.262,4.262,0,0,0,.824-2.844V19.164c0-.9-.226-1.871-1.945-1.871H290.7a1.75,1.75,0,0,0-1.722,1.945v3.223c0,2.02.3,2.469,2.1,2.469h12.258l.078.074L288.461,46.566a3.8,3.8,0,0,0-.824,2.77V51.66c0,1.27.523,2.1,2.168,2.1h26.16a1.629,1.629,0,0,0,1.3-.445,1.648,1.648,0,0,0,.5-1.277V47.7c0-1.125-.75-1.5-1.8-1.5"/><path d="M24.816,42.523a9.311,9.311,0,0,1-6.281,3.152c-5.68,0-6.875-5.543-6.875-10.184,0-6.961,3.438-9.957,7.1-9.957a10.179,10.179,0,0,1,6.055,2.547ZM37.746,46.2h-.6c-.824,0-1.121-.523-1.121-1.27V19.1a1.651,1.651,0,0,0-1.8-1.8H27.5a1.66,1.66,0,0,0-1.719,1.5l-.223,1.644a11.2,11.2,0,0,0-9.117-4.2C8.223,16.246,0,22.984,0,36.234c0,9.957,5.008,18.492,15.769,18.492a15.989,15.989,0,0,0,10.465-4.414h.152c.969,2.172,2.766,3.441,7.176,3.441h3.961a1.632,1.632,0,0,0,1.793-1.723v-4.34c0-1.125-.523-1.5-1.57-1.5"/><path d="M64.063,42.9a9.869,9.869,0,0,1-6.129,2.7c-5.684,0-6.953-5.465-6.953-10.105C50.98,31,52.7,25.23,58.156,25.23a9.383,9.383,0,0,1,5.906,2.4ZM73.777,0c-.148,0-.449.078-.6.078l-7.324.973c-1.422.223-1.8.973-1.8,2.32v15.8a12.439,12.439,0,0,0-8.371-3c-11.062,0-16.367,10.035-16.367,19.992,0,10.18,5.23,18.566,16.074,18.566a14.446,14.446,0,0,0,9.492-4.043l.148,1.578c.078.824.672,1.5,1.945,1.5h6.277A1.858,1.858,0,0,0,74.77,53.2a1.881,1.881,0,0,0,.508-1.535V1.648C75.277.6,74.828,0,73.781,0"/><path d="M96.949,45.895c-5.531,0-7.1-5.016-7.1-10.559,0-5.465,1.8-10.254,7.328-10.254s7.1,4.867,7.1,10.406c0,5.465-1.8,10.406-7.328,10.406m.375-29.645c-12.109,0-19.062,8.16-19.062,19.164,0,11.156,5.906,19.316,18.539,19.316,12.109,0,19.062-8.16,19.062-19.168,0-11.152-5.906-19.312-18.539-19.312"/><path d="M142.543,45.742c-.148-.672-.449-1.051-1.047-1.051a3.307,3.307,0,0,0-1.047.227,15.628,15.628,0,0,1-4.785.9c-3.289,0-3.812-2.4-3.812-6.289v-14.6H140a1.632,1.632,0,0,0,1.793-1.723v-4.34c0-1.125-.746-1.574-1.793-1.574h-8.074V8.531c0-1.348-.6-1.949-1.719-1.949h-.449l-6.727.9c-1.343.152-2.316.449-2.316,1.945v7.863h-3.438a1.75,1.75,0,0,0-1.722,1.945v3.219c0,2.024.3,2.473,2.1,2.473h2.989V39.3c0,6.137.152,9.207,2.543,12.055,2.015,2.395,5.382,3.367,9.566,3.367a23.5,23.5,0,0,0,9.57-1.945c.821-.375,1.2-.75,1.2-1.574a2.1,2.1,0,0,0-.078-.676Zm0,0"/><path d="M154.727,31.367a7.027,7.027,0,0,1,6.726-6.512c3.891,0,5.758,3.293,5.758,6.512Zm7.4-15.2c-11.512,0-19.359,7.637-19.359,19.242,0,11.976,7.546,19.313,19.433,19.313A34.731,34.731,0,0,0,175.73,52.18c.75-.371,1.422-.672,1.422-1.645a46.6,46.6,0,0,0-1.422-5.84,1.208,1.208,0,0,0-1.195-1.051,2.032,2.032,0,0,0-.894.223,25.173,25.173,0,0,1-9.418,1.949,9.323,9.323,0,0,1-9.645-7.336h20.93c1.871,0,2.691-.375,2.691-2.172v-.973c0-5.242-.75-10.406-4.484-14.375a15.453,15.453,0,0,0-11.586-4.793"/></svg>