<svg xmlns="http://www.w3.org/2000/svg" width="29.109" height="28.861" viewBox="0 0 29.109 28.861"><g transform="translate(-1.458 -2.049)"><path d="M15.918,29.105H7.859c.07-.937.313-1.191.395-1.211H9.363a1.262,1.262,0,0,0,1.082-.539,2.48,2.48,0,0,0,.3-1.656,3.727,3.727,0,0,1,.828-2.777,1.805,1.805,0,0,1,1.551-.375.5.5,0,0,0,.609-.43.593.593,0,0,0-.375-.707A2.7,2.7,0,0,0,10.941,22,4.906,4.906,0,0,0,9.719,25.75c0,.039.008.078.012.117a1.25,1.25,0,0,1-.078.746c-.016.027-.078.109-.3.109H8.32a1.013,1.013,0,0,0-.793.316A3.175,3.175,0,0,0,6.836,29.1H4.109c-.293,0-.9,0-1.051-.254a.672.672,0,0,1-.094-.32.7.7,0,0,1,.066-.285c.148-.281.715-.32,1.2-.32l.875-.008a.547.547,0,0,0,.5-.586V14.172c1.078-.516,1.824-2.059,1.777-3.832a.544.544,0,0,0-.508-.566H6.859a.552.552,0,0,0-.492.605c.039,1.535-.676,2.641-1.363,2.789-.734.16-1.52-.793-2.012-1.734a6.061,6.061,0,0,1,.133-5.145A4.6,4.6,0,0,1,6.879,3.523a9.931,9.931,0,0,1,3.578.586.212.212,0,0,0,.043.02,19.172,19.172,0,0,0,4.172.734c-.008.016-.012.031-.02.047a.694.694,0,0,1-.441.352A.605.605,0,0,0,13.883,6a.509.509,0,0,0,.484.406.413.413,0,0,0,.152-.023,1.8,1.8,0,0,0,.906-.691,4.96,4.96,0,0,1-1.973,3.074.478.478,0,0,0-.074.047c-.078,0-.16.012-.238.023a3.561,3.561,0,0,0-2.668,2.758c-.777,2.707,1.273,4.922,3.254,7.062.34.367.7.754,1.031,1.133a3.919,3.919,0,0,1,.449.605.466.466,0,0,0,.711.137.655.655,0,0,0,.117-.82,5.477,5.477,0,0,0-.566-.758c-.348-.394-.7-.781-1.051-1.156-1.832-1.977-3.559-3.84-2.984-5.836a2.514,2.514,0,0,1,1.852-1.965,1.934,1.934,0,0,1,1.973,1.023.47.47,0,0,0,.707.148.651.651,0,0,0,.129-.816A3.278,3.278,0,0,0,14.8,9.1,6.014,6.014,0,0,0,16.453,4.73,1.15,1.15,0,0,0,15.246,3.68a16.86,16.86,0,0,1-4.461-.691,10.872,10.872,0,0,0-3.906-.645A5.606,5.606,0,0,0,2.227,5.734a7.386,7.386,0,0,0-.105,6.3c.355.688,1.246,2.133,2.469,2.3V26.742H4.219a2.058,2.058,0,0,0-2.059.891,1.977,1.977,0,0,0-.215.883v.051a2.049,2.049,0,0,0,.281.953,2,2,0,0,0,1.883.762H15.918a.555.555,0,0,0,.508-.586A.549.549,0,0,0,15.918,29.105Zm0,0"/><path d="M7.617,6.477a.637.637,0,0,0,.145.809.464.464,0,0,0,.281.1.484.484,0,0,0,.426-.266.64.64,0,0,1,.91-.27.487.487,0,0,0,.676-.27.636.636,0,0,0-.234-.785A1.576,1.576,0,0,0,7.617,6.477Zm0,0"/><path d="M26.906,8.285h-.078a1.409,1.409,0,0,0-.77.34,1.945,1.945,0,0,0-.609,1.16.46.46,0,0,0,.32.531.358.358,0,0,0,.066,0,.417.417,0,0,0,.391-.379.979.979,0,0,1,.3-.586.654.654,0,0,1,.336-.16.632.632,0,0,1,.359.2.846.846,0,0,1,.2.5.422.422,0,0,0,.434.414.444.444,0,0,0,.355-.5,1.845,1.845,0,0,0-.453-1.078A1.281,1.281,0,0,0,26.906,8.285Zm0,0"/><path d="M23.3,8.285h-.078a1.409,1.409,0,0,0-.77.34,1.923,1.923,0,0,0-.609,1.16.461.461,0,0,0,.316.531.424.424,0,0,0,.07,0,.417.417,0,0,0,.391-.379.979.979,0,0,1,.3-.586.655.655,0,0,1,.336-.16.6.6,0,0,1,.355.2.832.832,0,0,1,.207.5.421.421,0,0,0,.43.414.444.444,0,0,0,.359-.5,1.846,1.846,0,0,0-.453-1.078A1.312,1.312,0,0,0,23.3,8.285Zm0,0"/><path d="M29.781,6.816l-.555-4.273a.564.564,0,0,0-.352-.469.476.476,0,0,0-.527.16L26.523,4.508a4.448,4.448,0,0,0-3.019.027l-1.945-2.3a.44.44,0,0,0-.512-.148.559.559,0,0,0-.352.461l-.633,4.273a9.083,9.083,0,0,0-.621,2.789,2.793,2.793,0,0,0-1.414-.7,2.725,2.725,0,0,0-2.777,1.441.657.657,0,0,0,.129.82.468.468,0,0,0,.711-.148,1.731,1.731,0,0,1,1.793-.953,2.579,2.579,0,0,1,1.852,2.023c.563,1.957-1.137,3.793-2.941,5.738-.34.367-.691.754-1.035,1.133-2.25,2.555-1.809,7.094-1.754,7.617a4.143,4.143,0,0,0,1.313,3.277,5.277,5.277,0,0,0,3.477,1.051,13.821,13.821,0,0,0,3.867-.629h4.6a1.487,1.487,0,0,0,1.133-.535,2.046,2.046,0,0,0,.438-1.445,2.115,2.115,0,0,0-.555-1.281,1.6,1.6,0,0,0-.5-.348V14.207a4.456,4.456,0,0,0,2.3-1.965C30.82,10.848,30.719,9.02,29.781,6.816ZM27.227,27.711a.6.6,0,0,1,.379.184.866.866,0,0,1,.219.512v.012a.707.707,0,0,1-.152.5.516.516,0,0,1-.4.184h-.578a2.185,2.185,0,0,0,.094-.828A2.069,2.069,0,0,0,26.23,27a1.731,1.731,0,0,0-.5-.352V25.2a.515.515,0,1,0-1.02,0v1.9a.567.567,0,0,0,.465.586.6.6,0,0,1,.379.184.866.866,0,0,1,.219.512V28.4a.728.728,0,0,1-.152.5.53.53,0,0,1-.4.188H23.836a.337.337,0,0,0-.137.024h-.2V25.469a4.655,4.655,0,0,0-1.129-3.4,3.352,3.352,0,0,0-2.727-.914.565.565,0,0,0-.434.656.515.515,0,0,0,.566.5,2.5,2.5,0,0,1,1.93.641,3.492,3.492,0,0,1,.781,2.524v3.648a.177.177,0,0,0-.043.012c-1.258.426-4.875,1.211-6.523-.207a2.93,2.93,0,0,1-.9-2.375.321.321,0,0,0-.008-.086c0-.043-.523-4.418,1.453-6.66.332-.375.684-.754,1.02-1.113,1.523-1.645,3.09-3.332,3.34-5.266a6.375,6.375,0,0,0,4.164,1.359h.016a8.1,8.1,0,0,0,1.762-.238V27.121A.555.555,0,0,0,27.227,27.711Zm1.984-16.09c-1.023,1.922-4.051,1.984-4.2,1.984-2.152-.07-3.555-.715-4.18-1.914-.945-1.809.16-4.418.172-4.445a.607.607,0,0,0,.047-.164l.473-3.23,1.473,1.742a.455.455,0,0,0,.527.141,3.385,3.385,0,0,1,2.9-.039.469.469,0,0,0,.613-.117L28.379,3.91l.406,3.156a.421.421,0,0,0,.051.176C29.641,9.109,29.77,10.578,29.211,11.621Zm0,0"/></g></svg>