<svg xmlns="http://www.w3.org/2000/svg" width="16.178" height="16.048" viewBox="0 0 16.178 16.048"><g transform="translate(-1.468 -2.049)"><path d="M9.5,17.22H5.021c.039-.521.174-.662.22-.673h.617a.7.7,0,0,0,.6-.3,1.379,1.379,0,0,0,.167-.921,2.072,2.072,0,0,1,.46-1.544,1,1,0,0,1,.862-.208.278.278,0,0,0,.339-.239.33.33,0,0,0-.208-.393,1.5,1.5,0,0,0-1.344.328,2.727,2.727,0,0,0-.679,2.085.645.645,0,0,0,.007.065.7.7,0,0,1-.043.415c-.009.015-.043.061-.167.061H5.277a.563.563,0,0,0-.441.176,1.765,1.765,0,0,0-.384,1.146H2.936c-.163,0-.5,0-.584-.141A.374.374,0,0,1,2.3,16.9a.389.389,0,0,1,.037-.158c.082-.156.4-.178.667-.178l.486,0a.3.3,0,0,0,.278-.326V8.919a2.27,2.27,0,0,0,.988-2.13.3.3,0,0,0-.282-.315H4.465a.307.307,0,0,0-.274.336c.022.853-.376,1.468-.758,1.55-.408.089-.845-.441-1.119-.964a3.369,3.369,0,0,1,.074-2.86A2.557,2.557,0,0,1,4.476,3a5.521,5.521,0,0,1,1.989.326.118.118,0,0,0,.024.011,10.658,10.658,0,0,0,2.319.408c0,.009-.007.017-.011.026a.386.386,0,0,1-.245.2.336.336,0,0,0-.182.41.283.283,0,0,0,.269.226.23.23,0,0,0,.085-.013,1,1,0,0,0,.5-.384,2.757,2.757,0,0,1-1.1,1.709.266.266,0,0,0-.041.026.969.969,0,0,0-.132.013A1.98,1.98,0,0,0,6.474,7.485c-.432,1.5.708,2.736,1.809,3.926.189.2.389.419.573.63a2.179,2.179,0,0,1,.25.336.259.259,0,0,0,.4.076A.364.364,0,0,0,9.566,12a3.045,3.045,0,0,0-.315-.421c-.193-.219-.389-.434-.584-.643C7.648,9.835,6.688,8.8,7.008,7.689A1.4,1.4,0,0,1,8.037,6.6a1.075,1.075,0,0,1,1.1.569.261.261,0,0,0,.393.082A.362.362,0,0,0,9.6,6.794a1.822,1.822,0,0,0-.719-.7A3.343,3.343,0,0,0,9.8,3.67a.639.639,0,0,0-.671-.584A9.373,9.373,0,0,1,6.648,2.7a6.044,6.044,0,0,0-2.171-.359A3.116,3.116,0,0,0,1.89,4.228a4.106,4.106,0,0,0-.058,3.5c.2.382.693,1.186,1.373,1.279v6.9H3a1.144,1.144,0,0,0-1.145.5,1.1,1.1,0,0,0-.12.491v.028a1.139,1.139,0,0,0,.156.53,1.112,1.112,0,0,0,1.047.424H9.5a.309.309,0,0,0,.282-.326A.305.305,0,0,0,9.5,17.22Zm0,0" transform="translate(0 -0.13)"/><path d="M7.579,6.081a.354.354,0,0,0,.081.45.258.258,0,0,0,.156.056.269.269,0,0,0,.237-.148.356.356,0,0,1,.506-.15.271.271,0,0,0,.376-.15A.354.354,0,0,0,8.8,5.7a.876.876,0,0,0-1.225.379Zm0,0" transform="translate(-2.693 -1.57)"/><path d="M26.255,8.285h-.043a.783.783,0,0,0-.428.189,1.081,1.081,0,0,0-.339.645.256.256,0,0,0,.178.3.2.2,0,0,0,.037,0,.232.232,0,0,0,.217-.211.544.544,0,0,1,.167-.326.364.364,0,0,1,.187-.089.351.351,0,0,1,.2.111.47.47,0,0,1,.111.278.235.235,0,0,0,.241.23.247.247,0,0,0,.2-.278,1.026,1.026,0,0,0-.252-.6.712.712,0,0,0-.473-.246Zm0,0" transform="translate(-10.645 -2.769)"/><path d="M22.649,8.285h-.043a.783.783,0,0,0-.428.189,1.069,1.069,0,0,0-.339.645.256.256,0,0,0,.176.3.236.236,0,0,0,.039,0,.232.232,0,0,0,.217-.211.544.544,0,0,1,.167-.326.364.364,0,0,1,.187-.089.334.334,0,0,1,.2.111.463.463,0,0,1,.115.278.234.234,0,0,0,.239.23.247.247,0,0,0,.2-.278,1.026,1.026,0,0,0-.252-.6A.729.729,0,0,0,22.649,8.285Zm0,0" transform="translate(-9.044 -2.769)"/><path d="M22.744,4.7l-.309-2.375a.314.314,0,0,0-.2-.261.265.265,0,0,0-.293.089L20.933,3.416a2.473,2.473,0,0,0-1.678.015L18.173,2.153a.245.245,0,0,0-.285-.082.311.311,0,0,0-.2.256L17.341,4.7A5.049,5.049,0,0,0,17,6.253a1.553,1.553,0,0,0-.786-.389,1.515,1.515,0,0,0-1.544.8.365.365,0,0,0,.072.456.26.26,0,0,0,.4-.082.962.962,0,0,1,1-.53,1.434,1.434,0,0,1,1.03,1.125c.313,1.088-.632,2.109-1.635,3.19-.189.2-.384.419-.575.63-1.251,1.42-1.006,3.944-.975,4.234a2.3,2.3,0,0,0,.73,1.822,2.934,2.934,0,0,0,1.933.584,7.683,7.683,0,0,0,2.15-.35h2.557a.827.827,0,0,0,.63-.3,1.137,1.137,0,0,0,.243-.8,1.176,1.176,0,0,0-.309-.712.889.889,0,0,0-.278-.193V8.808a2.477,2.477,0,0,0,1.279-1.092A3.474,3.474,0,0,0,22.744,4.7Zm-1.42,11.616a.334.334,0,0,1,.211.1.481.481,0,0,1,.122.285v.007a.393.393,0,0,1-.084.278.287.287,0,0,1-.222.1h-.321a1.215,1.215,0,0,0,.052-.46,1.15,1.15,0,0,0-.311-.709.962.962,0,0,0-.278-.2v-.8a.286.286,0,1,0-.567,0v1.056a.315.315,0,0,0,.259.326.334.334,0,0,1,.211.1.481.481,0,0,1,.122.285v.01a.4.4,0,0,1-.084.278.3.3,0,0,1-.222.1h-.77a.187.187,0,0,0-.076.013h-.111V15.069a2.588,2.588,0,0,0-.628-1.89,1.863,1.863,0,0,0-1.516-.508.314.314,0,0,0-.241.365.286.286,0,0,0,.315.278,1.39,1.39,0,0,1,1.073.356,1.941,1.941,0,0,1,.434,1.4V17.1a.1.1,0,0,0-.024.007c-.7.237-2.71.673-3.626-.115a1.629,1.629,0,0,1-.5-1.32.178.178,0,0,0,0-.048c0-.024-.291-2.456.808-3.7.185-.208.38-.419.567-.619a5.972,5.972,0,0,0,1.857-2.927,3.544,3.544,0,0,0,2.315.755h.009A4.5,4.5,0,0,0,21.068,9v6.988a.309.309,0,0,0,.256.328Zm1.1-8.945c-.569,1.068-2.252,1.1-2.335,1.1a2.484,2.484,0,0,1-2.324-1.064,3.394,3.394,0,0,1,.1-2.471.338.338,0,0,0,.026-.091l.263-1.8.819.968a.253.253,0,0,0,.293.078,1.882,1.882,0,0,1,1.612-.022.261.261,0,0,0,.341-.065l.747-.928.226,1.754a.234.234,0,0,0,.028.1,2.847,2.847,0,0,1,.208,2.434Zm0,0" transform="translate(-5.536)"/></g></svg>