<svg xmlns="http://www.w3.org/2000/svg" width="32.267" height="16.925" viewBox="0 0 32.267 16.925"><g transform="translate(-208.218 -231.582)"><circle cx="2.28" cy="2.28" r="2.28" transform="translate(233.758 239.647)"/><circle cx="2.28" cy="2.28" r="2.28" transform="translate(235.925 234.832)"/><path d="M74.17,24.433a1.3,1.3,0,0,1-1.058.242.61.61,0,0,1-.159-1.019c7.314-4.037,15.342-2.851,19.953.074.106.066.542.513.2.892a.842.842,0,0,1-.958.024C85.612,21.241,79.664,21.442,74.17,24.433Z" transform="translate(141.571 223.728)"/><path d="M73.945,19.7a20.829,20.829,0,0,1,6.748-1.631,24.059,24.059,0,0,1,5.778.279,20.932,20.932,0,0,1,5.511,1.767,8,8,0,0,1,1.742.988.828.828,0,0,1,.28,1c-.185.637-.927.579-1.371.322C86.351,18.781,78.8,19.16,72.467,22.4c-.387.2-1.054.228-1.26-.3-.3-.76.343-1.265.946-1.656.089-.057-.084.051,0,0A12.7,12.7,0,0,1,73.945,19.7Z" transform="translate(141.929 224.406)"/><circle cx="2.279" cy="2.279" r="2.279" transform="translate(208.218 234.834)"/><circle cx="2.28" cy="2.28" r="2.28" transform="translate(210.587 239.647)"/><circle cx="2.28" cy="2.28" r="2.28" transform="translate(216.124 237.721)"/><circle cx="2.28" cy="2.28" r="2.28" transform="translate(214.921 232.425)"/><circle cx="2.281" cy="2.281" r="2.281" transform="translate(222.022 236.757)"/><circle cx="2.281" cy="2.281" r="2.281" transform="translate(222.022 231.582)"/><circle cx="2.28" cy="2.28" r="2.28" transform="translate(228.042 237.481)"/><circle cx="2.28" cy="2.28" r="2.28" transform="translate(229.124 232.425)"/></g></svg>