<svg xmlns="http://www.w3.org/2000/svg" width="192.455" height="43.761" viewBox="0 0 192.455 43.761"><g transform="translate(0 -0.02)"><path d="M529.208,25.275a6.5,6.5,0,0,0-2.505-1.691,8.482,8.482,0,0,0-2.965-.523,7.228,7.228,0,0,0-3.618.814,7.919,7.919,0,0,0-2.105,1.608,2.163,2.163,0,0,0-1.217-1.545,5.177,5.177,0,0,0-2.359-.46,22.392,22.392,0,0,0-2.568.288s.575,6.532.575,12.506c0,5.079-.184,14.9-.184,14.9s2-.805,3.04-1.254a7,7,0,0,0,2.4-1.573c.575-.682.627-1.726.61-3.115l-.055-3.164a3.181,3.181,0,0,0,.388.411,3.973,3.973,0,0,0,.966.667,8.415,8.415,0,0,0,1.533.61,7.426,7.426,0,0,0,2.125.27,9.2,9.2,0,0,0,2.925-.5,6.708,6.708,0,0,0,2.692-1.726,9.105,9.105,0,0,0,1.956-3.339,16.073,16.073,0,0,0,.759-5.37,14.843,14.843,0,0,0-.653-4.72,8.43,8.43,0,0,0-1.746-3.092ZM524.62,37.89a3.431,3.431,0,0,1-3.164,1.668,4.194,4.194,0,0,1-2.013-.457,6.34,6.34,0,0,1-1.208-.843c-.066-3,.118-7.662.158-8.263a3.108,3.108,0,0,1,.644-1.916,3.335,3.335,0,0,1,2.4-.759,4.182,4.182,0,0,1,1.976.44,3.357,3.357,0,0,1,1.306,1.231,5.669,5.669,0,0,1,.707,1.881,12.256,12.256,0,0,1,.21,2.338A9.12,9.12,0,0,1,524.62,37.89Z" transform="translate(-373.67 -16.413)"/><path d="M17.545,23.269C15.549,21.756,13.024,21,8.672,21c-1.127,0-2.186.037-3.578.109S1.332,21.288,0,21.44a29,29,0,0,1,.388,4C.495,28.1.6,31.9.6,36.123.6,40.5.486,44.413.377,47.1A24.589,24.589,0,0,1,0,50.726H7.737a24.589,24.589,0,0,1-.365-3.63c-.075-1.8-.15-4.15-.181-6.825H9.083a19.791,19.791,0,0,0,4.637-.532,9.463,9.463,0,0,0,3.6-1.7,8.678,8.678,0,0,0,2.649-3.233,10.95,10.95,0,0,0,.978-4.849A8.132,8.132,0,0,0,17.545,23.269ZM12.584,34.487a7.448,7.448,0,0,1-4.205,1.205H7.147c0-4.01.109-7.6.207-10.173.383-.037,1.309-.118,2.013-.118a5.548,5.548,0,0,1,3.322,1.1A4.711,4.711,0,0,1,14.5,30.333,4.854,4.854,0,0,1,12.586,34.5Z" transform="translate(0 -14.946)"/><path d="M91.159,53.165c0-.4-.02-1.642-1.9-2.042a3.762,3.762,0,0,0-3.288.846,6.759,6.759,0,0,0-1.5,1.726,2.666,2.666,0,0,0-1.294-1.806,4.642,4.642,0,0,0-2.416-.408A18.227,18.227,0,0,0,78,51.948s.121.785.288,3.247c.124,1.89.135,7.053.135,7.053s.049,3.676-.124,6.5c-.178,2.894-.27,3.365-.27,3.365H85.1s-.2-1.07-.351-3.316-.132-3.785-.132-6.552,0-4.185.863-5.2a2.421,2.421,0,0,1,3.014-.647,3.417,3.417,0,0,1,1.13.751,10.93,10.93,0,0,0,.9-1.616,7.124,7.124,0,0,0,.639-2.361Z" transform="translate(-55.565 -39.558)"/><path d="M141.459,54.078a9.884,9.884,0,0,0-7.585-2.96,12.638,12.638,0,0,0-3.828.607,9.4,9.4,0,0,0-3.351,1.9,9.894,9.894,0,0,0-2.589,3.265,11.482,11.482,0,0,0-.949,4.729,12.857,12.857,0,0,0,1.064,5.465,9.794,9.794,0,0,0,2.83,3.48,9.46,9.46,0,0,0,3.69,1.815,17.367,17.367,0,0,0,4.219.518,15.261,15.261,0,0,0,4.125-.495,8.689,8.689,0,0,0,2.721-1.185,2.167,2.167,0,0,0,1.15-1.726,3.541,3.541,0,0,0-.6-1.662,11.653,11.653,0,0,0-1.151-1.665c-.273.23-.575.483-.912.756a6.408,6.408,0,0,1-1.185.756,8.257,8.257,0,0,1-1.55.575,7.617,7.617,0,0,1-2.013.239,5.435,5.435,0,0,1-4.332-1.579,5.7,5.7,0,0,1-1.55-3.624l13.61-.331a18.274,18.274,0,0,0,.27-2.652C143.562,57.489,142.981,55.642,141.459,54.078Zm-11.824,5.974a5.557,5.557,0,0,1,1.067-3.638,3.978,3.978,0,0,1,3.052-1.36,3.721,3.721,0,0,1,3.207,1.455,5.557,5.557,0,0,1,.785,3.213Z" transform="translate(-89.913 -39.702)"/><path d="M367.539,54.078a9.873,9.873,0,0,0-7.582-2.96,12.655,12.655,0,0,0-3.831.607,9.425,9.425,0,0,0-3.351,1.9,9.888,9.888,0,0,0-2.589,3.265,11.482,11.482,0,0,0-.949,4.729,12.9,12.9,0,0,0,1.061,5.465,9.854,9.854,0,0,0,2.83,3.48,9.492,9.492,0,0,0,3.693,1.815,17.326,17.326,0,0,0,4.217.518,15.282,15.282,0,0,0,4.127-.495,8.72,8.72,0,0,0,2.712-1.191,2.149,2.149,0,0,0,1.151-1.726,3.564,3.564,0,0,0-.593-1.662,12.141,12.141,0,0,0-1.15-1.665c-.288.23-.575.483-.912.756a6.533,6.533,0,0,1-1.188.756,8.259,8.259,0,0,1-1.55.575,7.6,7.6,0,0,1-2.013.239,5.435,5.435,0,0,1-4.332-1.579,5.7,5.7,0,0,1-1.55-3.624l13.613-.331a18.472,18.472,0,0,0,.267-2.652C369.642,57.489,369.061,55.642,367.539,54.078Zm-11.824,5.974a5.574,5.574,0,0,1,1.067-3.638,3.978,3.978,0,0,1,3.029-1.36,3.721,3.721,0,0,1,3.207,1.455,5.556,5.556,0,0,1,.788,3.213Z" transform="translate(-254.968 -39.702)"/><path d="M231.785,62.976s.032-4.507.032-5.284a6.641,6.641,0,0,0-1.9-5.157,7.721,7.721,0,0,0-4.777-1.415c-2.712,0-4.1.748-6.066,2.8a4.711,4.711,0,0,0-1.763-1.939,6.6,6.6,0,0,0-3.636-.863,6.038,6.038,0,0,0-3.434.788,6.719,6.719,0,0,0-2.195,1.849c-.5-1.783-1.668-2.266-3.693-2.206a14.736,14.736,0,0,0-2.778.457s.158,1.648.288,3.276c.138,1.789.173,5.071.132,7.579s-.086,4.5-.124,5.96-.27,3.348-.27,3.348h7.064a32.306,32.306,0,0,1-.351-3.325c-.052-1.458-.118-5.876-.118-5.876s0-1.6.063-3.469,1.09-3.285,2.7-3.285c1.852,0,2.914.843,2.914,2.12l.043,4.634s-.014,4.044-.121,5.85-.273,3.348-.273,3.348h7.11s-.322-2.034-.383-3.4c-.083-1.967-.075-5.672-.075-5.672V60.22c.046-2.249.765-4,2.73-4,1.409,0,2.6.7,2.6,2.137,0,0,.052,2.384.052,4.628s-.06,4.176-.1,5.833a30.925,30.925,0,0,1-.288,3.365h7.11s-.265-1.553-.374-3.362C231.828,67.627,231.785,64.236,231.785,62.976Z" transform="translate(-147.373 -39.622)"/><path d="M323.618,64c0-1.893.38-7.979.38-7.979a3.825,3.825,0,0,0-.3-1.752,3.918,3.918,0,0,0-3.779-1.7,20.547,20.547,0,0,0-2.876.457,30.335,30.335,0,0,1,.288,3.313c.055,1.778.135,3.288.135,7.659,0,2.7-.15,5.822-.15,5.822-.124,1.795.308,2.62,1.018,3.095a6.174,6.174,0,0,0,3.1.575c.463,0,2.568-.115,2.683-.173,0,0-.236-1.6-.377-3.371C323.6,68.261,323.618,67.139,323.618,64Z" transform="translate(-231.082 -40.718)"/><path d="M672.577,25.385a14.223,14.223,0,0,0-.966-1.588c-.083.083-.224.21-.42.377a4.027,4.027,0,0,1-.736.48,7.741,7.741,0,0,1-.969.417,3.259,3.259,0,0,1-1.116.19c-1.6,0-2.238-.935-2.4-2.925,0,0-.141-1.763-.141-4.8a34.244,34.244,0,0,1,.147-4.053s2.43.052,3.613-.086c1.484-.173,1.634-4.26,1.634-4.26h-5.246V6.212a3.665,3.665,0,0,0-.336-1.691,2.774,2.774,0,0,0-.883-1.024,3.164,3.164,0,0,0-1.22-.5,9.077,9.077,0,0,0-1.5-.127,6.576,6.576,0,0,0-.673.023c-.224.023-.434.035-.63.06l-1.191.095a43.342,43.342,0,0,1,.426,6.089s-1.343-.043-1.343.184a17.887,17.887,0,0,0,.828,4.027c.069.178.515.138.515.138s.132,1.757.132,4.05v4.89q0,.918.083,1.838a7.357,7.357,0,0,0,.38,1.755,5.384,5.384,0,0,0,2.013,2.632,7.087,7.087,0,0,0,4.081,1,10.676,10.676,0,0,0,2.482-.27,7.81,7.81,0,0,0,1.959-.716,5.277,5.277,0,0,0,1.383-.961,1.645,1.645,0,0,0,.44-1.064A2.8,2.8,0,0,0,672.577,25.385Z" transform="translate(-480.473 -2.03)"/><path d="M318.174,32.028a4.173,4.173,0,0,0,2.709.207,4,4,0,0,0,2.266-1.363,2.721,2.721,0,0,0,.627-2.522,2.684,2.684,0,0,0-1.614-1.959,4.314,4.314,0,0,0-2.724-.184,4.191,4.191,0,0,0-2.321,1.412,2.894,2.894,0,0,0,1.056,4.409Z" transform="translate(-230.685 -18.555)"/><path d="M689.074,4.642a2.642,2.642,0,0,1-.523-.863,3.043,3.043,0,0,1-.181-1.053,2.9,2.9,0,0,1,.181-1.053,2.511,2.511,0,0,1,.535-.863,2.558,2.558,0,0,1,.863-.575,3.083,3.083,0,0,1,2.266,0,2.517,2.517,0,0,1,.846.575,2.55,2.55,0,0,1,.532.863,2.894,2.894,0,0,1,.187,1.05,2.917,2.917,0,0,1-.187,1.053,2.519,2.519,0,0,1-1.383,1.455,2.844,2.844,0,0,1-1.133.216,2.876,2.876,0,0,1-1.151-.216,2.559,2.559,0,0,1-.851-.59Zm1.058.178a2.278,2.278,0,0,0,.941.187,2.223,2.223,0,0,0,.929-.19,2.119,2.119,0,0,0,.69-.5,2.167,2.167,0,0,0,.426-.728,2.565,2.565,0,0,0,.147-.863,2.536,2.536,0,0,0-.147-.863,2.139,2.139,0,0,0-.426-.722,2.033,2.033,0,0,0-.69-.5,2.269,2.269,0,0,0-.94-.187,2.217,2.217,0,0,0-.932.187,2.012,2.012,0,0,0-.687.5,2.147,2.147,0,0,0-.429.722,2.534,2.534,0,0,0-.144.863,2.45,2.45,0,0,0,.319,1.248,2.074,2.074,0,0,0,.943.846Zm-.066-3.739q.227-.026.492-.035h.426a1.548,1.548,0,0,1,1.03.288.886.886,0,0,1,.311.693,1.02,1.02,0,0,1-.063.368,1,1,0,0,1-.17.288,1,1,0,0,1-.25.2.965.965,0,0,1-.288.112h.017l.837,1.323a.512.512,0,0,1-.152.055.646.646,0,0,1-.141.017.549.549,0,0,1-.233-.052.471.471,0,0,1-.19-.181L691,3.066h-.423V4.328h-.512Zm1.024,1.5c.466,0,.7-.193.7-.575a.446.446,0,0,0-.184-.388,1.024,1.024,0,0,0-.6-.132h-.253a.719.719,0,0,0-.2.017h.017V2.577Z" transform="translate(-501.658)"/><path d="M604.935,25.8a9.67,9.67,0,0,0-7.326-2.876,12.254,12.254,0,0,0-3.7.575,9.1,9.1,0,0,0-3.239,1.838,9.582,9.582,0,0,0-2.491,3.164,11.129,11.129,0,0,0-.917,4.573,12.5,12.5,0,0,0,1.027,5.284,9.494,9.494,0,0,0,2.735,3.365,9.23,9.23,0,0,0,3.567,1.755,16.768,16.768,0,0,0,4.076.5,14.75,14.75,0,0,0,3.986-.48,8.466,8.466,0,0,0,2.623-1.15,2.079,2.079,0,0,0,1.1-1.668,3.466,3.466,0,0,0-.575-1.611,11.919,11.919,0,0,0-1.1-1.608c-.265.224-.558.469-.883.731a6.169,6.169,0,0,1-1.15.733,8.265,8.265,0,0,1-1.5.575,7.4,7.4,0,0,1-1.939.227,5.232,5.232,0,0,1-4.185-1.524,5.514,5.514,0,0,1-1.5-3.5l13.153-.316a17.671,17.671,0,0,0,.262-2.563C606.969,29.092,606.4,27.306,604.935,25.8ZM593.51,31.572a5.362,5.362,0,0,1,1.03-3.512,3.843,3.843,0,0,1,2.937-1.317,3.64,3.64,0,0,1,3.1,1.406,5.34,5.34,0,0,1,.762,3.1Z" transform="translate(-429.628 -16.314)"/><path d="M449.7,49.584c-.92-1.1-2.209-2.681-3.288-4.087s-2.6-3.892-2.6-3.892l-1.588-2.551a10.734,10.734,0,0,0,1.657-1.015,8.707,8.707,0,0,0,2.658-3.233,10.925,10.925,0,0,0,.975-4.849,8.146,8.146,0,0,0-3.4-6.682c-2-1.5-4.527-2.275-8.882-2.275-1.125,0-2.186.037-3.578.109s-3.759.184-5.091.331a29.582,29.582,0,0,1,.388,4c.1,2.669.213,6.46.213,10.688,0,4.381-.118,8.289-.224,10.973a24.587,24.587,0,0,1-.365,3.63h7.723a24.587,24.587,0,0,1-.365-3.63c-.072-1.8-.147-4.15-.19-6.822h2.031l4.7,7.941a6.466,6.466,0,0,0,2.013,2.249,4.95,4.95,0,0,0,2.7.69,16.888,16.888,0,0,0,5.045-.946S449.872,49.8,449.7,49.584ZM433.7,35.7c0-4.01.109-7.6.21-10.173.383-.037,1.309-.118,2.013-.118a5.557,5.557,0,0,1,3.325,1.1,4.708,4.708,0,0,1,1.815,3.831,4.853,4.853,0,0,1-1.916,4.153,7.435,7.435,0,0,1-4.208,1.205Z" transform="translate(-311.557 -14.946)"/><path d="M3.191,151.288H1.077a2.477,2.477,0,0,1-.029-.4.662.662,0,0,1,.233-.532.926.926,0,0,1,.616-.2h4.76a2.687,2.687,0,0,1,.032.434.63.63,0,0,1-.219.509.9.9,0,0,1-.61.187H4.586v5.643H3.191Z" transform="translate(-0.747 -113.321)"/><path d="M35.159,155.867a.941.941,0,0,1,.624.187.664.664,0,0,1,.216.532v.354H31.59V150.16h4.217a1.956,1.956,0,0,1,.029.374.659.659,0,0,1-.2.544,1.047,1.047,0,0,1-.662.164H32.985v1.668h2.143v1.081H32.985v1.875Z" transform="translate(-22.504 -113.324)"/><path d="M58.948,150a.863.863,0,0,1,.48.129.961.961,0,0,1,.328.446l1.524,3.615,1.547-3.581a.889.889,0,0,1,.84-.6,2.014,2.014,0,0,1,.7.089l.486,6.725h-1.3l-.314-4.49L61.856,155.4H60.705l-1.335-2.942-.288,4.358H57.76l.495-6.725a2.422,2.422,0,0,1,.693-.095Z" transform="translate(-41.147 -113.209)"/><path d="M99.429,152.034a2.18,2.18,0,0,1-.716,1.76,3.074,3.074,0,0,1-2.042.607h-.486v2.416H94.79v-6.733A15.119,15.119,0,0,1,96.576,150a3.7,3.7,0,0,1,2.143.5A1.775,1.775,0,0,1,99.429,152.034Zm-1.415.072a1.064,1.064,0,0,0-.334-.863,1.438,1.438,0,0,0-.961-.288,4.276,4.276,0,0,0-.546.032v2.428h.334a1.726,1.726,0,0,0,1.151-.314A1.277,1.277,0,0,0,98.014,152.106Z" transform="translate(-67.526 -113.208)"/><path d="M127.915,153.185a3.946,3.946,0,0,1-.805,2.629,2.839,2.839,0,0,1-2.3.949,3,3,0,0,1-1.657-.434,2.715,2.715,0,0,1-1.027-1.243,4.743,4.743,0,0,1-.348-1.89,4.3,4.3,0,0,1,.383-1.875,2.755,2.755,0,0,1,1.081-1.22,3.164,3.164,0,0,1,1.648-.414,2.767,2.767,0,0,1,2.229.92A3.814,3.814,0,0,1,127.915,153.185Zm-1.438,0a3.216,3.216,0,0,0-.408-1.775,1.337,1.337,0,0,0-1.188-.621,1.415,1.415,0,0,0-1.245.621,3.135,3.135,0,0,0-.423,1.775,3.328,3.328,0,0,0,.423,1.815,1.455,1.455,0,0,0,2.422,0,3.339,3.339,0,0,0,.431-1.8Z" transform="translate(-88.75 -112.984)"/><path d="M176.23,153.284a4.157,4.157,0,0,1-.394,1.872,2.767,2.767,0,0,1-1.116,1.211,3.365,3.365,0,0,1-1.726.417H170.84v-6.713a14.932,14.932,0,0,1,1.9-.121,3.583,3.583,0,0,1,2.589.837A3.441,3.441,0,0,1,176.23,153.284Zm-1.415.02a2.632,2.632,0,0,0-.483-1.726,1.852,1.852,0,0,0-1.478-.561,4.454,4.454,0,0,0-.6.029v4.671h.555a1.891,1.891,0,0,0,1.527-.575A2.83,2.83,0,0,0,174.815,153.3Z" transform="translate(-124.497 -113.174)"/><path d="M205.567,155.867a.926.926,0,0,1,.621.187.667.667,0,0,1,.219.532v.187a.689.689,0,0,1-.014.167H202V150.16h4.214a1.927,1.927,0,0,1,.032.374.659.659,0,0,1-.2.544,1.035,1.035,0,0,1-.662.164h-1.99v1.668h2.143v1.081h-2.143v1.875Z" transform="translate(-147.188 -113.324)"/><path d="M249.306,156.832h-1.174l-2.876-4.45v4.45H243.93v-6.753a2.8,2.8,0,0,1,.618-.06,1.067,1.067,0,0,1,.48.095.953.953,0,0,1,.36.36l2.589,4.257v-4.662a2.876,2.876,0,0,1,.454-.049c.575,0,.863.262.863.788Z" transform="translate(-177.76 -113.222)"/><path d="M280.665,154.1a7.885,7.885,0,0,1-.04.817,2.229,2.229,0,0,1-.391,1.122,2.013,2.013,0,0,1-.889.7,3.4,3.4,0,0,1-1.329.236,2.814,2.814,0,0,1-1.809-.5,2.3,2.3,0,0,1-.748-1.6,6.03,6.03,0,0,1-.04-.777v-4.027a3.272,3.272,0,0,1,.483-.049c.6,0,.9.262.9.788V154.2a2.876,2.876,0,0,0,.121.941.915.915,0,0,0,.394.495,1.412,1.412,0,0,0,.728.164,1.15,1.15,0,0,0,.938-.365,1.812,1.812,0,0,0,.288-1.151v-4.217a3.3,3.3,0,0,1,.486-.049c.6,0,.9.262.9.788Z" transform="translate(-200.703 -113.224)"/><path d="M306.551,151.287H304.44a2.455,2.455,0,0,1-.032-.4.661.661,0,0,1,.233-.532.935.935,0,0,1,.627-.2h4.752a3.055,3.055,0,0,1,.032.434.639.639,0,0,1-.219.509.9.9,0,0,1-.613.187h-1.274v5.643h-1.395Z" transform="translate(-221.839 -113.32)"/><path d="M339.406,151.982a2.2,2.2,0,0,1-.337,1.234,1.869,1.869,0,0,1-.946.739l1.668,2.79a1.994,1.994,0,0,1-.808.173,1.151,1.151,0,0,1-.627-.161,1.519,1.519,0,0,1-.466-.526l-1.15-1.962h-.555v2.548h-1.4v-6.733a15.156,15.156,0,0,1,1.786-.086,3.734,3.734,0,0,1,2.14.489A1.726,1.726,0,0,1,339.406,151.982Zm-1.455.132a1.15,1.15,0,0,0-.288-.863,1.332,1.332,0,0,0-.941-.288h-.314l-.221.02v2.336h.475a1.372,1.372,0,0,0,.966-.314A1.171,1.171,0,0,0,337.951,152.115Z" transform="translate(-243.962 -113.208)"/><path d="M363.11,150.069a3.268,3.268,0,0,1,.486-.049c.6,0,.9.262.9.788v6.04H363.11Z" transform="translate(-264.493 -113.224)"/><path d="M385.346,151.949a2.2,2.2,0,0,1-.337,1.234,1.869,1.869,0,0,1-.946.739l1.668,2.79a2.013,2.013,0,0,1-.808.173,1.15,1.15,0,0,1-.627-.161,1.518,1.518,0,0,1-.466-.526l-1.151-1.962h-.555v2.548h-1.4V150.05a15.119,15.119,0,0,1,1.789-.1,3.718,3.718,0,0,1,2.137.489,1.726,1.726,0,0,1,.69,1.51Zm-1.455.132a1.151,1.151,0,0,0-.3-.863,1.343,1.343,0,0,0-.941-.288h-.314l-.221.02v2.336h.475a1.361,1.361,0,0,0,.964-.314A1.15,1.15,0,0,0,383.891,152.081Z" transform="translate(-277.439 -113.174)"/><path d="M404.854,169.747a.756.756,0,0,1-.207.546.725.725,0,0,1-.541.21.736.736,0,0,1-.538-.21.745.745,0,0,1-.21-.546.713.713,0,0,1,.21-.532.745.745,0,0,1,.549-.216.733.733,0,0,1,.535.207A.716.716,0,0,1,404.854,169.747Z" transform="translate(-293.814 -126.744)"/><path d="M438.079,153.284a4.157,4.157,0,0,1-.394,1.872,2.767,2.767,0,0,1-1.116,1.211,3.365,3.365,0,0,1-1.726.417H432.7v-6.713a14.935,14.935,0,0,1,1.9-.121,3.637,3.637,0,0,1,2.6.837A3.286,3.286,0,0,1,438.079,153.284Zm-1.415.02a2.632,2.632,0,0,0-.483-1.726,1.852,1.852,0,0,0-1.478-.561,4.516,4.516,0,0,0-.607.029v4.671h.558a1.9,1.9,0,0,0,1.527-.575,2.829,2.829,0,0,0,.483-1.838Z" transform="translate(-315.323 -113.174)"/><path d="M467.408,155.867a.932.932,0,0,1,.621.187.667.667,0,0,1,.219.532v.187a.691.691,0,0,1-.014.167H463.85V150.16h4.214a1.928,1.928,0,0,1,.032.374.659.659,0,0,1-.2.544,1.036,1.036,0,0,1-.662.164h-1.99v1.668h2.143v1.081h-2.143v1.875Z" transform="translate(-337.986 -113.324)"/><path d="M506.461,156.881h-1.536l-2.275-6.762a1.562,1.562,0,0,1,.322-.072,3.055,3.055,0,0,1,.426-.029.941.941,0,0,1,.6.181,1.118,1.118,0,0,1,.354.575l1.386,4.6,1.415-4.631a1.085,1.085,0,0,1,.345-.546.938.938,0,0,1,.575-.17,2.731,2.731,0,0,1,.687.1Z" transform="translate(-366.328 -113.222)"/><path d="M538.408,155.867a.926.926,0,0,1,.621.187.668.668,0,0,1,.219.532c0,.072,0,.135,0,.187a.577.577,0,0,1-.017.167H534.85V150.16h4.214a1.925,1.925,0,0,1,.032.374.659.659,0,0,1-.2.544,1.035,1.035,0,0,1-.662.164h-1.99v1.668h2.143v1.081h-2.143v1.875Z" transform="translate(-389.72 -113.324)"/><path d="M566.046,151.949a2.18,2.18,0,0,1-.339,1.234,1.863,1.863,0,0,1-.943.739l1.668,2.79a2.013,2.013,0,0,1-.811.173,1.15,1.15,0,0,1-.627-.161,1.541,1.541,0,0,1-.463-.526l-1.151-1.962h-.555v2.548H561.43V150.05a15.12,15.12,0,0,1,1.789-.1,3.718,3.718,0,0,1,2.137.489A1.726,1.726,0,0,1,566.046,151.949Zm-1.455.132a1.128,1.128,0,0,0-.3-.863,1.329,1.329,0,0,0-.938-.288h-.314l-.224.02v2.336h.475a1.363,1.363,0,0,0,.966-.314A1.15,1.15,0,0,0,564.591,152.081Z" transform="translate(-409.115 -113.174)"/><path d="M595.27,153.284a4.157,4.157,0,0,1-.394,1.872,2.767,2.767,0,0,1-1.116,1.211,3.366,3.366,0,0,1-1.726.417H589.88v-6.713a14.9,14.9,0,0,1,1.9-.121,3.684,3.684,0,0,1,2.6.837A3.27,3.27,0,0,1,595.27,153.284Zm-1.415.02a2.621,2.621,0,0,0-.486-1.726,1.844,1.844,0,0,0-1.476-.561,4.5,4.5,0,0,0-.607.029v4.671h.558a1.882,1.882,0,0,0,1.524-.575A2.812,2.812,0,0,0,593.855,153.3Z" transform="translate(-431.497 -113.174)"/><path d="M622.125,156.819l-.575-1.66h-2.33l-.555,1.66H617.29l2.344-6.673a2.014,2.014,0,0,1,.808-.141.886.886,0,0,1,.952.627l2.174,6.187Zm-1.726-5.551-.918,2.876h1.809Z" transform="translate(-451.023 -113.209)"/><path d="M655.387,153.284a4.2,4.2,0,0,1-.394,1.872,2.773,2.773,0,0,1-1.119,1.211,3.357,3.357,0,0,1-1.726.417H650v-6.713a14.892,14.892,0,0,1,1.9-.121,3.648,3.648,0,0,1,2.606.837A3.286,3.286,0,0,1,655.387,153.284Zm-1.415.02a2.639,2.639,0,0,0-.486-1.726,1.85,1.85,0,0,0-1.476-.561,4.473,4.473,0,0,0-.607.029v4.671h.555a1.891,1.891,0,0,0,1.527-.575A2.828,2.828,0,0,0,653.972,153.3Z" transform="translate(-474.325 -113.174)"/><path d="M684.728,155.867a.926.926,0,0,1,.621.187.659.659,0,0,1,.219.532v.187a.691.691,0,0,1-.014.167H681.17V150.16h4.217a1.949,1.949,0,0,1,.029.374.659.659,0,0,1-.2.544,1.035,1.035,0,0,1-.662.164h-2v1.668H684.7v1.081h-2.143v1.875Z" transform="translate(-496.529 -113.324)"/><path d="M703.544,169.768a.756.756,0,0,1-.207.546.725.725,0,0,1-.541.21.736.736,0,0,1-.538-.21.745.745,0,0,1-.21-.546.713.713,0,0,1,.21-.532.745.745,0,0,1,.538-.207.733.733,0,0,1,.535.207.716.716,0,0,1,.213.532Z" transform="translate(-511.403 -126.765)"/></g></svg>