<svg xmlns="http://www.w3.org/2000/svg" width="256.184" height="58.252" viewBox="0 0 256.184 58.252"><g transform="translate(0 -0.02)"><path d="M534.949,26.008a8.649,8.649,0,0,0-3.335-2.251,11.291,11.291,0,0,0-3.947-.7,9.622,9.622,0,0,0-4.816,1.084,10.541,10.541,0,0,0-2.8,2.14,2.879,2.879,0,0,0-1.62-2.056,6.892,6.892,0,0,0-3.14-.613A29.807,29.807,0,0,0,511.87,24s.766,8.695.766,16.647c0,6.761-.245,19.833-.245,19.833s2.661-1.072,4.047-1.669a9.316,9.316,0,0,0,3.2-2.094c.766-.907.835-2.3.812-4.146l-.073-4.212a4.233,4.233,0,0,0,.517.548,5.288,5.288,0,0,0,1.286.888,11.2,11.2,0,0,0,2.041.812,9.885,9.885,0,0,0,2.829.36,12.252,12.252,0,0,0,3.894-.666,8.929,8.929,0,0,0,3.584-2.3,12.119,12.119,0,0,0,2.6-4.445,21.394,21.394,0,0,0,1.011-7.148,19.758,19.758,0,0,0-.869-6.283,11.222,11.222,0,0,0-2.324-4.116ZM528.843,42.8a4.568,4.568,0,0,1-4.212,2.221,5.582,5.582,0,0,1-2.68-.609,8.441,8.441,0,0,1-1.608-1.122c-.088-3.993.157-10.2.211-11a4.137,4.137,0,0,1,.858-2.55A4.439,4.439,0,0,1,524.6,28.73a5.567,5.567,0,0,1,2.63.586,4.468,4.468,0,0,1,1.738,1.639,7.548,7.548,0,0,1,.942,2.5,16.314,16.314,0,0,1,.279,3.113A12.139,12.139,0,0,1,528.843,42.8Z" transform="translate(-327.907 -14.219)"/><path d="M23.355,24.021C20.7,22.007,17.336,21,11.543,21c-1.5,0-2.91.05-4.763.145s-5.008.237-6.781.44A38.6,38.6,0,0,1,.517,26.9C.659,30.457.8,35.5.8,41.131.8,46.962.647,52.166.5,55.738A32.732,32.732,0,0,1,0,60.569H10.3a32.732,32.732,0,0,1-.486-4.832c-.1-2.393-.2-5.525-.241-9.085h2.519a26.344,26.344,0,0,0,6.172-.708,12.6,12.6,0,0,0,4.794-2.263,11.551,11.551,0,0,0,3.526-4.3,14.576,14.576,0,0,0,1.3-6.455A10.824,10.824,0,0,0,23.355,24.021Zm-6.6,14.932a9.914,9.914,0,0,1-5.6,1.6H9.514c0-5.337.145-10.115.276-13.542.509-.05,1.742-.157,2.68-.157a7.386,7.386,0,0,1,4.422,1.466,6.271,6.271,0,0,1,2.412,5.1,6.461,6.461,0,0,1-2.55,5.544Z" transform="translate(0 -12.948)"/><path d="M95.516,53.87c0-.536-.027-2.186-2.527-2.718a5.008,5.008,0,0,0-4.376,1.126,9,9,0,0,0-2,2.3,3.549,3.549,0,0,0-1.723-2.4,6.179,6.179,0,0,0-3.216-.544A24.263,24.263,0,0,0,78,52.251s.161,1.045.383,4.323c.165,2.515.18,9.388.18,9.388s.065,4.893-.165,8.649c-.237,3.852-.36,4.48-.36,4.48h9.411s-.26-1.424-.467-4.414-.176-5.039-.176-8.722,0-5.571,1.149-6.926c.888-1.041,2.064-1.577,4.012-.861a4.549,4.549,0,0,1,1.5,1,14.548,14.548,0,0,0,1.195-2.152,9.484,9.484,0,0,0,.85-3.143Z" transform="translate(-48.136 -35.764)"/><path d="M147.52,55.058a13.157,13.157,0,0,0-10.1-3.94,16.823,16.823,0,0,0-5.1.808,12.512,12.512,0,0,0-4.46,2.531,13.171,13.171,0,0,0-3.446,4.346,15.284,15.284,0,0,0-1.263,6.294,17.114,17.114,0,0,0,1.417,7.275A13.037,13.037,0,0,0,128.342,77a12.593,12.593,0,0,0,4.912,2.416,23.117,23.117,0,0,0,5.617.689,20.315,20.315,0,0,0,5.49-.659,11.566,11.566,0,0,0,3.622-1.577,2.884,2.884,0,0,0,1.531-2.3,4.713,4.713,0,0,0-.793-2.213,15.512,15.512,0,0,0-1.531-2.217c-.364.306-.766.643-1.214,1.007A8.53,8.53,0,0,1,144.4,73.16a10.992,10.992,0,0,1-2.064.766,10.138,10.138,0,0,1-2.68.318q-3.947,0-5.766-2.1a7.588,7.588,0,0,1-2.064-4.824l18.117-.44a24.327,24.327,0,0,0,.36-3.53C150.318,59.6,149.545,57.141,147.52,55.058ZM131.78,63.01a7.4,7.4,0,0,1,1.42-4.843,5.3,5.3,0,0,1,4.062-1.811,4.953,4.953,0,0,1,4.269,1.937,7.4,7.4,0,0,1,1.045,4.277Z" transform="translate(-78.905 -35.929)"/><path d="M373.6,55.058a13.143,13.143,0,0,0-10.092-3.94,16.846,16.846,0,0,0-5.1.808,12.546,12.546,0,0,0-4.46,2.531A13.163,13.163,0,0,0,350.5,58.8a15.284,15.284,0,0,0-1.263,6.294,17.176,17.176,0,0,0,1.413,7.275A13.118,13.118,0,0,0,354.418,77a12.635,12.635,0,0,0,4.916,2.416,23.064,23.064,0,0,0,5.613.689,20.342,20.342,0,0,0,5.494-.659,11.609,11.609,0,0,0,3.61-1.585,2.86,2.86,0,0,0,1.531-2.3,4.744,4.744,0,0,0-.789-2.213,16.159,16.159,0,0,0-1.531-2.217c-.383.306-.766.643-1.214,1.007a8.7,8.7,0,0,1-1.581,1.007,10.994,10.994,0,0,1-2.064.766,10.119,10.119,0,0,1-2.68.318q-3.947,0-5.766-2.1a7.588,7.588,0,0,1-2.064-4.824l18.121-.44a24.583,24.583,0,0,0,.356-3.53C376.4,59.6,375.625,57.141,373.6,55.058ZM357.86,63.01a7.419,7.419,0,0,1,1.42-4.843,5.3,5.3,0,0,1,4.032-1.811,4.953,4.953,0,0,1,4.269,1.937,7.4,7.4,0,0,1,1.049,4.277Z" transform="translate(-223.752 -35.929)"/><path d="M241.79,66.9s.042-6,.042-7.033c0-2.944-.812-5.326-2.535-6.865-1.294-1.149-3.829-1.884-6.359-1.884-3.61,0-5.464,1-8.075,3.733a6.271,6.271,0,0,0-2.347-2.581,8.792,8.792,0,0,0-4.839-1.149,8.037,8.037,0,0,0-4.571,1.049,8.944,8.944,0,0,0-2.921,2.462c-.666-2.374-2.221-3.017-4.916-2.937a19.615,19.615,0,0,0-3.7.609s.211,2.194.383,4.361c.184,2.381.23,6.75.176,10.089s-.115,5.992-.165,7.933-.36,4.457-.36,4.457h9.4a43,43,0,0,1-.467-4.426c-.069-1.941-.157-7.822-.157-7.822s0-2.133.084-4.617,1.451-4.372,3.591-4.372c2.466,0,3.878,1.122,3.878,2.822L218,66.9s-.019,5.383-.161,7.788-.364,4.457-.364,4.457h9.465s-.429-2.707-.509-4.529c-.111-2.619-.1-7.55-.1-7.55V63.234c.061-2.994,1.018-5.33,3.633-5.33,1.876,0,3.465.934,3.465,2.845,0,0,.069,3.174.069,6.16s-.08,5.559-.138,7.765a41.164,41.164,0,0,1-.383,4.48h9.465s-.352-2.067-.5-4.476C241.848,73.093,241.79,68.579,241.79,66.9Z" transform="translate(-129.427 -35.821)"/><path d="M325.8,67.785c0-2.519.505-10.621.505-10.621a5.092,5.092,0,0,0-.4-2.332,5.215,5.215,0,0,0-5.031-2.267,27.351,27.351,0,0,0-3.829.609,40.387,40.387,0,0,1,.383,4.411c.073,2.366.18,4.376.18,10.2,0,3.591-.2,7.749-.2,7.749-.165,2.389.41,3.488,1.355,4.12a8.218,8.218,0,0,0,4.131.766c.616,0,3.419-.153,3.572-.23,0,0-.314-2.133-.5-4.487C325.773,73.463,325.8,71.97,325.8,67.785Z" transform="translate(-202.619 -36.806)"/><path d="M677.2,32.841a18.929,18.929,0,0,0-1.286-2.113c-.111.111-.3.279-.559.5a5.361,5.361,0,0,1-.98.639,10.3,10.3,0,0,1-1.29.555,4.338,4.338,0,0,1-1.486.253c-2.129,0-2.979-1.244-3.193-3.894,0,0-.188-2.347-.188-6.39a45.556,45.556,0,0,1,.2-5.395s3.235.069,4.809-.115c1.976-.23,2.175-5.67,2.175-5.67h-6.984V7.319a4.88,4.88,0,0,0-.448-2.251A3.691,3.691,0,0,0,666.785,3.7a4.212,4.212,0,0,0-1.623-.666,12.083,12.083,0,0,0-1.991-.168,8.757,8.757,0,0,0-.9.031c-.3.031-.578.046-.839.08l-1.585.126a57.71,57.71,0,0,1,.567,8.105s-1.788-.057-1.788.245a23.811,23.811,0,0,0,1.1,5.36c.092.237.685.184.685.184s.176,2.339.176,5.391V28.9q0,1.221.111,2.447a9.8,9.8,0,0,0,.505,2.335,7.167,7.167,0,0,0,2.68,3.5,9.434,9.434,0,0,0,5.433,1.332,14.212,14.212,0,0,0,3.3-.36,10.4,10.4,0,0,0,2.607-.953,7.024,7.024,0,0,0,1.841-1.279,2.19,2.19,0,0,0,.586-1.417A3.729,3.729,0,0,0,677.2,32.841Z" transform="translate(-421.478 -1.759)"/><path d="M318.734,34a5.556,5.556,0,0,0,3.607.276,5.329,5.329,0,0,0,3.017-1.815,3.622,3.622,0,0,0,.835-3.358,3.572,3.572,0,0,0-2.148-2.607,5.743,5.743,0,0,0-3.626-.245,5.578,5.578,0,0,0-3.09,1.88A3.853,3.853,0,0,0,318.734,34Z" transform="translate(-202.274 -16.075)"/><path d="M689.307,6.173a3.518,3.518,0,0,1-.7-1.149,4.05,4.05,0,0,1-.241-1.4,3.853,3.853,0,0,1,.241-1.4,3.342,3.342,0,0,1,.712-1.149,3.405,3.405,0,0,1,1.149-.766,4.1,4.1,0,0,1,3.017,0,3.351,3.351,0,0,1,1.126.766,3.394,3.394,0,0,1,.708,1.149,3.854,3.854,0,0,1,.249,1.4,3.886,3.886,0,0,1-.249,1.4,3.354,3.354,0,0,1-1.842,1.937,3.787,3.787,0,0,1-1.509.287,3.829,3.829,0,0,1-1.531-.287,3.407,3.407,0,0,1-1.133-.785Zm1.409.237a3.033,3.033,0,0,0,1.252.249,2.96,2.96,0,0,0,1.237-.253,2.822,2.822,0,0,0,.919-.67,2.884,2.884,0,0,0,.567-.969,3.415,3.415,0,0,0,.2-1.149,3.378,3.378,0,0,0-.2-1.149,2.848,2.848,0,0,0-.567-.961A2.707,2.707,0,0,0,693.2.847,3.021,3.021,0,0,0,691.953.6a2.952,2.952,0,0,0-1.24.249,2.679,2.679,0,0,0-.915.666,2.859,2.859,0,0,0-.571.961,3.374,3.374,0,0,0-.191,1.149,3.262,3.262,0,0,0,.425,1.662,2.76,2.76,0,0,0,1.256,1.126Zm-.088-4.977q.3-.034.655-.046h.567a2.06,2.06,0,0,1,1.371.383,1.179,1.179,0,0,1,.414.923,1.357,1.357,0,0,1-.084.49,1.328,1.328,0,0,1-.226.383,1.332,1.332,0,0,1-.333.268,1.283,1.283,0,0,1-.383.149h.023l1.114,1.761a.682.682,0,0,1-.2.073.861.861,0,0,1-.188.023.731.731,0,0,1-.31-.069.628.628,0,0,1-.253-.241l-.919-1.455h-.563V5.755h-.682Zm1.363,2c.62,0,.93-.257.93-.766a.593.593,0,0,0-.245-.517,1.363,1.363,0,0,0-.793-.176h-.337a.957.957,0,0,0-.26.023h.023V3.424Z" transform="translate(-439.831 0)"/><path d="M610.789,26.749a12.873,12.873,0,0,0-9.752-3.829,16.31,16.31,0,0,0-4.928.766,12.107,12.107,0,0,0-4.311,2.447,12.753,12.753,0,0,0-3.316,4.212,14.814,14.814,0,0,0-1.221,6.088,16.639,16.639,0,0,0,1.367,7.033,12.636,12.636,0,0,0,3.641,4.48,12.286,12.286,0,0,0,4.748,2.336,22.321,22.321,0,0,0,5.425.666,19.633,19.633,0,0,0,5.307-.639,11.268,11.268,0,0,0,3.492-1.531,2.767,2.767,0,0,0,1.466-2.221,4.614,4.614,0,0,0-.766-2.144,15.886,15.886,0,0,0-1.466-2.14c-.352.3-.743.624-1.175.972a8.217,8.217,0,0,1-1.531.976,11,11,0,0,1-1.995.766,9.847,9.847,0,0,1-2.58.3q-3.829,0-5.571-2.029a7.34,7.34,0,0,1-1.995-4.663l17.509-.421a23.519,23.519,0,0,0,.348-3.411C613.5,31.136,612.745,28.759,610.789,26.749Zm-15.208,7.688a7.138,7.138,0,0,1,1.371-4.675,5.115,5.115,0,0,1,3.909-1.754,4.846,4.846,0,0,1,4.124,1.872A7.108,7.108,0,0,1,606,34.012Z" transform="translate(-377.432 -14.132)"/><path d="M457.358,59.049c-1.225-1.466-2.94-3.568-4.376-5.441s-3.465-5.18-3.465-5.18l-2.113-3.4a14.286,14.286,0,0,0,2.205-1.352,11.589,11.589,0,0,0,3.538-4.3,14.542,14.542,0,0,0,1.3-6.455,10.843,10.843,0,0,0-4.522-8.894C447.262,22.026,443.9,21,438.1,21c-1.5,0-2.91.05-4.763.145s-5,.245-6.777.44a39.372,39.372,0,0,1,.517,5.318c.138,3.553.283,8.6.283,14.227,0,5.831-.157,11.034-.3,14.606a32.727,32.727,0,0,1-.486,4.832h10.28a32.731,32.731,0,0,1-.486-4.832c-.1-2.393-.2-5.525-.253-9.082h2.7l6.26,10.571a8.607,8.607,0,0,0,2.68,2.994,6.589,6.589,0,0,0,3.6.919,22.481,22.481,0,0,0,6.715-1.26S457.591,59.333,457.358,59.049ZM436.07,40.572c0-5.337.146-10.115.279-13.542.509-.05,1.742-.157,2.68-.157a7.4,7.4,0,0,1,4.426,1.466,6.268,6.268,0,0,1,2.416,5.1,6.461,6.461,0,0,1-2.55,5.529,9.9,9.9,0,0,1-5.6,1.6Z" transform="translate(-273.476 -12.948)"/><path d="M3.9,151.662H1.087a3.3,3.3,0,0,1-.038-.536.881.881,0,0,1,.31-.708,1.233,1.233,0,0,1,.819-.26H8.515a3.576,3.576,0,0,1,.042.578.839.839,0,0,1-.291.678,1.191,1.191,0,0,1-.812.249h-1.7v7.512H3.9Z" transform="translate(-0.647 -101.13)"/><path d="M36.341,157.756a1.252,1.252,0,0,1,.831.249.884.884,0,0,1,.287.708c0,.1,0,.18,0,.249v.222H31.59V150.16H37.2a2.6,2.6,0,0,1,.038.5.877.877,0,0,1-.26.724,1.394,1.394,0,0,1-.881.218H33.447v2.221H36.3v1.44H33.447v2.5Z" transform="translate(-19.495 -101.133)"/><path d="M59.341,150a1.149,1.149,0,0,1,.639.172,1.279,1.279,0,0,1,.436.593l2.029,4.813,2.06-4.767a1.183,1.183,0,0,1,1.118-.8,2.68,2.68,0,0,1,.927.119l.647,8.951H65.463l-.417-5.977-1.834,4.093H61.681L59.9,153.277l-.383,5.8H57.76l.659-8.951a3.224,3.224,0,0,1,.923-.126Z" transform="translate(-35.646 -101.033)"/><path d="M100.966,152.709a2.9,2.9,0,0,1-.953,2.343,4.092,4.092,0,0,1-2.718.808h-.647v3.216H94.79v-8.963A20.118,20.118,0,0,1,97.168,150a4.926,4.926,0,0,1,2.852.67,2.362,2.362,0,0,1,.946,2.041Zm-1.884.1a1.417,1.417,0,0,0-.444-1.149,1.914,1.914,0,0,0-1.279-.383,5.693,5.693,0,0,0-.727.042v3.231h.444a2.3,2.3,0,0,0,1.531-.417A1.7,1.7,0,0,0,99.082,152.8Z" transform="translate(-58.498 -101.032)"/><path d="M129.948,154.345a5.252,5.252,0,0,1-1.072,3.5,3.779,3.779,0,0,1-3.063,1.263,3.993,3.993,0,0,1-2.205-.578,3.614,3.614,0,0,1-1.367-1.654,6.313,6.313,0,0,1-.463-2.515,5.72,5.72,0,0,1,.509-2.5,3.668,3.668,0,0,1,1.44-1.623,4.212,4.212,0,0,1,2.194-.551,3.683,3.683,0,0,1,2.967,1.225A5.077,5.077,0,0,1,129.948,154.345Zm-1.914,0a4.281,4.281,0,0,0-.544-2.362,1.78,1.78,0,0,0-1.581-.827,1.884,1.884,0,0,0-1.658.827,4.173,4.173,0,0,0-.563,2.362,4.43,4.43,0,0,0,.563,2.416,1.937,1.937,0,0,0,3.224,0,4.445,4.445,0,0,0,.574-2.4Z" transform="translate(-77.814 -100.838)"/><path d="M178.015,154.387a5.533,5.533,0,0,1-.525,2.492A3.683,3.683,0,0,1,176,158.492a4.48,4.48,0,0,1-2.3.555H170.84v-8.936a19.876,19.876,0,0,1,2.531-.161,4.77,4.77,0,0,1,3.446,1.114A4.581,4.581,0,0,1,178.015,154.387Zm-1.884.027a3.5,3.5,0,0,0-.643-2.3,2.466,2.466,0,0,0-1.968-.747,5.926,5.926,0,0,0-.8.038v6.218h.739a2.517,2.517,0,0,0,2.033-.766A3.766,3.766,0,0,0,176.131,154.414Z" transform="translate(-109.151 -101.003)"/><path d="M206.748,157.756a1.233,1.233,0,0,1,.827.249.888.888,0,0,1,.291.708v.249a.917.917,0,0,1-.019.222H202V150.16h5.609a2.565,2.565,0,0,1,.042.5.877.877,0,0,1-.264.724,1.378,1.378,0,0,1-.881.218h-2.649v2.221h2.852v1.44h-2.852v2.5Z" transform="translate(-129.038 -101.133)"/><path d="M251.086,159.089h-1.562l-3.829-5.923v5.923H243.93V150.1a3.721,3.721,0,0,1,.823-.08,1.42,1.42,0,0,1,.639.126,1.268,1.268,0,0,1,.479.479l3.446,5.666v-6.206a3.828,3.828,0,0,1,.6-.065c.766,0,1.149.348,1.149,1.049Z" transform="translate(-155.848 -101.045)"/><path d="M282.4,155.457a10.493,10.493,0,0,1-.054,1.087,2.967,2.967,0,0,1-.521,1.493,2.68,2.68,0,0,1-1.183.938,4.521,4.521,0,0,1-1.769.314,3.746,3.746,0,0,1-2.408-.666,3.063,3.063,0,0,1-1-2.133,8.036,8.036,0,0,1-.054-1.034V150.1a4.354,4.354,0,0,1,.643-.065c.8,0,1.2.348,1.2,1.049v4.506a3.828,3.828,0,0,0,.161,1.252,1.218,1.218,0,0,0,.525.659,1.88,1.88,0,0,0,.969.218,1.531,1.531,0,0,0,1.248-.486,2.412,2.412,0,0,0,.383-1.531v-5.613a4.394,4.394,0,0,1,.647-.065c.8,0,1.2.348,1.2,1.049Z" transform="translate(-175.963 -101.046)"/><path d="M307.261,151.661h-2.81a3.271,3.271,0,0,1-.042-.536.881.881,0,0,1,.31-.708,1.244,1.244,0,0,1,.835-.26h6.325a4.068,4.068,0,0,1,.042.578.85.85,0,0,1-.291.678,1.2,1.2,0,0,1-.816.249h-1.7v7.512h-1.857Z" transform="translate(-194.497 -101.129)"/><path d="M340.935,152.64a2.929,2.929,0,0,1-.448,1.643,2.489,2.489,0,0,1-1.26.984l2.221,3.714a2.653,2.653,0,0,1-1.076.23,1.532,1.532,0,0,1-.835-.214,2.022,2.022,0,0,1-.62-.7l-1.531-2.611h-.739v3.392H334.79v-8.963a20.164,20.164,0,0,1,2.378-.115,4.971,4.971,0,0,1,2.849.651A2.3,2.3,0,0,1,340.935,152.64Zm-1.937.176a1.531,1.531,0,0,0-.383-1.149,1.773,1.773,0,0,0-1.252-.383h-.417l-.295.027v3.109h.632a1.826,1.826,0,0,0,1.286-.417A1.558,1.558,0,0,0,339,152.816Z" transform="translate(-213.886 -101.032)"/><path d="M363.11,150.085a4.35,4.35,0,0,1,.647-.065c.8,0,1.2.348,1.2,1.049v8.04H363.11Z" transform="translate(-231.837 -101.046)"/><path d="M386.875,152.611a2.929,2.929,0,0,1-.448,1.643,2.489,2.489,0,0,1-1.26.984l2.221,3.714a2.68,2.68,0,0,1-1.076.23,1.532,1.532,0,0,1-.835-.214,2.021,2.021,0,0,1-.62-.7l-1.531-2.611h-.739v3.392H380.73v-8.963a20.12,20.12,0,0,1,2.381-.134,4.949,4.949,0,0,1,2.845.651,2.3,2.3,0,0,1,.919,2.01Zm-1.937.176a1.531,1.531,0,0,0-.4-1.149,1.788,1.788,0,0,0-1.252-.383h-.417l-.295.027v3.109h.632a1.811,1.811,0,0,0,1.283-.417A1.531,1.531,0,0,0,384.938,152.787Z" transform="translate(-243.235 -101.003)"/><path d="M405.35,169.995a1.007,1.007,0,0,1-.276.727.965.965,0,0,1-.72.279.98.98,0,0,1-.716-.279.992.992,0,0,1-.279-.727.95.95,0,0,1,.279-.708.992.992,0,0,1,.731-.287.976.976,0,0,1,.712.276A.953.953,0,0,1,405.35,169.995Z" transform="translate(-257.54 -112.759)"/><path d="M439.86,154.387a5.533,5.533,0,0,1-.525,2.492,3.683,3.683,0,0,1-1.486,1.612,4.48,4.48,0,0,1-2.3.555H432.7v-8.936a19.875,19.875,0,0,1,2.531-.161,4.841,4.841,0,0,1,3.465,1.114A4.375,4.375,0,0,1,439.86,154.387Zm-1.884.027a3.5,3.5,0,0,0-.643-2.3,2.466,2.466,0,0,0-1.968-.747,6.009,6.009,0,0,0-.808.038v6.218h.743a2.524,2.524,0,0,0,2.033-.766,3.766,3.766,0,0,0,.643-2.447Z" transform="translate(-276.455 -101.003)"/><path d="M468.586,157.756a1.241,1.241,0,0,1,.827.249.888.888,0,0,1,.291.708v.249a.917.917,0,0,1-.019.222H463.85V150.16h5.609a2.566,2.566,0,0,1,.042.5.877.877,0,0,1-.264.724,1.378,1.378,0,0,1-.881.218h-2.649v2.221h2.852v1.44h-2.852v2.5Z" transform="translate(-296.307 -101.133)"/><path d="M507.723,159.153h-2.045l-3.029-9a2.078,2.078,0,0,1,.429-.1,4.063,4.063,0,0,1,.567-.038,1.252,1.252,0,0,1,.793.241,1.489,1.489,0,0,1,.471.766l1.845,6.126,1.884-6.164a1.443,1.443,0,0,1,.46-.727,1.248,1.248,0,0,1,.766-.226,3.637,3.637,0,0,1,.915.134Z" transform="translate(-321.187 -101.044)"/><path d="M539.586,157.756a1.233,1.233,0,0,1,.827.249.888.888,0,0,1,.291.708c0,.1,0,.18,0,.249a.77.77,0,0,1-.023.222H534.85V150.16h5.609a2.568,2.568,0,0,1,.042.5.877.877,0,0,1-.264.724,1.378,1.378,0,0,1-.881.218h-2.649v2.221h2.852v1.44h-2.852v2.5Z" transform="translate(-341.662 -101.133)"/><path d="M567.575,152.611a2.9,2.9,0,0,1-.452,1.643,2.481,2.481,0,0,1-1.256.984l2.221,3.714a2.68,2.68,0,0,1-1.08.23,1.531,1.531,0,0,1-.835-.214,2.052,2.052,0,0,1-.616-.7l-1.531-2.611h-.739v3.392H561.43v-8.963a20.12,20.12,0,0,1,2.381-.134,4.949,4.949,0,0,1,2.845.651A2.3,2.3,0,0,1,567.575,152.611Zm-1.937.176a1.5,1.5,0,0,0-.406-1.149,1.769,1.769,0,0,0-1.248-.383h-.417l-.3.027v3.109h.632a1.815,1.815,0,0,0,1.286-.417A1.531,1.531,0,0,0,565.638,152.787Z" transform="translate(-358.678 -101.003)"/><path d="M597.055,154.387a5.533,5.533,0,0,1-.525,2.492,3.683,3.683,0,0,1-1.486,1.612,4.48,4.48,0,0,1-2.3.555H589.88v-8.936a19.828,19.828,0,0,1,2.531-.161,4.9,4.9,0,0,1,3.465,1.114A4.353,4.353,0,0,1,597.055,154.387Zm-1.884.027a3.489,3.489,0,0,0-.647-2.3,2.454,2.454,0,0,0-1.964-.747,5.981,5.981,0,0,0-.808.038v6.218h.743a2.5,2.5,0,0,0,2.029-.766A3.742,3.742,0,0,0,595.171,154.414Z" transform="translate(-379.051 -101.003)"/><path d="M623.726,159.077l-.766-2.209h-3.1l-.739,2.209h-1.83l3.12-8.883a2.681,2.681,0,0,1,1.076-.188,1.179,1.179,0,0,1,1.267.835l2.895,8.236Zm-2.3-7.389-1.221,3.829h2.408Z" transform="translate(-395.966 -101.033)"/><path d="M657.171,154.387a5.587,5.587,0,0,1-.525,2.492,3.691,3.691,0,0,1-1.489,1.612,4.469,4.469,0,0,1-2.3.555H650v-8.936a19.816,19.816,0,0,1,2.527-.161A4.855,4.855,0,0,1,656,151.064,4.374,4.374,0,0,1,657.171,154.387Zm-1.884.027a3.512,3.512,0,0,0-.647-2.3,2.462,2.462,0,0,0-1.964-.747,5.95,5.95,0,0,0-.808.038v6.218h.739a2.517,2.517,0,0,0,2.033-.766A3.765,3.765,0,0,0,655.287,154.414Z" transform="translate(-416.153 -101.003)"/><path d="M685.906,157.756a1.233,1.233,0,0,1,.827.249.877.877,0,0,1,.291.708v.249a.919.919,0,0,1-.019.222H681.17V150.16h5.613a2.6,2.6,0,0,1,.038.5.877.877,0,0,1-.264.724,1.378,1.378,0,0,1-.881.218h-2.657v2.221h2.852v1.44h-2.852v2.5Z" transform="translate(-435.389 -101.133)"/><path d="M704.04,170.013a1.007,1.007,0,0,1-.276.727.965.965,0,0,1-.72.279.98.98,0,0,1-.716-.279.992.992,0,0,1-.279-.727.949.949,0,0,1,.28-.708.992.992,0,0,1,.716-.276.976.976,0,0,1,.712.276.953.953,0,0,1,.283.708Z" transform="translate(-448.273 -112.777)"/></g></svg>