<svg xmlns="http://www.w3.org/2000/svg" xmlns:xlink="http://www.w3.org/1999/xlink" width="30" height="30" viewBox="0 0 30 30">
  <defs>
    <clipPath id="clip-path">
      <rect id="Ret칙ngulo_486" data-name="Ret칙ngulo 486" width="30" height="30" fill="#fff" stroke="#eee" stroke-width="1"/>
    </clipPath>
  </defs>
  <g id="Icone_1" data-name="Icone 1" transform="translate(-381 -298)" style="isolation: isolate">
    <g id="Icone" transform="translate(20 85)" style="isolation: isolate">
      <g id="Icon" transform="translate(361 213)" style="isolation: isolate">
        <g id="guide">
          <g id="Grupo_de_m치scara_233" data-name="Grupo de m치scara 233" clip-path="url(#clip-path)">
            <g id="icones_celular_mobile" transform="translate(-2.732 -3.182)">
              <path id="Caminho_826" data-name="Caminho 826" d="M23.788,3.182H11.667A3.363,3.363,0,0,0,8.333,6.515V29.848a3.363,3.363,0,0,0,3.333,3.333H23.788a3.363,3.363,0,0,0,3.333-3.333V6.515A3.179,3.179,0,0,0,23.788,3.182ZM25,30a1.081,1.081,0,0,1-1.212,1.061H11.667A1.036,1.036,0,0,1,10.606,30V26.515H25Zm0-5.758H10.606V10H25ZM25,7.727H10.606V6.515a1.036,1.036,0,0,1,1.061-1.061H23.788A1.171,1.171,0,0,1,25,6.515Z"/>
              <path id="Caminho_827" data-name="Caminho 827" d="M17.727,30.152a1.364,1.364,0,1,0-1.364-1.364A1.358,1.358,0,0,0,17.727,30.152Z"/>
            </g>
          </g>
        </g>
      </g>
    </g>
  </g>
</svg>
