<svg xmlns="http://www.w3.org/2000/svg" xmlns:xlink="http://www.w3.org/1999/xlink" width="30" height="30" viewBox="0 0 30 30">
  <defs>
    <clipPath id="clip-path">
      <rect id="Ret칙ngulo_985" data-name="Ret칙ngulo 985" width="30" height="30" transform="translate(381 298)" fill="#fff" stroke="#707070" stroke-width="1"/>
    </clipPath>
  </defs>
  <g id="Icone_1" data-name="Icone 1" transform="translate(-381 -298)" style="isolation: isolate">
    <g id="Grupo_de_m치scara_234" data-name="Grupo de m치scara 234" clip-path="url(#clip-path)">
      <path id="icones_celular_mobile-preenchido" d="M23.939,3.182H11.818A3.363,3.363,0,0,0,8.485,6.515V29.848a3.363,3.363,0,0,0,3.333,3.333H23.939a3.363,3.363,0,0,0,3.333-3.333V6.515A3.363,3.363,0,0,0,23.939,3.182Zm-6.061,26.97a1.364,1.364,0,1,1,1.364-1.364A1.358,1.358,0,0,1,17.879,30.152ZM25,25.3H10.606V8.788H25Z" transform="translate(378.121 294.818)"/>
    </g>
  </g>
</svg>
