<svg xmlns="http://www.w3.org/2000/svg" xmlns:xlink="http://www.w3.org/1999/xlink" width="30" height="30" viewBox="0 0 30 30">
  <defs>
    <clipPath id="clip-path">
      <rect id="Ret칙ngulo_996" data-name="Ret칙ngulo 996" width="30" height="30" transform="translate(381 298)" fill="#fff" stroke="#707070" stroke-width="1"/>
    </clipPath>
  </defs>
  <g id="Icone_1" data-name="Icone 1" transform="translate(-381 -298)" style="isolation: isolate">
    <g id="Grupo_de_m치scara_256" data-name="Grupo de m치scara 256" clip-path="url(#clip-path)">
      <g id="Camada_24" transform="translate(376.028 293.11)">
        <path id="Caminho_895" data-name="Caminho 895" d="M32.32,18.9h-.331c0-2.155-.166-7.127-3.149-10.442-1.989-2.32-4.972-3.481-8.619-3.481a11.485,11.485,0,0,0-8.785,3.481C8.287,11.934,7.79,16.906,7.79,18.9H7.459a2.408,2.408,0,0,0-2.486,2.32v3.149a2.408,2.408,0,0,0,2.486,2.32h3.315V18.9h-.5c0-1.823.331-5.967,2.983-8.785,1.657-1.823,3.978-2.652,6.961-2.652s5.138.829,6.8,2.652c2.486,2.818,2.652,7.127,2.652,8.785h-.5v7.79h.5a5.753,5.753,0,0,1-1.657,3.481,7.817,7.817,0,0,1-5.3,1.16A2.694,2.694,0,0,0,20.221,29.5a2.652,2.652,0,0,0,0,5.3,2.833,2.833,0,0,0,2.155-1.16h1.492a9.737,9.737,0,0,0,5.8-1.657c1.657-1.16,2.486-2.983,2.652-5.47h.166a2.408,2.408,0,0,0,2.486-2.32V21.05A3.072,3.072,0,0,0,32.32,18.9Z"/>
      </g>
    </g>
  </g>
</svg>
