<?xml version="1.0" encoding="utf-8"?>
<!-- Generator: Adobe Illustrator 25.2.3, SVG Export Plug-In . SVG Version: 6.00 Build 0)  -->
<svg version="1.1" id="Camada_1" xmlns="http://www.w3.org/2000/svg" xmlns:xlink="http://www.w3.org/1999/xlink" x="0px" y="0px"
	 viewBox="0 0 24 24" style="enable-background:new 0 0 24 24;" xml:space="preserve">
<g id="Camada_1_1_">
	<g>
		<path d="M12,2.1c-5.5,0-9.9,4.5-9.9,9.9c0,5.5,4.5,9.9,9.9,9.9c5.5,0,9.9-4.5,9.9-9.9C21.9,6.5,17.5,2.1,12,2.1z M12,20.4
			c-4.7,0-8.4-3.8-8.4-8.4c0-4.7,3.8-8.4,8.4-8.4c4.7,0,8.4,3.8,8.4,8.4C20.4,16.7,16.7,20.4,12,20.4z"/>
		<path d="M16.4,8L10,14.4L7.6,12c-0.3-0.3-0.8-0.3-1.1,0s-0.3,0.8,0,1.1l3.5,3.5l7.4-7.4c0.3-0.3,0.3-0.8,0-1.1
			C17.2,7.8,16.7,7.8,16.4,8z"/>
	</g>
</g>
<g id="Camada_4">
</g>
</svg>
