<svg xmlns="http://www.w3.org/2000/svg" viewBox="0 0 20 16"><g id="Camada_2" data-name="Camada 2"><g id="Cupom"><path d="M18.5,6.71a1.35,1.35,0,0,1,.73-.21h0A.76.76,0,0,0,20,5.75V1.5A1.5,1.5,0,0,0,18.5,0H1.5A1.5,1.5,0,0,0,0,1.5V5.75a.76.76,0,0,0,.73.75h0a1.4,1.4,0,0,1,.75.22,1.48,1.48,0,0,1,.29.22,1.51,1.51,0,0,1,0,2.12,1.48,1.48,0,0,1-.29.22,1.4,1.4,0,0,1-.75.22h0a.76.76,0,0,0-.73.75V14.5A1.5,1.5,0,0,0,1.5,16h17A1.5,1.5,0,0,0,20,14.5V10.25a.76.76,0,0,0-.75-.75h0a1.35,1.35,0,0,1-.73-.21,1.39,1.39,0,0,1-.31-.23,1.49,1.49,0,0,1,0-2.12A1.39,1.39,0,0,1,18.5,6.71ZM5.39,5.44A2.05,2.05,0,1,1,7.44,7.49,2.05,2.05,0,0,1,5.39,5.44ZM6.77,12a.71.71,0,0,1-.53-.22.74.74,0,0,1,0-1.06L12.7,4.26a.75.75,0,0,1,1.06,0,.74.74,0,0,1,0,1.06L7.3,11.79A.74.74,0,0,1,6.77,12Zm5.79.59a2,2,0,1,1,2-2A2,2,0,0,1,12.56,12.6Z"/><path d="M13.11,10.56a.55.55,0,1,1-.55-.55A.55.55,0,0,1,13.11,10.56Z"/><circle cx="7.44" cy="5.44" r="0.55"/></g></g></svg>