<svg xmlns="http://www.w3.org/2000/svg" xmlns:xlink="http://www.w3.org/1999/xlink" width="30" height="30" viewBox="0 0 30 30">
  <defs>
    <clipPath id="clip-path">
      <rect id="Retângulo_966" data-name="Retângulo 966" width="30" height="30" transform="translate(381 298)" fill="red" stroke="#707070" stroke-width="1"/>
    </clipPath>
  </defs>
  <g id="Icone_1" data-name="Icone 1" transform="translate(-381 -298)" style="isolation: isolate">
    <g id="Grupo_de_máscara_218" data-name="Grupo de máscara 218" clip-path="url(#clip-path)">
      <g id="Camada_1" transform="translate(376.509 293.435)">
        <g id="data_de_cobrança">
          <g id="Grupo_1931" data-name="Grupo 1931">
            <path id="Caminho_800" data-name="Caminho 800" d="M12.88,12.065a1.286,1.286,0,0,0,1.3-1.3V5.87a1.286,1.286,0,0,0-1.3-1.3,1.332,1.332,0,0,0-1.3,1.467v4.891A1.26,1.26,0,0,0,12.88,12.065Z"/>
            <path id="Caminho_801" data-name="Caminho 801" d="M25.924,12.228a1.286,1.286,0,0,0,1.3-1.3V6.033a1.286,1.286,0,0,0-1.3-1.3,1.2,1.2,0,0,0-1.3,1.3v4.891A1.4,1.4,0,0,0,25.924,12.228Z"/>
            <path id="Caminho_802" data-name="Caminho 802" d="M31.957,7.011H28.37v3.913a2.446,2.446,0,1,1-4.891,0V7.011H15.326v3.913a2.446,2.446,0,1,1-4.891,0V7.011H7.174A2.508,2.508,0,0,0,4.728,9.457v5.38H34.239V9.457A2.269,2.269,0,0,0,31.957,7.011Z"/>
            <path id="Caminho_803" data-name="Caminho 803" d="M24.783,17.772V19.4a4.14,4.14,0,0,1,2.283,2.12,1.242,1.242,0,1,1-2.283.978,1.291,1.291,0,0,0-1.3-.815,1.461,1.461,0,0,0-1.467,1.467,1.378,1.378,0,0,0,.326.978,1.9,1.9,0,0,0,1.141.326h0A3.679,3.679,0,0,1,26.25,25.6a4.074,4.074,0,0,1,.978,3.1,3.877,3.877,0,0,1-2.609,3.587V33.75a1.245,1.245,0,0,1-.326.815h7.174a2.508,2.508,0,0,0,2.446-2.446V17.446H24.457C24.783,17.283,24.783,17.609,24.783,17.772Z"/>
            <path id="Caminho_804" data-name="Caminho 804" d="M20.707,28.37a1.267,1.267,0,0,1,1.63.489,1.291,1.291,0,0,0,1.3.815,1.461,1.461,0,0,0,1.467-1.467,1.961,1.961,0,0,0-.326-1.3,1.428,1.428,0,0,0-.978-.326,4.115,4.115,0,0,1-2.935-1.141,2.966,2.966,0,0,1-1.141-2.609A3.671,3.671,0,0,1,22.337,19.4v-1.63a.6.6,0,0,1,.163-.489H4.728V31.957A2.508,2.508,0,0,0,7.174,34.4H22.663a1.245,1.245,0,0,1-.326-.815V32.12a3.855,3.855,0,0,1-2.283-1.957A1.548,1.548,0,0,1,20.707,28.37Z"/>
          </g>
        </g>
      </g>
    </g>
  </g>
</svg>
