<svg xmlns="http://www.w3.org/2000/svg" xmlns:xlink="http://www.w3.org/1999/xlink" width="30" height="30" viewBox="0 0 30 30">
  <defs>
    <clipPath id="clip-path">
      <rect id="Ret칙ngulo_986" data-name="Ret칙ngulo 986" width="30" height="30" transform="translate(381 298)" fill="#fff" stroke="#707070" stroke-width="1"/>
    </clipPath>
  </defs>
  <g id="Icone_1" data-name="Icone 1" transform="translate(-381 -298)" style="isolation: isolate">
    <g id="Grupo_de_m치scara_238" data-name="Grupo de m치scara 238" clip-path="url(#clip-path)">
      <g id="desktop_2_" transform="translate(378 295.075)">
        <g id="Grupo_1951" data-name="Grupo 1951">
          <path id="Caminho_832" data-name="Caminho 832" d="M29.7,8.85H6.3c-.15,0-.3.15-.3.45V21.75a.323.323,0,0,0,.3.3H29.7a.323.323,0,0,0,.3-.3V9.3C30,9,29.85,8.85,29.7,8.85Z"/>
          <path id="Caminho_833" data-name="Caminho 833" d="M29.7,5.85H6.3A3.364,3.364,0,0,0,3,9.3V21.75a3.329,3.329,0,0,0,3.3,3.3H15V27.6H11.55a1.183,1.183,0,0,0-1.2,1.2,1.1,1.1,0,0,0,1.2,1.2h12.9a1.183,1.183,0,0,0,1.2-1.2,1.1,1.1,0,0,0-1.2-1.2H21V25.05h8.7a3.329,3.329,0,0,0,3.3-3.3V9.3A3.364,3.364,0,0,0,29.7,5.85ZM18.75,27.6h-1.5V25.05h1.5ZM31.5,21.75a1.824,1.824,0,0,1-1.8,1.8H6.3a1.824,1.824,0,0,1-1.8-1.8V9.3A1.824,1.824,0,0,1,6.3,7.5H29.7a1.824,1.824,0,0,1,1.8,1.8Z"/>
        </g>
      </g>
    </g>
  </g>
</svg>
