<svg xmlns="http://www.w3.org/2000/svg" xmlns:xlink="http://www.w3.org/1999/xlink" width="30" height="30" viewBox="0 0 30 30">
  <defs>
    <clipPath id="clip-path">
      <rect id="Ret칙ngulo_986" data-name="Ret칙ngulo 986" width="30" height="30" transform="translate(381 298)" fill="#fff" stroke="#707070" stroke-width="1"/>
    </clipPath>
  </defs>
  <g id="Icone_1" data-name="Icone 1" transform="translate(-381 -298)" style="isolation: isolate">
    <g id="Grupo_de_m치scara_237" data-name="Grupo de m치scara 237" clip-path="url(#clip-path)">
      <path id="icones_desktop_site" d="M29.7,5.85H6.3A3.364,3.364,0,0,0,3,9.3V21.75a3.329,3.329,0,0,0,3.3,3.3H15V27.6H11.55a1.183,1.183,0,0,0-1.2,1.2,1.1,1.1,0,0,0,1.2,1.2h12.9a1.183,1.183,0,0,0,1.2-1.2,1.1,1.1,0,0,0-1.2-1.2H21V25.05h8.7a3.329,3.329,0,0,0,3.3-3.3V9.3A3.364,3.364,0,0,0,29.7,5.85ZM18.75,27.6h-1.5V25.05h1.5Zm12-5.85A1.025,1.025,0,0,1,29.7,22.8H6.3a1.025,1.025,0,0,1-1.05-1.05V9.3A1.025,1.025,0,0,1,6.3,8.25H29.7A1.025,1.025,0,0,1,30.75,9.3Z" transform="translate(378 295.075)"/>
    </g>
  </g>
</svg>
