<svg xmlns="http://www.w3.org/2000/svg" xmlns:xlink="http://www.w3.org/1999/xlink" width="30" height="30" viewBox="0 0 30 30">
  <defs>
    <clipPath id="clip-path">
      <rect id="Ret칙ngulo_486" data-name="Ret칙ngulo 486" width="30" height="30" fill="#fff" stroke="#eee" stroke-width="1"/>
    </clipPath>
  </defs>
  <g id="Icone_1" data-name="Icone 1" transform="translate(-381 -298)" style="isolation: isolate">
    <g id="Icone" transform="translate(20 85)" style="isolation: isolate">
      <g id="Icon" transform="translate(361 213)" style="isolation: isolate">
        <g id="guide">
          <g id="Grupo_de_m치scara_68" data-name="Grupo de m치scara 68" clip-path="url(#clip-path)">
            <g id="icones_menos_diminuir_quantidade" transform="translate(-4.78 -4.78)">
              <g id="aumentar">
                <path id="Caminho_107" data-name="Caminho 107" d="M30.989,34.78H8.571A3.834,3.834,0,0,1,4.78,30.989V8.571A3.834,3.834,0,0,1,8.571,4.78H30.989A3.834,3.834,0,0,1,34.78,8.571V30.989A3.95,3.95,0,0,1,30.989,34.78ZM8.571,7.253A1.3,1.3,0,0,0,7.253,8.571V30.989a1.3,1.3,0,0,0,1.319,1.319H30.989a1.3,1.3,0,0,0,1.319-1.319V8.571a1.3,1.3,0,0,0-1.319-1.319H8.571Z"/>
              </g>
              <g id="Grupo_19" data-name="Grupo 19">
                <path id="Caminho_108" data-name="Caminho 108" d="M27.857,21.1H11.538A1.3,1.3,0,0,1,10.22,19.78a1.213,1.213,0,0,1,1.319-1.319H27.857a1.319,1.319,0,0,1,0,2.637Z"/>
              </g>
            </g>
          </g>
        </g>
      </g>
    </g>
  </g>
</svg>
