<svg xmlns="http://www.w3.org/2000/svg" xmlns:xlink="http://www.w3.org/1999/xlink" width="30" height="30" viewBox="0 0 30 30">
  <defs>
    <clipPath id="clip-path">
      <rect id="Ret칙ngulo_486" data-name="Ret칙ngulo 486" width="30" height="30" fill="#fff" stroke="#eee" stroke-width="1"/>
    </clipPath>
  </defs>
  <g id="Icone_1" data-name="Icone 1" transform="translate(-381 -298)" style="isolation: isolate">
    <g id="Icone" transform="translate(20 85)" style="isolation: isolate">
      <g id="Icon" transform="translate(361 213)" style="isolation: isolate">
        <g id="guide">
          <g id="Grupo_de_m치scara_228" data-name="Grupo de m치scara 228" clip-path="url(#clip-path)">
            <g id="duvidas-ajuda" transform="translate(-3 -3)">
              <path id="Caminho_819" data-name="Caminho 819" d="M18,3A15,15,0,1,0,33,18,15.044,15.044,0,0,0,18,3Zm0,27.75A12.75,12.75,0,1,1,30.75,18,12.739,12.739,0,0,1,18,30.75Z"/>
              <path id="Caminho_820" data-name="Caminho 820" d="M18,8.1a5.7,5.7,0,0,0-5.7,5.7A1.183,1.183,0,0,0,13.5,15a1.1,1.1,0,0,0,1.2-1.2,3.45,3.45,0,1,1,6.9,0,2.925,2.925,0,0,1-1.8,2.7,4.949,4.949,0,0,0-3.15,6,1.128,1.128,0,0,0,1.05.75H18a1.073,1.073,0,0,0,.75-1.35,2.791,2.791,0,0,1,1.95-3.3,5.3,5.3,0,0,0,3.15-4.65A5.764,5.764,0,0,0,18,8.1Z"/>
              <circle id="Elipse_19" data-name="Elipse 19" cx="1.5" cy="1.5" r="1.5" transform="translate(16.5 24.9)"/>
            </g>
          </g>
        </g>
      </g>
    </g>
  </g>
</svg>
