<svg xmlns="http://www.w3.org/2000/svg" xmlns:xlink="http://www.w3.org/1999/xlink" width="30" height="30" viewBox="0 0 30 30">
  <defs>
    <clipPath id="clip-path">
      <rect id="Ret칙ngulo_990" data-name="Ret칙ngulo 990" width="30" height="30" transform="translate(381 298)" fill="#fff" stroke="#707070" stroke-width="1"/>
    </clipPath>
  </defs>
  <g id="Icone_1" data-name="Icone 1" transform="translate(-381 -298)" style="isolation: isolate">
    <g id="Grupo_de_m치scara_235" data-name="Grupo de m치scara 235" clip-path="url(#clip-path)">
      <path id="icones_email" d="M31.975,6.873h0a3.526,3.526,0,0,0-2.391-1.046H6.126a3.041,3.041,0,0,0-2.241.9h0a3.191,3.191,0,0,0-1.2,2.54V26.6a3.526,3.526,0,0,0,1.046,2.391h0a3.041,3.041,0,0,0,2.241.9H29.285A3.316,3.316,0,0,0,32.572,26.6V9.264A2.324,2.324,0,0,0,31.975,6.873ZM5.08,9.264l7.77,7.172L5.08,26V9.264ZM17.93,17.93,7.172,8.068H28.986Zm-3.437,0,2.689,2.54a1.083,1.083,0,0,0,1.494,0l2.54-2.241,7.77,9.712H6.425Zm8.367-1.345,7.77-7.022V26.3Z" transform="translate(378.311 295.145)"/>
    </g>
  </g>
</svg>
