<svg xmlns="http://www.w3.org/2000/svg" xmlns:xlink="http://www.w3.org/1999/xlink" width="30" height="30" viewBox="0 0 30 30">
  <defs>
    <clipPath id="clip-path">
      <rect id="Ret칙ngulo_486" data-name="Ret칙ngulo 486" width="30" height="30" fill="#fff" stroke="#eee" stroke-width="1"/>
    </clipPath>
  </defs>
  <g id="Icone_1" data-name="Icone 1" transform="translate(-381 -298)" style="isolation: isolate">
    <g id="Icone" transform="translate(20 85)" style="isolation: isolate">
      <g id="Icon" transform="translate(361 213)" style="isolation: isolate">
        <g id="guide">
          <g id="Grupo_de_m치scara_4" data-name="Grupo de m치scara 4" clip-path="url(#clip-path)">
            <g id="Camada_2" data-name="Camada 2" transform="translate(-0.001 0.005)">
              <g id="fechar">
                <path id="Caminho_8" data-name="Caminho 8" d="M29.578,27.513a1.447,1.447,0,0,1-1.042,2.47,1.428,1.428,0,0,1-1.023-.424L14.991,17.037,2.47,29.558a1.351,1.351,0,0,1-1,.424,1.447,1.447,0,0,1-1.042-2.47L12.946,14.991.5,2.547A1.447,1.447,0,0,1,.5.5,1.486,1.486,0,0,1,2.566.5L14.991,12.946,27.513.424a1.486,1.486,0,0,1,2.064,0,1.447,1.447,0,0,1,0,2.045L17.037,14.991Z"/>
              </g>
            </g>
          </g>
        </g>
      </g>
    </g>
  </g>
</svg>
