<svg xmlns="http://www.w3.org/2000/svg" xmlns:xlink="http://www.w3.org/1999/xlink" width="30" height="30" viewBox="0 0 30 30">
  <defs>
    <clipPath id="clip-path">
      <rect id="Retângulo_486" data-name="Retângulo 486" width="30" height="30" fill="#fff" stroke="#eee" stroke-width="1"/>
    </clipPath>
  </defs>
  <g id="Icone_1" data-name="Icone 1" transform="translate(-381 -298)" style="isolation: isolate">
    <g id="Icone" transform="translate(20 85)" style="isolation: isolate">
      <g id="Icon" transform="translate(361 213)" style="isolation: isolate">
        <g id="guide">
          <g id="Grupo_de_máscara_3" data-name="Grupo de máscara 3" clip-path="url(#clip-path)">
            <g id="Camada_2" data-name="Camada 2" transform="translate(-0.001 1.223)">
              <g id="historico_cópia" data-name="historico cópia">
                <path id="Caminho_5" data-name="Caminho 5" d="M25.525,13.635A1.036,1.036,0,0,1,24.5,14.658h-8.14a1.036,1.036,0,0,1-1.023-1.023V8.018a1.023,1.023,0,1,1,2.045,0v4.6h7.159A1.036,1.036,0,0,1,25.525,13.635Z"/>
                <path id="Caminho_6" data-name="Caminho 6" d="M4.159,10.908a1.036,1.036,0,0,1-.8-1.2h0a1.009,1.009,0,0,1,1.2-.8h0a1.023,1.023,0,0,1,.8,1.2h0a1.023,1.023,0,0,1-1,.8ZM5.1,7.636a1.023,1.023,0,0,1-.3-1.364h0a1.009,1.009,0,0,1,1.364-.314h0a1.036,1.036,0,0,1,.314,1.364h0a1.064,1.064,0,0,1-.859.477h0a1.064,1.064,0,0,1-.518-.15ZM7.118,4.909a1.009,1.009,0,0,1,.109-1.364h0a1.036,1.036,0,0,1,1.445.1h0a1.023,1.023,0,0,1-.109,1.445h0a1.009,1.009,0,0,1-.668.245h0A1,1,0,0,1,7.118,4.9Zm2.727-2.1a1.009,1.009,0,0,1,.423-1.364h0a1.023,1.023,0,0,1,1.364.423h0a1.036,1.036,0,0,1-.423,1.364h0a.982.982,0,0,1-.477.109h0A1,1,0,0,1,9.818,2.8Z"/>
                <path id="Caminho_7" data-name="Caminho 7" d="M30,13.635A13.635,13.635,0,0,1,2.85,15.722l-1.1,1.1a1.009,1.009,0,0,1-1.445,0,1.023,1.023,0,0,1,0-1.445l2.427-2.413L3.2,12.49a1.023,1.023,0,0,1,.723-.3.982.982,0,0,1,.723.3l.136.136,2.727,2.727a1.023,1.023,0,0,1,0,1.445,1.009,1.009,0,0,1-.723.3.968.968,0,0,1-.723-.3L4.881,15.626a11.6,11.6,0,0,0,12.272,9.545A11.726,11.726,0,0,0,27.912,13.922,11.6,11.6,0,0,0,16.363,2.045a10.908,10.908,0,0,0-1.5.1h-.2a1.009,1.009,0,0,1-.8-.4,1.036,1.036,0,0,1-.218-.6.968.968,0,0,1,.218-.627h0A.886.886,0,0,1,14.413.15h.232A10.036,10.036,0,0,1,16.362,0,13.635,13.635,0,0,1,30,13.635Z"/>
              </g>
            </g>
          </g>
        </g>
      </g>
    </g>
  </g>
</svg>
