<svg xmlns="http://www.w3.org/2000/svg" xmlns:xlink="http://www.w3.org/1999/xlink" width="30" height="30" viewBox="0 0 30 30">
  <defs>
    <clipPath id="clip-path">
      <rect id="Ret칙ngulo_541" data-name="Ret칙ngulo 541" width="30" height="30" transform="translate(381 298)" fill="#fff" stroke="#707070" stroke-width="1"/>
    </clipPath>
  </defs>
  <g id="Icone_1" data-name="Icone 1" transform="translate(-381 -298)" style="isolation: isolate">
    <g id="Grupo_de_m치scara_177" data-name="Grupo de m치scara 177" clip-path="url(#clip-path)">
      <g id="keylines" transform="translate(377.277 295.175)">
        <path id="Caminho_654" data-name="Caminho 654" d="M6.685,19.867a5,5,0,0,1-1.293-.109A2.119,2.119,0,0,1,3.833,18.2a2.072,2.072,0,0,1,.53-2.166c1.652-1.652,3.428-3.288,5.126-4.939l6.575-6.233a3.693,3.693,0,0,1,5.267,0C25.2,8.508,29.122,12.2,32.924,15.847a2.306,2.306,0,0,1,.234,3.257,2.088,2.088,0,0,1-1.558.732h-.873V30.743a1,1,0,0,1-1.122,1.137H7.791a1,1,0,0,1-1.137-1.137V19.836Zm14.99,10.315V24.837a3.007,3.007,0,0,0-3.833-2.867,3.116,3.116,0,0,0-2.135,2.961v5.2Z"/>
      </g>
    </g>
  </g>
</svg>
