<svg xmlns="http://www.w3.org/2000/svg" xmlns:xlink="http://www.w3.org/1999/xlink" width="30" height="30" viewBox="0 0 30 30">
  <defs>
    <clipPath id="clip-path">
      <rect id="Retângulo_1107" data-name="Retângulo 1107" width="30" height="30" transform="translate(1469 984)" fill="#fff" stroke="#707070" stroke-width="1"/>
    </clipPath>
  </defs>
  <g id="Grupo_de_máscara_264" data-name="Grupo de máscara 264" transform="translate(-1469 -984)" clip-path="url(#clip-path)">
    <g id="Camada_2" data-name="Camada 2" transform="translate(1472 984)">
      <g id="Camada_77_cópia" data-name="Camada 77 cópia">
        <path id="Caminho_916" data-name="Caminho 916" d="M21.75,0H2.25A2.25,2.25,0,0,0,0,2.25v25.5A2.25,2.25,0,0,0,2.25,30H15.09L24,21.09V2.25A2.25,2.25,0,0,0,21.75,0Zm-6,26.16V21.75h4.41Zm0-6.66a2.25,2.25,0,0,0-2.25,2.25v6H2.25V2.25h19.5V19.5Z"/>
        <path id="Caminho_917" data-name="Caminho 917" d="M18.42,8.715H5.535a1.125,1.125,0,1,1,0-2.25H18.42a1.125,1.125,0,1,1,0,2.25Z"/>
        <path id="Caminho_918" data-name="Caminho 918" d="M18.42,13.38H5.535a1.125,1.125,0,1,1,0-2.25H18.42a1.125,1.125,0,0,1,0,2.25Z"/>
        <path id="Caminho_919" data-name="Caminho 919" d="M18.42,18.285H5.535a1.125,1.125,0,0,1,0-2.25H18.42a1.125,1.125,0,0,1,0,2.25Z"/>
        <path id="Caminho_920" data-name="Caminho 920" d="M10.5,23.535H5.535a1.125,1.125,0,0,1,0-2.25H10.5a1.125,1.125,0,1,1,0,2.25Z"/>
      </g>
    </g>
  </g>
</svg>
