<svg xmlns="http://www.w3.org/2000/svg" xmlns:xlink="http://www.w3.org/1999/xlink" width="30" height="30" viewBox="0 0 30 30">
  <defs>
    <clipPath id="clip-path">
      <rect id="Ret칙ngulo_1104" data-name="Ret칙ngulo 1104" width="30" height="30" transform="translate(164 1115)" fill="#fff" stroke="#707070" stroke-width="1"/>
    </clipPath>
  </defs>
  <g id="Grupo_de_m치scara_259" data-name="Grupo de m치scara 259" transform="translate(-164 -1115)" clip-path="url(#clip-path)">
    <g id="Camada_2" data-name="Camada 2" transform="translate(164.045 1116.899)">
      <g id="Camada_72" data-name="Camada 72">
        <path id="Caminho_901" data-name="Caminho 901" d="M19.992,13.978a7.276,7.276,0,0,0-12.257,0L4.457,19.042a4.556,4.556,0,0,0-.721,2.8,4.687,4.687,0,0,0,1.18,2.737,4.588,4.588,0,0,0,5.359,1.229h0a9.111,9.111,0,0,1,7.21,0,4.523,4.523,0,0,0,1.852.393,4.424,4.424,0,0,0,1.032-.115,4.539,4.539,0,0,0,2.573-1.508,4.474,4.474,0,0,0,1.1-2.671,4.556,4.556,0,0,0-.721-2.8Z"/>
        <path id="Caminho_902" data-name="Caminho 902" d="M5.375,13.978a3.54,3.54,0,0,0,2.048-2.2,4.523,4.523,0,0,0,0-3.146,4.572,4.572,0,0,0-2.13-2.392,3.589,3.589,0,0,0-3-.246A4.064,4.064,0,0,0,.311,11.34a4.293,4.293,0,0,0,3.851,2.851,3.507,3.507,0,0,0,1.213-.213Z"/>
        <path id="Caminho_903" data-name="Caminho 903" d="M11.651,10.012A4.752,4.752,0,0,0,16.059,5a4.736,4.736,0,0,0-4.408-5A4.736,4.736,0,0,0,7.259,5a4.752,4.752,0,0,0,4.392,5.014Z"/>
        <path id="Caminho_904" data-name="Caminho 904" d="M19.238,11.241h0a3.884,3.884,0,0,0,1.131.18A4.539,4.539,0,0,0,24.58,8.193a4.916,4.916,0,0,0,0-3.392A3.72,3.72,0,0,0,18.943,2.95a4.818,4.818,0,0,0-2.081,2.671,4.343,4.343,0,0,0,2.376,5.621Z"/>
        <path id="Caminho_905" data-name="Caminho 905" d="M28.5,10.651h0a4.064,4.064,0,0,0-5.572,1.2,4.048,4.048,0,0,0,.492,5.67,3.392,3.392,0,0,0,2.065.672,4.441,4.441,0,0,0,3.507-1.8,4.048,4.048,0,0,0-.492-5.735Z"/>
      </g>
    </g>
  </g>
</svg>
