<svg xmlns="http://www.w3.org/2000/svg" xmlns:xlink="http://www.w3.org/1999/xlink" width="30" height="30" viewBox="0 0 30 30">
  <defs>
    <clipPath id="clip-path">
      <rect id="Retângulo_486" data-name="Retângulo 486" width="30" height="30" fill="red" stroke="#eee" stroke-width="1"/>
    </clipPath>
  </defs>
  <g id="Icone_1" data-name="Icone 1" transform="translate(-381 -298)" style="isolation: isolate">
    <g id="Icone" transform="translate(20 85)" style="isolation: isolate">
      <g id="Icon" transform="translate(361 213)" style="isolation: isolate">
        <g id="guide">
          <g id="Grupo_de_máscara_260" data-name="Grupo de máscara 260" clip-path="url(#clip-path)">
            <g id="Camada_2" data-name="Camada 2" transform="translate(0.06 1.891)">
              <g id="Camada_72_cópia" data-name="Camada 72 cópia">
                <path id="Caminho_906" data-name="Caminho 906" d="M13.871,13.117a4.8,4.8,0,0,1,4.066,2.23l3.279,5.066a2.148,2.148,0,0,1,.328,1.312,2.1,2.1,0,0,1-.508,1.246,2.033,2.033,0,0,1-1.148.689,1.64,1.64,0,0,1-.492,0,2.148,2.148,0,0,1-.853-.18,11.379,11.379,0,0,0-9.182,0H9.248a2.3,2.3,0,0,1-.869.18H7.9a2.148,2.148,0,0,1-1.64-1.951A2.066,2.066,0,0,1,6.608,20.4l3.23-5.083a4.821,4.821,0,0,1,4.034-2.2m0-2.459a7.264,7.264,0,0,0-6.132,3.279L4.46,19a4.558,4.558,0,0,0-.721,2.8,4.689,4.689,0,0,0,1.181,2.787A4.607,4.607,0,0,0,7.395,26.1a4.427,4.427,0,0,0,1.033.115,4.525,4.525,0,0,0,1.853-.394h0a9,9,0,0,1,7.214,0,4.525,4.525,0,0,0,1.853.394,4.427,4.427,0,0,0,1.033-.115,4.542,4.542,0,0,0,2.574-1.508,4.476,4.476,0,0,0,1.1-2.673,4.558,4.558,0,0,0-.721-2.8l-3.279-5.066a7.264,7.264,0,0,0-6.132-3.279Z"/>
                <path id="Caminho_907" data-name="Caminho 907" d="M3.525,8.2a1.279,1.279,0,0,1,.607.18,2.115,2.115,0,0,1,.935,1.115,2.2,2.2,0,0,1,0,1.443,1.164,1.164,0,0,1-.623.721,1.131,1.131,0,0,1-.328,0,1.836,1.836,0,0,1-1.541-1.279,1.64,1.64,0,0,1,.557-2.164,1.279,1.279,0,0,1,.344,0m0-2.459a3.558,3.558,0,0,0-1.23.23A4.066,4.066,0,0,0,.312,11.346,4.3,4.3,0,0,0,4.165,14.2a3.509,3.509,0,0,0,1.213-.213,3.542,3.542,0,0,0,2.05-2.2,4.525,4.525,0,0,0,0-3.148A4.575,4.575,0,0,0,5.3,6.247a3.722,3.722,0,0,0-1.771-.475Z"/>
                <path id="Caminho_908" data-name="Caminho 908" d="M11.658,2.459A2.345,2.345,0,0,1,13.609,5a2.345,2.345,0,0,1-1.951,2.558C10.608,7.559,9.723,6.395,9.723,5s.885-2.541,1.935-2.541m0-2.459A4.739,4.739,0,0,0,7.264,5a4.755,4.755,0,0,0,4.394,5.017A4.755,4.755,0,0,0,16.068,5a4.739,4.739,0,0,0-4.411-5Z"/>
                <path id="Caminho_909" data-name="Caminho 909" d="M21,4.8a1.525,1.525,0,0,1,.312.115,1.394,1.394,0,0,1,.8.836,2.476,2.476,0,0,1,0,1.64,2.132,2.132,0,0,1-1.82,1.64h-.344a1.951,1.951,0,0,1-.836-2.525,2.41,2.41,0,0,1,1.033-1.345,1.459,1.459,0,0,1,.771-.246m0-2.459a4,4,0,0,0-2.05.607A4.821,4.821,0,0,0,16.79,5.739a4.345,4.345,0,0,0,2.377,5.624h0a3.886,3.886,0,0,0,1.131.18,4.542,4.542,0,0,0,4.3-3.345,4.919,4.919,0,0,0,0-3.394,3.788,3.788,0,0,0-2.312-2.23,3.443,3.443,0,0,0-1.148-.2Z"/>
                <path id="Caminho_910" data-name="Caminho 910" d="M26.447,12.461a.951.951,0,0,1,.607.18,1.64,1.64,0,0,1,0,2.23,1.984,1.984,0,0,1-1.525.869,1.017,1.017,0,0,1-.607-.18,1.64,1.64,0,0,1,0-2.246,1.935,1.935,0,0,1,1.525-.853m0-2.459a4.46,4.46,0,0,0-3.492,1.853,4.05,4.05,0,0,0,.492,5.673,3.394,3.394,0,0,0,2.066.672,4.443,4.443,0,0,0,3.492-1.8,4.05,4.05,0,0,0-.492-5.673h0a3.476,3.476,0,0,0-2.066-.656Z"/>
              </g>
            </g>
          </g>
        </g>
      </g>
    </g>
  </g>
</svg>
