<svg xmlns="http://www.w3.org/2000/svg" xmlns:xlink="http://www.w3.org/1999/xlink" width="30" height="30" viewBox="0 0 30 30">
  <defs>
    <clipPath id="clip-path">
      <rect id="Ret칙ngulo_486" data-name="Ret칙ngulo 486" width="30" height="30" fill="#fff" stroke="#eee" stroke-width="1"/>
    </clipPath>
  </defs>
  <g id="Icone_1" data-name="Icone 1" transform="translate(-381 -298)" style="isolation: isolate">
    <g id="Icone" transform="translate(20 85)" style="isolation: isolate">
      <g id="Icon" transform="translate(361 213)" style="isolation: isolate">
        <g id="guide">
          <g id="Grupo_de_m치scara_243" data-name="Grupo de m치scara 243" clip-path="url(#clip-path)">
            <path id="icones_olho_nao_visualizar" d="M32.782,17.364a24.865,24.865,0,0,0-4.64-5.838l3.742-2.844a1.169,1.169,0,1,0-1.5-1.8L26.2,10.179a12.927,12.927,0,0,0-8.233-2.694c-9.73,0-14.67,9.58-14.819,10.029a.658.658,0,0,0-.15.748A17.747,17.747,0,0,0,7.634,24.7L4.042,27.543a1.173,1.173,0,0,0-.15,1.647,1.067,1.067,0,0,0,.9.449c.3,0,.449-.15.748-.3L9.58,26.2a15.432,15.432,0,0,0,8.383,2.4c11.077,0,14.969-10.179,14.969-10.329A1.9,1.9,0,0,0,32.782,17.364Zm-27.393.6c1.048-1.8,5.389-8.383,12.574-8.383a12.168,12.168,0,0,1,6.586,1.946L22,13.472a6.388,6.388,0,0,0-4.042-1.5,6.135,6.135,0,0,0-6.137,5.988,6.191,6.191,0,0,0,.748,2.844L9.281,23.352A13.6,13.6,0,0,1,5.389,17.963Zm16.316,0a3.865,3.865,0,0,1-3.892,3.892,4.873,4.873,0,0,1-2.1-.6l1.5-1.2c.15,0,.449.15.6.15a2.046,2.046,0,0,0,2.1-2.1v-.15l1.5-1.2A1.613,1.613,0,0,1,21.705,17.963Zm-7.634,0a3.865,3.865,0,0,1,3.892-3.892,3.677,3.677,0,0,1,2.245.748l-1.347,1.048a1.9,1.9,0,0,0-.9-.15,2.046,2.046,0,0,0-2.1,2.1v.3l-1.5,1.2A2.989,2.989,0,0,1,14.071,17.963Zm3.742,8.383A14.239,14.239,0,0,1,11.227,24.7l2.694-2.1a5.985,5.985,0,0,0,3.892,1.5,6.165,6.165,0,0,0,6.137-6.137,8.741,8.741,0,0,0-.6-2.694l2.994-2.4a19.324,19.324,0,0,1,4.191,4.94A13.691,13.691,0,0,1,17.813,26.345Z" transform="translate(-2.932 -3.127)"/>
          </g>
        </g>
      </g>
    </g>
  </g>
</svg>
