<svg xmlns="http://www.w3.org/2000/svg" xmlns:xlink="http://www.w3.org/1999/xlink" width="30" height="30" viewBox="0 0 30 30">
  <defs>
    <clipPath id="clip-path">
      <rect id="Ret칙ngulo_965" data-name="Ret칙ngulo 965" width="30" height="30" transform="translate(381 298)" fill="#fff" stroke="#707070" stroke-width="1"/>
    </clipPath>
  </defs>
  <g id="Icone_1" data-name="Icone 1" transform="translate(-381 -298)" style="isolation: isolate">
    <g id="Grupo_de_m치scara_197" data-name="Grupo de m치scara 197" clip-path="url(#clip-path)">
      <g id="Camada_2" data-name="Camada 2" transform="translate(384.78 298)">
        <g id="Alerta">
          <path id="Caminho_744" data-name="Caminho 744" d="M2.19,10.5v.915a6.12,6.12,0,0,1,.06-.915Z"/>
          <path id="Caminho_745" data-name="Caminho 745" d="M22.29,24.69l-.1-.195L20.2,21V10.5H20.13A8.4,8.4,0,0,0,12.63,3V1.5a1.5,1.5,0,0,0-3,0V3a8.4,8.4,0,0,0-7.5,7.5,6.12,6.12,0,0,0,0,.915V21L.195,24.495.09,24.69a1.08,1.08,0,0,0-.09.435A1.14,1.14,0,0,0,1.125,26.25H7.5a3.75,3.75,0,0,0,7.5,0h6.315a1.14,1.14,0,0,0,1.125-1.125,1.08,1.08,0,0,0-.15-.435Zm-11.1,3a1.5,1.5,0,0,1-1.5-1.5h3a1.5,1.5,0,0,1-1.5,1.56ZM3.075,24l.42-.75.645-1.125.3-.51v-10.2A6.21,6.21,0,0,1,10.605,5.25h1.17A6.21,6.21,0,0,1,18,11.415V12.75h0v8.865l.3.51.645,1.125.42.75Z"/>
        </g>
      </g>
    </g>
  </g>
</svg>
