<svg xmlns="http://www.w3.org/2000/svg" xmlns:xlink="http://www.w3.org/1999/xlink" width="30" height="30" viewBox="0 0 30 30">
  <defs>
    <clipPath id="clip-path">
      <rect id="Ret칙ngulo_541" data-name="Ret칙ngulo 541" width="30" height="30" transform="translate(381 298)" fill="#fff" stroke="#707070" stroke-width="1"/>
    </clipPath>
  </defs>
  <g id="Icone_1" data-name="Icone 1" transform="translate(-381 -298)" style="isolation: isolate">
    <g id="Grupo_de_m치scara_121" data-name="Grupo de m치scara 121" clip-path="url(#clip-path)">
      <g id="Camada_2" data-name="Camada 2" transform="translate(381.075 298)">
        <g id="Camada_30" data-name="Camada 30">
          <path id="Caminho_244" data-name="Caminho 244" d="M0,12.5V27.512A2.488,2.488,0,0,0,2.488,30H27.363a2.488,2.488,0,0,0,2.488-2.488V12.587ZM8.491,26.65a.829.829,0,0,1-.829.829H5.39a.829.829,0,0,1-.829-.829V24.876a.829.829,0,0,1,.829-.829H7.678a.829.829,0,0,1,.829.829Zm0-4.527a.829.829,0,0,1-.829.829H5.39a.829.829,0,0,1-.829-.829V20.381a.829.829,0,0,1,.829-.829H7.678a.829.829,0,0,1,.829.829ZM14.1,26.65a.829.829,0,0,1-.829.829H11a.829.829,0,0,1-.829-.829V24.876A.829.829,0,0,1,11,24.046h2.272a.829.829,0,0,1,.829.829Zm0-4.527a.829.829,0,0,1-.829.829H11a.829.829,0,0,1-.829-.829V20.381A.829.829,0,0,1,11,19.552h2.272a.829.829,0,0,1,.829.829Zm0-4.527a.829.829,0,0,1-.829.829H11a.829.829,0,0,1-.829-.829V15.937A.829.829,0,0,1,11,15.108h2.272a.829.829,0,0,1,.829.829ZM19.7,22.123a.829.829,0,0,1-.829.829H16.584a.829.829,0,0,1-.829-.829V20.381a.829.829,0,0,1,.829-.829h2.289a.829.829,0,0,1,.829.829Zm0-4.527a.829.829,0,0,1-.829.829H16.584a.829.829,0,0,1-.829-.829V15.937a.829.829,0,0,1,.829-.829h2.289a.829.829,0,0,1,.829.829Zm5.605,4.527a.829.829,0,0,1-.829.829H22.206a.829.829,0,0,1-.829-.829V20.381a.829.829,0,0,1,.829-.829h2.289a.829.829,0,0,1,.829.829Zm0-4.527a.829.829,0,0,1-.829.829H22.206a.829.829,0,0,1-.829-.829V15.937a.829.829,0,0,1,.829-.829h2.289a.829.829,0,0,1,.829.829Z"/>
          <path id="Caminho_245" data-name="Caminho 245" d="M29.851,4.693V10.1H0V4.693A2.488,2.488,0,0,1,2.488,2.206H5.357V5.638a2.9,2.9,0,0,0,5.8,0V2.206h7.562V5.638a2.9,2.9,0,0,0,5.8,0V2.206h2.886A2.488,2.488,0,0,1,29.851,4.693Z"/>
          <path id="Caminho_246" data-name="Caminho 246" d="M22.869,1.26V5.638a1.244,1.244,0,1,1-2.488,0V1.26a1.244,1.244,0,0,1,2.488,0Z"/>
          <path id="Caminho_247" data-name="Caminho 247" d="M9.552,1.244V5.622a1.244,1.244,0,0,1-2.488,0V1.244a1.244,1.244,0,0,1,2.488,0Z"/>
        </g>
      </g>
    </g>
  </g>
</svg>
