<svg xmlns="http://www.w3.org/2000/svg" xmlns:xlink="http://www.w3.org/1999/xlink" width="30" height="30" viewBox="0 0 30 30">
  <defs>
    <clipPath id="clip-path">
      <rect id="Ret칙ngulo_486" data-name="Ret칙ngulo 486" width="30" height="30" fill="#fff" stroke="#eee" stroke-width="1"/>
    </clipPath>
  </defs>
  <g id="Icone_1" data-name="Icone 1" transform="translate(-381 -298)" style="isolation: isolate">
    <g id="Icone" transform="translate(20 85)" style="isolation: isolate">
      <g id="Icon" transform="translate(361 213)" style="isolation: isolate">
        <g id="guide">
          <g id="Grupo_de_m치scara_29" data-name="Grupo de m치scara 29" clip-path="url(#clip-path)">
            <path id="telefone" d="M13.9,25.477A28.565,28.565,0,0,1,6.287,13.4a3.879,3.879,0,0,1,.331-1.985A30.223,30.223,0,0,1,9.265,6.948a2.766,2.766,0,0,1,3.64,0l2.978,3.143a2.645,2.645,0,0,1-.331,3.805l-.5.662c-1.985,1.324-1.82,2.316-.662,3.474l7.279,7.445C23,26.8,23.823,26.8,25.147,24.816l.5-.662a2.428,2.428,0,0,1,3.805-.331L32.591,26.8a2.766,2.766,0,0,1,0,3.64,30.539,30.539,0,0,1-4.3,2.647,2.847,2.847,0,0,1-1.985.331A27.025,27.025,0,0,1,15.717,27.3Z" transform="translate(-4.781 -4.873)" fill="none" stroke="#000" stroke-linecap="round" stroke-linejoin="round" stroke-miterlimit="10" stroke-width="2.482"/>
          </g>
        </g>
      </g>
    </g>
  </g>
</svg>
