<svg xmlns="http://www.w3.org/2000/svg" xmlns:xlink="http://www.w3.org/1999/xlink" width="30" height="30" viewBox="0 0 30 30">
  <defs>
    <clipPath id="clip-path">
      <rect id="Ret칙ngulo_991" data-name="Ret칙ngulo 991" width="30" height="30" transform="translate(381 298)" fill="#fff" stroke="#707070" stroke-width="1"/>
    </clipPath>
  </defs>
  <g id="Icone_1" data-name="Icone 1" transform="translate(-381 -298)" style="isolation: isolate">
    <g id="Grupo_de_m치scara_230" data-name="Grupo de m치scara 230" clip-path="url(#clip-path)">
      <g id="telefone_1_" transform="translate(375.962 292.879)">
        <g id="telefone_2_">
          <path id="Caminho_822" data-name="Caminho 822" d="M27.26,35.121a2.121,2.121,0,0,1-1-.167c-2.174-.5-6.355-2.174-11.205-6.522l-1.84-1.84C7.86,21.24,5.853,16.222,5.185,13.881a4.645,4.645,0,0,1,.5-3.01A35.11,35.11,0,0,1,8.7,6.188a4.1,4.1,0,0,1,5.519,0l3.01,3.178a3.372,3.372,0,0,1,1,3.01,4.328,4.328,0,0,1-1.505,2.843l-.836.5c-.836.669-1,.836-1,.836s0,.167.5.669l7.359,7.526c.5.5.669.5.669.5a2.685,2.685,0,0,0,.836-1l.5-.669a3.725,3.725,0,0,1,2.843-1.505,3.9,3.9,0,0,1,3.01,1l3.178,3.01a3.917,3.917,0,0,1,1.171,2.843,4.74,4.74,0,0,1-1,2.676,27.59,27.59,0,0,1-4.85,3.01A3.371,3.371,0,0,1,27.26,35.121Z"/>
        </g>
      </g>
    </g>
  </g>
</svg>
