<svg xmlns="http://www.w3.org/2000/svg" xmlns:xlink="http://www.w3.org/1999/xlink" width="30" height="30" viewBox="0 0 30 30">
  <defs>
    <clipPath id="clip-path">
      <rect id="Ret칙ngulo_980" data-name="Ret칙ngulo 980" width="30" height="30" transform="translate(381 298)" fill="#fff" stroke="#707070" stroke-width="1"/>
    </clipPath>
  </defs>
  <g id="Icone_1" data-name="Icone 1" transform="translate(-381 -298)" style="isolation: isolate">
    <g id="Grupo_de_m치scara_226" data-name="Grupo de m치scara 226" clip-path="url(#clip-path)">
      <g id="Camada_1" transform="translate(375.979 292.915)">
        <g id="Camada_18">
          <path id="Caminho_816" data-name="Caminho 816" d="M34.576,32.881l-7.119-6.949A12.7,12.7,0,0,0,30.508,17.8,12.8,12.8,0,0,0,17.8,5.085,12.659,12.659,0,0,0,5.085,17.627a12.8,12.8,0,0,0,20.678,10l7.119,7.119a1.229,1.229,0,0,0,1.695,0A1.33,1.33,0,0,0,34.576,32.881Zm-13.051-13.9H14.068a1.337,1.337,0,0,1-1.356-1.356,1.247,1.247,0,0,1,1.356-1.356h7.458a1.356,1.356,0,1,1,0,2.712Z"/>
        </g>
      </g>
    </g>
  </g>
</svg>
