<svg xmlns="http://www.w3.org/2000/svg" xmlns:xlink="http://www.w3.org/1999/xlink" width="30" height="30" viewBox="0 0 30 30">
  <defs>
    <clipPath id="clip-path">
      <rect id="Ret칙ngulo_981" data-name="Ret칙ngulo 981" width="30" height="30" transform="translate(381 298)" fill="#fff" stroke="#707070" stroke-width="1"/>
    </clipPath>
  </defs>
  <g id="Icone_1" data-name="Icone 1" transform="translate(-381 -298)" style="isolation: isolate">
    <g id="Grupo_de_m치scara_221" data-name="Grupo de m치scara 221" clip-path="url(#clip-path)">
      <g id="Camada_1" transform="translate(376.22 293.22)">
        <g id="Camada_14">
          <path id="Caminho_809" data-name="Caminho 809" d="M30.989,4.78H8.571A3.834,3.834,0,0,0,4.78,8.571V30.989A3.834,3.834,0,0,0,8.571,34.78H30.989a3.834,3.834,0,0,0,3.791-3.791V8.571A4.076,4.076,0,0,0,30.989,4.78ZM27.857,21.1H20.934v6.923a1.3,1.3,0,0,1-1.319,1.319A1.213,1.213,0,0,1,18.3,28.022V21.1H11.538A1.3,1.3,0,0,1,10.22,19.78a1.213,1.213,0,0,1,1.319-1.319h6.923V11.7a1.3,1.3,0,0,1,1.319-1.319A1.213,1.213,0,0,1,21.1,11.7v6.923h6.923a1.3,1.3,0,0,1,1.319,1.319C29.341,20.769,28.516,21.1,27.857,21.1Z"/>
        </g>
      </g>
    </g>
  </g>
</svg>
