<svg xmlns="http://www.w3.org/2000/svg" width="29.834" height="30" viewBox="0 0 29.834 30">
  <g id="Icone_1" data-name="Icone 1" transform="translate(-381.166 -298)" style="isolation: isolate">
    <g id="Camada_21_c贸pia_2_c贸pia" data-name="Camada 21 c贸pia 2 c贸pia" transform="translate(381.166 298)">
      <path id="Caminho_250" data-name="Caminho 250" d="M0,12.514v15A2.47,2.47,0,0,0,2.486,30H27.348a2.47,2.47,0,0,0,2.486-2.486V12.6Zm21.994,4.972-9.58,9.63L7.873,22.591a1.243,1.243,0,0,1,0-1.757,1.227,1.227,0,0,1,1.757,0L12.414,23.6l7.823-7.823a1.243,1.243,0,0,1,1.757,1.757Z"/>
      <path id="Caminho_251" data-name="Caminho 251" d="M29.834,4.707v5.387H0V4.707A2.486,2.486,0,0,1,2.486,2.221H5.354V5.635a2.9,2.9,0,0,0,5.8,0V2.221h7.558V5.635a2.9,2.9,0,0,0,5.8,0V2.221H27.4a2.486,2.486,0,0,1,2.436,2.486Z"/>
      <path id="Caminho_252" data-name="Caminho 252" d="M22.856,1.276V5.635a1.243,1.243,0,1,1-2.486,0V1.276a1.243,1.243,0,0,1,2.486,0Z"/>
      <path id="Caminho_253" data-name="Caminho 253" d="M9.5,1.243V5.619a1.243,1.243,0,1,1-2.486,0V1.243a1.243,1.243,0,0,1,2.486,0Z"/>
    </g>
  </g>
</svg>
