<?xml version="1.0" encoding="utf-8"?>
<!-- Generator: Adobe Illustrator 25.2.3, SVG Export Plug-In . SVG Version: 6.00 Build 0)  -->
<svg version="1.1" xmlns="http://www.w3.org/2000/svg" xmlns:xlink="http://www.w3.org/1999/xlink" x="0px" y="0px"
	 viewBox="0 0 24 24" style="enable-background:new 0 0 24 24;" xml:space="preserve">
<style type="text/css">
	.st0{fill:none;}
	.st1{clip-path:url(#SVGID_2_);}
	.st2{fill:none;stroke:#000000;stroke-width:0.25;stroke-miterlimit:10;}
	.st3{opacity:0.4;}
	.st4{clip-path:url(#SVGID_4_);fill:none;stroke:#000000;stroke-width:0.25;stroke-miterlimit:10;}
	.st5{clip-path:url(#SVGID_6_);fill:none;stroke:#000000;stroke-width:0.25;stroke-miterlimit:10;}
	.st6{clip-path:url(#SVGID_8_);fill:none;stroke:#000000;stroke-width:0.25;stroke-miterlimit:10;}
	.st7{clip-path:url(#SVGID_10_);fill:none;stroke:#000000;stroke-width:0.25;stroke-miterlimit:10;}
	.st8{clip-path:url(#SVGID_12_);fill:none;stroke:#000000;stroke-width:0.25;stroke-miterlimit:10;}
	.st9{clip-path:url(#SVGID_14_);fill:none;stroke:#000000;stroke-width:0.25;stroke-miterlimit:10;}
	.st10{clip-path:url(#SVGID_16_);fill:none;stroke:#000000;stroke-width:0.25;stroke-miterlimit:10;}
	.st11{clip-path:url(#SVGID_18_);fill:none;stroke:#000000;stroke-width:0.25;stroke-miterlimit:10;}
	.st12{clip-path:url(#SVGID_20_);fill:none;stroke:#000000;stroke-width:0.25;stroke-miterlimit:10;}
	.st13{clip-path:url(#SVGID_22_);fill:none;stroke:#000000;stroke-width:0.25;stroke-miterlimit:10;}
	.st14{clip-path:url(#SVGID_24_);fill:none;stroke:#000000;stroke-width:0.25;stroke-miterlimit:10;}
	.st15{clip-path:url(#SVGID_26_);fill:none;stroke:#000000;stroke-width:0.25;stroke-miterlimit:10;}
	.st16{clip-path:url(#SVGID_28_);fill:none;stroke:#000000;stroke-width:0.25;stroke-miterlimit:10;}
	.st17{clip-path:url(#SVGID_30_);}
	.st18{display:none;}
	.st19{display:inline;opacity:0.2;enable-background:new    ;}
	.st20{opacity:0.2;enable-background:new    ;}
	.st21{display:inline;}
	.st22{clip-path:url(#SVGID_32_);}
	.st23{fill:none;stroke:#000000;stroke-width:1.5;stroke-miterlimit:10;}
	.st24{display:inline;fill:none;stroke:#000000;stroke-width:1.5;stroke-linecap:round;stroke-miterlimit:10;}
	
		.st25{display:inline;fill:none;stroke:#000000;stroke-width:1.5;stroke-linecap:round;stroke-linejoin:round;stroke-miterlimit:10;}
	.st26{fill:none;stroke:#000000;stroke-width:1.5;stroke-linecap:round;stroke-linejoin:round;stroke-miterlimit:10;}
	.st27{display:inline;fill:none;stroke:#000000;stroke-width:1.5;stroke-miterlimit:10;}
	.st28{fill:none;stroke:#000000;stroke-width:1.5;stroke-linecap:round;stroke-miterlimit:10;}
	.st29{clip-path:url(#SVGID_34_);}
	.st30{display:none;opacity:0.28;}
	.st31{clip-path:url(#SVGID_38_);}
	.st32{clip-path:url(#SVGID_42_);}
	.st33{display:inline;fill:none;}
</style>
<symbol  id="material_x5F_system_x5F_icon_x5F_border" viewBox="-24 -24 48 48">
	<rect x="-24" y="-24" class="st0" width="48" height="48"/>
</symbol>
<symbol  id="material_x5F_system_x5F_icon_x5F_grid" viewBox="-24 -24 48 48">
	<g>
		<g>
			<g>
				<defs>
					<rect id="SVGID_1_" x="-24" y="-24" width="48" height="48"/>
				</defs>
				<clipPath id="SVGID_2_">
					<use xlink:href="#SVGID_1_"  style="overflow:visible;"/>
				</clipPath>
				<g class="st1">
					<g>
						<line class="st2" x1="-22" y1="-24" x2="-22" y2="24"/>
						<line class="st2" x1="-20" y1="-24" x2="-20" y2="24"/>
						<line class="st2" x1="-18" y1="-24" x2="-18" y2="24"/>
						<line class="st2" x1="-16" y1="-24" x2="-16" y2="24"/>
						<line class="st2" x1="-14" y1="-24" x2="-14" y2="24"/>
						<line class="st2" x1="-12" y1="-24" x2="-12" y2="24"/>
						<line class="st2" x1="-10" y1="-24" x2="-10" y2="24"/>
						<line class="st2" x1="-8" y1="-24" x2="-8" y2="24"/>
						<line class="st2" x1="-6" y1="-24" x2="-6" y2="24"/>
						<line class="st2" x1="-4" y1="-24" x2="-4" y2="24"/>
						<line class="st2" x1="-2" y1="-24" x2="-2" y2="24"/>
						<line class="st2" x1="0" y1="-24" x2="0" y2="24"/>
						<line class="st2" x1="2" y1="-24" x2="2" y2="24"/>
						<line class="st2" x1="4" y1="-24" x2="4" y2="24"/>
						<line class="st2" x1="6" y1="-24" x2="6" y2="24"/>
						<line class="st2" x1="8" y1="-24" x2="8" y2="24"/>
						<line class="st2" x1="10" y1="-24" x2="10" y2="24"/>
						<line class="st2" x1="12" y1="-24" x2="12" y2="24"/>
						<line class="st2" x1="14" y1="-24" x2="14" y2="24"/>
						<line class="st2" x1="16" y1="-24" x2="16" y2="24"/>
						<line class="st2" x1="18" y1="-24" x2="18" y2="24"/>
						<line class="st2" x1="20" y1="-24" x2="20" y2="24"/>
						<line class="st2" x1="22" y1="-24" x2="22" y2="24"/>
					</g>
					<g>
						<line class="st2" x1="-24" y1="22" x2="24" y2="22"/>
						<line class="st2" x1="-24" y1="20" x2="24" y2="20"/>
						<line class="st2" x1="-24" y1="18" x2="24" y2="18"/>
						<line class="st2" x1="-24" y1="16" x2="24" y2="16"/>
						<line class="st2" x1="-24" y1="14" x2="24" y2="14"/>
						<line class="st2" x1="-24" y1="12" x2="24" y2="12"/>
						<line class="st2" x1="-24" y1="10" x2="24" y2="10"/>
						<line class="st2" x1="-24" y1="8" x2="24" y2="8"/>
						<line class="st2" x1="-24" y1="6" x2="24" y2="6"/>
						<line class="st2" x1="-24" y1="4" x2="24" y2="4"/>
						<line class="st2" x1="-24" y1="2" x2="24" y2="2"/>
						<line class="st2" x1="-24" y1="0" x2="24" y2="0"/>
						<line class="st2" x1="-24" y1="-2" x2="24" y2="-2"/>
						<line class="st2" x1="-24" y1="-4" x2="24" y2="-4"/>
						<line class="st2" x1="-24" y1="-6" x2="24" y2="-6"/>
						<line class="st2" x1="-24" y1="-8" x2="24" y2="-8"/>
						<line class="st2" x1="-24" y1="-10" x2="24" y2="-10"/>
						<line class="st2" x1="-24" y1="-12" x2="24" y2="-12"/>
						<line class="st2" x1="-24" y1="-14" x2="24" y2="-14"/>
						<line class="st2" x1="-24" y1="-16" x2="24" y2="-16"/>
						<line class="st2" x1="-24" y1="-18" x2="24" y2="-18"/>
						<line class="st2" x1="-24" y1="-20" x2="24" y2="-20"/>
						<line class="st2" x1="-24" y1="-22" x2="24" y2="-22"/>
					</g>
					<g>
						<path d="M23.8,23.8v-47.5h-47.5v47.5H23.8 M24,24h-48v-48h48V24L24,24z"/>
					</g>
				</g>
			</g>
		</g>
	</g>
</symbol>
<symbol  id="material_x5F_system_x5F_icon_x5F_keylines" viewBox="-24 -24 48 48">
	<g class="st3">
		<g>
			<g>
				<defs>
					<rect id="SVGID_3_" x="-24" y="-24" width="48" height="48"/>
				</defs>
				<clipPath id="SVGID_4_">
					<use xlink:href="#SVGID_3_"  style="overflow:visible;"/>
				</clipPath>
				<line class="st4" x1="0" y1="24" x2="0" y2="-24"/>
			</g>
		</g>
		<g>
			<g>
				<defs>
					<rect id="SVGID_5_" x="-24" y="-24" width="48" height="48"/>
				</defs>
				<clipPath id="SVGID_6_">
					<use xlink:href="#SVGID_5_"  style="overflow:visible;"/>
				</clipPath>
				<line class="st5" x1="24" y1="0" x2="-24" y2="0"/>
			</g>
		</g>
		<g>
			<g>
				<defs>
					<rect id="SVGID_7_" x="-24" y="-24" width="48" height="48"/>
				</defs>
				<clipPath id="SVGID_8_">
					<use xlink:href="#SVGID_7_"  style="overflow:visible;"/>
				</clipPath>
				<line class="st6" x1="24" y1="8" x2="-24" y2="8"/>
			</g>
		</g>
		<g>
			<g>
				<defs>
					<rect id="SVGID_9_" x="-24" y="-24" width="48" height="48"/>
				</defs>
				<clipPath id="SVGID_10_">
					<use xlink:href="#SVGID_9_"  style="overflow:visible;"/>
				</clipPath>
				<line class="st7" x1="24" y1="-8" x2="-24" y2="-8"/>
			</g>
		</g>
		<g>
			<g>
				<defs>
					<rect id="SVGID_11_" x="-24" y="-24" width="48" height="48"/>
				</defs>
				<clipPath id="SVGID_12_">
					<use xlink:href="#SVGID_11_"  style="overflow:visible;"/>
				</clipPath>
				<line class="st8" x1="8" y1="-24" x2="8" y2="24"/>
			</g>
		</g>
		<g>
			<g>
				<defs>
					<rect id="SVGID_13_" x="-24" y="-24" width="48" height="48"/>
				</defs>
				<clipPath id="SVGID_14_">
					<use xlink:href="#SVGID_13_"  style="overflow:visible;"/>
				</clipPath>
				<line class="st9" x1="-8" y1="-24" x2="-8" y2="24"/>
			</g>
		</g>
		<g>
			<g>
				<defs>
					<rect id="SVGID_15_" x="-24" y="-24" width="48" height="48"/>
				</defs>
				<clipPath id="SVGID_16_">
					<use xlink:href="#SVGID_15_"  style="overflow:visible;"/>
				</clipPath>
				<line class="st10" x1="23.8" y1="23.8" x2="-23.8" y2="-23.8"/>
			</g>
		</g>
		<g>
			<g>
				<defs>
					<rect id="SVGID_17_" x="-24" y="-24" width="48" height="48"/>
				</defs>
				<clipPath id="SVGID_18_">
					<use xlink:href="#SVGID_17_"  style="overflow:visible;"/>
				</clipPath>
				<line class="st11" x1="-23.8" y1="23.8" x2="23.8" y2="-23.8"/>
			</g>
		</g>
		<g>
			<g>
				<defs>
					<rect id="SVGID_19_" x="-24" y="-24" width="48" height="48"/>
				</defs>
				<clipPath id="SVGID_20_">
					<use xlink:href="#SVGID_19_"  style="overflow:visible;"/>
				</clipPath>
				<path class="st12" d="M0,10c-5.5,0-10-4.5-10-10s4.5-10,10-10S10-5.5,10,0S5.5,10,0,10z"/>
			</g>
		</g>
		<g>
			<g>
				<defs>
					<rect id="SVGID_21_" x="-24" y="-24" width="48" height="48"/>
				</defs>
				<clipPath id="SVGID_22_">
					<use xlink:href="#SVGID_21_"  style="overflow:visible;"/>
				</clipPath>
				<path class="st13" d="M0,20c-11.1,0-20-8.9-20-20s8.9-20,20-20s20,9,20,20S11,20,0,20z"/>
			</g>
		</g>
		<g>
			<g>
				<defs>
					<rect id="SVGID_23_" x="-24" y="-24" width="48" height="48"/>
				</defs>
				<clipPath id="SVGID_24_">
					<use xlink:href="#SVGID_23_"  style="overflow:visible;"/>
				</clipPath>
				<path class="st14" d="M14,18h-28c-2.2,0-4-1.8-4-4v-28c0-2.2,1.8-4,4-4h28c2.2,0,4,1.8,4,4v28C18,16.2,16.2,18,14,18z"/>
			</g>
		</g>
		<g>
			<g>
				<defs>
					<rect id="SVGID_25_" x="-24" y="-24" width="48" height="48"/>
				</defs>
				<clipPath id="SVGID_26_">
					<use xlink:href="#SVGID_25_"  style="overflow:visible;"/>
				</clipPath>
				<path class="st15" d="M16,16h-32c-2.2,0-4-1.8-4-4v-24c0-2.2,1.8-4,4-4h32c2.2,0,4,1.8,4,4v24C20,14.2,18.2,16,16,16z"/>
			</g>
		</g>
		<g>
			<g>
				<defs>
					<rect id="SVGID_27_" x="-24" y="-24" width="48" height="48"/>
				</defs>
				<clipPath id="SVGID_28_">
					<use xlink:href="#SVGID_27_"  style="overflow:visible;"/>
				</clipPath>
				<path class="st16" d="M16-16v32c0,2.2-1.8,4-4,4h-24c-2.2,0-4-1.8-4-4v-32c0-2.2,1.8-4,4-4h24C14.2-20,16-18.2,16-16z"/>
			</g>
		</g>
		<g>
			<g>
				<defs>
					<rect id="SVGID_29_" x="-24" y="-24" width="48" height="48"/>
				</defs>
				<clipPath id="SVGID_30_">
					<use xlink:href="#SVGID_29_"  style="overflow:visible;"/>
				</clipPath>
				<g class="st17">
					<path d="M23.8,23.8v-47.5h-47.5v47.5H23.8 M24,24h-48v-48h48V24L24,24z"/>
				</g>
			</g>
		</g>
	</g>
</symbol>
<g id="Camada_1">
	<g class="st18">
		<circle id="circle" class="st19" cx="12" cy="12" r="10"/>
		<path id="Rectangle" class="st20" d="M19,21H5c-1.1,0-2-0.9-2-2V5c0-1.1,0.9-2,2-2h14c1.1,0,2,0.9,2,2v14C21,20.1,20.1,21,19,21z"
			/>
		<path id="Vertical_Rectangle" class="st20" d="M6,22h12c1.1,0,2-0.9,2-2V4c0-1.1-0.9-2-2-2H6C4.9,2,4,2.9,4,4v16
			C4,21.1,4.9,22,6,22z"/>
		<path id="Horizontal_Rectangle" class="st20" d="M22,18V6c0-1.1-0.9-2-2-2H4C2.9,4,2,4.9,2,6v12c0,1.1,0.9,2,2,2h16
			C21.1,20,22,19.1,22,18z"/>
	</g>
	<g class="st18">
		<path class="st21" d="M6.6,20.9c-0.2-0.2-0.3-0.4-0.2-0.7l0.8-5.7l-3.7-3.7c-0.2-0.3-0.3-0.6-0.2-0.9c0.1-0.4,0.4-0.5,0.6-0.5
			l4.8-0.8l2.8-5c0.2-0.3,0.3-0.4,0.6-0.4c0.3,0,0.4,0.1,0.6,0.4l2.8,4.8l4.8,0.9c0.4,0.1,0.6,0.3,0.6,0.6c0,0.3-0.1,0.5-0.2,0.7
			L17,14.3l1,5.7c0,0.4,0.1,0.5-0.1,0.8c-0.3,0.3-0.7,0.2-1,0l-4.8-2.7l-4.6,2.8C7.4,21.1,6.8,21,6.6,20.9z M12.1,16.3l4.1,2.3
			l-0.8-4.8l3.2-3.4l-3.8-0.7l-2.8-4.3L9.5,9.8l-4,0.8l3.2,3.3l-0.6,4.8L12.1,16.3z"/>
	</g>
	<g class="st18">
		<g id="Icon" transform="translate(361 213)" class="st21">
			<g id="guide">
				<g>
					<defs>
						<rect id="SVGID_31_" x="-358" y="-210" width="17.7" height="17.7"/>
					</defs>
					<clipPath id="SVGID_32_">
						<use xlink:href="#SVGID_31_"  style="overflow:visible;"/>
					</clipPath>
					<g id="Grupo_de_máscara_1" class="st22">
						<g id="Camada_2_1_" transform="translate(-0.029 -0.062)">
							<g id="lupa">
								<path id="Caminho_3" d="M-340.4-193.5l-4.2-4.2c2.6-3.2,2.1-7.9-1.1-10.5c-2.7-2.2-6.7-2.2-9.4,0c-0.4,0.3-0.8,0.6-1.1,1
									c-2.6,3.2-2.1,7.9,1.1,10.5c2.7,2.2,6.7,2.2,9.4,0l4.2,4.2c0.3,0.3,0.8,0.3,1.1,0C-340.2-192.7-340.2-193.2-340.4-193.5
									L-340.4-193.5z M-346.8-197.7c-2.6,2-6.4,1.6-8.4-1.1c-1.7-2.2-1.7-5.2,0-7.4c0.3-0.4,0.7-0.8,1.1-1.1
									c2.6-2,6.4-1.6,8.4,1.1c1.7,2.2,1.7,5.2,0,7.4C-346-198.4-346.4-198-346.8-197.7L-346.8-197.7z"/>
							</g>
						</g>
					</g>
				</g>
			</g>
		</g>
		<g class="st21">
			<g>
				<path d="M12.7,11.3H8.3c-0.4,0-0.8-0.3-0.8-0.8s0.3-0.8,0.8-0.8h4.4c0.4,0,0.8,0.3,0.8,0.8S13.1,11.3,12.7,11.3z"/>
			</g>
			<g>
				<path d="M10.5,13.4c-0.4,0-0.8-0.3-0.8-0.7V8.3c0-0.4,0.3-0.8,0.8-0.8s0.8,0.3,0.8,0.8v4.3C11.3,13,11,13.4,10.5,13.4z"/>
			</g>
		</g>
	</g>
	<g class="st18">
		<g id="aumentar" class="st21">
			<path d="M18.8,21.1H5.2c-1.2,0-2.3-1-2.3-2.3V5.2c0-1.2,1-2.3,2.3-2.3h13.6c1.2,0,2.3,1,2.3,2.3v13.6C21.1,20,20,21.1,18.8,21.1z
				 M5.2,4.4c-0.4,0-0.8,0.3-0.8,0.8v13.6c0,0.4,0.3,0.8,0.8,0.8h13.6c0.4,0,0.8-0.3,0.8-0.8V5.2c0-0.4-0.3-0.8-0.8-0.8H5.2z"/>
		</g>
		<g class="st21">
			<path d="M16.9,12.8H7c-0.4,0-0.8-0.3-0.8-0.8s0.3-0.8,0.8-0.8h9.9c0.4,0,0.8,0.3,0.8,0.8S17.3,12.8,16.9,12.8z"/>
		</g>
		<g class="st21">
			<path d="M12,17.7c-0.4,0-0.8-0.3-0.8-0.8V7.1c0-0.4,0.3-0.8,0.8-0.8s0.8,0.3,0.8,0.8V17C12.8,17.4,12.4,17.7,12,17.7z"/>
		</g>
	</g>
	<g id="duvidas" class="st18">
		<g class="st21">
			<path d="M12,22c-5.5,0-10-4.5-10-10c0-5.5,4.5-10,10-10c5.5,0,10,4.5,10,10C22,17.5,17.5,22,12,22z M12,3.5
				c-4.7,0-8.5,3.8-8.5,8.5c0,4.7,3.8,8.5,8.5,8.5c4.7,0,8.5-3.8,8.5-8.5C20.5,7.3,16.7,3.5,12,3.5z"/>
		</g>
		<g class="st21">
			<g>
				<path d="M10.9,14.9c0-0.7,0.1-1.3,0.2-1.7c0.1-0.4,0.5-0.9,0.9-1.4l1.2-1.2C13.7,10,14,9.4,14,8.8c0-0.6-0.2-1.1-0.5-1.5
					c-0.3-0.4-0.8-0.5-1.4-0.5c-0.6,0-1.1,0.2-1.5,0.5C10.2,7.6,10,8,10,8.5H8.4c0-1,0.4-1.8,1-2.3C10.1,5.6,11,5.3,12,5.3
					c1.1,0,2,0.3,2.6,0.9c0.6,0.6,0.9,1.4,0.9,2.5c0,1-0.5,2.1-1.5,3.1l-1,1c-0.4,0.5-0.7,1.2-0.7,2.1H10.9z M10.8,17.7
					c0-0.3,0.1-0.5,0.2-0.7c0.2-0.2,0.4-0.3,0.7-0.3c0.3,0,0.6,0.1,0.7,0.3c0.2,0.2,0.3,0.4,0.3,0.7c0,0.3-0.1,0.5-0.3,0.7
					c-0.2,0.2-0.4,0.3-0.7,0.3c-0.3,0-0.6-0.1-0.7-0.3C10.9,18.2,10.8,18,10.8,17.7z"/>
			</g>
		</g>
	</g>
	<g class="st18">
		<g class="st21">
			<path d="M20.3,12.8H3.7C3.3,12.8,3,12.4,3,12s0.3-0.8,0.8-0.8h16.6c0.4,0,0.8,0.3,0.8,0.8S20.7,12.8,20.3,12.8z"/>
		</g>
		<g class="st21">
			<path d="M12,21c-0.4,0-0.8-0.3-0.8-0.8V3.7C11.3,3.3,11.6,3,12,3s0.8,0.3,0.8,0.8v16.6C12.8,20.7,12.4,21,12,21z"/>
		</g>
	</g>
	<g id="ofertas" class="st18">
		<g class="st21">
			<path d="M12,21.9c-5.5,0-9.9-4.5-9.9-9.9S6.5,2,12,2c5.5,0,9.9,4.5,9.9,9.9S17.5,21.9,12,21.9z M12,3.5c-4.7,0-8.4,3.8-8.4,8.4
				s3.8,8.4,8.4,8.4c4.7,0,8.4-3.8,8.4-8.4S16.6,3.5,12,3.5z"/>
		</g>
		<g class="st21">
			<path d="M7.6,17.1c-0.2,0-0.4-0.1-0.5-0.2c-0.3-0.3-0.3-0.8,0-1.1L15.9,7c0.3-0.3,0.8-0.3,1.1,0s0.3,0.8,0,1.1l-8.8,8.8
				C8,17,7.8,17.1,7.6,17.1z"/>
		</g>
		<g class="st21">
			<path d="M10.1,9.6c-1,0-1.9-0.9-1.9-1.9S9,5.8,10.1,5.8S12,6.6,12,7.7S11.1,9.6,10.1,9.6z M10.1,7.3c-0.2,0-0.4,0.2-0.4,0.4
				s0.2,0.4,0.4,0.4s0.4-0.2,0.4-0.4S10.3,7.3,10.1,7.3z"/>
		</g>
		<g class="st21">
			<path d="M14,18.1c-1,0-1.9-0.9-1.9-1.9s0.9-1.9,1.9-1.9c1,0,1.9,0.9,1.9,1.9S15,18.1,14,18.1z M14,15.8c-0.2,0-0.4,0.2-0.4,0.4
				s0.2,0.4,0.4,0.4s0.4-0.2,0.4-0.4S14.2,15.8,14,15.8z"/>
		</g>
	</g>
	<g id="celular" class="st18">
		<g class="st21">
			<path d="M15.9,22h-8c-1.2,0-2.2-1-2.2-2.2V4.3c0-1.2,1-2.2,2.2-2.2h8c1.2,0,2.2,1,2.2,2.2v15.4C18.1,21,17.1,22,15.9,22z
				 M7.9,3.6c-0.4,0-0.7,0.3-0.7,0.7v15.4c0,0.4,0.3,0.7,0.7,0.7h8c0.4,0,0.8-0.3,0.8-0.7V4.3c0-0.4-0.3-0.7-0.8-0.7H7.9z"/>
		</g>
		<g class="st21">
			<rect x="6.4" y="5.1" width="11" height="1.5"/>
		</g>
		<g class="st21">
			<rect x="6.4" y="16" width="11" height="1.5"/>
		</g>
		<g class="st21">
			<circle cx="11.6" cy="19" r="0.9"/>
		</g>
	</g>
	<g id="desktop" class="st18">
		<g class="st21">
			<path d="M19.8,16.8H4.2c-1.2,0-2.2-1-2.2-2.2V6.2c0-1.2,1-2.2,2.2-2.2h15.6c1.2,0,2.2,1,2.2,2.2v8.3C22,15.7,21,16.8,19.8,16.8z
				 M4.2,5.4c-0.4,0-0.7,0.3-0.7,0.7v8.3c0,0.4,0.3,0.7,0.7,0.7h15.6c0.4,0,0.7-0.3,0.7-0.7V6.2c0-0.4-0.3-0.7-0.7-0.7H4.2z"/>
		</g>
		<g class="st21">
			<path d="M16.3,19.9H7.7c-0.4,0-0.8-0.3-0.8-0.8s0.3-0.8,0.8-0.8h8.6c0.4,0,0.8,0.3,0.8,0.8S16.7,19.9,16.3,19.9z"/>
		</g>
		<g class="st21">
			<path d="M14,19.9h-4v-4.7h4V19.9z M11.5,18.4h1v-1.7h-1V18.4z"/>
		</g>
	</g>
	<g id="visualizar" class="st18">
		<g class="st21">
			<path d="M11.9,19.1c-7.4,0-9.9-6.8-9.9-6.9c-0.1-0.2-0.1-0.4,0-0.6C2.2,11.3,5.5,5,12,5c6.5,0,9.8,6.4,9.9,6.7
				c0.1,0.2,0.1,0.4,0,0.6C21.9,12.3,19.3,19.1,11.9,19.1z M3.6,12c0.5,1.2,2.8,5.6,8.4,5.6c5.6,0,7.9-4.4,8.5-5.6
				c-0.7-1.2-3.6-5.5-8.4-5.5C7.2,6.5,4.2,10.8,3.6,12z"/>
		</g>
		<g class="st21">
			<path d="M12,16.1c-2.2,0-4.1-1.8-4.1-4.1S9.8,8,12,8C14.2,8,16,9.8,16,12S14.2,16.1,12,16.1z M12,9.5c-1.4,0-2.6,1.1-2.6,2.6
				s1.1,2.6,2.6,2.6c1.4,0,2.6-1.1,2.6-2.6S13.4,9.5,12,9.5z"/>
		</g>
		<g class="st21">
			<circle cx="12" cy="12" r="1.4"/>
		</g>
	</g>
	<g id="nao_visualizar_1_" class="st18">
		<g id="nao_visualizar" class="st21">
			<g>
				<path d="M11.9,19.1c-7.4,0-9.9-6.8-9.9-6.9c-0.1-0.2-0.1-0.4,0-0.6C2.2,11.3,5.5,5,12,5c6.5,0,9.8,6.4,9.9,6.7
					c0.1,0.2,0.1,0.4,0,0.6C21.9,12.3,19.3,19.1,11.9,19.1z M3.6,12c0.5,1.2,2.8,5.6,8.4,5.6c5.6,0,7.9-4.4,8.5-5.6
					c-0.7-1.2-3.6-5.5-8.4-5.5C7.2,6.5,4.2,10.8,3.6,12z"/>
			</g>
			<g>
				<path d="M12,16.1c-2.2,0-4.1-1.8-4.1-4.1S9.8,8,12,8C14.2,8,16,9.8,16,12S14.2,16.1,12,16.1z M12,9.5c-1.4,0-2.6,1.1-2.6,2.6
					s1.1,2.6,2.6,2.6c1.4,0,2.6-1.1,2.6-2.6S13.4,9.5,12,9.5z"/>
			</g>
			<g>
				<circle cx="12" cy="12" r="1.4"/>
			</g>
		</g>
		<g class="st21">
			<path d="M3.3,19.8c-0.2,0-0.4-0.1-0.6-0.3c-0.3-0.3-0.2-0.8,0.1-1.1L20.5,4.6c0.3-0.3,0.8-0.2,1.1,0.1c0.3,0.3,0.2,0.8-0.1,1.1
				L3.7,19.6C3.6,19.7,3.4,19.8,3.3,19.8z"/>
		</g>
	</g>
	<g id="editar" class="st18">
		<g class="st21">
			<path d="M18.8,21H5.2C4,21,3,20,3,18.8V5.2C3,4,4,3,5.2,3h9c0.4,0,0.8,0.3,0.8,0.8s-0.3,0.8-0.8,0.8h-9c-0.4,0-0.7,0.3-0.7,0.7
				v13.6c0,0.4,0.3,0.7,0.7,0.7h13.6c0.4,0,0.7-0.3,0.7-0.7V10c0-0.4,0.3-0.8,0.8-0.8S21,9.6,21,10v8.8C21,20,20,21,18.8,21z"/>
		</g>
		<g class="st21">
			<path d="M11.3,14.1c-0.2,0-0.4-0.1-0.5-0.2c-0.2-0.2-0.3-0.5-0.2-0.8l1-3.4c0-0.1,0.1-0.2,0.2-0.3l5.4-5.8c0.9-0.9,2.3-0.9,3.2,0
				l0.2,0.2c0.4,0.4,0.7,1,0.7,1.6S21,6.5,20.5,7l-5.4,5.8c-0.1,0.1-0.2,0.2-0.3,0.2l-3.2,1.1C11.5,14.1,11.4,14.1,11.3,14.1z
				 M14.6,12.2L14.6,12.2L14.6,12.2z M13,10.3l-0.5,1.9l1.7-0.6l5.3-5.7c0.2-0.2,0.2-0.3,0.2-0.5S19.6,5,19.5,4.8l-0.2-0.2
				c-0.3-0.3-0.8-0.3-1.1,0L13,10.3z"/>
		</g>
	</g>
	<g id="email" class="st18">
		<g class="st21">
			<path d="M19.8,20.1H4.1c-1.2,0-2.2-1-2.2-2.2V6.2c0-1.2,1-2.2,2.2-2.2h15.6c1.2,0,2.2,1,2.2,2.2v11.6C22,19.1,21,20.1,19.8,20.1z
				 M4.1,5.4c-0.4,0-0.7,0.3-0.7,0.7v11.6c0,0.4,0.3,0.7,0.7,0.7h15.6c0.4,0,0.7-0.3,0.7-0.7V6.2c0-0.4-0.3-0.7-0.7-0.7H4.1z"/>
		</g>
		<g class="st21">
			<path d="M12,13.8c-0.2,0-0.4-0.1-0.5-0.2L2.7,5.6c-0.3-0.3-0.3-0.8,0-1.1c0.3-0.3,0.8-0.3,1.1,0L12,12l8.3-7.5
				c0.3-0.3,0.8-0.3,1.1,0.1c0.3,0.3,0.3,0.8-0.1,1.1l-8.8,7.9C12.4,13.7,12.2,13.8,12,13.8z"/>
		</g>
		<g class="st21">
			<path d="M3.1,19.6c-0.2,0-0.3-0.1-0.5-0.2c-0.3-0.3-0.4-0.7-0.1-1.1l6.5-8c0.3-0.3,0.7-0.4,1.1-0.1c0.3,0.3,0.4,0.7,0.1,1.1
				l-6.5,8C3.5,19.5,3.3,19.6,3.1,19.6z"/>
		</g>
		<g class="st21">
			<path d="M20.6,19.6c-0.2,0-0.4-0.1-0.6-0.3l-6.3-7.9c-0.3-0.3-0.2-0.8,0.1-1.1c0.3-0.3,0.8-0.2,1.1,0.1l6.3,7.9
				c0.3,0.3,0.2,0.8-0.1,1.1C20.9,19.6,20.7,19.6,20.6,19.6z"/>
		</g>
	</g>
	<g id="telefone" class="st18">
		<path class="st21" d="M16.3,21c-0.2,0-0.4,0-0.6-0.1c-1.3-0.3-3.8-1.3-6.7-3.9l-1.1-1.1c-3.2-3.2-4.4-6.2-4.8-7.6
			C3,7.7,3.1,7,3.4,6.5c0.2-0.3,1.2-2.2,1.8-2.8c0.8-0.8,2.3-0.9,3.3,0l1.8,1.9c0.5,0.5,0.7,1.1,0.6,1.8c-0.1,0.7-0.4,1.3-0.9,1.7
			L9.5,9.4C9,9.8,8.9,9.9,8.9,9.9c0,0,0,0.1,0.3,0.4l4.4,4.5c0.3,0.3,0.4,0.3,0.4,0.3c0,0,0.2-0.1,0.5-0.6l0.3-0.4
			c0.4-0.5,1-0.9,1.7-0.9c0.7-0.1,1.3,0.2,1.8,0.6l1.9,1.8c0.5,0.5,0.7,1.1,0.7,1.7c0,0.6-0.3,1.2-0.6,1.6c-0.6,0.6-2.5,1.6-2.9,1.8
			C17.1,20.9,16.7,21,16.3,21z M6.8,4.5c-0.2,0-0.5,0.1-0.6,0.2C5.9,5,5.1,6.4,4.7,7.2C4.6,7.5,4.5,7.7,4.6,7.9
			c0.3,1.1,1.3,3.9,4.4,7c0,0,0,0,0,0l1,1.1c2.6,2.4,4.9,3.2,6.1,3.5c0.2,0.1,0.4,0,0.6-0.1c0.9-0.5,2.2-1.2,2.5-1.5
			c0.2-0.2,0.3-0.8,0-1.2l-1.9-1.8c-0.2-0.2-0.4-0.2-0.6-0.2c-0.2,0-0.4,0.1-0.6,0.3l-0.3,0.4c-0.4,0.6-0.9,1.2-1.6,1.3
			c-0.7,0.1-1.2-0.4-1.6-0.8l-4.4-4.5c-0.3-0.4-0.8-0.9-0.7-1.6C7.5,9,8.2,8.5,8.6,8.2L9,7.9c0.2-0.1,0.3-0.3,0.3-0.6
			c0-0.2-0.1-0.5-0.2-0.6L7.4,4.7C7.2,4.6,7,4.5,6.8,4.5z"/>
	</g>
	<g id="loja" class="st18">
		<g class="st21">
			<g>
				<path class="st23" d="M4.6,11.5v7.1c0,0.9,0.7,1.5,1.5,1.5h7.2V16c0-0.8,0.7-1.5,1.5-1.5h0.6c0.8,0,1.5,0.7,1.5,1.5l0,4.2h1
					c0.9,0,1.5-0.7,1.5-1.5v-7.1"/>
			</g>
		</g>
		<g class="st21">
			<g>
				<path class="st23" d="M3.9,9.5l2.7-4.9c0.3-0.5,0.8-0.8,1.3-0.8h8.2c0.6,0,1.1,0.3,1.3,0.8l2.7,4.9c0.1,0.3,0.2,0.5,0.2,0.8
					c-0.1,1-1.3,1.6-2.2,1l-1.5-1c-0.4-0.3-1-0.3-1.4-0.1l-2.6,1.2c-0.4,0.2-0.9,0.2-1.3,0l-2.6-1.2C8.4,10,7.9,10,7.4,10.3l-1.5,1
					c-0.9,0.5-2.1,0-2.2-1.1C3.7,10,3.8,9.7,3.9,9.5z"/>
			</g>
		</g>
		<g class="st21">
			<g>
				<line class="st23" x1="5.5" y1="6.8" x2="18.6" y2="6.8"/>
			</g>
		</g>
		<g class="st21">
			<g>
				<path class="st23" d="M9.5,17.1H8.8c-0.8,0-1.5-0.7-1.5-1.5V15c0-0.8,0.7-1.5,1.5-1.5h0.7c0.8,0,1.5,0.7,1.5,1.5v0.6
					C11,16.4,10.3,17.1,9.5,17.1z"/>
			</g>
		</g>
	</g>
	<g id="data_cobrança" class="st18">
		<line class="st24" x1="14.6" y1="18.8" x2="14.6" y2="20"/>
		<path class="st24" d="M10.9,19.1H5.3c-0.8,0-1.5-0.7-1.5-1.5V6.4c0-0.8,0.7-1.5,1.5-1.5h13.6c0.8,0,1.5,0.7,1.5,1.5v11.2
			c0,0.8-0.7,1.5-1.5,1.5H18"/>
		<line class="st24" x1="6" y1="3.8" x2="6" y2="5.7"/>
		<line class="st24" x1="18" y1="3.8" x2="18" y2="5.7"/>
		<line class="st24" x1="14.6" y1="10.5" x2="14.6" y2="11.7"/>
		<line class="st24" x1="3.8" y1="7.8" x2="20.3" y2="7.8"/>
		<path class="st24" d="M16.2,13.3c0,0,0-1.6-1.8-1.6s-1.8,1.8-1.8,1.8s0,1.5,1.6,1.5c1.3,0,1.9,1,1.9,2c0,1.1-1.1,1.5-1.8,1.5
			s-1.7-0.4-1.7-1.5"/>
	</g>
	<g id="data_entrega" class="st18">
		<path class="st24" d="M9,19.1H5.3c-0.8,0-1.5-0.7-1.5-1.5V6.4c0-0.8,0.7-1.5,1.5-1.5h13.6c0.8,0,1.5,0.7,1.5,1.5v11.2
			c0,0.8-0.7,1.5-1.5,1.5H18"/>
		<line class="st24" x1="6" y1="3.8" x2="6" y2="5.7"/>
		<line class="st24" x1="18" y1="3.8" x2="18" y2="5.7"/>
		<line class="st24" x1="3.8" y1="7.8" x2="20.3" y2="7.8"/>
		<path class="st25" d="M13.8,20.2c0,0-3.3-5-3.1-6.8c0.2-2.8,2.7-3,3.1-3s3,0.2,3.1,3C17.1,15.2,13.8,20.2,13.8,20.2L13.8,20.2z"/>
		<circle class="st25" cx="13.8" cy="13.4" r="1"/>
	</g>
	<g id="repetir_pedido" class="st18">
		<g class="st21">
			<path class="st26" d="M14.1,5.7c-4.2-1.3-8.6,1.1-9.9,5.3s1.1,8.6,5.3,9.9c4.2,1.3,8.6-1.1,9.9-5.3c0.4-1.4,0.5-2.9,0.1-4.3
				c-0.1-0.4-0.2-0.8-0.4-1.2c0,0-0.8-1.7-1.7-2.6"/>
			<polyline class="st26" points="13.1,2.8 15.1,6.2 11.6,7.5 			"/>
		</g>
		<polyline class="st25" points="8,12.8 10.2,15.6 15.8,10.7 		"/>
	</g>
	<g id="loja_2_" class="st18">
		<g id="loja_1_" class="st21">
			<g>
				<g>
					<path class="st23" d="M4.6,10v8.6c0,0.9,0.7,1.5,1.5,1.5h7.2V16c0-0.8,0.7-1.5,1.5-1.5h0.6c0.8,0,1.5,0.7,1.5,1.5l0,4.2h1
						c0.9,0,1.5-0.7,1.5-1.5V10"/>
				</g>
			</g>
			<g>
				<g>
					<path class="st23" d="M18.6,6.8"/>
					<path class="st23" d="M5.5,6.8"/>
				</g>
			</g>
			<g>
				<g>
					<path class="st23" d="M9.5,17.1H8.8c-0.8,0-1.5-0.7-1.5-1.5V15c0-0.8,0.7-1.5,1.5-1.5h0.7c0.8,0,1.5,0.7,1.5,1.5v0.6
						C11,16.4,10.3,17.1,9.5,17.1z"/>
				</g>
			</g>
		</g>
		<path class="st27" d="M20.2,9.2L20.2,9.2c-0.8,1-2,1-2.9,0l0,0H17l0,0c-0.8,1-2.4,1-3.2,0l0,0h-0.3l0,0c-0.8,1-2.4,1-3.2,0l0,0
			h-0.3l0,0c-0.8,1-2.4,1-3.2,0l0,0H6.7l0,0C5.2,11,3.8,10,3.8,9.2s1-4.3,1-4.3C5,4.2,5.6,3.8,6.2,3.8h11.6c0.7,0,1.3,0.5,1.5,1.1
			C19.3,4.9,20,8.3,20.2,9.2C20.4,10.2,20.2,9.2,20.2,9.2z"/>
		<line class="st24" x1="6.7" y1="9.2" x2="6.7" y2="7.7"/>
		<line class="st24" x1="10.3" y1="9.2" x2="10.3" y2="7.7"/>
		<line class="st24" x1="13.7" y1="9.2" x2="13.7" y2="7.7"/>
		<line class="st24" x1="17" y1="9.2" x2="17" y2="7.7"/>
		<line class="st24" x1="4.4" y1="6.8" x2="19.6" y2="6.8"/>
	</g>
	<g id="loja_nova" class="st18">
		<g class="st21">
			<path d="M13.3,13.5c-0.6,0-1,0.4-1,1V17c0,0.6,0.4,1,1,1h2.5c0.6,0,1-0.4,1-1v-2.5c0-0.6-0.4-1-1-1H13.3z M15.3,16.5h-1.5V15h1.5
				V16.5z"/>
			<path d="M20.9,9.1l-2.5-5.3C18.1,3.3,17.5,3,17,3H7C6.5,3,5.9,3.3,5.7,3.8L3.1,9.1C3,9.4,3,9.6,3,9.9c0.1,0.7,0.5,1.2,1.1,1.6v8
				c0,0.8,0.7,1.5,1.5,1.5H8h1.9h8.3c0.8,0,1.5-0.7,1.5-1.5v-7.8c0.7-0.4,1.2-1.1,1.3-1.9C21,9.5,21,9.3,20.9,9.1z M7,4.5h10
				l1.1,2.3l0.2,0.5H5.7L7,4.5z M9.4,19.5H8.5v-4.5h0.9V19.5z M18.2,19.5h-7.3v-5c0-0.5-0.4-1-1-1H8c-0.5,0-1,0.4-1,1v5H5.6V12
				c0.1,0,0.1,0,0.2,0c0.8,0,1.6-0.3,2.1-0.9c0.5,0.5,1.2,0.9,2.1,0.9s1.6-0.3,2.1-0.9c0.5,0.5,1.2,0.9,2.1,0.9
				c0.8,0,1.6-0.3,2.1-0.9c0.5,0.5,1.2,0.9,2.1,0.9V19.5z M18.2,10.6c-0.7,0-1.3-0.5-1.3-1.1h-1.5c0,0.6-0.6,1.1-1.3,1.1
				s-1.3-0.5-1.3-1.1h-1.5c0,0.6-0.6,1.1-1.3,1.1c-0.7,0-1.3-0.5-1.3-1.1H7.1c0,0.6-0.6,1.1-1.3,1.1c-0.7,0-1.2-0.4-1.3-1l0.4-0.8
				h14.2l0.4,0.8C19.4,10.1,18.9,10.6,18.2,10.6z"/>
		</g>
	</g>
	<g id="não_usar_abaixo" class="st18">
	</g>
	<g id="cobrança" class="st18">
		<path class="st21" d="M19.5,4.3h-2.7V3.7c0-0.4-0.3-0.8-0.8-0.8c-0.4,0-0.8,0.3-0.8,0.8v0.6H8.7V3.7c0-0.4-0.3-0.8-0.8-0.8
			c-0.4,0-0.8,0.3-0.8,0.8v0.6H4.5C3.7,4.3,3,4.9,3,5.8v13.7C3,20.3,3.7,21,4.5,21h4.4h0.4h1c0.4,0,0.7-0.3,0.7-0.8
			s-0.3-0.8-0.7-0.8h-1H8.9H4.5v-10h15v10H19h-0.2c-0.4,0-0.8,0.3-0.8,0.8s0.3,0.8,0.8,0.8H19h0.5h0c0,0,0,0,0,0
			c0.8,0,1.5-0.7,1.5-1.5V5.8C21,4.9,20.3,4.3,19.5,4.3z M19.5,8h-15V5.8h2.7v0.6c0,0.4,0.3,0.8,0.8,0.8c0.4,0,0.8-0.3,0.8-0.8V5.8
			h6.6v0.6c0,0.4,0.3,0.8,0.8,0.8c0.4,0,0.8-0.3,0.8-0.8V5.8h2.7V8z"/>
		<path class="st21" d="M16.2,15.6c-0.3-0.3-0.8-0.7-1.7-0.7c0,0,0,0,0,0c-0.3,0-0.6-0.1-0.7-0.2c-0.2-0.2-0.2-0.6-0.2-0.6
			c0-0.5,0.4-0.9,0.9-0.9c0.3,0,0.6,0.2,0.8,0.5c0.2,0.4,0.6,0.5,1,0.4c0.4-0.2,0.6-0.6,0.4-1c-0.3-0.6-0.8-1.1-1.4-1.3v-1
			c0-0.4-0.3-0.8-0.8-0.8s-0.8,0.3-0.8,0.8v1c-0.9,0.3-1.6,1.2-1.6,2.1c0,0.1-0.1,1,0.6,1.7c0.3,0.3,0.9,0.7,1.8,0.7
			c0.4,0,0.6,0.1,0.6,0.2c0.2,0.2,0.2,0.6,0.2,0.8c0,0.5-0.4,0.9-0.9,0.9c-0.3,0-0.6-0.2-0.8-0.5c-0.2-0.4-0.6-0.5-1-0.3
			c-0.4,0.2-0.5,0.6-0.3,1c0.3,0.6,0.8,1,1.4,1.2v0.9c0,0.4,0.3,0.8,0.8,0.8s0.8-0.3,0.8-0.8v-0.9c0.9-0.3,1.6-1.2,1.6-2.2
			C16.8,17.3,16.9,16.3,16.2,15.6z"/>
	</g>
	<g id="Camada_11" class="st18">
		<g class="st21">
			<path class="st28" d="M38.6,14.9c0,1,0.8,1.8,1.8,1.8c1,0,1.8-0.8,1.8-1.8c0,0,0.1-2-1.8-2c-2,0-1.8-1.8-1.8-1.8
				c0-1,0.8-1.8,1.8-1.8c1,0,1.8,0.8,1.8,1.8"/>
			<line class="st28" x1="40.4" y1="9.3" x2="40.4" y2="8.2"/>
			<line class="st28" x1="40.4" y1="17.8" x2="40.4" y2="16.7"/>
		</g>
	</g>
	<g id="border" class="st18">
		<g class="st21">
			<g>
				<defs>
					<rect id="SVGID_33_" width="24" height="24"/>
				</defs>
				<clipPath id="SVGID_34_">
					<use xlink:href="#SVGID_33_"  style="overflow:visible;"/>
				</clipPath>
				<g class="st29">
					<g>
						<defs>
							<rect id="SVGID_35_" x="0" y="0" width="24" height="24"/>
						</defs>
						<clipPath id="SVGID_36_">
							<use xlink:href="#SVGID_35_"  style="overflow:visible;"/>
						</clipPath>
						<g style="clip-path:url(#SVGID_36_);">
							
								<use xlink:href="#material_x5F_system_x5F_icon_x5F_border"  width="48" height="48" id="XMLID_2_" x="-24" y="-24" transform="matrix(0.5 0 0 -0.5 11.9999 11.9999)" style="overflow:visible;"/>
						</g>
					</g>
				</g>
			</g>
		</g>
	</g>
	<g id="check" class="st18">
		<path class="st21" d="M12,2.1c-5.5,0-9.9,4.5-9.9,9.9c0,5.5,4.5,9.9,9.9,9.9c5.5,0,9.9-4.5,9.9-9.9C21.9,6.5,17.5,2.1,12,2.1z
			 M12,20.4c-4.7,0-8.4-3.8-8.4-8.4c0-4.7,3.8-8.4,8.4-8.4c4.7,0,8.4,3.8,8.4,8.4C20.4,16.7,16.7,20.4,12,20.4z"/>
		<path class="st21" d="M16.4,8L10,14.4l-2.4-2.4c-0.3-0.3-0.8-0.3-1.1,0s-0.3,0.8,0,1.1l3.5,3.5l7.4-7.4c0.3-0.3,0.3-0.8,0-1.1
			C17.2,7.8,16.7,7.8,16.4,8z"/>
	</g>
	<g id="grid" class="st30">
		<g class="st21">
			<g>
				<defs>
					<rect id="SVGID_37_" width="24" height="24"/>
				</defs>
				<clipPath id="SVGID_38_">
					<use xlink:href="#SVGID_37_"  style="overflow:visible;"/>
				</clipPath>
				<g class="st31">
					<g>
						<defs>
							<rect id="SVGID_39_" x="0" y="0" width="24" height="24"/>
						</defs>
						<clipPath id="SVGID_40_">
							<use xlink:href="#SVGID_39_"  style="overflow:visible;"/>
						</clipPath>
						<g style="clip-path:url(#SVGID_40_);">
							
								<use xlink:href="#material_x5F_system_x5F_icon_x5F_grid"  width="48" height="48" id="XMLID_1_" x="-24" y="-24" transform="matrix(0.5 0 0 -0.5 11.9999 11.9999)" style="overflow:visible;"/>
						</g>
					</g>
				</g>
			</g>
		</g>
	</g>
	<g id="keylines" class="st18">
		<g class="st21">
			<g>
				<defs>
					<rect id="SVGID_41_" width="24" height="24"/>
				</defs>
				<clipPath id="SVGID_42_">
					<use xlink:href="#SVGID_41_"  style="overflow:visible;"/>
				</clipPath>
				<g class="st32">
					<g>
						<defs>
							<rect id="SVGID_43_" x="0" y="0" width="24" height="24"/>
						</defs>
						<clipPath id="SVGID_44_">
							<use xlink:href="#SVGID_43_"  style="overflow:visible;"/>
						</clipPath>
						<g style="clip-path:url(#SVGID_44_);">
							
								<use xlink:href="#material_x5F_system_x5F_icon_x5F_keylines"  width="48" height="48" id="XMLID_3_" x="-24" y="-24" transform="matrix(0.5 0 0 -0.5 11.9999 11.9999)" style="overflow:visible;"/>
						</g>
					</g>
				</g>
			</g>
		</g>
	</g>
	<g id="data_de_cobrança" class="st18">
		<g class="st21">
			<path d="M7.9,7.4c0.4,0,0.8-0.3,0.8-0.8v-3c0-0.4-0.3-0.8-0.8-0.8S7.1,3.2,7.1,3.7v3C7.1,7.1,7.5,7.4,7.9,7.4z"/>
			<path d="M15.9,7.5c0.4,0,0.8-0.3,0.8-0.8v-3c0-0.4-0.3-0.8-0.8-0.8s-0.8,0.3-0.8,0.8v3C15.1,7.1,15.5,7.5,15.9,7.5z"/>
			<path d="M19.6,4.3h-2.2v2.4c0,0.8-0.7,1.5-1.5,1.5s-1.5-0.7-1.5-1.5V4.3h-5v2.4c0,0.8-0.7,1.5-1.5,1.5S6.4,7.5,6.4,6.7V4.3h-2
				C3.6,4.3,2.9,5,2.9,5.8v3.3h18.1V5.8C21.1,5,20.4,4.3,19.6,4.3z"/>
			<path d="M15.2,10.9v1c0.6,0.2,1.1,0.7,1.4,1.3c0.2,0.4,0,0.8-0.4,1c-0.4,0.2-0.8,0-1-0.4c-0.1-0.3-0.4-0.5-0.8-0.5
				c-0.5,0-0.9,0.4-0.9,0.9c0,0.1,0,0.4,0.2,0.6c0.1,0.1,0.4,0.2,0.7,0.2c0,0,0,0,0,0c0.9,0,1.4,0.4,1.7,0.7
				c0.7,0.7,0.6,1.7,0.6,1.9c0,1-0.7,1.9-1.6,2.2v0.9c0,0.2-0.1,0.4-0.2,0.5h4.4c0.8,0,1.5-0.7,1.5-1.5v-9h-5.8
				C15.2,10.6,15.2,10.8,15.2,10.9z"/>
			<path d="M12.7,17.4c0.4-0.2,0.8,0,1,0.3c0.1,0.3,0.4,0.5,0.8,0.5c0.5,0,0.9-0.4,0.9-0.9c0-0.2,0-0.6-0.2-0.8c0,0-0.2-0.2-0.6-0.2
				c-0.9,0-1.5-0.4-1.8-0.7C12,15,12.1,14.1,12.1,14c0-1,0.7-1.8,1.6-2.1v-1c0-0.1,0-0.2,0.1-0.3H2.9v9c0,0.8,0.7,1.5,1.5,1.5h9.5
				c-0.1-0.1-0.2-0.3-0.2-0.5v-0.9c-0.6-0.2-1.1-0.6-1.4-1.2C12.2,18.1,12.3,17.6,12.7,17.4z"/>
		</g>
	</g>
	<g id="estrela_-_avaliacao_1_" class="st18">
		<g class="st21">
			<path d="M6.6,20.9c-0.2-0.2-0.3-0.4-0.2-0.7l0.8-5.7l-3.7-3.7c-0.2-0.3-0.3-0.6-0.2-0.9c0.1-0.4,0.4-0.5,0.6-0.5l4.8-0.8l2.8-5
				c0.2-0.3,0.3-0.4,0.6-0.4c0.3,0,0.4,0.1,0.6,0.4l2.8,4.8l4.8,0.9c0.4,0.1,0.6,0.3,0.6,0.6c0,0.3-0.1,0.5-0.2,0.7L17,14.3l1,5.7
				c0,0.4,0.1,0.5-0.1,0.8c-0.3,0.3-0.7,0.2-1,0l-4.8-2.7l-4.6,2.8C7.4,21.1,6.8,21,6.6,20.9z"/>
		</g>
	</g>
	<g class="st18">
		<path class="st21" d="M20.5,19.5L20.5,19.5l-4.2-4.2c2.6-3.2,2.1-7.9-1.1-10.5c-2.7-2.2-6.7-2.2-9.4,0C5.4,5,5,5.3,4.7,5.7
			c-2.6,3.2-2.1,7.9,1.1,10.5c2.7,2.2,6.7,2.2,9.4,0l4.2,4.2c0.3,0.3,0.8,0.3,1.1,0C20.8,20.2,20.8,19.8,20.5,19.5z M12.7,11.3h-1.2
			h-0.2v1.3c0,0.4-0.3,0.7-0.8,0.7S9.8,13,9.8,12.6v-1.3H9.4H8.3c-0.4,0-0.8-0.3-0.8-0.8s0.3-0.8,0.8-0.8h1.2h0.3V8.3
			c0-0.4,0.3-0.8,0.8-0.8s0.8,0.3,0.8,0.8v1.5h0.2h1.2c0.4,0,0.8,0.3,0.8,0.8S13.1,11.3,12.7,11.3z"/>
		<path class="st33" d="M12.7,9.8h-1.2h-0.2V8.3c0-0.4-0.3-0.8-0.8-0.8S9.8,7.8,9.8,8.3v1.5H9.5H8.3c-0.4,0-0.8,0.3-0.8,0.8
			s0.3,0.8,0.8,0.8h1.1h0.4v1.3c0,0.4,0.3,0.7,0.8,0.7s0.8-0.3,0.8-0.7v-1.3h0.2h1.2c0.4,0,0.8-0.3,0.8-0.8S13.1,9.8,12.7,9.8z"/>
	</g>
	<g id="loja_3_" class="st18">
		<path class="st21" d="M20.2,11.1c0,0-1.3,0.4-2,0.4c-0.8,0-1.1-0.4-1.1-0.4s-0.7,0.4-2,0.4s-1.5-0.4-1.5-0.4s-0.7,0.5-2,0.5
			s-1.7-0.5-1.7-0.5s-0.5,0.5-1.6,0.5s-1.6-0.5-1.6-0.5s-0.4,0.5-1.1,0.5s-1.8-0.5-1.8-0.5l0.1,8.3c0,0.9,1.4,1.5,2.3,1.5h7.2l0-5.2
			c0-0.8,0.7-1.5,1.5-1.5h0.6c0.8,0,1.5,0.7,1.5,1.5l0,5.2h1c0.9,0,2.1-0.7,2.3-1.5C20.3,19.2,20.2,11.1,20.2,11.1z M11.5,15.6
			c0,1.1-0.9,2-2,2H8.8c-1.1,0-2-0.9-2-2V15c0-1.1,0.9-2,2-2h0.7c1.1,0,2,0.9,2,2V15.6z"/>
		<g class="st21">
			<path d="M20.2,5.2c0-0.3-0.1-0.4-0.1-0.4c-0.2-1-1.1-1.7-2.2-1.7H6.2c-1,0-1.9,0.7-2.2,1.7C4,4.8,4,5,3.9,5.2H20.2z"/>
			<path d="M15.4,8.2c0.6,0,1.1-0.3,1.1-0.3l-0.1-2h-2.2l0,2.1C14.4,8,14.8,8.2,15.4,8.2z"/>
			<path d="M20.9,9.1c0-0.1,0-0.1,0-0.2c-0.4,0.1-0.8,0.4-1.3,0.4c-1.6,0-2.4-0.7-2.4-0.7s-1,0.7-1.9,0.7c-0.9,0-1.6-0.7-1.6-0.7
				s-0.8,0.6-1.8,0.6c-1,0-1.7-0.6-1.7-0.6S9.6,9.3,8.5,9.3c-1.1,0-1.8-0.7-1.8-0.7S5.7,9.5,4.6,9.5c-0.5,0-1.1-0.3-1.5-0.4
				c0,0.1,0,0.1,0,0.2c0,0.7,0.5,1.3,1.2,1.6C4.4,10.9,4.7,11,5,11c0.5,0,1.1-0.2,1.8-0.8c1,0.7,2.5,0.7,3.4,0c1,0.8,2.5,0.8,3.5,0
				c1,0.8,2.5,0.8,3.5,0c1.1,0.9,3.2,0.7,3.6-0.5C20.9,9.2,20.9,9.1,20.9,9.1L20.9,9.1z"/>
			<path d="M17.7,7.7c0.3,0.4,0.9,0.6,1.9,0.6c0.5,0,0.9-0.1,1.1-0.2c-0.1-0.4-0.3-1.6-0.4-2.1c-1.1,0-2.6,0-2.6,0L17.7,7.7z"/>
			<path d="M4.3,8.4C5.2,8.5,6,8.1,6,8.1L6.1,6H3.8C3.6,6.5,3.4,7.8,3.3,8.3C3.6,8.3,4,8.4,4.3,8.4z"/>
			<path d="M8.6,8.2c0.6,0,1.1-0.3,1.1-0.3L9.6,6H7.4l0,2.1C7.5,8,7.9,8.2,8.6,8.2z"/>
			<path d="M11.9,8.2c0.6,0,1.1-0.3,1.1-0.3l-0.1-2h-2.2l0,2.1C10.8,8,11.3,8.2,11.9,8.2z"/>
		</g>
	</g>
	<g id="data_cobrança_1_" class="st18">
		<g class="st21">
			<path d="M20.5,5c-0.6-0.9-1.8-0.9-1.8-0.9V3.6c0,0,0-0.6-0.7-0.6c-0.8,0-0.7,0.6-0.7,0.6v0.6H6.7V3.6c0,0,0-0.6-0.7-0.6
				C5.3,3,5.3,3.5,5.3,3.5v0.7c0,0-0.5-0.1-1.3,0.4C2.9,5.3,3,6.4,3,6.4s0,8.4,0,10.9c0,2.5,2,2.6,2,2.6h8.8v-0.7
				c-1.2-0.4-1.6-0.9-1.8-1.5c-0.2-0.6-0.2-1.4,0.5-1.4c0.7,0,0.8,0.5,0.9,0.8c0,0.3,0.3,0.7,1,0.7c0.7-0.1,1-0.4,1-1
				s-0.5-0.8-0.8-0.9c-0.3-0.1-1.2,0-1.8-0.5s-1-1.2-0.8-2.6s1.8-1.7,1.8-1.7v-0.6c0,0,0.1-0.6,0.7-0.6s0.8,0.6,0.8,0.6v0.8
				c1.3,0.2,1.7,2,1.7,2s0.1,0.9-0.8,0.9s-0.8-0.8-0.8-1c0-0.3-0.7-0.8-1.4-0.5s-0.6,1.5-0.2,1.6c0.4,0.2,1.3,0.2,1.3,0.2
				s1.8,0.6,1.9,2.5c0.1,1.9-1.7,2.3-1.7,2.3v0.8H19c0.5,0,0.8-0.1,1.4-0.7c0.6-0.5,0.6-1.5,0.6-1.5V6.5C21,6.5,21.1,5.9,20.5,5z
				 M19.5,7.8l-15,0.1V6.2c0,0,0.1-0.5,0.7-0.5c0,0-0.1,0.8,0.8,0.8c0.9,0,0.7-0.8,0.7-0.8h10.5c0,0-0.2,0.8,0.7,0.8
				c0.9,0,0.7-0.8,0.7-0.8s0.8-0.1,0.8,0.5C19.5,6.8,19.5,7.8,19.5,7.8z"/>
		</g>
	</g>
	<g id="Camada_6" class="st18">
		<g class="st21">
			<path d="M20.5,5c-0.6-0.9-1.8-0.9-1.8-0.9V3.6c0,0,0-0.6-0.7-0.6c-0.8,0-0.7,0.6-0.7,0.6v0.6H6.7V3.6c0,0,0-0.6-0.7-0.6
				C5.3,3,5.3,3.5,5.3,3.5v0.7c0,0-0.5-0.1-1.3,0.4C2.9,5.3,3,6.4,3,6.4s0,8.4,0,10.9c0,2.5,2,2.6,2,2.6h7.3h0.4
				c-1-1.6-2.9-4.9-2.8-6.6c0.2-2.9,2.6-3.7,3.9-3.7c1.3,0,3.7,0.8,3.9,3.7c0.1,1.6-1.8,5-2.8,6.6h2H19c0.5,0,0.8-0.1,1.4-0.7
				c0.6-0.5,0.6-1.5,0.6-1.5V6.5C21,6.5,21.1,5.9,20.5,5z M19.5,7.8l-15,0.1V6.2c0,0,0.1-0.5,0.7-0.5c0,0-0.1,0.8,0.8,0.8
				c0.9,0,0.7-0.8,0.7-0.8h10.5c0,0-0.2,0.8,0.7,0.8c0.9,0,0.7-0.8,0.7-0.8s0.8-0.1,0.8,0.5C19.5,6.8,19.5,7.8,19.5,7.8z"/>
			<path d="M13.8,11.6c-1,0-1.8,0.8-1.8,1.8s0.8,1.8,1.8,1.8c1,0,1.8-0.8,1.8-1.8S14.8,11.6,13.8,11.6z"/>
		</g>
	</g>
	<g id="Camada_7" class="st18">
		<g class="st21">
			<path d="M12,2c-5.5,0-9.9,4.4-9.9,9.9c0,5.5,4.4,9.9,9.9,9.9s9.9-4.4,9.9-9.9C21.9,6.4,17.5,2,12,2z M18.4,13.6
				c-0.9,3.5-3.6,5-6.3,5.1s-4.8-1.8-5.2-2.4C6.5,15.7,3.8,12.2,6.9,8c2.9-3.3,6.4-2.3,6.4-2.3l-0.8-1.3c0,0-0.2-0.4,0.2-0.7
				c0.5-0.3,0.8,0.1,0.8,0.1l1.6,2.6c0,0,0.1,0.3,0.1,0.5c-0.1,0.3-0.2,0.3-0.2,0.3l-2.9,1.1c0,0-0.5,0.2-0.7-0.4
				c-0.2-0.5,0.4-0.7,0.4-0.7L13,6.8c0,0-3.2-0.8-5.4,2.1c-2.1,3-0.7,6.2,0.7,7.2c0,0,1.4,1.6,3.9,1.5c2.5-0.1,4.4-1.7,5.1-3.9
				c0.7-2.2-0.1-4.2-1.4-5.7c0,0-0.3-0.4,0.2-0.8c0.4-0.3,0.8,0.1,0.8,0.1S19.3,10.1,18.4,13.6z M15.5,9.8c0.4,0.4,0,0.8,0,0.8
				l-4.3,3.7c0,0-0.2,0.2-0.5,0.2s-0.4-0.2-0.4-0.2L8.7,12c0,0-0.3-0.4,0.1-0.7c0.5-0.4,0.8,0,0.8,0l1.4,1.7l3.9-3.3
				C14.9,9.7,15.2,9.5,15.5,9.8z"/>
		</g>
	</g>
	<g id="check_1_">
		<path d="M12,2.1c-5.5,0-9.9,4.5-9.9,9.9c0,5.5,4.5,9.9,9.9,9.9c5.5,0,9.9-4.5,9.9-9.9C21.9,6.5,17.5,2.1,12,2.1z M17.4,9.1
			L10,16.5L6.5,13c-0.3-0.3-0.3-0.8,0-1.1s0.8-0.3,1.1,0l2.4,2.4L16.4,8c0.3-0.3,0.8-0.3,1.1,0C17.7,8.3,17.7,8.8,17.4,9.1z"/>
	</g>
</g>
<g id="Camada_4">
</g>
</svg>
