<svg xmlns="http://www.w3.org/2000/svg" xmlns:xlink="http://www.w3.org/1999/xlink" width="30" height="30" viewBox="0 0 30 30">
  <defs>
    <clipPath id="clip-path">
      <rect id="Retângulo_486" data-name="Retângulo 486" width="30" height="30" fill="#fff" stroke="#eee" stroke-width="1"/>
    </clipPath>
  </defs>
  <g id="Icone_1" data-name="Icone 1" transform="translate(-381 -298)" style="isolation: isolate">
    <g id="Icone" transform="translate(20 85)" style="isolation: isolate">
      <g id="Icon" transform="translate(361 213)" style="isolation: isolate">
        <g id="guide">
          <g id="Grupo_de_máscara_199" data-name="Grupo de máscara 199" clip-path="url(#clip-path)">
            <g id="Camada_2" data-name="Camada 2" transform="translate(0 0.042)">
              <g id="Camada_45_cópia" data-name="Camada 45 cópia">
                <path id="Caminho_750" data-name="Caminho 750" d="M10.7,9.782a.923.923,0,1,0,.923.923.923.923,0,0,0-.923-.923Zm0,0a.923.923,0,1,0,.923.923.923.923,0,0,0-.923-.923Zm17.4,8.674c.319-1.174,1.9-2.232,1.9-3.507s-1.577-2.332-1.9-3.507.5-2.919-.117-3.993-2.517-1.208-3.356-2.1S23.607,2.584,22.534,2a2.047,2.047,0,0,0-1.057-.235c-.721,0-1.527.2-2.248.2a3.087,3.087,0,0,1-.772-.067C17.332,1.577,16.275,0,15,0s-2.332,1.577-3.507,1.9a3.087,3.087,0,0,1-.688.084c-.721,0-1.527-.2-2.248-.2A2.013,2.013,0,0,0,7.5,2.013C6.409,2.634,6.292,4.53,5.4,5.369s-2.768,1.023-3.356,2.1.2,2.768-.117,3.993S0,13.725,0,15s1.577,2.332,1.9,3.456-.5,2.919.117,3.993,2.517,1.208,3.356,2.1,1.007,2.768,2.1,3.356a2.013,2.013,0,0,0,1.057.235c.721,0,1.527-.2,2.248-.2a3.087,3.087,0,0,1,.688.084c1.174.319,2.232,1.9,3.507,1.9s2.332-1.577,3.507-1.9a3.087,3.087,0,0,1,.688-.084c.721,0,1.527.2,2.248.2a2.047,2.047,0,0,0,1.057-.235c1.074-.621,1.208-2.517,2.1-3.356s2.768-1.007,3.356-2.1S27.785,19.732,28.1,18.456ZM7.265,10.7a3.44,3.44,0,1,1,3.44,3.44A3.44,3.44,0,0,1,7.265,10.7Zm3.188,10.654a1.191,1.191,0,0,1-.889.453,1.242,1.242,0,0,1-.889-.369,1.258,1.258,0,0,1,0-1.779L19.53,8.725A1.258,1.258,0,0,1,21.309,10.5Zm8.826,1.359a3.356,3.356,0,1,1,3.356-3.356A3.356,3.356,0,0,1,19.279,22.718Zm0-4.346a.923.923,0,1,0,.923.906.906.906,0,0,0-.923-.822ZM11.628,10.7a.923.923,0,1,0-.923.923.923.923,0,0,0,.923-.923Z"/>
              </g>
            </g>
          </g>
        </g>
      </g>
    </g>
  </g>
</svg>
