<svg xmlns="http://www.w3.org/2000/svg" xmlns:xlink="http://www.w3.org/1999/xlink" width="30" height="30" viewBox="0 0 30 30">
  <defs>
    <clipPath id="clip-path">
      <rect id="Ret칙ngulo_983" data-name="Ret칙ngulo 983" width="30" height="30" transform="translate(381 298)" fill="#fff" stroke="#707070" stroke-width="1"/>
    </clipPath>
  </defs>
  <g id="Icone_1" data-name="Icone 1" transform="translate(-381 -298)" style="isolation: isolate">
    <g id="Grupo_de_m치scara_229" data-name="Grupo de m치scara 229" clip-path="url(#clip-path)">
      <g id="Camada_4" transform="translate(378 295)">
        <g id="Grupo_1948" data-name="Grupo 1948">
          <path id="Caminho_821" data-name="Caminho 821" d="M18,3A15,15,0,1,0,33,18,15.044,15.044,0,0,0,18,3Zm0,24.9a1.5,1.5,0,1,1,1.5-1.5A1.417,1.417,0,0,1,18,27.9Zm2.7-9.3a2.791,2.791,0,0,0-1.95,3.3A1.073,1.073,0,0,1,18,23.25h-.3a1.128,1.128,0,0,1-1.05-.75,4.949,4.949,0,0,1,3.15-6,3.253,3.253,0,0,0,1.8-2.7,3.45,3.45,0,1,0-6.9,0c-.15.6-.6,1.2-1.2,1.2a1.29,1.29,0,0,1-1.2-1.2,5.7,5.7,0,0,1,11.4,0A4.794,4.794,0,0,1,20.7,18.6Z"/>
        </g>
      </g>
    </g>
  </g>
</svg>
