<svg xmlns="http://www.w3.org/2000/svg" xmlns:xlink="http://www.w3.org/1999/xlink" width="30" height="30" viewBox="0 0 30 30">
  <defs>
    <clipPath id="clip-path">
      <rect id="Retângulo_486" data-name="Retângulo 486" width="30" height="30" fill="#fff" stroke="#eee" stroke-width="1"/>
    </clipPath>
  </defs>
  <g id="Icone" transform="translate(-361 -213)" style="isolation: isolate">
    <g id="Icon" transform="translate(361 213)" style="isolation: isolate">
      <g id="guide">
        <g id="Grupo_de_máscara_270" data-name="Grupo de máscara 270" clip-path="url(#clip-path)">
          <g id="Camada_2" data-name="Camada 2" transform="translate(4.479 -0.061)">
            <g id="Camada_70_cópia" data-name="Camada 70 cópia">
              <path id="Caminho_990" data-name="Caminho 990" d="M21.042,10.521A10.521,10.521,0,1,0,9.394,21.042v3.442H6.012a1.127,1.127,0,1,0,0,2.255H9.394v2.194a1.127,1.127,0,0,0,2.255,0V26.679H15.03a1.127,1.127,0,0,0,0-2.255H11.648V21.042a10.521,10.521,0,0,0,9.394-10.521ZM10.521,18.788a8.267,8.267,0,1,1,8.267-8.267,8.267,8.267,0,0,1-8.267,8.267Z"/>
            </g>
          </g>
        </g>
      </g>
    </g>
  </g>
</svg>
