<svg xmlns="http://www.w3.org/2000/svg" xmlns:xlink="http://www.w3.org/1999/xlink" width="32" height="30" viewBox="0 0 32 30">
  <defs>
    <clipPath id="clip-path">
      <rect id="Retângulo_913" data-name="Retângulo 913" width="30" height="30" transform="translate(383 298)" fill="#fff" stroke="#707070" stroke-width="1"/>
    </clipPath>
    <clipPath id="clip-path-2">
      <rect id="Retângulo_997" data-name="Retângulo 997" width="30" height="30" transform="translate(381 298)" fill="red" stroke="#707070" stroke-width="1"/>
    </clipPath>
  </defs>
  <g id="Icone_1" data-name="Icone 1" transform="translate(-381 -298)" style="isolation: isolate">
    <g id="Grupo_de_máscara_202" data-name="Grupo de máscara 202" clip-path="url(#clip-path-2)">
      <g id="Camada_2" data-name="Camada 2" transform="translate(381 298.31)">
        <g id="Camada_47_cópia" data-name="Camada 47 cópia">
          <path id="Caminho_757" data-name="Caminho 757" d="M30,14.69a14.867,14.867,0,0,1-15,14.69A14.867,14.867,0,0,1,0,14.69,14.867,14.867,0,0,1,15,0a15.074,15.074,0,0,1,9.621,3.429V1.759A1.079,1.079,0,0,1,25.729.65a1.094,1.094,0,0,1,1.094,1.108V6.192a1.094,1.094,0,0,1-.31.783,1.034,1.034,0,0,1-.783.325H21.3a1.123,1.123,0,0,1-1.108-1.108,1.138,1.138,0,0,1,.325-.783,1.02,1.02,0,0,1,.783-.325h1.847a12.768,12.768,0,0,0-8.128-2.867A12.65,12.65,0,0,0,2.217,14.69,12.635,12.635,0,0,0,15,27.163,12.635,12.635,0,0,0,27.783,14.69a1.108,1.108,0,1,1,2.217,0Z"/>
          <path id="Caminho_758" data-name="Caminho 758" d="M20.379,23.158H10.034a2.217,2.217,0,0,1-2.217-2.217V12.828H22.6v8.113a2.217,2.217,0,0,1-2.217,2.217Z"/>
          <path id="Caminho_759" data-name="Caminho 759" d="M22.6,11.365h-.133A1.655,1.655,0,0,0,22.3,11Z"/>
          <path id="Caminho_760" data-name="Caminho 760" d="M22.463,11.365H7.921a3.606,3.606,0,0,1,.148-.355h0L9.9,8.276A2.246,2.246,0,0,1,11.823,7.3h6.606a2.187,2.187,0,0,1,1.744.857l2,2.7.089.133a1.655,1.655,0,0,1,.207.369Z"/>
        </g>
      </g>
    </g>
  </g>
</svg>
