<svg xmlns="http://www.w3.org/2000/svg" xmlns:xlink="http://www.w3.org/1999/xlink" width="30" height="30" viewBox="0 0 30 30">
  <defs>
    <clipPath id="clip-path">
      <rect id="Ret칙ngulo_996" data-name="Ret칙ngulo 996" width="30" height="30" transform="translate(381 298)" fill="#fff" stroke="#707070" stroke-width="1"/>
    </clipPath>
  </defs>
  <g id="Icone_1" data-name="Icone 1" transform="translate(-381 -298)" style="isolation: isolate">
    <g id="Grupo_de_m치scara_247" data-name="Grupo de m치scara 247" clip-path="url(#clip-path)">
      <g id="sem_conexao" transform="translate(376.167 293.402)">
        <path id="Caminho_872" data-name="Caminho 872" d="M34.6,15.4a15.338,15.338,0,0,0-4.47-4.139L31.953,9.6a1.288,1.288,0,1,0-1.821-1.821L27.814,9.933a18.628,18.628,0,0,0-22.681,5.3A1.311,1.311,0,0,0,5.3,17.052a1.506,1.506,0,0,0,1.821-.166,15.95,15.95,0,0,1,12.748-5.96,19.139,19.139,0,0,1,6.126,1.159l-2.814,2.649a10.675,10.675,0,0,0-3.311-.5,12.887,12.887,0,0,0-10.1,4.8,1.293,1.293,0,1,0,1.987,1.656,9.963,9.963,0,0,1,8.112-3.973h1.159l-4.3,4.139a7.429,7.429,0,0,0-2.152,1.821.608.608,0,0,0-.166.5L7.781,29.635a1.3,1.3,0,0,0,0,1.821c.166.331.5.331.828.331a1.265,1.265,0,0,0,.828-.331l8.609-8.443a5.882,5.882,0,0,1,1.656-.331,4.322,4.322,0,0,1,3.311,1.656,1.18,1.18,0,0,0,.993.5.911.911,0,0,0,.828-.331A1.277,1.277,0,0,0,25,22.681,6.735,6.735,0,0,0,20.86,20.2l2.814-2.649a8.7,8.7,0,0,1,4.139,3.146,1.18,1.18,0,0,0,.993.5.911.911,0,0,0,.828-.331,1.277,1.277,0,0,0,.166-1.821,12.491,12.491,0,0,0-4.3-3.477l2.814-2.318a15.834,15.834,0,0,1,4.3,3.808,1.18,1.18,0,0,0,.993.5.911.911,0,0,0,.828-.331A1.484,1.484,0,0,0,34.6,15.4Z"/>
        <circle id="Elipse_21" data-name="Elipse 21" cx="2.483" cy="2.483" r="2.483" transform="translate(17.384 26.158)"/>
      </g>
    </g>
  </g>
</svg>
