<svg xmlns="http://www.w3.org/2000/svg" xmlns:xlink="http://www.w3.org/1999/xlink" width="30" height="30" viewBox="0 0 30 30">
  <defs>
    <clipPath id="clip-path">
      <rect id="Ret칙ngulo_1099" data-name="Ret칙ngulo 1099" width="30" height="30" transform="translate(379 298)" fill="#fff" stroke="#707070" stroke-width="1"/>
    </clipPath>
  </defs>
  <g id="Icone_1" data-name="Icone 1" transform="translate(-379 -298)" style="isolation: isolate">
    <g id="Grupo_de_m치scara_248" data-name="Grupo de m치scara 248" clip-path="url(#clip-path)">
      <path id="icones_olho_nao_visualizar-preenchido" d="M32.782,17.364a24.865,24.865,0,0,0-4.64-5.838l3.742-2.994a1.169,1.169,0,1,0-1.5-1.8L26.2,10.029a13.814,13.814,0,0,0-8.233-2.545c-9.73,0-14.67,9.58-14.819,10.029a.658.658,0,0,0-.15.748A17.747,17.747,0,0,0,7.634,24.7L4.042,27.543a1.173,1.173,0,0,0-.15,1.647,1.067,1.067,0,0,0,.9.449c.3,0,.449-.15.748-.3L9.58,26.2a15.432,15.432,0,0,0,8.383,2.4c11.077,0,14.969-10.179,14.969-10.329A1.9,1.9,0,0,0,32.782,17.364Zm-20.957.6a6.135,6.135,0,0,1,6.137-5.988A5.784,5.784,0,0,1,22,13.622l-1.8,1.347a3.677,3.677,0,0,0-2.245-.748,3.865,3.865,0,0,0-3.892,3.892,5.318,5.318,0,0,0,.3,1.5l-1.8,1.347A7.363,7.363,0,0,1,11.826,17.963Zm8.233,0a2.046,2.046,0,0,1-2.1,2.1.9.9,0,0,1-.6-.15l2.694-1.946Zm-4.191,0a2.046,2.046,0,0,1,2.1-2.1,1.9,1.9,0,0,1,.9.15l-2.994,2.245Zm2.1,6.137a5.985,5.985,0,0,1-3.892-1.5l1.8-1.347a3.437,3.437,0,0,0,2.1.6,3.865,3.865,0,0,0,3.892-3.892,2.82,2.82,0,0,0-.3-1.2l1.8-1.347a5.126,5.126,0,0,1,.6,2.694A6.005,6.005,0,0,1,17.963,24.1Z" transform="translate(376.068 294.948)"/>
    </g>
  </g>
</svg>
