<svg xmlns="http://www.w3.org/2000/svg" xmlns:xlink="http://www.w3.org/1999/xlink" width="30" height="30" viewBox="0 0 30 30">
  <defs>
    <clipPath id="clip-path">
      <rect id="Retângulo_486" data-name="Retângulo 486" width="30" height="30" fill="#fff" stroke="#eee" stroke-width="1"/>
    </clipPath>
  </defs>
  <g id="Icone_1" data-name="Icone 1" transform="translate(-381 -298)" style="isolation: isolate">
    <g id="Icone" transform="translate(20 85)" style="isolation: isolate">
      <g id="Icon" transform="translate(361 213)" style="isolation: isolate">
        <g id="guide">
          <g id="Grupo_de_máscara_198" data-name="Grupo de máscara 198" clip-path="url(#clip-path)">
            <g id="Camada_2" data-name="Camada 2" transform="translate(3.716)">
              <g id="Alerta_cópia_2_cópia" data-name="Alerta cópia 2 cópia">
                <path id="Caminho_746" data-name="Caminho 746" d="M2.2,10.542v.919a6.145,6.145,0,0,1,.06-.919Z"/>
                <path id="Caminho_747" data-name="Caminho 747" d="M2.2,10.542v.919a6.145,6.145,0,0,1,.06-.919Z"/>
                <path id="Caminho_748" data-name="Caminho 748" d="M22.47,24.473a1.054,1.054,0,0,1-.075.377,1.13,1.13,0,0,1-1.054.753H1.13a1.13,1.13,0,0,1-1.054-.753,1.054,1.054,0,0,1,0-.377A1.084,1.084,0,0,1,.09,24.1L.2,23.9l2-3.494V11.461a6.145,6.145,0,0,1,.06-.919,8.434,8.434,0,0,1,7.53-7.53V1.506a1.506,1.506,0,1,1,3.012,0V3.012a8.434,8.434,0,0,1,7.53,7.53h.075v9.8l1.988,3.494.105.2a1.084,1.084,0,0,1-.03.437Z"/>
                <path id="Caminho_749" data-name="Caminho 749" d="M14.925,27.108a2.093,2.093,0,0,1-.151.5,1.175,1.175,0,0,1-.075.211,2.876,2.876,0,0,1-.241.482h0a2.877,2.877,0,0,1-.361.482,2.349,2.349,0,0,1-.527.5,2.786,2.786,0,0,1-.407.286,2.108,2.108,0,0,1-.452.226l-.331.12a1.3,1.3,0,0,1-.346.09H10.467a1.3,1.3,0,0,1-.346-.09l-.331-.12a2.108,2.108,0,0,1-.452-.226,2.786,2.786,0,0,1-.407-.286,2.349,2.349,0,0,1-.527-.5,2.876,2.876,0,0,1-.361-.482h0a2.876,2.876,0,0,1-.241-.482,1.175,1.175,0,0,1,0-.211,2.093,2.093,0,0,1-.271-.5Z"/>
              </g>
            </g>
          </g>
        </g>
      </g>
    </g>
  </g>
</svg>
