<svg xmlns="http://www.w3.org/2000/svg" width="192.889" height="53.177" viewBox="0 0 192.889 53.177"><g transform="translate(-3.321 -4.09)"><circle cx="3.335" cy="3.335" r="3.335" transform="translate(110.787 15.887)" fill="#ef3e33"/><circle cx="3.335" cy="3.335" r="3.335" transform="translate(113.956 8.845)" fill="#ef3e33"/><path d="M42.254,41.5A12.294,12.294,0,1,1,29.958,29.2,12.294,12.294,0,0,1,42.254,41.5ZM30,34.9a6.6,6.6,0,1,0,6.6,6.6A6.6,6.6,0,0,0,30,34.9Z" transform="translate(1.984 3.473)" fill="#ef3e33"/><path d="M127.765,51.275s-.318,2.155,2.675,2.417a2.613,2.613,0,0,0,2.668-2.419V39.808c0-.126.22-.274.291-.156L140.564,52.5a3.043,3.043,0,0,0,2.556,1.145,3.489,3.489,0,0,0,3.586-2.377l.051-.836V31.172c-1.006-2.713-4.406-2.727-5.264-.014V42.447s.017.4-.224.354c-2.331-3.936-4.38-8.079-6.839-12.115a3.7,3.7,0,0,0-6.428.691,2.015,2.015,0,0,0-.293,1.012V51.14" transform="translate(17.205 3.463)" fill="#ef3e33"/><path d="M109.766,50.949V31.1c.2-2.19,2.586-2.139,2.526-2.141a2.889,2.889,0,0,1,2.633,1.26c1.843,2.348,3.439,4.507,5.239,6.939,3.252,4.406,6.09,8.2,9.244,12.74a2.165,2.165,0,0,1-.019,2.064,2.869,2.869,0,0,1-2.589,1.685,1.877,1.877,0,0,1-1.39-.443,46.566,46.566,0,0,1-3.4-4.412s-6.7-.043-6.712.017a27,27,0,0,1-.269,2.825,2.549,2.549,0,0,1-2.4,2c-.1.019.147-.015,0,0a2.652,2.652,0,0,1-2.871-2.667m8.077-7.516c.27-.016.214-.289.122-.411-.923-1.238-1.71-2.359-2.671-3.626-.024,1.244-.065,2.772-.018,4.058a9.629,9.629,0,0,0,1.174,0C116.706,43.421,117.352,43.471,117.842,43.442Z" transform="translate(14.723 3.44)" fill="#ef3e33"/><g transform="translate(177.164 32.438)"><path d="M156.1,51.142s-.32,2.155,2.674,2.418a2.617,2.617,0,0,0,2.669-2.422V39.673c0-.124.217-.273.291-.154l7.166,12.85a3.037,3.037,0,0,0,2.552,1.147,3.488,3.488,0,0,0,3.586-2.379l.052-.836V31.037c-1.006-2.711-4.4-2.727-5.266-.015v11.29s.02.4-.222.353c-2.332-3.935-4.38-8.077-6.839-12.112a3.7,3.7,0,0,0-6.428.688,2.022,2.022,0,0,0-.291,1.013V51.006" transform="translate(-156.041 -28.993)" fill="#ef3e33"/></g><path d="M147.586,31.6v18.84a2.613,2.613,0,0,0,2.773,2.774,2.757,2.757,0,0,0,2.951-2.685" transform="translate(19.954 3.806)" fill="#ef3e33"/><path d="M153.328,50.879V32.04a2.615,2.615,0,0,0-2.775-2.775A2.756,2.756,0,0,0,147.6,31.95" transform="translate(19.957 3.482)" fill="#ef3e33"/><path d="M5.162,32.568A9.265,9.265,0,0,1,10.8,29.422a6.631,6.631,0,0,1,3.64.508c3.252,1.093,5.454,4.84,5.02,8.548a9.214,9.214,0,0,1-3.192,5.638c1.566,3.473,4.5,5.745,4.038,7.466a2.362,2.362,0,0,1-1.7,1.959,2.253,2.253,0,0,1-2.2-.264C13.68,50.955,12.242,47.6,9.946,45.2c-.57-.593-.826-.328-.825-.006.01,2.813.032,4.9-.112,6.279a3.11,3.11,0,0,1-1.4,2.038,2.628,2.628,0,0,1-3.717-1.8c-.047-.291-.423-1.569-.447-7.376-.011-2.877-.238-3.508-.061-8.068A7.585,7.585,0,0,1,5.162,32.568Zm6.247,7.425a2.622,2.622,0,1,0,0-5.227,2.622,2.622,0,1,0,0,5.227Z" transform="translate(0 3.495)" fill="#ef3e33"/><path d="M74.831,25.993a1.9,1.9,0,0,1-1.547.354.892.892,0,0,1-.232-1.491c10.7-5.9,22.442-4.171,29.186.108.155.1.792.75.295,1.3a1.231,1.231,0,0,1-1.4.035C91.567,21.325,82.866,21.619,74.831,25.993Z" transform="translate(9.602 2.347)" fill="#ef3e33"/><path d="M75.247,20.484a30.468,30.468,0,0,1,9.87-2.386,35.193,35.193,0,0,1,8.452.409,30.618,30.618,0,0,1,8.062,2.584,11.694,11.694,0,0,1,2.549,1.446,1.212,1.212,0,0,1,.41,1.458c-.271.931-1.356.847-2.006.471-9.19-5.323-20.236-4.768-29.5-.028-.566.29-1.542.334-1.843-.439-.433-1.111.5-1.851,1.384-2.422.131-.083-.123.075,0,.007A18.57,18.57,0,0,1,75.247,20.484Z" transform="translate(9.379 1.924)" fill="#ef3e33"/><circle cx="3.334" cy="3.334" r="3.334" transform="translate(73.427 8.847)" fill="#ef3e33"/><circle cx="3.335" cy="3.335" r="3.335" transform="translate(76.894 15.887)" fill="#ef3e33"/><circle cx="3.335" cy="3.335" r="3.335" transform="translate(84.993 13.07)" fill="#ef3e33"/><circle cx="3.335" cy="3.335" r="3.335" transform="translate(83.233 5.324)" fill="#ef3e33"/><circle cx="3.336" cy="3.336" r="3.336" transform="translate(93.62 11.661)" fill="#ef3e33"/><circle cx="3.336" cy="3.336" r="3.336" transform="translate(93.62 4.09)" fill="#ef3e33"/><circle cx="3.335" cy="3.335" r="3.335" transform="translate(102.425 12.72)" fill="#ef3e33"/><circle cx="3.335" cy="3.335" r="3.335" transform="translate(104.008 5.324)" fill="#ef3e33"/><path d="M40.705,29.462c1.289.5,1.9,1.522,2.746,2.406,1.46,1.533,2.716,3.084,4.3,4.5a.437.437,0,0,0,.467,0c2.013-2.39,3.624-4.813,6.092-6.745a2.56,2.56,0,0,1,3.958,1.5,2.74,2.74,0,0,1-.561,2.3c-2.348,3.1-4.627,5.655-6.988,8.57-.066,3.213.38,6.466-.072,9.711a2.441,2.441,0,0,1-2.566,1.851A2.678,2.678,0,0,1,45.993,52.4a2.5,2.5,0,0,1-.478-1.215c-.118-3.053-.261-6.1-.253-9.152-3.381-4.313-7.858-8.11-8.042-9.7C37,30.517,38.357,28.553,40.705,29.462Z" transform="translate(4.686 3.465)" fill="#ef3e33"/><path d="M76,47.785V31.744c-.017-4.092-5.639-3.427-5.447-.094V51.614s0,1.664,2,1.509h8.889a2.614,2.614,0,0,0,2.708-2.477,2.792,2.792,0,0,0-2.112-2.664l-5.767-.023a.387.387,0,0,1-.286-.483" transform="translate(9.299 3.433)" fill="#ef3e33"/><path d="M70.021,50.9a2.653,2.653,0,0,1-2.87,2.667c-.143-.01.109.025,0,.006a2.55,2.55,0,0,1-2.4-2,26.823,26.823,0,0,1-.27-2.826c-.007-.058-6.707-.017-6.713-.017a46.264,46.264,0,0,1-3.4,4.411,1.886,1.886,0,0,1-1.391.447A2.889,2.889,0,0,1,50.4,51.9a2.168,2.168,0,0,1-.017-2.064C53.534,45.3,56.371,41.51,59.625,37.1c1.8-2.435,3.4-4.591,5.239-6.94A2.874,2.874,0,0,1,67.494,28.9c-.059,0,2.329-.05,2.528,2.14v19.85M63.334,43.4a10.1,10.1,0,0,0,1.174,0c.047-1.287.006-2.817-.018-4.057-.961,1.265-1.747,2.386-2.67,3.624-.092.122-.147.4.122.411C62.433,43.413,63.078,43.362,63.334,43.4Z" transform="translate(6.473 3.432)" fill="#ef3e33"/><path d="M89.826,39.924a12.244,12.244,0,0,1,7.319-9.647,11.488,11.488,0,0,1,13.49,3.186,2.353,2.353,0,0,1-.163,2.919,2.4,2.4,0,0,1-2.743,1.005c-1.652-.642-2.789-2.12-4.624-2.5a6.557,6.557,0,0,0-7.877,5.4,6.738,6.738,0,0,0,5.26,7.867c2.606.5,4.655-.915,6.8-2.425a2.362,2.362,0,0,1,3.344.921,2.474,2.474,0,0,1,.2,2.417c-1.754,3.1-5.314,4.2-8.6,4.523a11.245,11.245,0,0,1-6.981-1.948A11.873,11.873,0,0,1,89.826,39.924Z" transform="translate(11.951 3.489)" fill="#ef3e33"/><path d="M87.725,30.906" transform="translate(11.674 3.709)" fill="#ed1c24" stroke="#000" stroke-width="0.286"/><path d="M153.328,50.879V32.04a2.615,2.615,0,0,0-2.775-2.775A2.756,2.756,0,0,0,147.6,31.95" transform="translate(19.934 4.8)" fill="#ef3e33"/></g></svg>