<svg xmlns="http://www.w3.org/2000/svg" width="16" height="8.395" viewBox="0 0 16 8.395"><g transform="translate(-208.218 -231.582)"><circle cx="1.131" cy="1.131" r="1.131" transform="translate(220.882 235.581)" fill="#ef3e33"/><circle cx="1.131" cy="1.131" r="1.131" transform="translate(221.957 233.194)" fill="#ef3e33"/><path d="M73.451,22.733a.645.645,0,0,1-.525.12.3.3,0,0,1-.079-.505,10,10,0,0,1,9.894.037c.053.033.269.254.1.442a.418.418,0,0,1-.475.012A8.948,8.948,0,0,0,73.451,22.733Z" transform="translate(138.497 217.07)" fill="#ef3e33"/><path d="M72.526,18.846a10.328,10.328,0,0,1,3.346-.809,11.93,11.93,0,0,1,2.865.138,10.379,10.379,0,0,1,2.733.876,3.967,3.967,0,0,1,.864.49.411.411,0,0,1,.139.5c-.092.316-.46.287-.68.16a10.4,10.4,0,0,0-10-.012c-.192.1-.523.113-.625-.149-.149-.377.17-.627.469-.821.044-.028-.042.025,0,0A6.3,6.3,0,0,1,72.526,18.846Z" transform="translate(139.488 218.946)" fill="#ef3e33"/><circle cx="1.13" cy="1.13" r="1.13" transform="translate(208.218 233.195)" fill="#ef3e33"/><circle cx="1.131" cy="1.131" r="1.131" transform="translate(209.393 235.581)" fill="#ef3e33"/><circle cx="1.131" cy="1.131" r="1.131" transform="translate(212.138 234.626)" fill="#ef3e33"/><circle cx="1.131" cy="1.131" r="1.131" transform="translate(211.542 232)" fill="#ef3e33"/><circle cx="1.131" cy="1.131" r="1.131" transform="translate(215.063 234.148)" fill="#ef3e33"/><circle cx="1.131" cy="1.131" r="1.131" transform="translate(215.063 231.582)" fill="#ef3e33"/><circle cx="1.131" cy="1.131" r="1.131" transform="translate(218.048 234.507)" fill="#ef3e33"/><circle cx="1.131" cy="1.131" r="1.131" transform="translate(218.585 232)" fill="#ef3e33"/></g></svg>