<svg xmlns="http://www.w3.org/2000/svg" xmlns:xlink="http://www.w3.org/1999/xlink" width="30" height="30" viewBox="0 0 30 30">
  <defs>
    <clipPath id="clip-path">
      <rect id="Retângulo_486" data-name="Retângulo 486" width="30" height="30" fill="#fff" stroke="#eee" stroke-width="1"/>
    </clipPath>
  </defs>
  <g id="Icone_1" data-name="Icone 1" transform="translate(-381 -298)" style="isolation: isolate">
    <g id="Icone" transform="translate(20 85)" style="isolation: isolate">
      <g id="Icon" transform="translate(361 213)" style="isolation: isolate">
        <g id="guide">
          <g id="Grupo_de_máscara_217" data-name="Grupo de máscara 217" clip-path="url(#clip-path)">
            <g id="Camada_1" transform="translate(-4.565 -4.728)">
              <g id="cobrança">
                <path id="Caminho_798" data-name="Caminho 798" d="M31.793,7.011h-4.4V6.033a1.3,1.3,0,0,0-2.609,0v.978h-10.6V6.033a1.3,1.3,0,0,0-2.609,0v.978H7.337A2.4,2.4,0,0,0,4.891,9.457V31.793a2.508,2.508,0,0,0,2.446,2.446h9.457a1.316,1.316,0,0,0,0-2.609H7.337v-16.3H31.793v16.3H30.652a1.286,1.286,0,0,0-1.3,1.3,1.2,1.2,0,0,0,1.3,1.3h1.141a2.508,2.508,0,0,0,2.446-2.446V9.457A2.4,2.4,0,0,0,31.793,7.011Zm0,6.033H7.337V9.457h4.4v.978a1.3,1.3,0,1,0,2.609,0V9.457H25.109v.978a1.3,1.3,0,1,0,2.609,0V9.457h4.4v3.587Z"/>
                <path id="Caminho_799" data-name="Caminho 799" d="M26.413,25.435a3.679,3.679,0,0,0-2.772-1.141h0a1.9,1.9,0,0,1-1.141-.326,1.61,1.61,0,0,1-.326-.978,1.461,1.461,0,0,1,1.467-1.467,1.663,1.663,0,0,1,1.3.815,1.335,1.335,0,0,0,1.63.652,1.191,1.191,0,0,0,.652-1.63,4.14,4.14,0,0,0-2.283-2.12v-1.63a1.286,1.286,0,0,0-1.3-1.3,1.2,1.2,0,0,0-1.3,1.3v1.63a3.838,3.838,0,0,0-2.609,3.424,3.587,3.587,0,0,0,.978,2.772,4.115,4.115,0,0,0,2.935,1.141c.652,0,.978.163.978.326a1.961,1.961,0,0,1,.326,1.3,1.461,1.461,0,0,1-1.467,1.467,1.663,1.663,0,0,1-1.3-.815A1.2,1.2,0,0,0,20.054,30a3.855,3.855,0,0,0,2.283,1.957v1.467a1.286,1.286,0,0,0,1.3,1.3,1.2,1.2,0,0,0,1.3-1.3V31.957a3.877,3.877,0,0,0,2.609-3.587C27.391,28.207,27.554,26.576,26.413,25.435Z"/>
              </g>
            </g>
          </g>
        </g>
      </g>
    </g>
  </g>
</svg>
