<svg xmlns="http://www.w3.org/2000/svg" xmlns:xlink="http://www.w3.org/1999/xlink" width="30" height="30" viewBox="0 0 30 30">
  <defs>
    <clipPath id="clip-path">
      <rect id="Ret칙ngulo_486" data-name="Ret칙ngulo 486" width="30" height="30" fill="#fff" stroke="#eee" stroke-width="1"/>
    </clipPath>
  </defs>
  <g id="Icone_1" data-name="Icone 1" transform="translate(-381 -298)" style="isolation: isolate">
    <g id="Icone" transform="translate(20 85)" style="isolation: isolate">
      <g id="Icon" transform="translate(361 213)" style="isolation: isolate">
        <g id="guide">
          <g id="Grupo_de_m치scara_30" data-name="Grupo de m치scara 30" clip-path="url(#clip-path)">
            <g id="Camada_2" data-name="Camada 2" transform="translate(0 0.28)">
              <g id="Camada_17" data-name="Camada 17">
                <path id="Caminho_27" data-name="Caminho 27" d="M27.458,5.658H7.3L6.5,2.812A3.9,3.9,0,0,0,2.778,0H1.27a1.27,1.27,0,1,0,0,2.541H2.778a1.3,1.3,0,0,1,1.27.966c.864,3.083,1.694,6.166,2.388,9.266l1.474,6.234v.271a2.609,2.609,0,0,0,2.541,2H24.918a2.592,2.592,0,0,0,2.524-2l2.49-10.418a2.609,2.609,0,0,0-2.473-3.2ZM24.985,18.735l-14.534-.1L7.961,8.2h19.5Z"/>
                <path id="Caminho_28" data-name="Caminho 28" d="M11.671,25.205a.932.932,0,1,1-.915.932.932.932,0,0,1,.915-.932m0-2.541a3.43,3.43,0,1,0,.085,0Z"/>
                <path id="Caminho_29" data-name="Caminho 29" d="M23.816,25.205a.932.932,0,1,1-.932.932.932.932,0,0,1,.932-.932m0-2.541A3.388,3.388,0,1,0,27.2,26.052a3.473,3.473,0,0,0-3.388-3.388Z"/>
              </g>
            </g>
          </g>
        </g>
      </g>
    </g>
  </g>
</svg>
