<svg xmlns="http://www.w3.org/2000/svg" xmlns:xlink="http://www.w3.org/1999/xlink" width="30" height="30" viewBox="0 0 30 30">
  <defs>
    <clipPath id="clip-path">
      <rect id="Retângulo_1088" data-name="Retângulo 1088" width="30" height="30" transform="translate(564 339)" fill="#fff" stroke="#eee" stroke-width="1"/>
    </clipPath>
  </defs>
  <g id="Icone_1" data-name="Icone 1" transform="translate(-381 -298)" style="isolation: isolate">
    <g id="Grupo_de_máscara_207" data-name="Grupo de máscara 207" transform="translate(-183 -41)" clip-path="url(#clip-path)">
      <g id="Camada_2" data-name="Camada 2" transform="translate(564 342)">
        <g id="Cupom_cópia" data-name="Cupom cópia">
          <path id="Caminho_769" data-name="Caminho 769" d="M25.695,15.18a4.41,4.41,0,0,0,2.055,1.185V21.75H2.25v-5.4a4.5,4.5,0,0,0,2.04-1.185,4.575,4.575,0,0,0,0-6.33A4.5,4.5,0,0,0,2.25,7.65V2.25h25.5V7.635A4.41,4.41,0,0,0,25.7,8.82,4.5,4.5,0,0,0,25.695,15.18Zm2.055-5.115a2.025,2.025,0,0,1,1.095-.315h0A1.14,1.14,0,0,0,30,8.625V2.25A2.25,2.25,0,0,0,27.75,0H2.25A2.25,2.25,0,0,0,0,2.25V8.625A1.14,1.14,0,0,0,1.1,9.75h0a2.1,2.1,0,0,1,1.125.33,2.22,2.22,0,0,1,.435.33,2.265,2.265,0,0,1,0,3.18,2.22,2.22,0,0,1-.435.33,2.1,2.1,0,0,1-1.125.33h0A1.14,1.14,0,0,0,0,15.375V21.75A2.25,2.25,0,0,0,2.25,24h25.5A2.25,2.25,0,0,0,30,21.75V15.375a1.14,1.14,0,0,0-1.125-1.125h0a2.025,2.025,0,0,1-1.1-.315,2.085,2.085,0,0,1-.465-.345,2.235,2.235,0,0,1,0-3.18,2.085,2.085,0,0,1,.435-.345Z"/>
          <path id="Caminho_770" data-name="Caminho 770" d="M25.695,15.18a4.41,4.41,0,0,0,2.055,1.185V21.75H2.25v-5.4a4.5,4.5,0,0,0,2.04-1.185,4.575,4.575,0,0,0,0-6.33A4.5,4.5,0,0,0,2.25,7.65V2.25h25.5V7.635A4.41,4.41,0,0,0,25.7,8.82,4.5,4.5,0,0,0,25.695,15.18Zm2.055-5.115a2.025,2.025,0,0,1,1.095-.315h0A1.14,1.14,0,0,0,30,8.625V2.25A2.25,2.25,0,0,0,27.75,0H2.25A2.25,2.25,0,0,0,0,2.25V8.625A1.14,1.14,0,0,0,1.1,9.75h0a2.1,2.1,0,0,1,1.125.33,2.22,2.22,0,0,1,.435.33,2.265,2.265,0,0,1,0,3.18,2.22,2.22,0,0,1-.435.33,2.1,2.1,0,0,1-1.125.33h0A1.14,1.14,0,0,0,0,15.375V21.75A2.25,2.25,0,0,0,2.25,24h25.5A2.25,2.25,0,0,0,30,21.75V15.375a1.14,1.14,0,0,0-1.125-1.125h0a2.025,2.025,0,0,1-1.1-.315,2.085,2.085,0,0,1-.465-.345,2.235,2.235,0,0,1,0-3.18,2.085,2.085,0,0,1,.435-.345Z"/>
          <path id="Caminho_771" data-name="Caminho 771" d="M25.695,15.18a4.41,4.41,0,0,0,2.055,1.185V21.75H2.25v-5.4a4.5,4.5,0,0,0,2.04-1.185,4.575,4.575,0,0,0,0-6.33A4.5,4.5,0,0,0,2.25,7.65V2.25h25.5V7.635A4.41,4.41,0,0,0,25.7,8.82,4.5,4.5,0,0,0,25.695,15.18Zm2.055-5.115a2.025,2.025,0,0,1,1.095-.315h0A1.14,1.14,0,0,0,30,8.625V2.25A2.25,2.25,0,0,0,27.75,0H2.25A2.25,2.25,0,0,0,0,2.25V8.625A1.14,1.14,0,0,0,1.1,9.75h0a2.1,2.1,0,0,1,1.125.33,2.22,2.22,0,0,1,.435.33,2.265,2.265,0,0,1,0,3.18,2.22,2.22,0,0,1-.435.33,2.1,2.1,0,0,1-1.125.33h0A1.14,1.14,0,0,0,0,15.375V21.75A2.25,2.25,0,0,0,2.25,24h25.5A2.25,2.25,0,0,0,30,21.75V15.375a1.14,1.14,0,0,0-1.125-1.125h0a2.025,2.025,0,0,1-1.1-.315,2.085,2.085,0,0,1-.465-.345,2.235,2.235,0,0,1,0-3.18,2.085,2.085,0,0,1,.435-.345Z"/>
          <path id="Caminho_772" data-name="Caminho 772" d="M25.695,15.18a4.41,4.41,0,0,0,2.055,1.185V21.75H2.25v-5.4a4.5,4.5,0,0,0,2.04-1.185,4.575,4.575,0,0,0,0-6.33A4.5,4.5,0,0,0,2.25,7.65V2.25h25.5V7.635A4.41,4.41,0,0,0,25.7,8.82,4.5,4.5,0,0,0,25.695,15.18Zm2.055-5.115a2.025,2.025,0,0,1,1.095-.315h0A1.14,1.14,0,0,0,30,8.625V2.25A2.25,2.25,0,0,0,27.75,0H2.25A2.25,2.25,0,0,0,0,2.25V8.625A1.14,1.14,0,0,0,1.1,9.75h0a2.1,2.1,0,0,1,1.125.33,2.22,2.22,0,0,1,.435.33,2.265,2.265,0,0,1,0,3.18,2.22,2.22,0,0,1-.435.33,2.1,2.1,0,0,1-1.125.33h0A1.14,1.14,0,0,0,0,15.375V21.75A2.25,2.25,0,0,0,2.25,24h25.5A2.25,2.25,0,0,0,30,21.75V15.375a1.14,1.14,0,0,0-1.125-1.125h0a2.025,2.025,0,0,1-1.1-.315,2.085,2.085,0,0,1-.465-.345,2.235,2.235,0,0,1,0-3.18,2.085,2.085,0,0,1,.435-.345Z"/>
          <path id="Caminho_773" data-name="Caminho 773" d="M10.155,18a1.065,1.065,0,0,1-.795-.33,1.11,1.11,0,0,1,0-1.59l9.69-9.69a1.125,1.125,0,0,1,1.59,0,1.11,1.11,0,0,1,0,1.59l-9.69,9.705a1.11,1.11,0,0,1-.795.315Z"/>
          <path id="Caminho_774" data-name="Caminho 774" d="M18.84,15a.825.825,0,1,1-.825.825A.825.825,0,0,1,18.84,15m0-2.25a3,3,0,1,0,3,3.075A3.075,3.075,0,0,0,18.84,12.75Z"/>
          <path id="Caminho_775" data-name="Caminho 775" d="M11.16,7.335a.825.825,0,1,1-.825.825.825.825,0,0,1,.825-.825m0-2.25A3,3,0,1,0,14.235,8.16a3.075,3.075,0,0,0-3-3.075Z"/>
        </g>
      </g>
    </g>
  </g>
</svg>
