<svg xmlns="http://www.w3.org/2000/svg" viewBox="0 0 17.88 17.88"><g id="Camada_2" data-name="Camada 2"><g id="Ofertas"><path d="M16.75,11c.19-.7,1.13-1.33,1.13-2.09s-.94-1.39-1.13-2.09.3-1.74-.07-2.38-1.5-.72-2-1.25-.61-1.65-1.25-2a1.22,1.22,0,0,0-.63-.14c-.43,0-.91.12-1.34.12A1.84,1.84,0,0,1,11,1.13C10.33.94,9.7,0,8.94,0S7.55.94,6.85,1.13a1.84,1.84,0,0,1-.41.05c-.43,0-.91-.12-1.34-.12a1.2,1.2,0,0,0-.63.14c-.65.37-.72,1.5-1.25,2s-1.65.61-2,1.25.12,1.65-.07,2.38S0,8.18,0,8.94.94,10.33,1.13,11s-.3,1.74.07,2.38,1.5.72,2,1.25.6,1.65,1.25,2a1.2,1.2,0,0,0,.63.14c.43,0,.91-.12,1.34-.12a1.84,1.84,0,0,1,.41.05c.7.19,1.33,1.13,2.09,1.13s1.39-.94,2.09-1.13a1.84,1.84,0,0,1,.41-.05c.43,0,.91.12,1.34.12a1.22,1.22,0,0,0,.63-.14c.64-.37.72-1.5,1.25-2s1.65-.6,2-1.25S16.56,11.76,16.75,11ZM16.1,9.22a4,4,0,0,0-.8,1.43,4.25,4.25,0,0,0,0,1.66,2.91,2.91,0,0,1,0,.31c-.09.05-.21.09-.3.13a4,4,0,0,0-1.41.85A4,4,0,0,0,12.75,15c0,.09-.08.21-.13.3l-.31,0a5.73,5.73,0,0,0-.87-.08,3.22,3.22,0,0,0-.79.1,4,4,0,0,0-1.43.8l-.28.21-.28-.21a4,4,0,0,0-1.43-.8,3.22,3.22,0,0,0-.79-.1,5.61,5.61,0,0,0-.87.08l-.31,0c0-.09-.09-.21-.13-.3a4,4,0,0,0-.85-1.41,4,4,0,0,0-1.41-.85c-.09,0-.21-.08-.3-.13s0-.22,0-.31a4.23,4.23,0,0,0,0-1.66,4,4,0,0,0-.8-1.43l-.21-.28.21-.28a4,4,0,0,0,.8-1.43,4.23,4.23,0,0,0,0-1.66c0-.09,0-.21,0-.31s.21-.09.3-.13a4,4,0,0,0,1.41-.85,4,4,0,0,0,.85-1.41c0-.09.08-.21.13-.3l.31,0a5.61,5.61,0,0,0,.87.08,3.22,3.22,0,0,0,.79-.1,4,4,0,0,0,1.43-.8l.28-.21.28.21a4,4,0,0,0,1.43.8,3.22,3.22,0,0,0,.79.1,5.73,5.73,0,0,0,.87-.08l.31,0c.05.09.09.21.13.3a4,4,0,0,0,.85,1.41A4,4,0,0,0,15,5.13c.09,0,.21.08.3.13a2.91,2.91,0,0,1,0,.31,4.25,4.25,0,0,0,0,1.66,4,4,0,0,0,.8,1.43l.21.28Z"/><path d="M6.52,4.31a2,2,0,1,0,2.05,2A2,2,0,0,0,6.52,4.31Zm0,2.59a.55.55,0,1,1,.55-.55A.55.55,0,0,1,6.52,6.9Z"/><path d="M12.84,6.24,6.37,12.7a.75.75,0,0,1-1.06,0,.75.75,0,0,1,0-1.06l6.47-6.46a.74.74,0,0,1,1.06,0A.75.75,0,0,1,12.84,6.24Z"/><path d="M11.63,9.42a2,2,0,1,0,2,2.05A2.05,2.05,0,0,0,11.63,9.42Zm0,2.6a.55.55,0,1,1,.55-.55A.55.55,0,0,1,11.63,12Z"/></g></g></svg>