<svg xmlns="http://www.w3.org/2000/svg" xmlns:xlink="http://www.w3.org/1999/xlink" width="30" height="30" viewBox="0 0 30 30">
  <defs>
    <clipPath id="clip-path">
      <rect id="Ret칙ngulo_486" data-name="Ret칙ngulo 486" width="30" height="30" fill="#fff" stroke="#eee" stroke-width="1"/>
    </clipPath>
  </defs>
  <g id="Icone" transform="translate(-361 -213)" style="isolation: isolate">
    <g id="Icon" transform="translate(361 213)" style="isolation: isolate">
      <g id="guide">
        <g id="Grupo_de_m치scara_271" data-name="Grupo de m치scara 271" clip-path="url(#clip-path)">
          <g id="Camada_2" data-name="Camada 2" transform="translate(0.002 0.819)">
            <g id="Camada_74" data-name="Camada 74">
              <path id="Caminho_991" data-name="Caminho 991" d="M21.663,2.65a5.449,5.449,0,0,1,4.166,1.916,7.6,7.6,0,0,1,1.666,5,9.532,9.532,0,0,1-2.416,6.066A64.472,64.472,0,0,1,17.9,22.763L15,25.446l-2.933-2.683A64.173,64.173,0,0,1,4.9,15.647,9.5,9.5,0,0,1,2.5,9.582a7.682,7.682,0,0,1,1.666-5A5.5,5.5,0,0,1,8.332,2.65a4.816,4.816,0,0,1,3.333,1.183A7.615,7.615,0,0,1,13.081,5.4l.667.983a1.666,1.666,0,0,0,2.7,0L17.13,5.4a7.165,7.165,0,0,1,1.416-1.566A4.783,4.783,0,0,1,21.663,2.65m0-2.65a7.265,7.265,0,0,0-4.716,1.666A9.415,9.415,0,0,0,15,3.849a9.765,9.765,0,0,0-1.883-2.183A7.265,7.265,0,0,0,8.332,0,7.832,7.832,0,0,0,2.383,2.783,10.332,10.332,0,0,0,0,9.582a12.248,12.248,0,0,0,2.983,7.765,66.456,66.456,0,0,0,7.449,7.432c1.033.933,2.216,1.983,3.433,3.116a1.666,1.666,0,0,0,2.316,0c1.216-1.133,2.383-2.183,3.333-3.116a65.357,65.357,0,0,0,7.465-7.432,12.248,12.248,0,0,0,3.016-7.765,10.332,10.332,0,0,0-2.333-6.8A7.882,7.882,0,0,0,21.663,0Z"/>
            </g>
          </g>
        </g>
      </g>
    </g>
  </g>
</svg>
