<svg xmlns="http://www.w3.org/2000/svg" xmlns:xlink="http://www.w3.org/1999/xlink" width="30" height="30" viewBox="0 0 30 30">
  <defs>
    <clipPath id="clip-path">
      <rect id="Ret칙ngulo_541" data-name="Ret칙ngulo 541" width="30" height="30" transform="translate(381 298)" fill="#fff" stroke="#707070" stroke-width="1"/>
    </clipPath>
  </defs>
  <g id="Icone_1" data-name="Icone 1" transform="translate(-381 -298)" style="isolation: isolate">
    <g id="Grupo_de_m치scara_176" data-name="Grupo de m치scara 176" clip-path="url(#clip-path)">
      <g id="keylines" transform="translate(377.277 294.311)">
        <path id="Caminho_653" data-name="Caminho 653" d="M6.685,20.755a5,5,0,0,1-1.293-.109,2.119,2.119,0,0,1-1.558-1.558,2.072,2.072,0,0,1,.53-2.166c1.652-1.652,3.428-3.288,5.126-4.939L16.065,5.75a3.693,3.693,0,0,1,5.267,0C25.2,9.4,29.122,13.089,32.924,16.735a2.306,2.306,0,0,1,.234,3.257,2.088,2.088,0,0,1-1.558.732h-.873V31.631a1,1,0,0,1-1.122,1.091H7.791a1,1,0,0,1-1.137-1.137V20.677Zm21.487,9.661V19.9a.935.935,0,0,1,1-1.013h1.558c.125,0,.234-.109.343-.156a1.06,1.06,0,0,0-.156-.327L29.449,17l-9.52-9.115a1.558,1.558,0,0,0-2.446,0l-.764.748L6.56,18.418s-.156.234-.125.3a.405.405,0,0,0,.3.156H8.149A.966.966,0,0,1,9.24,19.96V30.4h4.784V25.6a5.235,5.235,0,0,1,.125-1.106A4.7,4.7,0,1,1,23.5,25.538V30.4Zm-7.09,0a.265.265,0,0,0,0-.078v-4.6a2.462,2.462,0,0,0-3.116-2.54,2.758,2.758,0,0,0-1.745,2.649v4.565Z"/>
      </g>
    </g>
  </g>
</svg>
