<svg xmlns="http://www.w3.org/2000/svg" xmlns:xlink="http://www.w3.org/1999/xlink" width="30" height="30" viewBox="0 0 30 30">
  <defs>
    <clipPath id="clip-path">
      <rect id="Ret칙ngulo_1087" data-name="Ret칙ngulo 1087" width="30" height="30" transform="translate(300 47)" fill="#fff" stroke="#707070" stroke-width="1"/>
    </clipPath>
  </defs>
  <g id="Grupo_de_m치scara_206" data-name="Grupo de m치scara 206" transform="translate(-300 -47)" clip-path="url(#clip-path)">
    <g id="Camada_2" data-name="Camada 2" transform="translate(300 47)">
      <g id="Camada_49" data-name="Camada 49">
        <path id="Caminho_767" data-name="Caminho 767" d="M29.25,8.917,27.183,1.8a2.483,2.483,0,0,0-2.4-1.8H5.217a2.483,2.483,0,0,0-2.4,1.8L.75,8.917,0,11.467H0A4.567,4.567,0,0,0,1.667,15V27.5a2.5,2.5,0,0,0,2.5,2.5H25.833a2.5,2.5,0,0,0,2.5-2.5V15A4.567,4.567,0,0,0,30,11.467h0Zm-1.75,2.55h0a2.117,2.117,0,0,1-1.667,2.067,1.5,1.5,0,0,1-.467,0h-.133a2.117,2.117,0,0,1-2.1-1.85h0a.5.5,0,0,1,0-.217H27.5ZM3.967,6.817,5.217,2.5H24.783l1.25,4.317.633,2.15H3.333Zm16.667,4.65h0a.183.183,0,0,1,0,.117v.1A2.1,2.1,0,0,1,18.5,13.667h-.167a2.1,2.1,0,0,1-2.067-1.917.5.5,0,0,1,0-.217h0Zm-6.867,0h0a.5.5,0,0,1,0,.217,2.1,2.1,0,0,1-2.1,1.983H11.5A2.1,2.1,0,0,1,9.4,11.75a.5.5,0,0,1,0-.217h0Zm-11.267,0H6.9a.5.5,0,0,1,0,.217,2.1,2.1,0,0,1-2.133,1.983H4.633a1.5,1.5,0,0,1-.467,0A2.117,2.117,0,0,1,2.5,11.6ZM10.833,27.5h-2.1V20.4h2.1Zm15,0h-12.5V20.4a2.5,2.5,0,0,0-2.5-2.5h-2.1a2.5,2.5,0,0,0-2.5,2.5v7.1H4.167V16.15h.6A4.633,4.633,0,0,0,8.1,14.683a4.583,4.583,0,0,0,3.333,1.467h.233A4.533,4.533,0,0,0,15,14.667a4.533,4.533,0,0,0,3.333,1.483h.133A4.65,4.65,0,0,0,21.8,14.683a4.567,4.567,0,0,0,3.333,1.467h.6Z"/>
        <path id="Caminho_768" data-name="Caminho 768" d="M20.867,17.9H18.033a2.5,2.5,0,0,0-2.5,2.5v2.533a2.5,2.5,0,0,0,2.5,2.5h2.833a2.5,2.5,0,0,0,2.5-2.5V20.4A2.5,2.5,0,0,0,20.867,17.9Zm0,5H18.033V20.4h2.833Z"/>
      </g>
    </g>
  </g>
</svg>
