<svg xmlns="http://www.w3.org/2000/svg" xmlns:xlink="http://www.w3.org/1999/xlink" width="30" height="30" viewBox="0 0 30 30">
  <defs>
    <clipPath id="clip-path">
      <rect id="Ret칙ngulo_486" data-name="Ret칙ngulo 486" width="30" height="30" fill="#fff" stroke="#eee" stroke-width="1"/>
    </clipPath>
  </defs>
  <g id="Icone_1" data-name="Icone 1" transform="translate(-381 -298)" style="isolation: isolate">
    <g id="Icone" transform="translate(20 85)" style="isolation: isolate">
      <g id="Icon" transform="translate(361 213)" style="isolation: isolate">
        <g id="guide">
          <g id="Grupo_de_m치scara_224" data-name="Grupo de m치scara 224" clip-path="url(#clip-path)">
            <g id="Camada_1" transform="translate(-5.021 -5.085)">
              <g id="Camada_17">
                <g id="Grupo_1945" data-name="Grupo 1945">
                  <path id="Caminho_813" data-name="Caminho 813" d="M34.576,32.881l-7.119-6.949A12.7,12.7,0,0,0,30.508,17.8,12.8,12.8,0,0,0,17.8,5.085,12.659,12.659,0,0,0,5.085,17.627a12.8,12.8,0,0,0,20.678,10l7.119,7.119a1.229,1.229,0,0,0,1.695,0A1.33,1.33,0,0,0,34.576,32.881ZM17.8,27.8A10.169,10.169,0,1,1,27.966,17.627,10.2,10.2,0,0,1,17.8,27.8Z"/>
                  <path id="Caminho_814" data-name="Caminho 814" d="M21.525,16.441H14.068A1.337,1.337,0,0,0,12.712,17.8a1.247,1.247,0,0,0,1.356,1.356h7.458a1.356,1.356,0,1,0,0-2.712Z"/>
                </g>
              </g>
            </g>
          </g>
        </g>
      </g>
    </g>
  </g>
</svg>
