<svg xmlns="http://www.w3.org/2000/svg" width="128.092" height="24.088" viewBox="0 0 128.092 24.088"><g transform="translate(0 -0.02)"><path d="M523.41,24.534a4.324,4.324,0,0,0-1.667-1.126,5.645,5.645,0,0,0-1.974-.348,4.811,4.811,0,0,0-2.408.542,5.272,5.272,0,0,0-1.4,1.07,1.439,1.439,0,0,0-.81-1.028,3.446,3.446,0,0,0-1.57-.306,14.9,14.9,0,0,0-1.709.191s.383,4.347.383,8.324c0,3.381-.123,9.916-.123,9.916s1.331-.536,2.023-.835a4.658,4.658,0,0,0,1.6-1.047,3.15,3.15,0,0,0,.406-2.073l-.036-2.106a2.117,2.117,0,0,0,.258.274,2.645,2.645,0,0,0,.643.444,5.6,5.6,0,0,0,1.02.406,4.942,4.942,0,0,0,1.415.18,6.126,6.126,0,0,0,1.947-.333A4.464,4.464,0,0,0,523.2,35.53a6.06,6.06,0,0,0,1.3-2.223,10.7,10.7,0,0,0,.505-3.574,9.878,9.878,0,0,0-.435-3.141,5.611,5.611,0,0,0-1.162-2.058Zm-3.053,8.4a2.284,2.284,0,0,1-2.106,1.11,2.791,2.791,0,0,1-1.34-.3,4.221,4.221,0,0,1-.8-.561c-.044-2,.078-5.1.105-5.5a2.068,2.068,0,0,1,.429-1.275,2.22,2.22,0,0,1,1.6-.505,2.784,2.784,0,0,1,1.315.293,2.234,2.234,0,0,1,.869.819,3.772,3.772,0,0,1,.471,1.252,8.157,8.157,0,0,1,.14,1.556A6.07,6.07,0,0,1,520.356,32.93Z" transform="translate(-419.889 -18.629)" fill="#ff6900"/><path d="M11.678,22.51C10.349,21.5,8.668,21,5.772,21c-.75,0-1.455.025-2.381.073s-2.5.119-3.39.22a19.3,19.3,0,0,1,.258,2.659c.071,1.777.142,4.3.142,7.114,0,2.916-.077,5.517-.149,7.3A16.366,16.366,0,0,1,0,40.785H5.15a16.366,16.366,0,0,1-.243-2.416c-.05-1.2-.1-2.762-.121-4.543h1.26a13.172,13.172,0,0,0,3.086-.354,6.3,6.3,0,0,0,2.4-1.131,5.776,5.776,0,0,0,1.763-2.152,7.288,7.288,0,0,0,.651-3.228A5.412,5.412,0,0,0,11.678,22.51Zm-3.3,7.466a4.957,4.957,0,0,1-2.8.8H4.757c0-2.669.073-5.058.138-6.771.255-.025.871-.078,1.34-.078a3.693,3.693,0,0,1,2.211.733,3.136,3.136,0,0,1,1.206,2.55,3.231,3.231,0,0,1-1.275,2.772Z" transform="translate(0 -16.964)" fill="#ff6900"/><path d="M86.758,52.453c0-.268-.013-1.093-1.263-1.359a2.5,2.5,0,0,0-2.188.563,4.5,4.5,0,0,0-1,1.149,1.775,1.775,0,0,0-.861-1.2,3.09,3.09,0,0,0-1.608-.272A12.132,12.132,0,0,0,78,51.643s.08.523.191,2.161c.082,1.258.09,4.694.09,4.694s.033,2.447-.082,4.325c-.119,1.926-.18,2.24-.18,2.24h4.705s-.13-.712-.234-2.207-.088-2.519-.088-4.361,0-2.785.574-3.463a1.612,1.612,0,0,1,2.006-.431,2.274,2.274,0,0,1,.752.5,7.274,7.274,0,0,0,.6-1.076,4.742,4.742,0,0,0,.425-1.572Z" transform="translate(-63.068 -43.39)" fill="#ff6900"/><path d="M135.338,53.088a6.579,6.579,0,0,0-5.048-1.97,8.411,8.411,0,0,0-2.548.4,6.256,6.256,0,0,0-2.23,1.265,6.585,6.585,0,0,0-1.723,2.173,7.642,7.642,0,0,0-.632,3.147,8.557,8.557,0,0,0,.708,3.637,6.518,6.518,0,0,0,1.884,2.316,6.3,6.3,0,0,0,2.456,1.208,11.559,11.559,0,0,0,2.808.345,10.157,10.157,0,0,0,2.745-.329,5.783,5.783,0,0,0,1.811-.789,1.442,1.442,0,0,0,.766-1.149,2.356,2.356,0,0,0-.4-1.106,7.756,7.756,0,0,0-.766-1.108c-.182.153-.383.322-.607.5a4.265,4.265,0,0,1-.789.5,5.5,5.5,0,0,1-1.032.383,5.069,5.069,0,0,1-1.34.159,3.617,3.617,0,0,1-2.883-1.051,3.794,3.794,0,0,1-1.032-2.412L136.55,59a12.163,12.163,0,0,0,.18-1.765A5.371,5.371,0,0,0,135.338,53.088Zm-7.87,3.976a3.7,3.7,0,0,1,.71-2.422,2.647,2.647,0,0,1,2.031-.905,2.477,2.477,0,0,1,2.134.969,3.7,3.7,0,0,1,.523,2.138Z" transform="translate(-101.031 -43.513)" fill="#ff6900"/><path d="M361.418,53.088a6.571,6.571,0,0,0-5.046-1.97,8.423,8.423,0,0,0-2.55.4,6.273,6.273,0,0,0-2.23,1.265,6.581,6.581,0,0,0-1.723,2.173,7.642,7.642,0,0,0-.632,3.147,8.588,8.588,0,0,0,.706,3.637,6.559,6.559,0,0,0,1.884,2.316,6.318,6.318,0,0,0,2.458,1.208,11.532,11.532,0,0,0,2.806.345,10.171,10.171,0,0,0,2.747-.329,5.8,5.8,0,0,0,1.805-.793,1.43,1.43,0,0,0,.766-1.149,2.372,2.372,0,0,0-.394-1.106,8.081,8.081,0,0,0-.766-1.108c-.191.153-.383.322-.607.5a4.347,4.347,0,0,1-.791.5,5.5,5.5,0,0,1-1.032.383,5.059,5.059,0,0,1-1.34.159,3.617,3.617,0,0,1-2.883-1.051,3.794,3.794,0,0,1-1.032-2.412l9.061-.22a12.292,12.292,0,0,0,.178-1.765A5.344,5.344,0,0,0,361.418,53.088Zm-7.87,3.976a3.71,3.71,0,0,1,.71-2.422,2.648,2.648,0,0,1,2.016-.905,2.477,2.477,0,0,1,2.134.969,3.7,3.7,0,0,1,.525,2.138Z" transform="translate(-286.494 -43.513)" fill="#ff6900"/><path d="M221.68,59.011s.021-3,.021-3.517a4.42,4.42,0,0,0-1.267-3.432,5.139,5.139,0,0,0-3.18-.942,4.812,4.812,0,0,0-4.037,1.866,3.136,3.136,0,0,0-1.173-1.29,4.4,4.4,0,0,0-2.42-.574,4.018,4.018,0,0,0-2.286.525,4.472,4.472,0,0,0-1.461,1.231c-.333-1.187-1.11-1.509-2.458-1.468a9.807,9.807,0,0,0-1.849.3s.105,1.1.191,2.18c.092,1.191.115,3.375.088,5.044s-.057,3-.082,3.967-.18,2.228-.18,2.228h4.7a21.5,21.5,0,0,1-.234-2.213c-.034-.971-.078-3.911-.078-3.911s0-1.066.042-2.309.726-2.186,1.8-2.186c1.233,0,1.939.561,1.939,1.411l.029,3.084s-.01,2.692-.08,3.894-.182,2.228-.182,2.228h4.732s-.214-1.353-.255-2.265c-.056-1.309-.05-3.775-.05-3.775V57.177c.031-1.5.509-2.665,1.817-2.665.938,0,1.732.467,1.732,1.422,0,0,.034,1.587.034,3.08s-.04,2.78-.069,3.882a20.582,20.582,0,0,1-.191,2.24H222s-.176-1.034-.249-2.238C221.709,62.106,221.68,59.849,221.68,59.011Z" transform="translate(-165.498 -43.461)" fill="#ff6900"/><path d="M321.418,60.168c0-1.26.253-5.31.253-5.31a2.546,2.546,0,0,0-.2-1.166,2.608,2.608,0,0,0-2.515-1.133,13.675,13.675,0,0,0-1.914.3,20.182,20.182,0,0,1,.191,2.205c.036,1.183.09,2.188.09,5.1,0,1.8-.1,3.875-.1,3.875-.082,1.195.2,1.744.678,2.06a4.109,4.109,0,0,0,2.066.383c.308,0,1.709-.077,1.786-.115,0,0-.157-1.066-.251-2.244C321.407,63.007,321.418,62.261,321.418,60.168Z" transform="translate(-259.829 -44.669)" fill="#ff6900"/><path d="M667.913,17.855a9.464,9.464,0,0,0-.643-1.057c-.056.056-.149.14-.279.251a2.681,2.681,0,0,1-.49.32,5.15,5.15,0,0,1-.645.278,2.17,2.17,0,0,1-.743.126c-1.064,0-1.489-.622-1.6-1.947,0,0-.094-1.173-.094-3.2a22.792,22.792,0,0,1,.1-2.7s1.618.034,2.4-.057c.988-.115,1.087-2.835,1.087-2.835h-3.492V5.094a2.44,2.44,0,0,0-.224-1.126,1.846,1.846,0,0,0-.588-.682,2.106,2.106,0,0,0-.812-.333,6.042,6.042,0,0,0-1-.084,4.377,4.377,0,0,0-.448.015c-.149.015-.289.023-.419.04l-.792.063a28.855,28.855,0,0,1,.283,4.053s-.894-.029-.894.123a11.9,11.9,0,0,0,.551,2.68c.046.119.343.092.343.092s.088,1.17.088,2.7v3.254q0,.611.056,1.223a4.894,4.894,0,0,0,.253,1.168,3.583,3.583,0,0,0,1.34,1.752,4.717,4.717,0,0,0,2.716.666,7.105,7.105,0,0,0,1.652-.18,5.2,5.2,0,0,0,1.3-.477,3.512,3.512,0,0,0,.921-.639,1.1,1.1,0,0,0,.293-.708A1.865,1.865,0,0,0,667.913,17.855Z" transform="translate(-540.054 -2.305)" fill="#ff6900"/><path d="M317.609,30.034a2.778,2.778,0,0,0,1.8.138,2.665,2.665,0,0,0,1.508-.907,1.811,1.811,0,0,0,.417-1.679,1.786,1.786,0,0,0-1.074-1.3,2.871,2.871,0,0,0-1.813-.123,2.789,2.789,0,0,0-1.545.94,1.926,1.926,0,0,0,.7,2.935Z" transform="translate(-259.379 -21.061)" fill="#ff6900"/><path d="M688.838,3.1a1.758,1.758,0,0,1-.348-.574,2.024,2.024,0,0,1-.121-.7,1.926,1.926,0,0,1,.121-.7,1.671,1.671,0,0,1,.356-.574,1.7,1.7,0,0,1,.574-.383,2.052,2.052,0,0,1,1.509,0,1.675,1.675,0,0,1,.563.383,1.7,1.7,0,0,1,.354.574,1.926,1.926,0,0,1,.124.7,1.942,1.942,0,0,1-.124.7,1.677,1.677,0,0,1-.921.969,1.893,1.893,0,0,1-.754.144,1.914,1.914,0,0,1-.766-.144,1.7,1.7,0,0,1-.567-.392Zm.7.119a1.516,1.516,0,0,0,.626.124,1.48,1.48,0,0,0,.618-.126,1.41,1.41,0,0,0,.459-.335,1.442,1.442,0,0,0,.283-.484,1.707,1.707,0,0,0,.1-.574,1.687,1.687,0,0,0-.1-.574,1.424,1.424,0,0,0-.283-.481,1.353,1.353,0,0,0-.459-.331,1.51,1.51,0,0,0-.626-.124,1.476,1.476,0,0,0-.62.124,1.339,1.339,0,0,0-.457.333,1.427,1.427,0,0,0-.285.48,1.687,1.687,0,0,0-.1.574,1.631,1.631,0,0,0,.213.831,1.38,1.38,0,0,0,.628.563ZM689.5.726q.151-.017.327-.023h.283a1.03,1.03,0,0,1,.685.191.589.589,0,0,1,.207.461.678.678,0,0,1-.042.245.665.665,0,0,1-.113.191.668.668,0,0,1-.167.134.642.642,0,0,1-.191.075h.011l.557.881a.341.341,0,0,1-.1.036.43.43,0,0,1-.094.011.365.365,0,0,1-.155-.034.314.314,0,0,1-.126-.121l-.459-.727h-.281v.84H689.5Zm.682,1c.31,0,.465-.128.465-.383a.3.3,0,0,0-.123-.258.681.681,0,0,0-.4-.088h-.168a.478.478,0,0,0-.13.011h.011v.714Z" transform="translate(-564.1 0)" fill="#ff6900"/><path d="M599.023,24.834a6.436,6.436,0,0,0-4.876-1.914,8.155,8.155,0,0,0-2.464.383,6.055,6.055,0,0,0-2.156,1.223,6.378,6.378,0,0,0-1.658,2.106,7.407,7.407,0,0,0-.611,3.044,8.32,8.32,0,0,0,.683,3.517,6.318,6.318,0,0,0,1.821,2.24,6.143,6.143,0,0,0,2.374,1.168,11.161,11.161,0,0,0,2.713.333,9.817,9.817,0,0,0,2.653-.32,5.635,5.635,0,0,0,1.746-.766,1.384,1.384,0,0,0,.733-1.11,2.307,2.307,0,0,0-.383-1.072,7.931,7.931,0,0,0-.733-1.07c-.176.149-.371.312-.588.486a4.1,4.1,0,0,1-.766.488,5.5,5.5,0,0,1-1,.383,4.924,4.924,0,0,1-1.29.151,3.482,3.482,0,0,1-2.785-1.015,3.67,3.67,0,0,1-1-2.332l8.754-.211a11.759,11.759,0,0,0,.174-1.706A5.2,5.2,0,0,0,599.023,24.834Zm-7.6,3.844a3.569,3.569,0,0,1,.685-2.337,2.557,2.557,0,0,1,1.955-.877,2.423,2.423,0,0,1,2.062.936,3.554,3.554,0,0,1,.507,2.066Z" transform="translate(-482.344 -18.516)" fill="#ff6900"/><path d="M441.959,40.025c-.613-.733-1.47-1.784-2.188-2.72s-1.732-2.59-1.732-2.59l-1.057-1.7a7.145,7.145,0,0,0,1.1-.676,5.8,5.8,0,0,0,1.769-2.152,7.271,7.271,0,0,0,.649-3.228,5.422,5.422,0,0,0-2.261-4.447c-1.331-1-3.013-1.514-5.911-1.514-.749,0-1.455.025-2.381.073s-2.5.123-3.388.22a19.686,19.686,0,0,1,.258,2.659c.069,1.777.142,4.3.142,7.114,0,2.916-.078,5.517-.149,7.3a16.359,16.359,0,0,1-.243,2.416h5.14a16.368,16.368,0,0,1-.243-2.416c-.048-1.2-.1-2.762-.126-4.541h1.352l3.13,5.286a4.3,4.3,0,0,0,1.34,1.5,3.294,3.294,0,0,0,1.8.459,11.24,11.24,0,0,0,3.358-.63S442.076,40.166,441.959,40.025Zm-10.644-9.239c0-2.669.073-5.058.14-6.771.255-.025.871-.078,1.34-.078a3.7,3.7,0,0,1,2.213.733,3.134,3.134,0,0,1,1.208,2.55,3.23,3.23,0,0,1-1.275,2.764,4.948,4.948,0,0,1-2.8.8Z" transform="translate(-350.018 -16.964)" fill="#ff6900"/></g></svg>