<svg xmlns="http://www.w3.org/2000/svg" width="32" height="32" viewBox="0 0 32 32"><g transform="translate(-1222 -235.4)"><g transform="translate(1222 235)"><rect width="32" height="32" rx="8" transform="translate(0 0.4)" fill="#ff6900"/><path d="M7.641,21.988A5.972,5.972,0,0,0,3.776,21c-.491,0-.952.016-1.558.048S.58,21.125,0,21.192a12.628,12.628,0,0,1,.169,1.74c.046,1.162.093,2.813.093,4.654,0,1.908-.05,3.61-.1,4.778A10.708,10.708,0,0,1,0,33.945H3.369a10.708,10.708,0,0,1-.159-1.581c-.033-.783-.065-1.807-.079-2.972h.824a8.619,8.619,0,0,0,2.019-.232,4.121,4.121,0,0,0,1.568-.74A3.779,3.779,0,0,0,8.7,27.012,4.768,4.768,0,0,0,9.122,24.9,3.541,3.541,0,0,0,7.641,21.988ZM5.48,26.873a3.243,3.243,0,0,1-1.831.525H3.113c0-1.746.048-3.309.09-4.43.167-.016.57-.051.877-.051a2.416,2.416,0,0,1,1.447.48,2.052,2.052,0,0,1,.789,1.668,2.114,2.114,0,0,1-.834,1.814Z" transform="translate(12.542 -12.934)" fill="#fff"/></g><path d="M13,27a13.077,13.077,0,0,1-9.192-3.714A12.444,12.444,0,0,1,0,14.318c0-.118,0-.244.006-.409H0V0H3.336V13.5H3.39c-.024.267-.036.542-.036.818A9.54,9.54,0,0,0,13,23.728a9.541,9.541,0,0,0,9.646-9.41c0-.272-.012-.547-.036-.818h.044V0H26V13.91h-.006c0,.141.006.275.006.409a12.444,12.444,0,0,1-3.808,8.968A13.079,13.079,0,0,1,13,27Z" transform="translate(1225 238.4)" fill="#fff"/><line x2="5.4" transform="translate(1224.492 239.569)" fill="none" stroke="#ff6900" stroke-width="1"/><line x2="5.4" transform="translate(1224.492 242.892)" fill="none" stroke="#ff6900" stroke-width="1"/><line x2="5.4" transform="translate(1246.923 239.569)" fill="none" stroke="#ff6900" stroke-width="1"/><line x2="5.4" transform="translate(1246.923 242.892)" fill="none" stroke="#ff6900" stroke-width="1"/><line x2="5.4" transform="translate(1246.923 241.231)" fill="none" stroke="#ff6900" stroke-width="1"/><line x2="5.4" transform="translate(1224.492 241.231)" fill="none" stroke="#ff6900" stroke-width="1"/></g></svg>