<svg xmlns="http://www.w3.org/2000/svg" width="16.084" height="8.439" viewBox="0 0 16.084 8.439"><g transform="translate(-208.218 -231.582)"><circle cx="1.137" cy="1.137" r="1.137" transform="translate(220.949 235.602)"/><circle cx="1.137" cy="1.137" r="1.137" transform="translate(222.029 233.202)"/><path d="M73.455,22.742a.648.648,0,0,1-.527.121.3.3,0,0,1-.079-.508,10.056,10.056,0,0,1,9.946.037c.053.033.27.256.1.445a.42.42,0,0,1-.478.012A9,9,0,0,0,73.455,22.742Z" transform="translate(138.513 217.104)"/><path d="M72.534,18.851a10.383,10.383,0,0,1,3.364-.813,11.993,11.993,0,0,1,2.88.139,10.434,10.434,0,0,1,2.747.881,3.988,3.988,0,0,1,.868.492.413.413,0,0,1,.14.5c-.092.318-.462.289-.683.161A10.459,10.459,0,0,0,71.8,20.2c-.193.1-.525.114-.628-.15-.15-.379.171-.631.472-.825.044-.028-.042.025,0,0A6.331,6.331,0,0,1,72.534,18.851Z" transform="translate(139.501 218.974)"/><circle cx="1.136" cy="1.136" r="1.136" transform="translate(208.218 233.203)"/><circle cx="1.137" cy="1.137" r="1.137" transform="translate(209.399 235.602)"/><circle cx="1.137" cy="1.137" r="1.137" transform="translate(212.159 234.642)"/><circle cx="1.137" cy="1.137" r="1.137" transform="translate(211.559 232.002)"/><circle cx="1.137" cy="1.137" r="1.137" transform="translate(215.099 234.162)"/><circle cx="1.137" cy="1.137" r="1.137" transform="translate(215.099 231.582)"/><circle cx="1.137" cy="1.137" r="1.137" transform="translate(218.1 234.522)"/><circle cx="1.137" cy="1.137" r="1.137" transform="translate(218.639 232.002)"/></g></svg>